<?xml version="1.0" standalone="no"?>
<!DOCTYPE svg PUBLIC "-//W3C//DTD SVG 1.1//EN" "http://www.w3.org/Graphics/SVG/1.1/DTD/svg11.dtd" >
<svg xmlns="http://www.w3.org/2000/svg" xmlns:xlink="http://www.w3.org/1999/xlink" version="1.1">
<metadata>
Created by FontForge 20190801 at Wed Sep 20 00:00:03 2017
 By Jimmy Wärting
Copyright 2015 Google Inc. All Rights Reserved.
</metadata>
<defs>
<font id="NotoSansDisplay-SemiBold" horiz-adv-x="0" >
  <font-face 
    font-family="Noto Sans Disp SemBd"
    font-weight="600"
    font-stretch="normal"
    units-per-em="1000"
    panose-1="2 11 7 2 4 5 4 2 2 4"
    ascent="800"
    descent="-200"
    x-height="542"
    cap-height="714"
    bbox="-627 -389 2744 1070"
    underline-thickness="50"
    underline-position="-125"
    unicode-range="U+000D-FFFD"
  />
<missing-glyph horiz-adv-x="558" 
d="M86 0v714h386v-714h-386zM134 51h290v612h-290v-612z" />
    <glyph glyph-name="f_f" unicode="ff" horiz-adv-x="714" 
d="M349 447h-120v-447h-133v447h-78v60l79 36v37q0 104 44.5 144.5t129.5 40.5q37 0 67 -6.5t55 -14.5l-32 -94q-15 5 -33 9.5t-39 4.5q-31 0 -45.5 -22.5t-14.5 -64.5v-35h120v-95zM706 447h-120v-447h-133v447h-78v60l79 36v37q0 104 44.5 144.5t129.5 40.5q37 0 67 -6.5
t55 -14.5l-32 -94q-15 5 -33 9.5t-39 4.5q-31 0 -45.5 -22.5t-14.5 -64.5v-35h120v-95z" />
    <glyph glyph-name="f_f_i" unicode="ffi" horiz-adv-x="991" 
d="M349 447h-120v-447h-133v447h-78v60l79 36v37q0 104 44.5 144.5t129.5 40.5q37 0 67 -6.5t55 -14.5l-32 -94q-15 5 -33 9.5t-39 4.5q-31 0 -45.5 -22.5t-14.5 -64.5v-35h120v-95zM706 447h-120v-447h-133v447h-78v60l79 36v37q0 104 44.5 144.5t129.5 40.5q37 0 67 -6.5
t55 -14.5l-32 -94q-15 5 -33 9.5t-39 4.5q-31 0 -45.5 -22.5t-14.5 -64.5v-35h120v-95zM854 751q28 0 49.5 -14.5t21.5 -51.5t-21.5 -52t-49.5 -15q-31 0 -52 15t-21 52t21 51.5t52 14.5zM919 542v-542h-132v542h132z" />
    <glyph glyph-name="f_f_l" unicode="ffl" horiz-adv-x="991" 
d="M349 447h-120v-447h-133v447h-78v60l79 36v37q0 104 44.5 144.5t129.5 40.5q37 0 67 -6.5t55 -14.5l-32 -94q-15 5 -33 9.5t-39 4.5q-31 0 -45.5 -22.5t-14.5 -64.5v-35h120v-95zM706 447h-120v-447h-133v447h-78v60l79 36v37q0 104 44.5 144.5t129.5 40.5q37 0 67 -6.5
t55 -14.5l-32 -94q-15 5 -33 9.5t-39 4.5q-31 0 -45.5 -22.5t-14.5 -64.5v-35h120v-95zM919 0h-133v760h133v-760z" />
    <glyph glyph-name="f_i" unicode="fi" horiz-adv-x="634" 
d="M349 447h-120v-447h-133v447h-78v60l79 36v37q0 104 44.5 144.5t129.5 40.5q37 0 67 -6.5t55 -14.5l-32 -94q-15 5 -33 9.5t-39 4.5q-31 0 -45.5 -22.5t-14.5 -64.5v-35h120v-95zM497 751q28 0 49.5 -14.5t21.5 -51.5t-21.5 -52t-49.5 -15q-31 0 -52 15t-21 52t21 51.5
t52 14.5zM562 542v-542h-132v542h132z" />
    <glyph glyph-name="f_l" unicode="fl" horiz-adv-x="634" 
d="M349 447h-120v-447h-133v447h-78v60l79 36v37q0 104 44.5 144.5t129.5 40.5q37 0 67 -6.5t55 -14.5l-32 -94q-15 5 -33 9.5t-39 4.5q-31 0 -45.5 -22.5t-14.5 -64.5v-35h120v-95zM562 0h-133v760h133v-760z" />
    <glyph glyph-name=".notdef" horiz-adv-x="558" 
d="M86 0v714h386v-714h-386zM134 51h290v612h-290v-612z" />
    <glyph glyph-name="NULL" 
 />
    <glyph glyph-name="NULL" 
 />
    <glyph glyph-name="CR" unicode="&#xd;" horiz-adv-x="244" 
 />
    <glyph glyph-name="space" unicode=" " horiz-adv-x="244" 
 />
    <glyph glyph-name="exclam" unicode="!" horiz-adv-x="266" 
d="M187 223h-108l-21 491h151zM55 64q0 42 22.5 59.5t55.5 17.5q31 0 53.5 -17.5t22.5 -59.5q0 -41 -22.5 -59t-53.5 -18q-33 0 -55.5 18t-22.5 59z" />
    <glyph glyph-name="quotedbl" unicode="&#x22;" horiz-adv-x="437" 
d="M185 714l-19 -258h-88l-19 258h126zM378 714l-18 -258h-88l-19 258h125z" />
    <glyph glyph-name="numbersign" unicode="#" horiz-adv-x="612" 
d="M462 421l-22 -131h120v-88h-137l-36 -202h-95l35 202h-101l-35 -202h-94l34 202h-110v88h127l23 131h-117v88h134l35 204h96l-36 -204h102l35 204h95l-36 -204h112v-88h-129zM244 290h101l21 131h-101z" />
    <glyph glyph-name="dollar" unicode="$" horiz-adv-x="541" 
d="M234 -58v101q-58 1 -104.5 11.5t-83.5 27.5v112q38 -18 90 -33t98 -17v170q-97 38 -145 81t-48 115q0 75 53 118.5t140 50.5v80h70v-78q103 -4 181 -42l-37 -99q-33 15 -70.5 24.5t-73.5 12.5v-166q59 -19 103.5 -42t69 -57.5t24.5 -89.5q0 -72 -49 -119t-148 -57v-104
h-70zM234 436v139q-70 -9 -70 -62q0 -28 15.5 -45t54.5 -32zM304 148q75 12 75 67q0 27 -17 43t-58 32v-142z" />
    <glyph glyph-name="percent" unicode="%" horiz-adv-x="838" 
d="M186 724q76 0 117 -58.5t41 -164.5t-39 -165.5t-119 -59.5q-74 0 -114.5 59.5t-40.5 165.5t38 164.5t117 58.5zM656 714l-372 -714h-105l372 714h105zM187 637q-26 0 -37.5 -34t-11.5 -103q0 -68 11.5 -102.5t37.5 -34.5q51 0 51 137t-51 137zM648 439q75 0 116.5 -58.5
t41.5 -164.5t-39 -165.5t-119 -59.5q-74 0 -114.5 59.5t-40.5 165.5t38 164.5t117 58.5zM649 351q-26 0 -37.5 -34t-11.5 -102q0 -69 11.5 -103.5t37.5 -34.5q51 0 51 138q0 136 -51 136z" />
    <glyph glyph-name="ampersand" unicode="&#x26;" horiz-adv-x="714" 
d="M295 724q83 0 134 -40t51 -114q0 -67 -37.5 -113t-93.5 -81l136 -154q20 32 34 71t23 80h137q-14 -59 -40.5 -119.5t-64.5 -110.5l140 -143h-170l-60 66q-41 -34 -89.5 -55t-122.5 -21q-110 0 -171 54t-61 146q0 76 35 122t96 83q-31 42 -50 81t-19 87q0 75 51.5 118
t141.5 43zM293 626q-28 0 -48 -16.5t-20 -52.5q0 -29 14 -55t37 -55q40 27 60 53t20 60q0 32 -18 49t-45 17zM247 319q-33 -25 -51 -52t-18 -67q0 -47 29 -75t75 -28q39 0 69 13t52 33z" />
    <glyph glyph-name="quotesingle" unicode="'" horiz-adv-x="244" 
d="M185 714l-19 -258h-88l-19 258h126z" />
    <glyph glyph-name="parenleft" unicode="(" horiz-adv-x="312" 
d="M37 274q0 122 32 235.5t103 204.5h112q-64 -94 -95.5 -207t-31.5 -232q0 -116 31.5 -228t95.5 -205h-112q-71 88 -103 199.5t-32 232.5z" />
    <glyph glyph-name="parenright" unicode=")" horiz-adv-x="312" 
d="M275 274q0 -121 -32 -232.5t-103 -199.5h-112q64 93 96 205t32 228q0 119 -32 232t-97 207h113q71 -91 103 -204.5t32 -235.5z" />
    <glyph glyph-name="asterisk" unicode="*" horiz-adv-x="512" 
d="M313 760l-18 -185l172 53l15 -112l-159 -13l104 -150l-101 -54l-72 161l-64 -161l-105 54l102 150l-157 14l17 111l169 -53l-18 185h115z" />
    <glyph glyph-name="plus" unicode="+" horiz-adv-x="536" 
d="M315 399h180v-93h-180v-195h-96v195h-179v93h179v197h96v-197z" />
    <glyph glyph-name="comma" unicode="," horiz-adv-x="264" 
d="M201 116l7 -11q-13 -53 -35.5 -116t-45.5 -118h-95q14 59 26.5 126t19.5 119h123z" />
    <glyph glyph-name="hyphen" unicode="-" horiz-adv-x="302" 
d="M29 215v106h244v-106h-244z" />
    <glyph glyph-name="period" unicode="." horiz-adv-x="264" 
d="M55 64q0 42 22.5 59.5t54.5 17.5t54.5 -17.5t22.5 -59.5q0 -41 -22.5 -59t-54.5 -18t-54.5 18t-22.5 59z" />
    <glyph glyph-name="slash" unicode="/" horiz-adv-x="383" 
d="M378 714l-250 -714h-121l250 714h121z" />
    <glyph glyph-name="zero" unicode="0" horiz-adv-x="541" 
d="M503 357q0 -115 -23 -197t-74 -126t-136 -44q-120 0 -176 97t-56 270q0 115 22.5 197.5t73.5 126.5t136 44q119 0 176 -97t57 -271zM171 357q0 -131 21.5 -197t77.5 -66t78 65.5t22 197.5q0 131 -22 197.5t-78 66.5t-77.5 -66.5t-21.5 -197.5z" />
    <glyph glyph-name="one" unicode="1" horiz-adv-x="541" 
d="M382 0h-133v445q0 32 0.5 68t2.5 67q-10 -10 -23 -24t-27 -27l-74 -64l-68 78l208 171h114v-714z" />
    <glyph glyph-name="two" unicode="2" horiz-adv-x="541" 
d="M503 0h-465v93l169 184q51 55 82 94t45.5 73.5t14.5 74.5q0 49 -25 73.5t-64 24.5q-40 0 -75.5 -18.5t-74.5 -52.5l-73 83q29 25 61.5 47t74 35t98.5 13q65 0 113 -24.5t73.5 -68t25.5 -99.5q0 -58 -22.5 -106t-63 -96.5t-94.5 -108.5l-97 -106v-6h297v-109z" />
    <glyph glyph-name="three" unicode="3" horiz-adv-x="541" 
d="M479 551q0 -73 -41.5 -116.5t-103.5 -58.5v-3q81 -11 122.5 -54t41.5 -113q0 -62 -28.5 -111t-88 -77t-152.5 -28q-110 0 -192 39v111q43 -23 90.5 -35t88.5 -12q78 0 110 31.5t32 87.5q0 53 -37.5 79t-127.5 26h-52v101h53q84 0 118.5 31t34.5 80q0 43 -25.5 67
t-72.5 24q-50 0 -87.5 -17.5t-62.5 -37.5l-60 87q39 30 92 51t129 21q104 0 161.5 -47t57.5 -126z" />
    <glyph glyph-name="four" unicode="4" horiz-adv-x="541" 
d="M525 153h-84v-153h-131v153h-293v94l297 469h127v-460h84v-103zM310 256v160q0 28 1 58.5t2 57t2 40.5h-4q-9 -20 -18.5 -39.5t-19.5 -38.5l-137 -238h174z" />
    <glyph glyph-name="five" unicode="5" horiz-adv-x="541" 
d="M281 449q62 0 110.5 -25t76 -72.5t27.5 -116.5q0 -115 -67 -180t-197 -65q-54 0 -100.5 10t-80.5 29v112q34 -20 83 -33t93 -13q62 0 98 31t36 97q0 59 -34 90.5t-105 31.5q-26 0 -54.5 -5t-48.5 -10l-55 30l26 354h360v-110h-245l-13 -165q16 3 36.5 6.5t53.5 3.5z" />
    <glyph glyph-name="six" unicode="6" horiz-adv-x="541" 
d="M39 304q0 62 8 122t29 113.5t58 95t95 65t141 23.5q20 0 46 -2t43 -6v-104q-38 11 -86 11q-80 0 -124.5 -32.5t-63.5 -89t-22 -126.5h6q19 35 54 59.5t92 24.5q88 0 139.5 -58t51.5 -165q0 -115 -61 -180t-164 -65q-68 0 -123 34t-87 103.5t-32 176.5zM278 93
q44 0 71 34.5t27 106.5q0 58 -23.5 91.5t-72.5 33.5q-33 0 -57.5 -16.5t-37.5 -42t-13 -52.5q0 -37 11.5 -72.5t35 -59t59.5 -23.5z" />
    <glyph glyph-name="seven" unicode="7" horiz-adv-x="541" 
d="M110 0l254 605h-330v109h472v-85l-255 -629h-141z" />
    <glyph glyph-name="eight" unicode="8" horiz-adv-x="541" 
d="M271 723q61 0 109 -19t76 -57.5t28 -94.5q0 -64 -35 -105.5t-87 -69.5q36 -21 68.5 -47t53 -61.5t20.5 -83.5q0 -89 -61 -142t-171 -53q-116 0 -175.5 51t-59.5 140q0 73 38 118.5t92 73.5q-46 30 -77.5 72.5t-31.5 107.5q0 55 28 93t76.5 57.5t108.5 19.5zM270 628
q-37 0 -61.5 -22t-24.5 -62q0 -44 26 -70t62 -45q34 18 59.5 44t25.5 71q0 40 -24.5 62t-62.5 22zM162 187q0 -44 27 -72.5t81 -28.5t82 28t28 73t-32 75t-72 52l-13 7q-47 -25 -74 -56.5t-27 -77.5z" />
    <glyph glyph-name="nine" unicode="9" horiz-adv-x="541" 
d="M504 409q0 -81 -15 -156t-51.5 -134.5t-101.5 -94t-165 -34.5q-20 0 -46 2t-44 6v104q38 -11 81 -11q84 0 130 32.5t65 88.5t22 126h-6q-19 -34 -52.5 -58.5t-97.5 -24.5q-85 0 -135.5 58t-50.5 164q0 115 60.5 181t164.5 66q68 0 123 -34t87 -104t32 -177zM264 621
q-43 0 -70.5 -35t-27.5 -107q0 -58 23.5 -91.5t70.5 -33.5q34 0 58.5 16.5t38 42t13.5 52.5q0 39 -12 75t-35.5 58.5t-58.5 22.5z" />
    <glyph glyph-name="colon" unicode=":" horiz-adv-x="264" 
d="M55 476q0 43 22.5 60.5t54.5 17.5t54.5 -17.5t22.5 -60.5q0 -40 -22.5 -58.5t-54.5 -18.5t-54.5 18.5t-22.5 58.5zM55 64q0 42 22.5 59.5t54.5 17.5t54.5 -17.5t22.5 -59.5q0 -41 -22.5 -59t-54.5 -18t-54.5 18t-22.5 59z" />
    <glyph glyph-name="semicolon" unicode=";" horiz-adv-x="264" 
d="M54 476q0 43 23 60.5t55 17.5t54.5 -17.5t22.5 -60.5q0 -40 -22.5 -58.5t-54.5 -18.5t-55 18.5t-23 58.5zM198 116l7 -11q-13 -53 -35.5 -116.5t-45.5 -117.5h-96q14 58 27 125.5t20 119.5h123z" />
    <glyph glyph-name="less" unicode="&#x3c;" horiz-adv-x="536" 
d="M494 105l-454 212v62l454 240v-103l-319 -163l319 -145v-103z" />
    <glyph glyph-name="equal" unicode="=" horiz-adv-x="536" 
d="M43 402v93h450v-93h-450zM43 209v93h450v-93h-450z" />
    <glyph glyph-name="greater" unicode="&#x3e;" horiz-adv-x="536" 
d="M40 208l319 144l-319 164v103l454 -240v-62l-454 -212v103z" />
    <glyph glyph-name="question" unicode="?" horiz-adv-x="442" 
d="M131 223v33q0 52 18 87.5t66 73.5q31 25 49 44t25 38t7 43q0 38 -23.5 58t-64.5 20q-40 0 -78.5 -13t-77.5 -33l-47 94q44 25 97 40.5t116 15.5q97 0 150 -48.5t53 -127.5q0 -43 -12.5 -73t-37.5 -56.5t-60 -55.5q-29 -24 -44.5 -41t-21.5 -33.5t-6 -40.5v-25h-108z
M112 64q0 42 23 59.5t55 17.5t54.5 -17.5t22.5 -59.5q0 -41 -22.5 -59t-54.5 -18t-55 18t-23 59z" />
    <glyph glyph-name="at" unicode="@" horiz-adv-x="844" 
d="M797 358q0 -46 -10.5 -91t-31.5 -81t-52.5 -57.5t-73.5 -21.5q-38 0 -65 20.5t-38 51.5h-6q-19 -29 -51 -50.5t-76 -21.5q-80 0 -122.5 52.5t-42.5 137.5q0 67 26 118t75 80.5t117 29.5q44 0 87.5 -8t69.5 -18l-9 -204q-1 -13 -1 -22.5v-12.5q0 -46 11.5 -60.5
t27.5 -14.5q22 0 38 23.5t24 63.5t8 87q0 87 -31.5 148t-88 93t-131.5 32q-100 0 -168.5 -45t-104 -123t-35.5 -178q0 -140 68.5 -214.5t198.5 -74.5q55 0 113.5 13t106.5 31v-84q-44 -19 -99 -31t-117 -12q-116 0 -198 44t-125.5 126.5t-43.5 198.5q0 92 28 170.5t80.5 137
t126.5 91t167 32.5q102 0 180.5 -43t123 -123t44.5 -190zM329 295q0 -58 21 -84t56 -26q46 0 65.5 38.5t23.5 100.5l6 115q-11 3 -24.5 5t-27.5 2q-43 0 -69.5 -22t-38.5 -56.5t-12 -72.5z" />
    <glyph glyph-name="A" unicode="A" horiz-adv-x="642" 
d="M498 0l-55 189h-244l-55 -189h-144l240 717h161l241 -717h-144zM411 299l-57 184q-7 25 -17 61.5t-16 68.5q-7 -37 -16 -71t-16 -59l-56 -184h178z" />
    <glyph glyph-name="B" unicode="B" horiz-adv-x="625" 
d="M84 714h210q134 0 199.5 -40t65.5 -139q0 -62 -31 -103.5t-81 -52.5v-5q35 -8 64.5 -26t47.5 -52.5t18 -90.5q0 -97 -65.5 -151t-179.5 -54h-248v714zM218 423h88q65 0 90 24.5t25 70.5q0 48 -29.5 69t-93.5 21h-80v-185zM218 320v-213h98q68 0 94.5 30.5t26.5 79.5
q0 47 -27.5 75t-97.5 28h-94z" />
    <glyph glyph-name="C" unicode="C" horiz-adv-x="600" 
d="M373 616q-85 0 -133 -69.5t-48 -190.5q0 -122 45.5 -190t138.5 -68q43 0 83.5 9.5t83.5 25.5v-109q-42 -18 -85 -26t-97 -8q-105 0 -173.5 45.5t-101.5 128t-33 193.5q0 108 37 190.5t108.5 129.5t175.5 47q50 0 103 -12t93 -35l-45 -105q-35 17 -73 30.5t-79 13.5z" />
    <glyph glyph-name="D" unicode="D" horiz-adv-x="691" 
d="M637 364q0 -181 -95 -272.5t-262 -91.5h-196v714h215q157 0 247.5 -89t90.5 -261zM497 360q0 128 -51 188t-148 60h-80v-501h65q109 0 161.5 63.5t52.5 189.5z" />
    <glyph glyph-name="E" unicode="E" horiz-adv-x="522" 
d="M469 0h-385v714h385v-107h-251v-182h235v-107h-235v-210h251v-108z" />
    <glyph glyph-name="F" unicode="F" horiz-adv-x="504" 
d="M216 0h-132v714h385v-107h-253v-210h235v-107h-235v-290z" />
    <glyph glyph-name="G" unicode="G" horiz-adv-x="686" 
d="M355 392h261v-363q-52 -19 -112 -29t-132 -10q-151 0 -235 96t-84 272q0 112 41 194t119.5 127t190.5 45q57 0 109.5 -12t95.5 -31l-45 -105q-34 16 -75.5 28t-86.5 12q-102 0 -156 -71t-54 -189q0 -76 20.5 -134t64 -91t110.5 -33q31 0 56 4t44 9v172h-132v109z" />
    <glyph glyph-name="H" unicode="H" horiz-adv-x="713" 
d="M629 0h-135v317h-276v-317h-134v714h134v-288h276v288h135v-714z" />
    <glyph glyph-name="I" unicode="I" horiz-adv-x="364" 
d="M330 0h-297v73l82 32v503l-82 33v73h297v-73l-81 -33v-503l81 -32v-73z" />
    <glyph glyph-name="J" unicode="J" horiz-adv-x="298" 
d="M10 -202q-27 0 -47.5 3t-34.5 8v107q15 -4 31.5 -7t35.5 -3q26 0 46 10t30.5 37t10.5 77v684h135v-681q0 -83 -26 -135t-72.5 -76t-108.5 -24z" />
    <glyph glyph-name="K" unicode="K" horiz-adv-x="616" 
d="M616 0h-153l-184 316l-61 -53v-263h-134v714h134v-336q18 26 38 52t39 51l168 233h150l-237 -314z" />
    <glyph glyph-name="L" unicode="L" horiz-adv-x="523" 
d="M84 0v714h134v-606h275v-108h-409z" />
    <glyph glyph-name="M" unicode="M" horiz-adv-x="883" 
d="M374 0l-174 585h-4q2 -20 3.5 -56.5t3 -79t1.5 -79.5v-370h-120v714h184l170 -561h3l173 561h185v-714h-126v376q0 34 1 74.5t2.5 77t3.5 56.5h-4l-179 -584h-123z" />
    <glyph glyph-name="N" unicode="N" horiz-adv-x="754" 
d="M670 0h-169l-301 560h-4q2 -45 4.5 -96.5t3.5 -103.5v-360h-120v714h168l300 -556h4q-2 40 -4.5 92t-2.5 101v363h121v-714z" />
    <glyph glyph-name="O" unicode="O" horiz-adv-x="744" 
d="M690 358q0 -111 -34.5 -193.5t-105 -128.5t-178.5 -46q-109 0 -179.5 46t-105 129t-34.5 194q0 110 34.5 192.5t105.5 128t180 45.5q107 0 177.5 -45.5t105 -128t34.5 -193.5zM195 358q0 -121 42 -190t135 -69q94 0 135 69t41 190t-41 190t-134 69q-94 0 -136 -69
t-42 -190z" />
    <glyph glyph-name="P" unicode="P" horiz-adv-x="585" 
d="M290 714q130 0 191 -57.5t61 -160.5q0 -61 -24 -114t-81 -86t-155 -33h-64v-263h-134v714h206zM285 608h-67v-239h50q65 0 102 28.5t37 93.5q0 117 -122 117z" />
    <glyph glyph-name="Q" unicode="Q" horiz-adv-x="743" 
d="M690 358q0 -124 -42 -213.5t-127 -127.5l161 -187h-174l-123 160h-13q-109 0 -179.5 46t-105 129t-34.5 194q0 110 34.5 192.5t105.5 128t180 45.5q107 0 177.5 -45.5t105 -128t34.5 -193.5zM195 358q0 -121 42 -190t135 -69q94 0 135 69t41 190t-41 190t-134 69
q-94 0 -136 -69t-42 -190z" />
    <glyph glyph-name="R" unicode="R" horiz-adv-x="613" 
d="M283 714q133 0 197 -52t64 -158q0 -78 -36.5 -123t-87.5 -67l192 -314h-152l-155 282h-87v-282h-134v714h199zM277 607h-59v-220h61q129 0 129 113q0 58 -32 82.5t-99 24.5z" />
    <glyph glyph-name="S" unicode="S" horiz-adv-x="524" 
d="M487 195q0 -95 -64.5 -150t-185.5 -55q-59 0 -106 10t-87 30v120q45 -20 97.5 -36.5t102.5 -16.5q56 0 82.5 25.5t26.5 65.5q0 44 -32.5 71t-104.5 56q-46 19 -83.5 45.5t-59.5 67t-22 101.5q0 91 63.5 143t167.5 52q58 0 106 -12t92 -34l-42 -103q-41 19 -81 30t-79 11
q-46 0 -70 -23t-24 -61q0 -29 14 -49t44 -37.5t78 -40.5q53 -25 90.5 -52t57 -64.5t19.5 -93.5z" />
    <glyph glyph-name="T" unicode="T" horiz-adv-x="540" 
d="M338 0h-135v606h-186v108h506v-108h-185v-606z" />
    <glyph glyph-name="U" unicode="U" horiz-adv-x="703" 
d="M625 714v-462q0 -74 -30.5 -133.5t-92 -94t-154.5 -34.5q-132 0 -201 72.5t-69 191.5v460h134v-447q0 -88 35 -128t105 -40q73 0 105.5 43.5t32.5 125.5v446h135z" />
    <glyph glyph-name="V" unicode="V" horiz-adv-x="608" 
d="M608 714l-230 -714h-149l-229 714h143l125 -437q5 -18 12.5 -46.5t14 -58.5t9.5 -52q3 22 9.5 51.5t13.5 58t13 47.5l124 437h144z" />
    <glyph glyph-name="W" unicode="W" horiz-adv-x="918" 
d="M909 714l-172 -714h-152l-97 410q-4 20 -11 51.5t-12 61t-7 44.5q-2 -15 -7 -44.5t-11.5 -61t-11.5 -53.5l-96 -408h-152l-172 714h134l88 -407q6 -26 12 -59t12 -65.5t8 -56.5q4 26 10 58.5t12 64.5t12 55l98 410h128l99 -413q5 -23 12 -55t13 -64t9 -56q3 24 8.5 56.5
t12 65t12.5 59.5l88 407h133z" />
    <glyph glyph-name="X" unicode="X" horiz-adv-x="616" 
d="M615 0h-154l-156 285l-157 -285h-146l223 370l-209 344h149l144 -266l142 266h148l-211 -349z" />
    <glyph glyph-name="Y" unicode="Y" horiz-adv-x="579" 
d="M290 399l144 315h145l-222 -436v-278h-134v273l-223 441h146z" />
    <glyph glyph-name="Z" unicode="Z" horiz-adv-x="551" 
d="M524 0h-495v87l323 519h-314v108h477v-87l-323 -519h332v-108z" />
    <glyph glyph-name="bracketleft" unicode="[" horiz-adv-x="309" 
d="M286 -158h-221v872h221v-91h-107v-690h107v-91z" />
    <glyph glyph-name="backslash" unicode="\" horiz-adv-x="383" 
d="M127 714l250 -714h-121l-250 714h121z" />
    <glyph glyph-name="bracketright" unicode="]" horiz-adv-x="309" 
d="M23 -67h107v690h-107v91h221v-872h-221v91z" />
    <glyph glyph-name="asciicircum" unicode="^" horiz-adv-x="524" 
d="M18 259l200 459h64l226 -459h-105l-150 331l-132 -331h-103z" />
    <glyph glyph-name="underscore" unicode="_" horiz-adv-x="423" 
d="M425 -156h-427v66h427v-66z" />
    <glyph glyph-name="grave" unicode="`" horiz-adv-x="335" 
d="M189 766q13 -22 32.5 -49.5t39 -53t34.5 -44.5v-13h-88q-23 18 -56 46t-63.5 57t-47.5 47v10h149z" />
    <glyph glyph-name="a" unicode="a" horiz-adv-x="560" 
d="M289 552q98 0 150 -46t52 -142v-364h-93l-26 75h-4q-33 -44 -69.5 -64.5t-100.5 -20.5q-68 0 -113.5 41t-45.5 127q0 84 58 126t175 47l86 3v27q0 52 -21.5 74t-60.5 22q-37 0 -73.5 -11.5t-70.5 -28.5l-41 88q40 21 90 34t108 13zM359 256l-57 -2q-71 -3 -99 -28.5
t-28 -68.5q0 -39 19.5 -55.5t51.5 -16.5q47 0 80 31.5t33 93.5v46z" />
    <glyph glyph-name="b" unicode="b" horiz-adv-x="592" 
d="M205 760v-180q0 -32 -2 -62t-4 -47h6q20 34 55.5 57.5t91.5 23.5q87 0 141 -71t54 -209q0 -140 -55 -211t-144 -71q-56 0 -89.5 22t-53.5 51h-10l-22 -63h-101v760h133zM311 450q-59 0 -82.5 -41t-23.5 -126v-11q0 -87 23 -133t85 -46q48 0 73.5 46.5t25.5 133.5
q0 177 -101 177z" />
    <glyph glyph-name="c" unicode="c" horiz-adv-x="480" 
d="M288 -10q-112 0 -177.5 67t-65.5 211q0 100 32.5 162.5t89.5 92t131 29.5q46 0 86.5 -10t67.5 -24l-40 -97q-27 11 -54 19t-55 8q-123 0 -123 -179q0 -87 32 -131t90 -44q39 0 72.5 11t63.5 30v-109q-31 -19 -65.5 -27.5t-84.5 -8.5z" />
    <glyph glyph-name="d" unicode="d" horiz-adv-x="592" 
d="M240 -10q-87 0 -141 70.5t-54 209.5q0 140 55 211t144 71q56 0 90.5 -23t56.5 -56h4q-2 14 -5 42.5t-3 54.5v190h133v-760h-102l-25 71h-6q-20 -34 -55.5 -57.5t-91.5 -23.5zM284 92q61 0 86 40t25 121v16q0 87 -23.5 133.5t-88.5 46.5q-50 0 -76.5 -47.5t-26.5 -133.5
t26.5 -131t77.5 -45z" />
    <glyph glyph-name="e" unicode="e" horiz-adv-x="554" 
d="M285 552q105 0 166 -65t61 -181v-64h-332q2 -74 36 -114.5t98 -40.5q49 0 88.5 10.5t81.5 30.5v-101q-38 -19 -79.5 -28t-100.5 -9q-76 0 -134.5 30.5t-91.5 92t-33 154.5q0 139 66.5 212t173.5 73zM287 459q-44 0 -72.5 -32.5t-32.5 -96.5h204q-1 56 -25 92.5t-74 36.5z
" />
    <glyph glyph-name="f" unicode="f" horiz-adv-x="357" 
d="M349 447h-120v-447h-133v447h-78v60l79 36v37q0 104 44.5 144.5t129.5 40.5q37 0 67 -6.5t55 -14.5l-32 -94q-15 5 -33 9.5t-39 4.5q-31 0 -45.5 -22.5t-14.5 -64.5v-35h120v-95z" />
    <glyph glyph-name="g" unicode="g" horiz-adv-x="592" 
d="M243 552q100 0 149 -80h5l11 70h112v-546q0 -116 -62 -176t-190 -60q-57 0 -103.5 7.5t-88.5 25.5v104q44 -20 90.5 -31t102.5 -11q58 0 88.5 34.5t30.5 100.5v14q0 15 1 35t3 32h-5q-23 -42 -59.5 -61.5t-86.5 -19.5q-91 0 -143.5 74t-52.5 206t53.5 207t144.5 75z
M283 449q-103 0 -103 -181q0 -178 105 -178q59 0 85 36.5t26 123.5v19q0 96 -26 138t-87 42z" />
    <glyph glyph-name="h" unicode="h" horiz-adv-x="609" 
d="M205 760v-181q0 -32 -2.5 -62.5t-4.5 -45.5h8q24 41 63 61t86 20q84 0 134.5 -47.5t50.5 -151.5v-353h-133v328q0 122 -87 122q-66 0 -90.5 -48t-24.5 -137v-265h-133v760h133z" />
    <glyph glyph-name="i" unicode="i" horiz-adv-x="277" 
d="M140 751q28 0 49.5 -14.5t21.5 -51.5t-21.5 -52t-49.5 -15q-31 0 -52 15t-21 52t21 51.5t52 14.5zM205 542v-542h-132v542h132z" />
    <glyph glyph-name="j" unicode="j" horiz-adv-x="277" 
d="M67 685q0 37 21 51.5t51 14.5q29 0 50.5 -14.5t21.5 -51.5t-21.5 -52t-50.5 -15q-30 0 -51 15t-21 52zM33 -240q-23 0 -47 3.5t-39 8.5v100q15 -4 29.5 -7t31.5 -3q27 0 46 17t19 67v596h131v-609q0 -50 -17 -89t-54.5 -61.5t-99.5 -22.5z" />
    <glyph glyph-name="k" unicode="k" horiz-adv-x="566" 
d="M204 760v-361q0 -25 -2 -54.5t-5 -55.5h4q7 18 25 40.5t34 41.5l141 171h150l-197 -234l209 -308h-153l-147 232l-59 -52v-180h-132v760h132z" />
    <glyph glyph-name="l" unicode="l" horiz-adv-x="277" 
d="M205 0h-133v760h133v-760z" />
    <glyph glyph-name="m" unicode="m" horiz-adv-x="913" 
d="M667 552q88 0 132 -47t44 -152v-353h-131v329q0 121 -82 121q-58 0 -82 -43t-24 -125v-282h-132v329q0 121 -82 121q-61 0 -83 -48t-22 -137v-265h-133v542h102l19 -71h6q23 42 62 61.5t89 19.5q57 0 95.5 -20t59.5 -64h7q25 44 66.5 64t88.5 20z" />
    <glyph glyph-name="n" unicode="n" horiz-adv-x="609" 
d="M357 552q85 0 134 -47t49 -152v-353h-133v328q0 122 -87 122q-67 0 -91 -48t-24 -137v-265h-133v542h102l19 -71h6q24 42 66 61.5t92 19.5z" />
    <glyph glyph-name="o" unicode="o" horiz-adv-x="582" 
d="M538 272q0 -135 -66.5 -208.5t-181.5 -73.5q-71 0 -126.5 33t-87 96t-31.5 153q0 135 66.5 207.5t181.5 72.5q71 0 126.5 -32.5t87 -95t31.5 -152.5zM180 272q0 -86 26.5 -133t85.5 -47q58 0 84.5 47t26.5 133t-26.5 132t-85.5 46t-85 -46t-26 -132z" />
    <glyph glyph-name="p" unicode="p" horiz-adv-x="592" 
d="M352 552q88 0 141.5 -70.5t53.5 -209.5t-55.5 -210.5t-143.5 -71.5q-56 0 -90 22t-53 51h-7q2 -19 4.5 -41t2.5 -42v-220h-133v782h108l18 -72h7q20 34 54.5 58t92.5 24zM310 450q-58 0 -81.5 -40t-23.5 -121v-16q0 -87 22.5 -133.5t84.5 -46.5q50 0 75 48.5t25 132.5
t-25 130t-77 46z" />
    <glyph glyph-name="q" unicode="q" horiz-adv-x="592" 
d="M387 -240v229q0 19 1.5 41t4.5 41h-6q-19 -34 -54.5 -57.5t-92.5 -23.5q-87 0 -141 70.5t-54 209.5t54.5 210.5t143.5 71.5q57 0 92 -23.5t57 -57.5h4l12 71h112v-782h-133zM285 90q61 0 85.5 40t24.5 121v18q0 88 -23.5 134t-88.5 46q-52 0 -77.5 -47.5t-25.5 -133.5
q0 -87 26 -132.5t79 -45.5z" />
    <glyph glyph-name="r" unicode="r" horiz-adv-x="418" 
d="M349 552q13 0 28.5 -1.5t25.5 -3.5l-12 -117q-22 5 -52 5q-33 0 -64 -16.5t-50.5 -50.5t-19.5 -87v-281h-133v542h102l18 -94h7q23 43 62 73.5t88 30.5z" />
    <glyph glyph-name="s" unicode="s" horiz-adv-x="468" 
d="M429 157q0 -82 -53.5 -124.5t-159.5 -42.5q-54 0 -94 8t-77 25v107q40 -19 86.5 -32t84.5 -13q45 0 65 16t20 43q0 16 -9 29t-34 28t-73 36q-47 21 -78.5 42t-47 50t-15.5 75q0 73 55 110.5t146 37.5q49 0 91 -10t86 -30l-39 -93q-37 16 -73 27t-67 11q-71 0 -71 -47
q0 -17 9.5 -29.5t34 -25.5t70.5 -32t77.5 -39.5t48.5 -50t17 -76.5z" />
    <glyph glyph-name="t" unicode="t" horiz-adv-x="392" 
d="M284 91q22 0 42.5 4.5t38.5 10.5v-94q-21 -10 -51 -16t-67 -6q-45 0 -81 15t-57 53t-21 107v282h-68v55l76 44l40 115h84v-119h140v-95h-140v-281q0 -38 17.5 -56.5t46.5 -18.5z" />
    <glyph glyph-name="u" unicode="u" horiz-adv-x="609" 
d="M536 542v-542h-101l-18 70h-7q-25 -42 -67.5 -61t-91.5 -19q-83 0 -132.5 47t-49.5 151v354h133v-329q0 -61 20.5 -91t65.5 -30q67 0 91.5 48t24.5 137v265h132z" />
    <glyph glyph-name="v" unicode="v" horiz-adv-x="527" 
d="M195 0l-195 542h139l97 -313q9 -29 15.5 -64t8.5 -59h4q2 26 9.5 60t16.5 63l98 313h139l-195 -542h-137z" />
    <glyph glyph-name="w" unicode="w" horiz-adv-x="797" 
d="M496 0l-68 294q-8 36 -16 72.5t-12 64.5h-3q-3 -28 -10.5 -65.5t-16.5 -74.5l-73 -291h-153l-134 543h131l59 -282q8 -40 15 -80.5t10 -68.5h4q2 18 6.5 45t10 53.5t9.5 41.5l72 291h145l70 -291q4 -17 9 -42.5t9 -51.5t6 -45h3q3 26 10.5 66.5t16.5 81.5l63 282h128
l-137 -543h-154z" />
    <glyph glyph-name="x" unicode="x" horiz-adv-x="543" 
d="M184 277l-167 265h151l104 -184l104 184h150l-169 -265l177 -277h-150l-112 197l-113 -197h-150z" />
    <glyph glyph-name="y" unicode="y" horiz-adv-x="528" 
d="M0 542h142l97 -306q10 -28 16 -57t9 -57h3q4 26 10.5 55.5t15.5 58.5l95 306h140l-215 -613q-29 -82 -80 -125.5t-133 -43.5q-23 0 -40.5 2.5t-30.5 5.5v100q10 -2 24.5 -4t31.5 -2q43 0 68.5 27.5t36.5 68.5l14 44z" />
    <glyph glyph-name="z" unicode="z" horiz-adv-x="459" 
d="M429 0h-400v77l242 369h-228v96h377v-85l-235 -360h244v-97z" />
    <glyph glyph-name="braceleft" unicode="{" horiz-adv-x="377" 
d="M344 -158q-116 0 -161 35t-45 110v151q0 49 -31.5 69.5t-83.5 20.5v100q52 0 83.5 20.5t31.5 68.5v153q0 74 45.5 109t160.5 35v-96q-38 -1 -64 -17.5t-26 -60.5v-145q0 -96 -107 -114v-6q107 -17 107 -113v-146q0 -45 26 -61t64 -17v-96z" />
    <glyph glyph-name="bar" unicode="|" horiz-adv-x="505" 
d="M204 758h97v-990h-97v990z" />
    <glyph glyph-name="braceright" unicode="}" horiz-adv-x="377" 
d="M33 -158v96q38 1 64.5 17.5t26.5 60.5v146q0 95 106 113v6q-106 18 -106 113v146q0 45 -26.5 61t-64.5 17v96q78 0 123 -15.5t64 -47.5t19 -82v-151q0 -49 31.5 -69.5t84.5 -20.5v-100q-53 -1 -84.5 -21t-31.5 -69v-152q0 -74 -45.5 -109t-160.5 -35z" />
    <glyph glyph-name="asciitilde" unicode="~" horiz-adv-x="536" 
d="M251 308q-35 16 -58.5 21.5t-45.5 5.5q-26 0 -55 -17t-52 -42v100q47 53 117 53q28 0 55.5 -6t71.5 -26q34 -16 58.5 -21.5t45.5 -5.5q26 0 55 17t52 42v-99q-48 -54 -117 -54q-27 0 -55 6t-72 26z" />
    <glyph glyph-name="uni00A0" unicode="&#xa0;" horiz-adv-x="244" 
 />
    <glyph glyph-name="exclamdown" unicode="&#xa1;" horiz-adv-x="266" 
d="M211 469q0 -43 -23 -60t-55 -17t-55 17t-23 60q0 41 23 59t55 18t55 -18t23 -59zM79 309h108l21 -490h-152z" />
    <glyph glyph-name="cent" unicode="&#xa2;" horiz-adv-x="542" 
d="M342 724v-78q40 -2 74.5 -11.5t62.5 -21.5l-40 -100q-30 13 -59 21.5t-57 8.5q-117 0 -117 -180q0 -90 30 -132.5t86 -42.5q41 0 75 9.5t68 25.5v-107q-28 -14 -57 -22t-66 -10v-94h-80v98q-88 14 -139.5 78.5t-51.5 195.5q0 92 24 151t67 89.5t100 39.5v82h80z" />
    <glyph glyph-name="sterling" unicode="&#xa3;" horiz-adv-x="542" 
d="M322 724q51 0 96 -12t81 -29l-40 -96q-32 14 -64 24t-62 10q-36 0 -58 -23t-22 -77v-111h174v-91h-174v-83q0 -56 -21.5 -84.5t-46.5 -42.5h333v-109h-480v103q39 16 61.5 43.5t22.5 88.5v84h-82v91h82v115q0 103 56.5 151t143.5 48z" />
    <glyph glyph-name="currency" unicode="&#xa4;" horiz-adv-x="536" 
d="M85 353q0 28 7 53.5t18 47.5l-59 65l64 62l60 -63q39 30 92 30q25 0 47.5 -8t44.5 -22l59 63l65 -61l-60 -65q12 -21 19 -47.5t7 -54.5q0 -57 -26 -103l58 -63l-63 -61l-59 62q-20 -14 -43.5 -21.5t-48.5 -7.5q-54 0 -94 29l-58 -61l-63 61l58 63q-25 47 -25 102z
M176 353q0 -44 26.5 -75t64.5 -31t65 31t27 75q0 45 -27 76t-65 31t-64.5 -31t-26.5 -76z" />
    <glyph glyph-name="yen" unicode="&#xa5;" horiz-adv-x="541" 
d="M270 399l127 315h137l-178 -369h99v-78h-123v-73h123v-78h-123v-116h-124v116h-124v78h124v73h-124v78h97l-175 369h137z" />
    <glyph glyph-name="brokenbar" unicode="&#xa6;" horiz-adv-x="505" 
d="M204 758h97v-391h-97v391zM204 159h97v-391h-97v391z" />
    <glyph glyph-name="section" unicode="&#xa7;" horiz-adv-x="470" 
d="M56 393q0 45 21.5 75t48.5 47q-32 19 -49 47.5t-17 66.5q0 62 49.5 99t136.5 37q49 0 89 -10.5t76 -27.5l-35 -84q-32 15 -64 26.5t-69 11.5q-41 0 -58.5 -12.5t-17.5 -37.5t22 -44t80 -42q72 -29 111 -66.5t39 -96.5q0 -50 -19.5 -80.5t-45.5 -48.5q28 -19 44.5 -45
t16.5 -63q0 -71 -53 -112t-149 -41q-50 0 -89.5 9.5t-70.5 27.5v91q35 -18 79.5 -32t81.5 -14q53 0 73 18.5t20 44.5q0 17 -7.5 30t-28.5 26.5t-63 31.5q-48 21 -82 42.5t-52 51t-18 74.5zM157 403q0 -32 25 -56.5t83 -50.5l13 -5q14 11 26.5 30t12.5 48q0 33 -23.5 58
t-90.5 50q-18 -7 -32 -26.5t-14 -47.5z" />
    <glyph glyph-name="dieresis" unicode="&#xa8;" horiz-adv-x="560" 
d="M124 684q0 32 18 46t44 14q24 0 42.5 -14t18.5 -46q0 -30 -18.5 -44.5t-42.5 -14.5q-26 0 -44 14.5t-18 44.5zM317 684q0 32 17.5 46t43.5 14t44.5 -14t18.5 -46q0 -30 -18.5 -44.5t-44.5 -14.5t-43.5 14.5t-17.5 44.5z" />
    <glyph glyph-name="copyright" unicode="&#xa9;" horiz-adv-x="780" 
d="M45 357q0 76 26.5 142.5t74 117t110 79t134.5 28.5t134.5 -28.5t110 -79t74 -117t26.5 -142.5t-26.5 -142.5t-74 -117t-110 -79t-134.5 -28.5t-134.5 28.5t-110 79t-74 117t-26.5 142.5zM102 357q0 -65 22.5 -122t62 -100t91.5 -67.5t112 -24.5q59 0 111 24.5t91.5 67.5
t62 100t22.5 122t-22.5 122t-62 100t-91.5 67.5t-111 24.5q-60 0 -112 -24.5t-91.5 -67.5t-62 -100t-22.5 -122zM409 515q-49 0 -77 -42.5t-28 -115.5q0 -77 25 -118t80 -41q24 0 52 6.5t53 16.5v-64q-25 -11 -50.5 -17.5t-59.5 -6.5q-95 0 -143 61.5t-48 162.5
q0 65 22 115.5t65 79t106 28.5q65 0 125 -30l-32 -61q-47 26 -90 26z" />
    <glyph glyph-name="ordfeminine" unicode="&#xaa;" horiz-adv-x="356" 
d="M184 722q63 0 96.5 -32.5t33.5 -92.5v-218h-59l-16 50q-19 -26 -46 -41t-64 -15q-46 0 -75 26t-29 79q0 56 39.5 80.5t115.5 28.5l47 2v13q0 27 -16 40t-43 13q-23 0 -47 -8t-50 -20l-27 59q28 15 62 25.5t78 10.5zM227 536l-43 -3q-44 -2 -57 -17.5t-13 -36.5
q0 -41 39 -41q37 0 55.5 22t18.5 56v20z" />
    <glyph glyph-name="guillemotleft" unicode="&#xab;" horiz-adv-x="563" 
d="M37 276l168 214l95 -49l-128 -171l128 -170l-95 -50l-168 213v13zM263 276l169 214l95 -49l-129 -171l129 -170l-95 -50l-169 213v13z" />
    <glyph glyph-name="logicalnot" unicode="&#xac;" horiz-adv-x="536" 
d="M495 399v-275h-97v182h-358v93h455z" />
    <glyph glyph-name="uni00AD" unicode="&#xad;" horiz-adv-x="322" 
d="M29 215v106h244v-106h-244z" />
    <glyph glyph-name="registered" unicode="&#xae;" horiz-adv-x="780" 
d="M45 357q0 76 26.5 142.5t74 117t110 79t134.5 28.5t134.5 -28.5t110 -79t74 -117t26.5 -142.5t-26.5 -142.5t-74 -117t-110 -79t-134.5 -28.5t-134.5 28.5t-110 79t-74 117t-26.5 142.5zM102 357q0 -65 22.5 -122t62 -100t91.5 -67.5t112 -24.5q59 0 111 24.5t91.5 67.5
t62 100t22.5 122t-22.5 122t-62 100t-91.5 67.5t-111 24.5q-60 0 -112 -24.5t-91.5 -67.5t-62 -100t-22.5 -122zM538 446q0 -47 -21.5 -74.5t-49.5 -39.5l103 -194h-97l-86 173h-45v-173h-89v437h124q83 0 122 -32.5t39 -96.5zM342 373h34q34 0 53 19.5t19 51.5q0 35 -18 51
t-54 16h-34v-138z" />
    <glyph glyph-name="overscore" unicode="&#xaf;" horiz-adv-x="470" 
d="M473 760h-476v86h476v-86z" />
    <glyph glyph-name="degree" unicode="&#xb0;" horiz-adv-x="401" 
d="M43 561q0 45 21 82t56.5 59t79.5 22t79.5 -22t57 -59t21.5 -82q0 -46 -21.5 -83t-57 -58.5t-79.5 -21.5t-79.5 21.5t-56.5 58.5t-21 83zM126 561q0 -34 22 -58.5t53 -24.5q30 0 51.5 24.5t21.5 58.5q0 35 -21.5 59t-51.5 24q-31 0 -53 -24t-22 -59z" />
    <glyph glyph-name="plusminus" unicode="&#xb1;" horiz-adv-x="536" 
d="M315 419h180v-93h-180v-195h-96v195h-179v93h179v197h96v-197zM40 0v93h455v-93h-455z" />
    <glyph glyph-name="uni00B2" unicode="&#xb2;" horiz-adv-x="353" 
d="M317 416h-290v71l104 109q31 33 48 54.5t23.5 38.5t6.5 36q0 23 -12.5 35.5t-33.5 12.5q-37 0 -86 -43l-51 64q29 26 65.5 43t85.5 17q63 0 98.5 -31.5t35.5 -89.5q0 -47 -29.5 -84.5t-79.5 -91.5l-54 -57h169v-84z" />
    <glyph glyph-name="uni00B3" unicode="&#xb3;" horiz-adv-x="353" 
d="M171 853q65 0 101 -31t36 -81q0 -73 -73 -99v-5q43 -9 65 -36t22 -64q0 -59 -42.5 -94t-125.5 -35q-74 0 -129 32v81q31 -18 63.5 -29t64.5 -11q72 0 72 61q0 26 -18.5 42.5t-62.5 16.5h-52v69h45q44 0 60.5 17.5t16.5 41.5q0 50 -51 50q-25 0 -46.5 -9.5t-46.5 -28.5
l-45 61q29 22 64 36.5t82 14.5z" />
    <glyph glyph-name="acute" unicode="&#xb4;" horiz-adv-x="335" 
d="M295 766v-10q-17 -18 -47.5 -47t-63 -57t-56.5 -46h-88v13q14 19 34 44.5t39.5 53t32.5 49.5h149z" />
    <glyph glyph-name="uni00B5" unicode="&#xb5;" horiz-adv-x="612" 
d="M540 542v-542h-102l-19 73h-6q-39 -83 -122 -83q-30 0 -51.5 12t-37.5 32h-2q2 -16 3.5 -51t1.5 -67v-156h-133v782h133v-329q0 -60 21 -90.5t67 -30.5q65 0 89.5 48t24.5 137v265h133z" />
    <glyph glyph-name="paragraph" unicode="&#xb6;" horiz-adv-x="612" 
d="M532 -127h-72v805h-82v-805h-71v400q-29 -9 -64 -9q-59 0 -102 23t-67 77t-24 145q0 95 26 150t73 78t108 23h275v-887z" />
    <glyph glyph-name="periodcentered" unicode="&#xb7;" horiz-adv-x="279" 
d="M55 352q0 42 22.5 59.5t54.5 17.5t54.5 -17.5t22.5 -59.5q0 -41 -22.5 -59t-54.5 -18t-54.5 18t-22.5 59z" />
    <glyph glyph-name="cedilla" unicode="&#xb8;" horiz-adv-x="235" 
d="M223 -128q0 -53 -33.5 -82.5t-102.5 -29.5q-44 0 -71 8v72q12 -3 28 -5.5t30 -2.5q22 0 35 7.5t13 27.5q0 42 -77 54l35 79h77l-15 -39q30 -9 55.5 -30.5t25.5 -58.5z" />
    <glyph glyph-name="uni00B9" unicode="&#xb9;" horiz-adv-x="353" 
d="M251 844v-428h-100v240q0 22 1.5 51.5t2.5 44.5q-7 -8 -17.5 -19t-19.5 -19l-41 -33l-49 57l138 106h85z" />
    <glyph glyph-name="ordmasculine" unicode="&#xba;" horiz-adv-x="362" 
d="M336 548q0 -83 -42.5 -129t-113.5 -46q-68 0 -111 45.5t-43 129.5t42 129t114 45q67 0 110.5 -45t43.5 -129zM114 548q0 -52 16 -78.5t51 -26.5q65 0 65 105q0 104 -65 104q-67 0 -67 -104z" />
    <glyph glyph-name="guillemotright" unicode="&#xbb;" horiz-adv-x="563" 
d="M526 263l-169 -213l-94 50l128 170l-128 171l94 49l169 -214v-13zM300 263l-169 -213l-95 50l128 170l-128 171l95 49l169 -214v-13z" />
    <glyph glyph-name="onequarter" unicode="&#xbc;" horiz-adv-x="770" 
d="M142 0l378 714h105l-377 -714h-106zM139 286v240q0 22 1 51.5t3 44.5q-6 -8 -15.5 -19t-19.5 -19l-42 -33l-49 57l138 106h85v-428h-101zM603 0v82h-177v67l175 282h103v-275h57v-74h-57v-82h-101zM508 156h95v85q0 20 0.5 45t2.5 49q-7 -13 -18 -37.5t-19 -39.5z" />
    <glyph glyph-name="onehalf" unicode="&#xbd;" horiz-adv-x="804" 
d="M136 0l377 714h105l-377 -714h-105zM136 286v240q0 22 1 51.5t2 44.5q-13 -20 -36 -38l-41 -33l-49 57l138 106h85v-428h-100zM478 0v71l103 109q31 33 48 54.5t23.5 38.5t6.5 36q0 48 -45 48q-41 0 -87 -43l-50 64q31 26 67.5 43t83.5 17q62 0 98 -31.5t36 -89.5
q0 -47 -22.5 -86t-73.5 -85l-67 -62h169v-84h-290z" />
    <glyph glyph-name="threequarters" unicode="&#xbe;" horiz-adv-x="795" 
d="M161 278q-74 0 -129 32v81q29 -18 61 -29t66 -11q72 0 72 61q0 26 -19.5 42.5t-61.5 16.5h-51v69h44q43 0 60.5 17.5t17.5 41.5q0 50 -52 50q-25 0 -46 -9.5t-47 -28.5l-44 61q30 22 65.5 36.5t80.5 14.5q64 0 100.5 -31t36.5 -81q0 -73 -73 -99v-5q42 -9 64 -36t22 -64
q0 -59 -42 -94t-125 -35zM183 0l377 714h105l-377 -714h-105zM629 0v82h-176v67l174 282h103v-275h57v-74h-57v-82h-101zM534 156h95v85q0 20 0.5 45t1.5 49q-6 -13 -17 -37.5t-19 -39.5z" />
    <glyph glyph-name="questiondown" unicode="&#xbf;" horiz-adv-x="461" 
d="M331 309v-33q0 -52 -18 -87.5t-66 -73.5q-31 -25 -49 -44t-25 -38t-7 -43q0 -38 23.5 -58t64.5 -20q40 0 78.5 13t77.5 33l47 -94q-44 -25 -97 -40.5t-116 -15.5q-97 0 -150 48.5t-53 127.5q0 43 12.5 73t37.5 56.5t60 55.5q29 24 44.5 41t21.5 33.5t6 40.5v25h108z
M350 468q0 -42 -23 -59.5t-55 -17.5t-54.5 17.5t-22.5 59.5q0 41 22.5 59t54.5 18t55 -18t23 -59z" />
    <glyph glyph-name="Agrave" unicode="&#xc0;" horiz-adv-x="642" 
d="M498 0l-55 189h-244l-55 -189h-144l240 717h161l241 -717h-144zM411 299l-57 184q-7 25 -17 61.5t-16 68.5q-7 -37 -16 -71t-16 -59l-56 -184h178zM301 938q13 -22 32.5 -49.5t39 -53t34.5 -44.5v-13h-88q-23 18 -56 46t-63.5 57t-47.5 47v10h149z" />
    <glyph glyph-name="Aacute" unicode="&#xc1;" horiz-adv-x="642" 
d="M498 0l-55 189h-244l-55 -189h-144l240 717h161l241 -717h-144zM411 299l-57 184q-7 25 -17 61.5t-16 68.5q-7 -37 -16 -71t-16 -59l-56 -184h178zM478 938v-10q-17 -18 -47.5 -47t-63 -57t-56.5 -46h-88v13q14 19 34 44.5t39.5 53t32.5 49.5h149z" />
    <glyph glyph-name="Acircumflex" unicode="&#xc2;" horiz-adv-x="642" 
d="M498 0l-55 189h-244l-55 -189h-144l240 717h161l241 -717h-144zM411 299l-57 184q-7 25 -17 61.5t-16 68.5q-7 -37 -16 -71t-16 -59l-56 -184h178zM391 938q13 -22 34.5 -49.5t44 -54t39.5 -44.5v-12h-88q-25 16 -50.5 38.5t-50.5 49.5q-25 -27 -49.5 -49.5t-49.5 -38.5
h-88v12q18 19 40 45t43 53.5t34 49.5h141z" />
    <glyph glyph-name="Atilde" unicode="&#xc3;" horiz-adv-x="642" 
d="M498 0l-55 189h-244l-55 -189h-144l240 717h161l241 -717h-144zM411 299l-57 184q-7 25 -17 61.5t-16 68.5q-7 -37 -16 -71t-16 -59l-56 -184h178zM506 921q-6 -71 -36.5 -107t-76.5 -36q-27 0 -52.5 13.5t-49 27t-45.5 13.5q-32 0 -44 -55h-66q6 71 36.5 107t77.5 36
q26 0 51.5 -13.5t49 -27t45.5 -13.5q32 0 44 55h66z" />
    <glyph glyph-name="Adieresis" unicode="&#xc4;" horiz-adv-x="642" 
d="M498 0l-55 189h-244l-55 -189h-144l240 717h161l241 -717h-144zM411 299l-57 184q-7 25 -17 61.5t-16 68.5q-7 -37 -16 -71t-16 -59l-56 -184h178zM163 856q0 32 18 46t44 14q24 0 42.5 -14t18.5 -46q0 -30 -18.5 -44.5t-42.5 -14.5q-26 0 -44 14.5t-18 44.5zM356 856
q0 32 17.5 46t43.5 14t44.5 -14t18.5 -46q0 -30 -18.5 -44.5t-44.5 -14.5t-43.5 14.5t-17.5 44.5z" />
    <glyph glyph-name="Aring" unicode="&#xc5;" horiz-adv-x="642" 
d="M498 0l-55 189h-244l-55 -189h-144l240 717h161l241 -717h-144zM411 299l-57 184q-7 25 -17 61.5t-16 68.5q-7 -37 -16 -71t-16 -59l-56 -184h178zM311 655q-50 0 -81 30t-31 83q0 52 31 81.5t81 29.5q48 0 81.5 -29.5t33.5 -80.5q0 -54 -33 -84t-82 -30zM311 717
q20 0 32.5 13.5t12.5 37.5q0 23 -12.5 36.5t-32.5 13.5t-32.5 -13.5t-12.5 -36.5q0 -51 45 -51z" />
    <glyph glyph-name="AE" unicode="&#xc6;" horiz-adv-x="870" 
d="M817 0h-382v189h-221l-73 -189h-143l304 714h515v-107h-248v-182h232v-107h-232v-210h248v-108zM260 299h175v304h-55z" />
    <glyph glyph-name="Ccedilla" unicode="&#xc7;" horiz-adv-x="600" 
d="M373 616q-85 0 -133 -69.5t-48 -190.5q0 -122 45.5 -190t138.5 -68q43 0 83.5 9.5t83.5 25.5v-109q-42 -18 -85 -26t-97 -8q-105 0 -173.5 45.5t-101.5 128t-33 193.5q0 108 37 190.5t108.5 129.5t175.5 47q50 0 103 -12t93 -35l-45 -105q-35 17 -73 30.5t-79 13.5z
M497 -128q0 -53 -33.5 -82.5t-102.5 -29.5q-44 0 -71 8v72q12 -3 28 -5.5t30 -2.5q22 0 35 7.5t13 27.5q0 42 -77 54l35 79h77l-15 -39q30 -9 55.5 -30.5t25.5 -58.5z" />
    <glyph glyph-name="Egrave" unicode="&#xc8;" horiz-adv-x="522" 
d="M469 0h-385v714h385v-107h-251v-182h235v-107h-235v-210h251v-108zM262 938q13 -22 32.5 -49.5t39 -53t34.5 -44.5v-13h-88q-23 18 -56 46t-63.5 57t-47.5 47v10h149z" />
    <glyph glyph-name="Eacute" unicode="&#xc9;" horiz-adv-x="522" 
d="M469 0h-385v714h385v-107h-251v-182h235v-107h-235v-210h251v-108zM438 938v-10q-17 -18 -47.5 -47t-63 -57t-56.5 -46h-88v13q14 19 34 44.5t39.5 53t32.5 49.5h149z" />
    <glyph glyph-name="Ecircumflex" unicode="&#xca;" horiz-adv-x="522" 
d="M469 0h-385v714h385v-107h-251v-182h235v-107h-235v-210h251v-108zM351 938q13 -22 34.5 -49.5t44 -54t39.5 -44.5v-12h-88q-25 16 -50.5 38.5t-50.5 49.5q-25 -27 -49.5 -49.5t-49.5 -38.5h-88v12q18 19 40 45t43 53.5t34 49.5h141z" />
    <glyph glyph-name="Edieresis" unicode="&#xcb;" horiz-adv-x="522" 
d="M469 0h-385v714h385v-107h-251v-182h235v-107h-235v-210h251v-108zM123 856q0 32 18 46t44 14q24 0 42.5 -14t18.5 -46q0 -30 -18.5 -44.5t-42.5 -14.5q-26 0 -44 14.5t-18 44.5zM316 856q0 32 17.5 46t43.5 14t44.5 -14t18.5 -46q0 -30 -18.5 -44.5t-44.5 -14.5
t-43.5 14.5t-17.5 44.5z" />
    <glyph glyph-name="Igrave" unicode="&#xcc;" horiz-adv-x="364" 
d="M330 0h-297v73l82 32v503l-82 33v73h297v-73l-81 -33v-503l81 -32v-73zM163 938q13 -22 32.5 -49.5t39 -53t34.5 -44.5v-13h-88q-23 18 -56 46t-63.5 57t-47.5 47v10h149z" />
    <glyph glyph-name="Iacute" unicode="&#xcd;" horiz-adv-x="364" 
d="M330 0h-297v73l82 32v503l-82 33v73h297v-73l-81 -33v-503l81 -32v-73zM340 938v-10q-17 -18 -47.5 -47t-63 -57t-56.5 -46h-88v13q14 19 34 44.5t39.5 53t32.5 49.5h149z" />
    <glyph glyph-name="Icircumflex" unicode="&#xce;" horiz-adv-x="364" 
d="M330 0h-297v73l82 32v503l-82 33v73h297v-73l-81 -33v-503l81 -32v-73zM253 938q13 -22 34.5 -49.5t44 -54t39.5 -44.5v-12h-88q-25 16 -50.5 38.5t-50.5 49.5q-25 -27 -49.5 -49.5t-49.5 -38.5h-88v12q18 19 40 45t43 53.5t34 49.5h141z" />
    <glyph glyph-name="Idieresis" unicode="&#xcf;" horiz-adv-x="364" 
d="M330 0h-297v73l82 32v503l-82 33v73h297v-73l-81 -33v-503l81 -32v-73zM25 856q0 32 18 46t44 14q24 0 42.5 -14t18.5 -46q0 -30 -18.5 -44.5t-42.5 -14.5q-26 0 -44 14.5t-18 44.5zM218 856q0 32 17.5 46t43.5 14t44.5 -14t18.5 -46q0 -30 -18.5 -44.5t-44.5 -14.5
t-43.5 14.5t-17.5 44.5z" />
    <glyph glyph-name="Eth" unicode="&#xd0;" horiz-adv-x="691" 
d="M299 714q157 0 247.5 -89t90.5 -261q0 -181 -95.5 -272.5t-261.5 -91.5h-194v300h-64v106h64v308h213zM298 608h-78v-202h125v-106h-125v-193h63q214 0 214 253q0 128 -51.5 188t-147.5 60z" />
    <glyph glyph-name="Ntilde" unicode="&#xd1;" horiz-adv-x="754" 
d="M670 0h-169l-301 560h-4q2 -45 4.5 -96.5t3.5 -103.5v-360h-120v714h168l300 -556h4q-2 40 -4.5 92t-2.5 101v363h121v-714zM562 921q-6 -71 -36.5 -107t-76.5 -36q-27 0 -52.5 13.5t-49 27t-45.5 13.5q-32 0 -44 -55h-66q6 71 36.5 107t77.5 36q26 0 51.5 -13.5t49 -27
t45.5 -13.5q32 0 44 55h66z" />
    <glyph glyph-name="Ograve" unicode="&#xd2;" horiz-adv-x="744" 
d="M690 358q0 -111 -34.5 -193.5t-105 -128.5t-178.5 -46q-109 0 -179.5 46t-105 129t-34.5 194q0 110 34.5 192.5t105.5 128t180 45.5q107 0 177.5 -45.5t105 -128t34.5 -193.5zM195 358q0 -121 42 -190t135 -69q94 0 135 69t41 190t-41 190t-134 69q-94 0 -136 -69
t-42 -190zM352 949q13 -22 32.5 -49.5t39 -53t34.5 -44.5v-13h-88q-23 18 -56 46t-63.5 57t-47.5 47v10h149z" />
    <glyph glyph-name="Oacute" unicode="&#xd3;" horiz-adv-x="744" 
d="M690 358q0 -111 -34.5 -193.5t-105 -128.5t-178.5 -46q-109 0 -179.5 46t-105 129t-34.5 194q0 110 34.5 192.5t105.5 128t180 45.5q107 0 177.5 -45.5t105 -128t34.5 -193.5zM195 358q0 -121 42 -190t135 -69q94 0 135 69t41 190t-41 190t-134 69q-94 0 -136 -69
t-42 -190zM529 949v-10q-17 -18 -47.5 -47t-63 -57t-56.5 -46h-88v13q14 19 34 44.5t39.5 53t32.5 49.5h149z" />
    <glyph glyph-name="Ocircumflex" unicode="&#xd4;" horiz-adv-x="744" 
d="M690 358q0 -111 -34.5 -193.5t-105 -128.5t-178.5 -46q-109 0 -179.5 46t-105 129t-34.5 194q0 110 34.5 192.5t105.5 128t180 45.5q107 0 177.5 -45.5t105 -128t34.5 -193.5zM195 358q0 -121 42 -190t135 -69q94 0 135 69t41 190t-41 190t-134 69q-94 0 -136 -69
t-42 -190zM442 949q13 -22 34.5 -49.5t44 -54t39.5 -44.5v-12h-88q-25 16 -50.5 38.5t-50.5 49.5q-25 -27 -49.5 -49.5t-49.5 -38.5h-88v12q18 19 40 45t43 53.5t34 49.5h141z" />
    <glyph glyph-name="Otilde" unicode="&#xd5;" horiz-adv-x="744" 
d="M690 358q0 -111 -34.5 -193.5t-105 -128.5t-178.5 -46q-109 0 -179.5 46t-105 129t-34.5 194q0 110 34.5 192.5t105.5 128t180 45.5q107 0 177.5 -45.5t105 -128t34.5 -193.5zM195 358q0 -121 42 -190t135 -69q94 0 135 69t41 190t-41 190t-134 69q-94 0 -136 -69
t-42 -190zM557 932q-6 -71 -36.5 -107t-76.5 -36q-27 0 -52.5 13.5t-49 27t-45.5 13.5q-32 0 -44 -55h-66q6 71 36.5 107t77.5 36q26 0 51.5 -13.5t49 -27t45.5 -13.5q32 0 44 55h66z" />
    <glyph glyph-name="Odieresis" unicode="&#xd6;" horiz-adv-x="744" 
d="M690 358q0 -111 -34.5 -193.5t-105 -128.5t-178.5 -46q-109 0 -179.5 46t-105 129t-34.5 194q0 110 34.5 192.5t105.5 128t180 45.5q107 0 177.5 -45.5t105 -128t34.5 -193.5zM195 358q0 -121 42 -190t135 -69q94 0 135 69t41 190t-41 190t-134 69q-94 0 -136 -69
t-42 -190zM214 867q0 32 18 46t44 14q24 0 42.5 -14t18.5 -46q0 -30 -18.5 -44.5t-42.5 -14.5q-26 0 -44 14.5t-18 44.5zM407 867q0 32 17.5 46t43.5 14t44.5 -14t18.5 -46q0 -30 -18.5 -44.5t-44.5 -14.5t-43.5 14.5t-17.5 44.5z" />
    <glyph glyph-name="multiply" unicode="&#xd7;" horiz-adv-x="536" 
d="M409 575l67 -65l-143 -157l141 -156l-65 -66l-143 156l-141 -155l-66 65l140 156l-141 155l67 67l141 -156z" />
    <glyph glyph-name="Oslash" unicode="&#xd8;" horiz-adv-x="744" 
d="M690 358q0 -111 -34.5 -193.5t-105 -128.5t-178.5 -46q-93 0 -157 38l-42 -67l-73 48l43 69q-46 49 -68 120.5t-22 160.5q0 110 34.5 192.5t105.5 128t180 45.5q47 0 86.5 -10t71.5 -28l40 63l72 -47l-42 -67q45 -48 67 -119t22 -159zM195 358q0 -51 6.5 -93.5
t21.5 -74.5l241 400q-40 27 -91 27q-94 0 -136 -69t-42 -190zM548 358q0 51 -6.5 92.5t-20.5 73.5l-239 -399q37 -26 90 -26q94 0 135 69t41 190z" />
    <glyph glyph-name="Ugrave" unicode="&#xd9;" horiz-adv-x="703" 
d="M625 714v-462q0 -74 -30.5 -133.5t-92 -94t-154.5 -34.5q-132 0 -201 72.5t-69 191.5v460h134v-447q0 -88 35 -128t105 -40q73 0 105.5 43.5t32.5 125.5v446h135zM332 938q13 -22 32.5 -49.5t39 -53t34.5 -44.5v-13h-88q-23 18 -56 46t-63.5 57t-47.5 47v10h149z" />
    <glyph glyph-name="Uacute" unicode="&#xda;" horiz-adv-x="703" 
d="M625 714v-462q0 -74 -30.5 -133.5t-92 -94t-154.5 -34.5q-132 0 -201 72.5t-69 191.5v460h134v-447q0 -88 35 -128t105 -40q73 0 105.5 43.5t32.5 125.5v446h135zM509 938v-10q-17 -18 -47.5 -47t-63 -57t-56.5 -46h-88v13q14 19 34 44.5t39.5 53t32.5 49.5h149z" />
    <glyph glyph-name="Ucircumflex" unicode="&#xdb;" horiz-adv-x="703" 
d="M625 714v-462q0 -74 -30.5 -133.5t-92 -94t-154.5 -34.5q-132 0 -201 72.5t-69 191.5v460h134v-447q0 -88 35 -128t105 -40q73 0 105.5 43.5t32.5 125.5v446h135zM422 938q13 -22 34.5 -49.5t44 -54t39.5 -44.5v-12h-88q-25 16 -50.5 38.5t-50.5 49.5
q-25 -27 -49.5 -49.5t-49.5 -38.5h-88v12q18 19 40 45t43 53.5t34 49.5h141z" />
    <glyph glyph-name="Udieresis" unicode="&#xdc;" horiz-adv-x="703" 
d="M625 714v-462q0 -74 -30.5 -133.5t-92 -94t-154.5 -34.5q-132 0 -201 72.5t-69 191.5v460h134v-447q0 -88 35 -128t105 -40q73 0 105.5 43.5t32.5 125.5v446h135zM194 856q0 32 18 46t44 14q24 0 42.5 -14t18.5 -46q0 -30 -18.5 -44.5t-42.5 -14.5q-26 0 -44 14.5
t-18 44.5zM387 856q0 32 17.5 46t43.5 14t44.5 -14t18.5 -46q0 -30 -18.5 -44.5t-44.5 -14.5t-43.5 14.5t-17.5 44.5z" />
    <glyph glyph-name="Yacute" unicode="&#xdd;" horiz-adv-x="579" 
d="M290 399l144 315h145l-222 -436v-278h-134v273l-223 441h146zM447 938v-10q-17 -18 -47.5 -47t-63 -57t-56.5 -46h-88v13q14 19 34 44.5t39.5 53t32.5 49.5h149z" />
    <glyph glyph-name="Thorn" unicode="&#xde;" horiz-adv-x="583" 
d="M542 378q0 -60 -24 -112.5t-80 -85t-154 -32.5h-66v-148h-134v714h134v-117h75q130 0 189.5 -59t59.5 -160zM218 252h49q68 0 103.5 29t35.5 95q0 59 -29.5 87.5t-95.5 28.5h-63v-240z" />
    <glyph glyph-name="germandbls" unicode="&#xdf;" horiz-adv-x="654" 
d="M557 610q0 -36 -13 -62.5t-32 -46t-38 -35t-32 -29t-13 -28.5q0 -19 20.5 -36t71.5 -52q47 -34 72.5 -69.5t25.5 -94.5q0 -84 -51.5 -125.5t-146.5 -41.5q-50 0 -85 8t-62 24v103q23 -16 60.5 -29t69.5 -13q79 0 79 70q0 20 -6.5 35t-25 31t-54.5 39q-58 37 -80 66
t-22 69q0 31 13 53t31.5 38.5t37.5 31.5t32 33t13 43q0 35 -29 54t-75 19q-50 0 -81.5 -23.5t-31.5 -78.5v-563h-133v567q0 69 32 113t88 64.5t126 20.5t123.5 -17.5t84.5 -52.5t31 -85z" />
    <glyph glyph-name="agrave" unicode="&#xe0;" horiz-adv-x="560" 
d="M289 552q98 0 150 -46t52 -142v-364h-93l-26 75h-4q-33 -44 -69.5 -64.5t-100.5 -20.5q-68 0 -113.5 41t-45.5 127q0 84 58 126t175 47l86 3v27q0 52 -21.5 74t-60.5 22q-37 0 -73.5 -11.5t-70.5 -28.5l-41 88q40 21 90 34t108 13zM359 256l-57 -2q-71 -3 -99 -28.5
t-28 -68.5q0 -39 19.5 -55.5t51.5 -16.5q47 0 80 31.5t33 93.5v46zM261 773q13 -22 32.5 -49.5t39 -53t34.5 -44.5v-13h-88q-23 18 -56 46t-63.5 57t-47.5 47v10h149z" />
    <glyph glyph-name="aacute" unicode="&#xe1;" horiz-adv-x="560" 
d="M289 552q98 0 150 -46t52 -142v-364h-93l-26 75h-4q-33 -44 -69.5 -64.5t-100.5 -20.5q-68 0 -113.5 41t-45.5 127q0 84 58 126t175 47l86 3v27q0 52 -21.5 74t-60.5 22q-37 0 -73.5 -11.5t-70.5 -28.5l-41 88q40 21 90 34t108 13zM359 256l-57 -2q-71 -3 -99 -28.5
t-28 -68.5q0 -39 19.5 -55.5t51.5 -16.5q47 0 80 31.5t33 93.5v46zM437 773v-10q-17 -18 -47.5 -47t-63 -57t-56.5 -46h-88v13q14 19 34 44.5t39.5 53t32.5 49.5h149z" />
    <glyph glyph-name="acircumflex" unicode="&#xe2;" horiz-adv-x="560" 
d="M289 552q98 0 150 -46t52 -142v-364h-93l-26 75h-4q-33 -44 -69.5 -64.5t-100.5 -20.5q-68 0 -113.5 41t-45.5 127q0 84 58 126t175 47l86 3v27q0 52 -21.5 74t-60.5 22q-37 0 -73.5 -11.5t-70.5 -28.5l-41 88q40 21 90 34t108 13zM359 256l-57 -2q-71 -3 -99 -28.5
t-28 -68.5q0 -39 19.5 -55.5t51.5 -16.5q47 0 80 31.5t33 93.5v46zM350 773q13 -22 34.5 -49.5t44 -54t39.5 -44.5v-12h-88q-25 16 -50.5 38.5t-50.5 49.5q-25 -27 -49.5 -49.5t-49.5 -38.5h-88v12q18 19 40 45t43 53.5t34 49.5h141z" />
    <glyph glyph-name="atilde" unicode="&#xe3;" horiz-adv-x="560" 
d="M289 552q98 0 150 -46t52 -142v-364h-93l-26 75h-4q-33 -44 -69.5 -64.5t-100.5 -20.5q-68 0 -113.5 41t-45.5 127q0 84 58 126t175 47l86 3v27q0 52 -21.5 74t-60.5 22q-37 0 -73.5 -11.5t-70.5 -28.5l-41 88q40 21 90 34t108 13zM359 256l-57 -2q-71 -3 -99 -28.5
t-28 -68.5q0 -39 19.5 -55.5t51.5 -16.5q47 0 80 31.5t33 93.5v46zM465 756q-6 -71 -36.5 -107t-76.5 -36q-27 0 -52.5 13.5t-49 27t-45.5 13.5q-32 0 -44 -55h-66q6 71 36.5 107t77.5 36q26 0 51.5 -13.5t49 -27t45.5 -13.5q32 0 44 55h66z" />
    <glyph glyph-name="adieresis" unicode="&#xe4;" horiz-adv-x="560" 
d="M289 552q98 0 150 -46t52 -142v-364h-93l-26 75h-4q-33 -44 -69.5 -64.5t-100.5 -20.5q-68 0 -113.5 41t-45.5 127q0 84 58 126t175 47l86 3v27q0 52 -21.5 74t-60.5 22q-37 0 -73.5 -11.5t-70.5 -28.5l-41 88q40 21 90 34t108 13zM359 256l-57 -2q-71 -3 -99 -28.5
t-28 -68.5q0 -39 19.5 -55.5t51.5 -16.5q47 0 80 31.5t33 93.5v46zM122 691q0 32 18 46t44 14q24 0 42.5 -14t18.5 -46q0 -30 -18.5 -44.5t-42.5 -14.5q-26 0 -44 14.5t-18 44.5zM315 691q0 32 17.5 46t43.5 14t44.5 -14t18.5 -46q0 -30 -18.5 -44.5t-44.5 -14.5t-43.5 14.5
t-17.5 44.5z" />
    <glyph glyph-name="aring" unicode="&#xe5;" horiz-adv-x="560" 
d="M289 552q98 0 150 -46t52 -142v-364h-93l-26 75h-4q-33 -44 -69.5 -64.5t-100.5 -20.5q-68 0 -113.5 41t-45.5 127q0 84 58 126t175 47l86 3v27q0 52 -21.5 74t-60.5 22q-37 0 -73.5 -11.5t-70.5 -28.5l-41 88q40 21 90 34t108 13zM359 256l-57 -2q-71 -3 -99 -28.5
t-28 -68.5q0 -39 19.5 -55.5t51.5 -16.5q47 0 80 31.5t33 93.5v46zM279 612q-50 0 -81 30t-31 83q0 52 31 81.5t81 29.5q48 0 81.5 -29.5t33.5 -80.5q0 -54 -33 -84t-82 -30zM279 674q20 0 32.5 13.5t12.5 37.5q0 23 -12.5 36.5t-32.5 13.5t-32.5 -13.5t-12.5 -36.5
q0 -51 45 -51z" />
    <glyph glyph-name="ae" unicode="&#xe6;" horiz-adv-x="850" 
d="M594 552q64 0 112 -29.5t75 -84t27 -131.5v-65h-325q1 -76 35 -115.5t96 -39.5q44 0 84 10.5t82 30.5v-101q-38 -19 -78.5 -28t-98.5 -9q-62 0 -113 26.5t-83 79.5q-27 -35 -54 -58.5t-63 -35.5t-88 -12q-44 0 -81.5 18t-59.5 55t-22 95q0 84 58.5 126.5t168.5 46.5l85 3
v38q0 46 -22.5 65.5t-58.5 19.5t-72 -11t-70 -28l-40 87q39 21 88.5 34t102.5 13q52 0 90.5 -17t64.5 -55q28 35 67.5 53.5t92.5 18.5zM590 459q-46 0 -73 -32.5t-32 -96.5h197q0 57 -23.5 93t-68.5 36zM351 256l-54 -2q-69 -3 -95.5 -28.5t-26.5 -68.5q0 -39 19 -55.5
t49 -16.5q45 0 76.5 31.5t31.5 93.5v46z" />
    <glyph glyph-name="ccedilla" unicode="&#xe7;" horiz-adv-x="480" 
d="M288 -10q-112 0 -177.5 67t-65.5 211q0 100 32.5 162.5t89.5 92t131 29.5q46 0 86.5 -10t67.5 -24l-40 -97q-27 11 -54 19t-55 8q-123 0 -123 -179q0 -87 32 -131t90 -44q39 0 72.5 11t63.5 30v-109q-31 -19 -65.5 -27.5t-84.5 -8.5zM414 -128q0 -53 -33.5 -82.5
t-102.5 -29.5q-44 0 -71 8v72q12 -3 28 -5.5t30 -2.5q22 0 35 7.5t13 27.5q0 42 -77 54l35 79h77l-15 -39q30 -9 55.5 -30.5t25.5 -58.5z" />
    <glyph glyph-name="egrave" unicode="&#xe8;" horiz-adv-x="554" 
d="M285 552q105 0 166 -65t61 -181v-64h-332q2 -74 36 -114.5t98 -40.5q49 0 88.5 10.5t81.5 30.5v-101q-38 -19 -79.5 -28t-100.5 -9q-76 0 -134.5 30.5t-91.5 92t-33 154.5q0 139 66.5 212t173.5 73zM287 459q-44 0 -72.5 -32.5t-32.5 -96.5h204q-1 56 -25 92.5t-74 36.5z
M259 766q13 -22 32.5 -49.5t39 -53t34.5 -44.5v-13h-88q-23 18 -56 46t-63.5 57t-47.5 47v10h149z" />
    <glyph glyph-name="eacute" unicode="&#xe9;" horiz-adv-x="554" 
d="M285 552q105 0 166 -65t61 -181v-64h-332q2 -74 36 -114.5t98 -40.5q49 0 88.5 10.5t81.5 30.5v-101q-38 -19 -79.5 -28t-100.5 -9q-76 0 -134.5 30.5t-91.5 92t-33 154.5q0 139 66.5 212t173.5 73zM287 459q-44 0 -72.5 -32.5t-32.5 -96.5h204q-1 56 -25 92.5t-74 36.5z
M435 766v-10q-17 -18 -47.5 -47t-63 -57t-56.5 -46h-88v13q14 19 34 44.5t39.5 53t32.5 49.5h149z" />
    <glyph glyph-name="ecircumflex" unicode="&#xea;" horiz-adv-x="554" 
d="M285 552q105 0 166 -65t61 -181v-64h-332q2 -74 36 -114.5t98 -40.5q49 0 88.5 10.5t81.5 30.5v-101q-38 -19 -79.5 -28t-100.5 -9q-76 0 -134.5 30.5t-91.5 92t-33 154.5q0 139 66.5 212t173.5 73zM287 459q-44 0 -72.5 -32.5t-32.5 -96.5h204q-1 56 -25 92.5t-74 36.5z
M348 766q13 -22 34.5 -49.5t44 -54t39.5 -44.5v-12h-88q-25 16 -50.5 38.5t-50.5 49.5q-25 -27 -49.5 -49.5t-49.5 -38.5h-88v12q18 19 40 45t43 53.5t34 49.5h141z" />
    <glyph glyph-name="edieresis" unicode="&#xeb;" horiz-adv-x="554" 
d="M285 552q105 0 166 -65t61 -181v-64h-332q2 -74 36 -114.5t98 -40.5q49 0 88.5 10.5t81.5 30.5v-101q-38 -19 -79.5 -28t-100.5 -9q-76 0 -134.5 30.5t-91.5 92t-33 154.5q0 139 66.5 212t173.5 73zM287 459q-44 0 -72.5 -32.5t-32.5 -96.5h204q-1 56 -25 92.5t-74 36.5z
M120 684q0 32 18 46t44 14q24 0 42.5 -14t18.5 -46q0 -30 -18.5 -44.5t-42.5 -14.5q-26 0 -44 14.5t-18 44.5zM313 684q0 32 17.5 46t43.5 14t44.5 -14t18.5 -46q0 -30 -18.5 -44.5t-44.5 -14.5t-43.5 14.5t-17.5 44.5z" />
    <glyph glyph-name="igrave" unicode="&#xec;" horiz-adv-x="277" 
d="M205 0h-133v542h133v-542zM119 766q13 -22 32.5 -49.5t39 -53t34.5 -44.5v-13h-88q-23 18 -56 46t-63.5 57t-47.5 47v10h149z" />
    <glyph glyph-name="iacute" unicode="&#xed;" horiz-adv-x="277" 
d="M205 0h-133v542h133v-542zM296 766v-10q-17 -18 -47.5 -47t-63 -57t-56.5 -46h-88v13q14 19 34 44.5t39.5 53t32.5 49.5h149z" />
    <glyph glyph-name="icircumflex" unicode="&#xee;" horiz-adv-x="277" 
d="M205 0h-133v542h133v-542zM209 766q13 -22 34.5 -49.5t44 -54t39.5 -44.5v-12h-88q-25 16 -50.5 38.5t-50.5 49.5q-25 -27 -49.5 -49.5t-49.5 -38.5h-88v12q18 19 40 45t43 53.5t34 49.5h141z" />
    <glyph glyph-name="idieresis" unicode="&#xef;" horiz-adv-x="277" 
d="M205 0h-133v542h133v-542zM-19 684q0 32 18 46t44 14q24 0 42.5 -14t18.5 -46q0 -30 -18.5 -44.5t-42.5 -14.5q-26 0 -44 14.5t-18 44.5zM174 684q0 32 17.5 46t43.5 14t44.5 -14t18.5 -46q0 -30 -18.5 -44.5t-44.5 -14.5t-43.5 14.5t-17.5 44.5z" />
    <glyph glyph-name="eth" unicode="&#xf0;" horiz-adv-x="584" 
d="M211 765q33 -16 63 -33.5t56 -36.5l103 67l44 -67l-79 -53q66 -65 103 -154.5t37 -209.5q0 -140 -67 -214t-182 -74q-71 0 -126 29.5t-86.5 84.5t-31.5 133q0 77 28 131.5t77.5 83.5t114.5 29q96 0 129 -52l4 2q-14 47 -37 85t-54 71l-105 -71l-44 68l84 57
q-16 12 -35 24t-39 24zM291 386q-60 0 -86 -38.5t-26 -112.5q0 -66 26.5 -107.5t85.5 -41.5q60 0 86 43t26 128q0 52 -27 90.5t-85 38.5z" />
    <glyph glyph-name="ntilde" unicode="&#xf1;" horiz-adv-x="609" 
d="M357 552q85 0 134 -47t49 -152v-353h-133v328q0 122 -87 122q-67 0 -91 -48t-24 -137v-265h-133v542h102l19 -71h6q24 42 66 61.5t92 19.5zM489 749q-6 -71 -36.5 -107t-76.5 -36q-27 0 -52.5 13.5t-49 27t-45.5 13.5q-32 0 -44 -55h-66q6 71 36.5 107t77.5 36
q26 0 51.5 -13.5t49 -27t45.5 -13.5q32 0 44 55h66z" />
    <glyph glyph-name="ograve" unicode="&#xf2;" horiz-adv-x="582" 
d="M538 272q0 -135 -66.5 -208.5t-181.5 -73.5q-71 0 -126.5 33t-87 96t-31.5 153q0 135 66.5 207.5t181.5 72.5q71 0 126.5 -32.5t87 -95t31.5 -152.5zM180 272q0 -86 26.5 -133t85.5 -47q58 0 84.5 47t26.5 133t-26.5 132t-85.5 46t-85 -46t-26 -132zM272 766
q13 -22 32.5 -49.5t39 -53t34.5 -44.5v-13h-88q-23 18 -56 46t-63.5 57t-47.5 47v10h149z" />
    <glyph glyph-name="oacute" unicode="&#xf3;" horiz-adv-x="582" 
d="M538 272q0 -135 -66.5 -208.5t-181.5 -73.5q-71 0 -126.5 33t-87 96t-31.5 153q0 135 66.5 207.5t181.5 72.5q71 0 126.5 -32.5t87 -95t31.5 -152.5zM180 272q0 -86 26.5 -133t85.5 -47q58 0 84.5 47t26.5 133t-26.5 132t-85.5 46t-85 -46t-26 -132zM449 766v-10
q-17 -18 -47.5 -47t-63 -57t-56.5 -46h-88v13q14 19 34 44.5t39.5 53t32.5 49.5h149z" />
    <glyph glyph-name="ocircumflex" unicode="&#xf4;" horiz-adv-x="582" 
d="M538 272q0 -135 -66.5 -208.5t-181.5 -73.5q-71 0 -126.5 33t-87 96t-31.5 153q0 135 66.5 207.5t181.5 72.5q71 0 126.5 -32.5t87 -95t31.5 -152.5zM180 272q0 -86 26.5 -133t85.5 -47q58 0 84.5 47t26.5 133t-26.5 132t-85.5 46t-85 -46t-26 -132zM362 766
q13 -22 34.5 -49.5t44 -54t39.5 -44.5v-12h-88q-25 16 -50.5 38.5t-50.5 49.5q-25 -27 -49.5 -49.5t-49.5 -38.5h-88v12q18 19 40 45t43 53.5t34 49.5h141z" />
    <glyph glyph-name="otilde" unicode="&#xf5;" horiz-adv-x="582" 
d="M538 272q0 -135 -66.5 -208.5t-181.5 -73.5q-71 0 -126.5 33t-87 96t-31.5 153q0 135 66.5 207.5t181.5 72.5q71 0 126.5 -32.5t87 -95t31.5 -152.5zM180 272q0 -86 26.5 -133t85.5 -47q58 0 84.5 47t26.5 133t-26.5 132t-85.5 46t-85 -46t-26 -132zM477 749
q-6 -71 -36.5 -107t-76.5 -36q-27 0 -52.5 13.5t-49 27t-45.5 13.5q-32 0 -44 -55h-66q6 71 36.5 107t77.5 36q26 0 51.5 -13.5t49 -27t45.5 -13.5q32 0 44 55h66z" />
    <glyph glyph-name="odieresis" unicode="&#xf6;" horiz-adv-x="582" 
d="M538 272q0 -135 -66.5 -208.5t-181.5 -73.5q-71 0 -126.5 33t-87 96t-31.5 153q0 135 66.5 207.5t181.5 72.5q71 0 126.5 -32.5t87 -95t31.5 -152.5zM180 272q0 -86 26.5 -133t85.5 -47q58 0 84.5 47t26.5 133t-26.5 132t-85.5 46t-85 -46t-26 -132zM134 684q0 32 18 46
t44 14q24 0 42.5 -14t18.5 -46q0 -30 -18.5 -44.5t-42.5 -14.5q-26 0 -44 14.5t-18 44.5zM327 684q0 32 17.5 46t43.5 14t44.5 -14t18.5 -46q0 -30 -18.5 -44.5t-44.5 -14.5t-43.5 14.5t-17.5 44.5z" />
    <glyph glyph-name="divide" unicode="&#xf7;" horiz-adv-x="536" 
d="M267 454q-25 0 -43.5 16t-18.5 53q0 38 18.5 53.5t43.5 15.5t43.5 -15.5t18.5 -53.5q0 -37 -18.5 -53t-43.5 -16zM40 306v93h455v-93h-455zM267 113q-25 0 -43.5 16t-18.5 53q0 38 18.5 53.5t43.5 15.5t43.5 -15.5t18.5 -53.5q0 -37 -18.5 -53t-43.5 -16z" />
    <glyph glyph-name="oslash" unicode="&#xf8;" horiz-adv-x="591" 
d="M546 272q0 -135 -67.5 -208.5t-184.5 -73.5q-62 0 -112 26l-35 -51l-68 46l37 54q-34 37 -52.5 88t-18.5 119q0 135 67 207.5t185 72.5q63 0 115 -29l31 46l67 -47l-33 -50q32 -35 50.5 -85.5t18.5 -114.5zM177 272q0 -29 2.5 -54t9.5 -45l164 260q-25 17 -58 17
q-63 0 -90.5 -46t-27.5 -132zM414 272q0 26 -2.5 48.5t-8.5 40.5l-160 -256q23 -13 53 -13q63 0 90.5 47t27.5 133z" />
    <glyph glyph-name="ugrave" unicode="&#xf9;" horiz-adv-x="609" 
d="M536 542v-542h-101l-18 70h-7q-25 -42 -67.5 -61t-91.5 -19q-83 0 -132.5 47t-49.5 151v354h133v-329q0 -61 20.5 -91t65.5 -30q67 0 91.5 48t24.5 137v265h132zM285 766q13 -22 32.5 -49.5t39 -53t34.5 -44.5v-13h-88q-23 18 -56 46t-63.5 57t-47.5 47v10h149z" />
    <glyph glyph-name="uacute" unicode="&#xfa;" horiz-adv-x="609" 
d="M536 542v-542h-101l-18 70h-7q-25 -42 -67.5 -61t-91.5 -19q-83 0 -132.5 47t-49.5 151v354h133v-329q0 -61 20.5 -91t65.5 -30q67 0 91.5 48t24.5 137v265h132zM461 766v-10q-17 -18 -47.5 -47t-63 -57t-56.5 -46h-88v13q14 19 34 44.5t39.5 53t32.5 49.5h149z" />
    <glyph glyph-name="ucircumflex" unicode="&#xfb;" horiz-adv-x="609" 
d="M536 542v-542h-101l-18 70h-7q-25 -42 -67.5 -61t-91.5 -19q-83 0 -132.5 47t-49.5 151v354h133v-329q0 -61 20.5 -91t65.5 -30q67 0 91.5 48t24.5 137v265h132zM374 766q13 -22 34.5 -49.5t44 -54t39.5 -44.5v-12h-88q-25 16 -50.5 38.5t-50.5 49.5q-25 -27 -49.5 -49.5
t-49.5 -38.5h-88v12q18 19 40 45t43 53.5t34 49.5h141z" />
    <glyph glyph-name="udieresis" unicode="&#xfc;" horiz-adv-x="609" 
d="M536 542v-542h-101l-18 70h-7q-25 -42 -67.5 -61t-91.5 -19q-83 0 -132.5 47t-49.5 151v354h133v-329q0 -61 20.5 -91t65.5 -30q67 0 91.5 48t24.5 137v265h132zM146 684q0 32 18 46t44 14q24 0 42.5 -14t18.5 -46q0 -30 -18.5 -44.5t-42.5 -14.5q-26 0 -44 14.5
t-18 44.5zM339 684q0 32 17.5 46t43.5 14t44.5 -14t18.5 -46q0 -30 -18.5 -44.5t-44.5 -14.5t-43.5 14.5t-17.5 44.5z" />
    <glyph glyph-name="yacute" unicode="&#xfd;" horiz-adv-x="528" 
d="M0 542h142l97 -306q10 -28 16 -57t9 -57h3q4 26 10.5 55.5t15.5 58.5l95 306h140l-215 -613q-29 -82 -80 -125.5t-133 -43.5q-23 0 -40.5 2.5t-30.5 5.5v100q10 -2 24.5 -4t31.5 -2q43 0 68.5 27.5t36.5 68.5l14 44zM421 766v-10q-17 -18 -47.5 -47t-63 -57t-56.5 -46
h-88v13q14 19 34 44.5t39.5 53t32.5 49.5h149z" />
    <glyph glyph-name="thorn" unicode="&#xfe;" horiz-adv-x="592" 
d="M547 272q0 -139 -54.5 -210.5t-143.5 -71.5q-54 0 -88.5 21t-55.5 50h-7q2 -13 4.5 -38t2.5 -41v-222h-133v1000h133v-203q0 -21 -2.5 -46.5t-3.5 -39.5h6q20 34 55.5 57.5t91.5 23.5q87 0 141 -71t54 -209zM412 274q0 88 -24 132t-77 44q-58 0 -82 -40t-24 -120v-17
q0 -87 23 -133.5t85 -46.5q52 0 75.5 46.5t23.5 134.5z" />
    <glyph glyph-name="ydieresis" unicode="&#xff;" horiz-adv-x="528" 
d="M0 542h142l97 -306q10 -28 16 -57t9 -57h3q4 26 10.5 55.5t15.5 58.5l95 306h140l-215 -613q-29 -82 -80 -125.5t-133 -43.5q-23 0 -40.5 2.5t-30.5 5.5v100q10 -2 24.5 -4t31.5 -2q43 0 68.5 27.5t36.5 68.5l14 44zM106 684q0 32 18 46t44 14q24 0 42.5 -14t18.5 -46
q0 -30 -18.5 -44.5t-42.5 -14.5q-26 0 -44 14.5t-18 44.5zM299 684q0 32 17.5 46t43.5 14t44.5 -14t18.5 -46q0 -30 -18.5 -44.5t-44.5 -14.5t-43.5 14.5t-17.5 44.5z" />
    <glyph glyph-name="Amacron" unicode="&#x100;" horiz-adv-x="642" 
d="M498 0l-55 189h-244l-55 -189h-144l240 717h161l241 -717h-144zM411 299l-57 184q-7 25 -17 61.5t-16 68.5q-7 -37 -16 -71t-16 -59l-56 -184h178zM474 869v-91h-307v91h307z" />
    <glyph glyph-name="amacron" unicode="&#x101;" horiz-adv-x="560" 
d="M289 552q98 0 150 -46t52 -142v-364h-93l-26 75h-4q-33 -44 -69.5 -64.5t-100.5 -20.5q-68 0 -113.5 41t-45.5 127q0 84 58 126t175 47l86 3v27q0 52 -21.5 74t-60.5 22q-37 0 -73.5 -11.5t-70.5 -28.5l-41 88q40 21 90 34t108 13zM359 256l-57 -2q-71 -3 -99 -28.5
t-28 -68.5q0 -39 19.5 -55.5t51.5 -16.5q47 0 80 31.5t33 93.5v46zM433 704v-91h-307v91h307z" />
    <glyph glyph-name="Abreve" unicode="&#x102;" horiz-adv-x="642" 
d="M498 0l-55 189h-244l-55 -189h-144l240 717h161l241 -717h-144zM411 299l-57 184q-7 25 -17 61.5t-16 68.5q-7 -37 -16 -71t-16 -59l-56 -184h178zM491 931q-4 -67 -50 -110t-122 -43q-80 0 -122 41.5t-46 111.5h74q6 -41 30 -51t65 -10q34 0 61.5 11t33.5 50h76z" />
    <glyph glyph-name="abreve" unicode="&#x103;" horiz-adv-x="560" 
d="M289 552q98 0 150 -46t52 -142v-364h-93l-26 75h-4q-33 -44 -69.5 -64.5t-100.5 -20.5q-68 0 -113.5 41t-45.5 127q0 84 58 126t175 47l86 3v27q0 52 -21.5 74t-60.5 22q-37 0 -73.5 -11.5t-70.5 -28.5l-41 88q40 21 90 34t108 13zM359 256l-57 -2q-71 -3 -99 -28.5
t-28 -68.5q0 -39 19.5 -55.5t51.5 -16.5q47 0 80 31.5t33 93.5v46zM450 766q-4 -67 -50 -110t-122 -43q-80 0 -122 41.5t-46 111.5h74q6 -41 30 -51t65 -10q34 0 61.5 11t33.5 50h76z" />
    <glyph glyph-name="Aogonek" unicode="&#x104;" horiz-adv-x="642" 
d="M498 0l-55 189h-244l-55 -189h-144l240 717h161l241 -717h-144zM411 299l-57 184q-7 25 -17 61.5t-16 68.5q-7 -37 -16 -71t-16 -59l-56 -184h178zM562 -113q0 -21 10.5 -31.5t27.5 -10.5q14 0 28 3t22 5v-75q-14 -4 -30.5 -7t-38.5 -3q-52 0 -82 28.5t-30 76.5
q0 43 27.5 81.5t71.5 61.5l58 -16q-31 -32 -47.5 -58.5t-16.5 -54.5z" />
    <glyph glyph-name="aogonek" unicode="&#x105;" horiz-adv-x="560" 
d="M289 552q98 0 150 -46t52 -142v-364h-93l-26 75h-4q-33 -44 -69.5 -64.5t-100.5 -20.5q-68 0 -113.5 41t-45.5 127q0 84 58 126t175 47l86 3v27q0 52 -21.5 74t-60.5 22q-37 0 -73.5 -11.5t-70.5 -28.5l-41 88q40 21 90 34t108 13zM359 256l-57 -2q-71 -3 -99 -28.5
t-28 -68.5q0 -39 19.5 -55.5t51.5 -16.5q47 0 80 31.5t33 93.5v46zM431 -113q0 -21 10.5 -31.5t27.5 -10.5q14 0 28 3t22 5v-75q-14 -4 -30.5 -7t-38.5 -3q-52 0 -82 28.5t-30 76.5q0 43 27.5 81.5t71.5 61.5l58 -16q-31 -32 -47.5 -58.5t-16.5 -54.5z" />
    <glyph glyph-name="Cacute" unicode="&#x106;" horiz-adv-x="600" 
d="M373 616q-85 0 -133 -69.5t-48 -190.5q0 -122 45.5 -190t138.5 -68q43 0 83.5 9.5t83.5 25.5v-109q-42 -18 -85 -26t-97 -8q-105 0 -173.5 45.5t-101.5 128t-33 193.5q0 108 37 190.5t108.5 129.5t175.5 47q50 0 103 -12t93 -35l-45 -105q-35 17 -73 30.5t-79 13.5z
M509 938v-10q-17 -18 -47.5 -47t-63 -57t-56.5 -46h-88v13q14 19 34 44.5t39.5 53t32.5 49.5h149z" />
    <glyph glyph-name="cacute" unicode="&#x107;" horiz-adv-x="480" 
d="M288 -10q-112 0 -177.5 67t-65.5 211q0 100 32.5 162.5t89.5 92t131 29.5q46 0 86.5 -10t67.5 -24l-40 -97q-27 11 -54 19t-55 8q-123 0 -123 -179q0 -87 32 -131t90 -44q39 0 72.5 11t63.5 30v-109q-31 -19 -65.5 -27.5t-84.5 -8.5zM428 766v-10q-17 -18 -47.5 -47
t-63 -57t-56.5 -46h-88v13q14 19 34 44.5t39.5 53t32.5 49.5h149z" />
    <glyph glyph-name="Ccircumflex" unicode="&#x108;" horiz-adv-x="600" 
d="M373 616q-85 0 -133 -69.5t-48 -190.5q0 -122 45.5 -190t138.5 -68q43 0 83.5 9.5t83.5 25.5v-109q-42 -18 -85 -26t-97 -8q-105 0 -173.5 45.5t-101.5 128t-33 193.5q0 108 37 190.5t108.5 129.5t175.5 47q50 0 103 -12t93 -35l-45 -105q-35 17 -73 30.5t-79 13.5z
M422 938q13 -22 34.5 -49.5t44 -54t39.5 -44.5v-12h-88q-25 16 -50.5 38.5t-50.5 49.5q-25 -27 -49.5 -49.5t-49.5 -38.5h-88v12q18 19 40 45t43 53.5t34 49.5h141z" />
    <glyph glyph-name="ccircumflex" unicode="&#x109;" horiz-adv-x="480" 
d="M288 -10q-112 0 -177.5 67t-65.5 211q0 100 32.5 162.5t89.5 92t131 29.5q46 0 86.5 -10t67.5 -24l-40 -97q-27 11 -54 19t-55 8q-123 0 -123 -179q0 -87 32 -131t90 -44q39 0 72.5 11t63.5 30v-109q-31 -19 -65.5 -27.5t-84.5 -8.5zM341 766q13 -22 34.5 -49.5t44 -54
t39.5 -44.5v-12h-88q-25 16 -50.5 38.5t-50.5 49.5q-25 -27 -49.5 -49.5t-49.5 -38.5h-88v12q18 19 40 45t43 53.5t34 49.5h141z" />
    <glyph glyph-name="Cdot" unicode="&#x10a;" horiz-adv-x="600" 
d="M373 616q-85 0 -133 -69.5t-48 -190.5q0 -122 45.5 -190t138.5 -68q43 0 83.5 9.5t83.5 25.5v-109q-42 -18 -85 -26t-97 -8q-105 0 -173.5 45.5t-101.5 128t-33 193.5q0 108 37 190.5t108.5 129.5t175.5 47q50 0 103 -12t93 -35l-45 -105q-35 17 -73 30.5t-79 13.5z
M352 923q29 0 50.5 -14.5t21.5 -51.5t-21.5 -52t-50.5 -15q-31 0 -52 15t-21 52t21 51.5t52 14.5z" />
    <glyph glyph-name="cdot" unicode="&#x10b;" horiz-adv-x="480" 
d="M288 -10q-112 0 -177.5 67t-65.5 211q0 100 32.5 162.5t89.5 92t131 29.5q46 0 86.5 -10t67.5 -24l-40 -97q-27 11 -54 19t-55 8q-123 0 -123 -179q0 -87 32 -131t90 -44q39 0 72.5 11t63.5 30v-109q-31 -19 -65.5 -27.5t-84.5 -8.5zM271 751q29 0 50.5 -14.5t21.5 -51.5
t-21.5 -52t-50.5 -15q-31 0 -52 15t-21 52t21 51.5t52 14.5z" />
    <glyph glyph-name="Ccaron" unicode="&#x10c;" horiz-adv-x="600" 
d="M373 616q-85 0 -133 -69.5t-48 -190.5q0 -122 45.5 -190t138.5 -68q43 0 83.5 9.5t83.5 25.5v-109q-42 -18 -85 -26t-97 -8q-105 0 -173.5 45.5t-101.5 128t-33 193.5q0 108 37 190.5t108.5 129.5t175.5 47q50 0 103 -12t93 -35l-45 -105q-35 17 -73 30.5t-79 13.5z
M540 938v-13q-17 -19 -39.5 -44.5t-44 -53t-34.5 -49.5h-141q-13 22 -34 49.5t-43 53t-40 44.5v13h88q51 -34 99 -88q25 27 50.5 49.5t50.5 38.5h88z" />
    <glyph glyph-name="ccaron" unicode="&#x10d;" horiz-adv-x="480" 
d="M288 -10q-112 0 -177.5 67t-65.5 211q0 100 32.5 162.5t89.5 92t131 29.5q46 0 86.5 -10t67.5 -24l-40 -97q-27 11 -54 19t-55 8q-123 0 -123 -179q0 -87 32 -131t90 -44q39 0 72.5 11t63.5 30v-109q-31 -19 -65.5 -27.5t-84.5 -8.5zM459 766v-13q-17 -19 -39.5 -44.5
t-44 -53t-34.5 -49.5h-141q-13 22 -34 49.5t-43 53t-40 44.5v13h88q51 -34 99 -88q25 27 50.5 49.5t50.5 38.5h88z" />
    <glyph glyph-name="Dcaron" unicode="&#x10e;" horiz-adv-x="691" 
d="M637 364q0 -181 -95 -272.5t-262 -91.5h-196v714h215q157 0 247.5 -89t90.5 -261zM497 360q0 128 -51 188t-148 60h-80v-501h65q109 0 161.5 63.5t52.5 189.5zM532 938v-13q-17 -19 -39.5 -44.5t-44 -53t-34.5 -49.5h-141q-13 22 -34 49.5t-43 53t-40 44.5v13h88
q51 -34 99 -88q25 27 50.5 49.5t50.5 38.5h88z" />
    <glyph glyph-name="dcaron" unicode="&#x10f;" horiz-adv-x="626" 
d="M240 -10q-87 0 -141 70.5t-54 209.5q0 140 55 211t144 71q56 0 90.5 -23t56.5 -56h4q-2 14 -5 42.5t-3 54.5v190h133v-760h-102l-25 71h-6q-20 -34 -55.5 -57.5t-91.5 -23.5zM284 92q61 0 86 40t25 121v16q0 87 -23.5 133.5t-88.5 46.5q-50 0 -76.5 -47.5t-26.5 -133.5
t26.5 -131t77.5 -45zM713 760v-10q-13 -31 -32 -71.5t-42 -78.5h-77v13q8 29 16.5 72t11.5 75h123z" />
    <glyph glyph-name="Dcroat" unicode="&#x110;" horiz-adv-x="691" 
d="M299 714q157 0 247.5 -89t90.5 -261q0 -181 -95.5 -272.5t-261.5 -91.5h-194v300h-64v106h64v308h213zM298 608h-78v-202h125v-106h-125v-193h63q214 0 214 253q0 128 -51.5 188t-147.5 60z" />
    <glyph glyph-name="dcroat" unicode="&#x111;" horiz-adv-x="604" 
d="M238 -10q-86 0 -139.5 68t-53.5 202q0 136 55.5 204t144.5 68q55 0 90.5 -23t56.5 -56h5q-5 26 -7.5 51.5t-2.5 48.5v39h-152v85h152v83h133v-83h72v-85h-72v-592h-106l-26 71h-5q-21 -34 -55.5 -57.5t-89.5 -23.5zM288 92q58 0 82.5 38t24.5 114v15q0 83 -24.5 127
t-85.5 44q-48 0 -74 -45t-26 -127q0 -81 25.5 -123.5t77.5 -42.5z" />
    <glyph glyph-name="Emacron" unicode="&#x112;" horiz-adv-x="522" 
d="M469 0h-385v714h385v-107h-251v-182h235v-107h-235v-210h251v-108zM434 869v-91h-307v91h307z" />
    <glyph glyph-name="emacron" unicode="&#x113;" horiz-adv-x="554" 
d="M285 552q105 0 166 -65t61 -181v-64h-332q2 -74 36 -114.5t98 -40.5q49 0 88.5 10.5t81.5 30.5v-101q-38 -19 -79.5 -28t-100.5 -9q-76 0 -134.5 30.5t-91.5 92t-33 154.5q0 139 66.5 212t173.5 73zM287 459q-44 0 -72.5 -32.5t-32.5 -96.5h204q-1 56 -25 92.5t-74 36.5z
M431 697v-91h-307v91h307z" />
    <glyph glyph-name="Ebreve" unicode="&#x114;" horiz-adv-x="522" 
d="M469 0h-385v714h385v-107h-251v-182h235v-107h-235v-210h251v-108zM451 931q-4 -67 -50 -110t-122 -43q-80 0 -122 41.5t-46 111.5h74q6 -41 30 -51t65 -10q34 0 61.5 11t33.5 50h76z" />
    <glyph glyph-name="ebreve" unicode="&#x115;" horiz-adv-x="554" 
d="M285 552q105 0 166 -65t61 -181v-64h-332q2 -74 36 -114.5t98 -40.5q49 0 88.5 10.5t81.5 30.5v-101q-38 -19 -79.5 -28t-100.5 -9q-76 0 -134.5 30.5t-91.5 92t-33 154.5q0 139 66.5 212t173.5 73zM287 459q-44 0 -72.5 -32.5t-32.5 -96.5h204q-1 56 -25 92.5t-74 36.5z
M448 759q-4 -67 -50 -110t-122 -43q-80 0 -122 41.5t-46 111.5h74q6 -41 30 -51t65 -10q34 0 61.5 11t33.5 50h76z" />
    <glyph glyph-name="Edotaccent" unicode="&#x116;" horiz-adv-x="522" 
d="M469 0h-385v714h385v-107h-251v-182h235v-107h-235v-210h251v-108zM281 923q29 0 50.5 -14.5t21.5 -51.5t-21.5 -52t-50.5 -15q-31 0 -52 15t-21 52t21 51.5t52 14.5z" />
    <glyph glyph-name="edotaccent" unicode="&#x117;" horiz-adv-x="554" 
d="M285 552q105 0 166 -65t61 -181v-64h-332q2 -74 36 -114.5t98 -40.5q49 0 88.5 10.5t81.5 30.5v-101q-38 -19 -79.5 -28t-100.5 -9q-76 0 -134.5 30.5t-91.5 92t-33 154.5q0 139 66.5 212t173.5 73zM287 459q-44 0 -72.5 -32.5t-32.5 -96.5h204q-1 56 -25 92.5t-74 36.5z
M278 751q29 0 50.5 -14.5t21.5 -51.5t-21.5 -52t-50.5 -15q-31 0 -52 15t-21 52t21 51.5t52 14.5z" />
    <glyph glyph-name="Eogonek" unicode="&#x118;" horiz-adv-x="522" 
d="M469 0h-385v714h385v-107h-251v-182h235v-107h-235v-210h251v-108zM401 -113q0 -21 10.5 -31.5t27.5 -10.5q14 0 28 3t22 5v-75q-14 -4 -30.5 -7t-38.5 -3q-52 0 -82 28.5t-30 76.5q0 43 27.5 81.5t71.5 61.5l58 -16q-31 -32 -47.5 -58.5t-16.5 -54.5z" />
    <glyph glyph-name="eogonek" unicode="&#x119;" horiz-adv-x="554" 
d="M380 -113q0 -21 11.5 -31.5t29.5 -10.5q17 0 30.5 3l22.5 5v-75q-15 -4 -31.5 -7t-38.5 -3q-56 0 -85.5 28.5t-29.5 76.5q0 33 20 64.5t49 54.5q-25 -2 -54 -2q-76 0 -134.5 30.5t-91.5 92t-33 154.5q0 139 66.5 212t173.5 73q105 0 166 -65t61 -181v-64h-332
q2 -74 36 -114.5t98 -40.5q49 0 88.5 10.5t81.5 30.5v-101l-2 -1q-60 -51 -81 -81t-21 -58zM287 459q-44 0 -72.5 -32.5t-32.5 -96.5h204q-1 56 -25 92.5t-74 36.5z" />
    <glyph glyph-name="Ecaron" unicode="&#x11a;" horiz-adv-x="522" 
d="M469 0h-385v714h385v-107h-251v-182h235v-107h-235v-210h251v-108zM469 938v-13q-17 -19 -39.5 -44.5t-44 -53t-34.5 -49.5h-141q-13 22 -34 49.5t-43 53t-40 44.5v13h88q51 -34 99 -88q25 27 50.5 49.5t50.5 38.5h88z" />
    <glyph glyph-name="ecaron" unicode="&#x11b;" horiz-adv-x="554" 
d="M285 552q105 0 166 -65t61 -181v-64h-332q2 -74 36 -114.5t98 -40.5q49 0 88.5 10.5t81.5 30.5v-101q-38 -19 -79.5 -28t-100.5 -9q-76 0 -134.5 30.5t-91.5 92t-33 154.5q0 139 66.5 212t173.5 73zM287 459q-44 0 -72.5 -32.5t-32.5 -96.5h204q-1 56 -25 92.5t-74 36.5z
M466 766v-13q-17 -19 -39.5 -44.5t-44 -53t-34.5 -49.5h-141q-13 22 -34 49.5t-43 53t-40 44.5v13h88q51 -34 99 -88q25 27 50.5 49.5t50.5 38.5h88z" />
    <glyph glyph-name="Gcircumflex" unicode="&#x11c;" horiz-adv-x="686" 
d="M355 392h261v-363q-52 -19 -112 -29t-132 -10q-151 0 -235 96t-84 272q0 112 41 194t119.5 127t190.5 45q57 0 109.5 -12t95.5 -31l-45 -105q-34 16 -75.5 28t-86.5 12q-102 0 -156 -71t-54 -189q0 -76 20.5 -134t64 -91t110.5 -33q31 0 56 4t44 9v172h-132v109zM448 938
q13 -22 34.5 -49.5t44 -54t39.5 -44.5v-12h-88q-25 16 -50.5 38.5t-50.5 49.5q-25 -27 -49.5 -49.5t-49.5 -38.5h-88v12q18 19 40 45t43 53.5t34 49.5h141z" />
    <glyph glyph-name="gcircumflex" unicode="&#x11d;" horiz-adv-x="592" 
d="M243 552q100 0 149 -80h5l11 70h112v-546q0 -116 -62 -176t-190 -60q-57 0 -103.5 7.5t-88.5 25.5v104q44 -20 90.5 -31t102.5 -11q58 0 88.5 34.5t30.5 100.5v14q0 15 1 35t3 32h-5q-23 -42 -59.5 -61.5t-86.5 -19.5q-91 0 -143.5 74t-52.5 206t53.5 207t144.5 75z
M283 449q-103 0 -103 -181q0 -178 105 -178q59 0 85 36.5t26 123.5v19q0 96 -26 138t-87 42zM359 766q13 -22 34.5 -49.5t44 -54t39.5 -44.5v-12h-88q-25 16 -50.5 38.5t-50.5 49.5q-25 -27 -49.5 -49.5t-49.5 -38.5h-88v12q18 19 40 45t43 53.5t34 49.5h141z" />
    <glyph glyph-name="Gbreve" unicode="&#x11e;" horiz-adv-x="686" 
d="M355 392h261v-363q-52 -19 -112 -29t-132 -10q-151 0 -235 96t-84 272q0 112 41 194t119.5 127t190.5 45q57 0 109.5 -12t95.5 -31l-45 -105q-34 16 -75.5 28t-86.5 12q-102 0 -156 -71t-54 -189q0 -76 20.5 -134t64 -91t110.5 -33q31 0 56 4t44 9v172h-132v109zM548 931
q-4 -67 -50 -110t-122 -43q-80 0 -122 41.5t-46 111.5h74q6 -41 30 -51t65 -10q34 0 61.5 11t33.5 50h76z" />
    <glyph glyph-name="gbreve" unicode="&#x11f;" horiz-adv-x="592" 
d="M243 552q100 0 149 -80h5l11 70h112v-546q0 -116 -62 -176t-190 -60q-57 0 -103.5 7.5t-88.5 25.5v104q44 -20 90.5 -31t102.5 -11q58 0 88.5 34.5t30.5 100.5v14q0 15 1 35t3 32h-5q-23 -42 -59.5 -61.5t-86.5 -19.5q-91 0 -143.5 74t-52.5 206t53.5 207t144.5 75z
M283 449q-103 0 -103 -181q0 -178 105 -178q59 0 85 36.5t26 123.5v19q0 96 -26 138t-87 42zM459 759q-4 -67 -50 -110t-122 -43q-80 0 -122 41.5t-46 111.5h74q6 -41 30 -51t65 -10q34 0 61.5 11t33.5 50h76z" />
    <glyph glyph-name="Gdot" unicode="&#x120;" horiz-adv-x="686" 
d="M355 392h261v-363q-52 -19 -112 -29t-132 -10q-151 0 -235 96t-84 272q0 112 41 194t119.5 127t190.5 45q57 0 109.5 -12t95.5 -31l-45 -105q-34 16 -75.5 28t-86.5 12q-102 0 -156 -71t-54 -189q0 -76 20.5 -134t64 -91t110.5 -33q31 0 56 4t44 9v172h-132v109zM378 923
q29 0 50.5 -14.5t21.5 -51.5t-21.5 -52t-50.5 -15q-31 0 -52 15t-21 52t21 51.5t52 14.5z" />
    <glyph glyph-name="gdot" unicode="&#x121;" horiz-adv-x="592" 
d="M243 552q100 0 149 -80h5l11 70h112v-546q0 -116 -62 -176t-190 -60q-57 0 -103.5 7.5t-88.5 25.5v104q44 -20 90.5 -31t102.5 -11q58 0 88.5 34.5t30.5 100.5v14q0 15 1 35t3 32h-5q-23 -42 -59.5 -61.5t-86.5 -19.5q-91 0 -143.5 74t-52.5 206t53.5 207t144.5 75z
M283 449q-103 0 -103 -181q0 -178 105 -178q59 0 85 36.5t26 123.5v19q0 96 -26 138t-87 42zM289 751q29 0 50.5 -14.5t21.5 -51.5t-21.5 -52t-50.5 -15q-31 0 -52 15t-21 52t21 51.5t52 14.5z" />
    <glyph glyph-name="uni0122" unicode="&#x122;" horiz-adv-x="686" 
d="M355 392h261v-363q-52 -19 -112 -29t-132 -10q-151 0 -235 96t-84 272q0 112 41 194t119.5 127t190.5 45q57 0 109.5 -12t95.5 -31l-45 -105q-34 16 -75.5 28t-86.5 12q-102 0 -156 -71t-54 -189q0 -76 20.5 -134t64 -91t110.5 -33q31 0 56 4t44 9v172h-132v109zM436 -61
v-10q-12 -31 -32 -72t-45 -78h-76v13q5 18 11.5 44.5t11.5 54t7 48.5h123z" />
    <glyph glyph-name="uni0123" unicode="&#x123;" horiz-adv-x="626" 
d="M243 552q100 0 149 -80h5l11 70h112v-546q0 -116 -62 -176t-190 -60q-57 0 -103.5 7.5t-88.5 25.5v104q44 -20 90.5 -31t102.5 -11q58 0 88.5 34.5t30.5 100.5v14q0 15 1 35t3 32h-5q-23 -42 -59.5 -61.5t-86.5 -19.5q-91 0 -143.5 74t-52.5 206t53.5 207t144.5 75z
M283 449q-103 0 -103 -181q0 -178 105 -178q59 0 85 36.5t26 123.5v19q0 96 -26 138t-87 42zM361 766v-13q-6 -19 -12 -45t-10.5 -53t-7.5 -49h-124v10q11 31 32 71.5t45 78.5h77z" />
    <glyph glyph-name="Hcircumflex" unicode="&#x124;" horiz-adv-x="713" 
d="M629 0h-135v317h-276v-317h-134v714h134v-288h276v288h135v-714zM427 938q13 -22 34.5 -49.5t44 -54t39.5 -44.5v-12h-88q-25 16 -50.5 38.5t-50.5 49.5q-25 -27 -49.5 -49.5t-49.5 -38.5h-88v12q18 19 40 45t43 53.5t34 49.5h141z" />
    <glyph glyph-name="hcircumflex" unicode="&#x125;" horiz-adv-x="609" 
d="M205 760v-181q0 -32 -2.5 -62.5t-4.5 -45.5h8q24 41 63 61t86 20q84 0 134.5 -47.5t50.5 -151.5v-353h-133v328q0 122 -87 122q-66 0 -90.5 -48t-24.5 -137v-265h-133v760h133zM210 984q13 -22 34.5 -49.5t44 -54t39.5 -44.5v-12h-88q-25 16 -50.5 38.5t-50.5 49.5
q-25 -27 -49.5 -49.5t-49.5 -38.5h-88v12q18 19 40 45t43 53.5t34 49.5h141z" />
    <glyph glyph-name="Hbar" unicode="&#x126;" horiz-adv-x="716" 
d="M85 0v522h-85v88h85v104h135v-104h276v104h135v-104h85v-88h-85v-522h-135v317h-276v-317h-135zM220 426h276v96h-276v-96z" />
    <glyph glyph-name="hbar" unicode="&#x127;" horiz-adv-x="611" 
d="M207 760v-83h153v-85h-153v-39q0 -32 -2.5 -62.5t-3.5 -45.5h9q24 41 62.5 61t86.5 20q84 0 133.5 -47.5t49.5 -151.5v-327h-132v302q0 122 -87 122q-66 0 -91 -48t-25 -137v-239h-132v592h-71v85h71v83h132z" />
    <glyph glyph-name="Itilde" unicode="&#x128;" horiz-adv-x="364" 
d="M330 0h-297v73l82 32v503l-82 33v73h297v-73l-81 -33v-503l81 -32v-73zM368 921q-6 -71 -36.5 -107t-76.5 -36q-27 0 -52.5 13.5t-49 27t-45.5 13.5q-32 0 -44 -55h-66q6 71 36.5 107t77.5 36q26 0 51.5 -13.5t49 -27t45.5 -13.5q32 0 44 55h66z" />
    <glyph glyph-name="itilde" unicode="&#x129;" horiz-adv-x="277" 
d="M205 0h-133v542h133v-542zM324 749q-6 -71 -36.5 -107t-76.5 -36q-27 0 -52.5 13.5t-49 27t-45.5 13.5q-32 0 -44 -55h-66q6 71 36.5 107t77.5 36q26 0 51.5 -13.5t49 -27t45.5 -13.5q32 0 44 55h66z" />
    <glyph glyph-name="Imacron" unicode="&#x12a;" horiz-adv-x="364" 
d="M330 0h-297v73l82 32v503l-82 33v73h297v-73l-81 -33v-503l81 -32v-73zM336 869v-91h-307v91h307z" />
    <glyph glyph-name="imacron" unicode="&#x12b;" horiz-adv-x="277" 
d="M205 0h-133v542h133v-542zM292 697v-91h-307v91h307z" />
    <glyph glyph-name="Ibreve" unicode="&#x12c;" horiz-adv-x="364" 
d="M330 0h-297v73l82 32v503l-82 33v73h297v-73l-81 -33v-503l81 -32v-73zM353 931q-4 -67 -50 -110t-122 -43q-80 0 -122 41.5t-46 111.5h74q6 -41 30 -51t65 -10q34 0 61.5 11t33.5 50h76z" />
    <glyph glyph-name="ibreve" unicode="&#x12d;" horiz-adv-x="277" 
d="M205 0h-133v542h133v-542zM309 759q-4 -67 -50 -110t-122 -43q-80 0 -122 41.5t-46 111.5h74q6 -41 30 -51t65 -10q34 0 61.5 11t33.5 50h76z" />
    <glyph glyph-name="Iogonek" unicode="&#x12e;" horiz-adv-x="364" 
d="M330 0h-297v73l82 32v503l-82 33v73h297v-73l-81 -33v-503l81 -32v-73zM235 -113q0 -21 10.5 -31.5t27.5 -10.5q14 0 28 3t22 5v-75q-14 -4 -30.5 -7t-38.5 -3q-52 0 -82 28.5t-30 76.5q0 43 27.5 81.5t71.5 61.5l58 -16q-31 -32 -47.5 -58.5t-16.5 -54.5z" />
    <glyph glyph-name="iogonek" unicode="&#x12f;" horiz-adv-x="277" 
d="M140 751q28 0 49.5 -14.5t21.5 -51.5t-21.5 -52t-49.5 -15q-31 0 -52 15t-21 52t21 51.5t52 14.5zM205 542v-542h-132v542h132zM128 -113q0 -21 10.5 -31.5t27.5 -10.5q14 0 28 3t22 5v-75q-14 -4 -30.5 -7t-38.5 -3q-52 0 -82 28.5t-30 76.5q0 43 27.5 81.5t71.5 61.5
l58 -16q-31 -32 -47.5 -58.5t-16.5 -54.5z" />
    <glyph glyph-name="Idotaccent" unicode="&#x130;" horiz-adv-x="364" 
d="M330 0h-297v73l82 32v503l-82 33v73h297v-73l-81 -33v-503l81 -32v-73zM183 923q29 0 50.5 -14.5t21.5 -51.5t-21.5 -52t-50.5 -15q-31 0 -52 15t-21 52t21 51.5t52 14.5z" />
    <glyph glyph-name="IJ" unicode="&#x132;" horiz-adv-x="662" 
d="M330 0h-297v73l82 32v503l-82 33v73h297v-73l-81 -33v-503l81 -32v-73zM374 -202q-27 0 -47.5 3t-34.5 8v107q15 -4 31.5 -7t35.5 -3q26 0 46 10t30.5 37t10.5 77v684h135v-681q0 -83 -26 -135t-72.5 -76t-108.5 -24z" />
    <glyph glyph-name="ij" unicode="&#x133;" horiz-adv-x="554" 
d="M140 751q28 0 49.5 -14.5t21.5 -51.5t-21.5 -52t-49.5 -15q-31 0 -52 15t-21 52t21 51.5t52 14.5zM205 542v-542h-132v542h132zM344 685q0 37 21 51.5t51 14.5q29 0 50.5 -14.5t21.5 -51.5t-21.5 -52t-50.5 -15q-30 0 -51 15t-21 52zM310 -240q-23 0 -47 3.5t-39 8.5v100
q15 -4 29.5 -7t31.5 -3q27 0 46 17t19 67v596h131v-609q0 -50 -17 -89t-54.5 -61.5t-99.5 -22.5z" />
    <glyph glyph-name="Jcircumflex" unicode="&#x134;" horiz-adv-x="298" 
d="M10 -202q-27 0 -47.5 3t-34.5 8v107q15 -4 31.5 -7t35.5 -3q26 0 46 10t30.5 37t10.5 77v684h135v-681q0 -83 -26 -135t-72.5 -76t-108.5 -24zM220 938q13 -22 34.5 -49.5t44 -54t39.5 -44.5v-12h-88q-25 16 -50.5 38.5t-50.5 49.5q-25 -27 -49.5 -49.5t-49.5 -38.5h-88
v12q18 19 40 45t43 53.5t34 49.5h141z" />
    <glyph glyph-name="jcircumflex" unicode="&#x135;" horiz-adv-x="277" 
d="M33 -240q-23 0 -47 3.5t-39 8.5v100q15 -4 29.5 -7t31.5 -3q27 0 46 17t19 67v596h131v-609q0 -50 -17 -89t-54.5 -61.5t-99.5 -22.5zM209 766q13 -22 34.5 -49.5t44 -54t39.5 -44.5v-12h-88q-25 16 -50.5 38.5t-50.5 49.5q-25 -27 -49.5 -49.5t-49.5 -38.5h-88v12
q18 19 40 45t43 53.5t34 49.5h141z" />
    <glyph glyph-name="uni0136" unicode="&#x136;" horiz-adv-x="616" 
d="M616 0h-153l-184 316l-61 -53v-263h-134v714h134v-336q18 26 38 52t39 51l168 233h150l-237 -314zM397 -61v-10q-12 -31 -32 -72t-45 -78h-76v13q5 18 11.5 44.5t11.5 54t7 48.5h123z" />
    <glyph glyph-name="uni0137" unicode="&#x137;" horiz-adv-x="566" 
d="M204 760v-361q0 -25 -2 -54.5t-5 -55.5h4q7 18 25 40.5t34 41.5l141 171h150l-197 -234l209 -308h-153l-147 232l-59 -52v-180h-132v760h132zM365 -61v-10q-12 -31 -32 -72t-45 -78h-76v13q5 18 11.5 44.5t11.5 54t7 48.5h123z" />
    <glyph glyph-name="kgreenlandic" unicode="&#x138;" horiz-adv-x="566" 
d="M551 542l-193 -245l205 -297h-152l-142 221l-63 -48v-173h-134v542h134v-141q0 -34 -1 -67t-3 -59h2q11 18 24.5 36t27.5 36l147 195h148z" />
    <glyph glyph-name="Lacute" unicode="&#x139;" horiz-adv-x="523" 
d="M84 0v714h134v-606h275v-108h-409zM305 938v-10q-17 -18 -47.5 -47t-63 -57t-56.5 -46h-88v13q14 19 34 44.5t39.5 53t32.5 49.5h149z" />
    <glyph glyph-name="lacute" unicode="&#x13a;" horiz-adv-x="277" 
d="M205 0h-133v760h133v-760zM296 984v-10q-17 -18 -47.5 -47t-63 -57t-56.5 -46h-88v13q14 19 34 44.5t39.5 53t32.5 49.5h149z" />
    <glyph glyph-name="uni013B" unicode="&#x13b;" horiz-adv-x="523" 
d="M84 0v714h134v-606h275v-108h-409zM355 -61v-10q-12 -31 -32 -72t-45 -78h-76v13q5 18 11.5 44.5t11.5 54t7 48.5h123z" />
    <glyph glyph-name="uni013C" unicode="&#x13c;" horiz-adv-x="277" 
d="M205 0h-133v760h133v-760zM207 -61v-10q-12 -31 -32 -72t-45 -78h-76v13q5 18 11.5 44.5t11.5 54t7 48.5h123z" />
    <glyph glyph-name="Lcaron" unicode="&#x13d;" horiz-adv-x="550" 
d="M84 0v714h134v-606h275v-108h-409zM518 714v-10q-13 -31 -32 -71.5t-42 -78.5h-77v13q8 29 16.5 72t11.5 75h123z" />
    <glyph glyph-name="lcaron" unicode="&#x13e;" horiz-adv-x="287" 
d="M205 0h-133v760h133v-760zM397 760v-10q-13 -31 -32 -71.5t-42 -78.5h-77v13q8 29 16.5 72t11.5 75h123z" />
    <glyph glyph-name="Ldot" unicode="&#x13f;" horiz-adv-x="523" 
d="M84 0v714h134v-606h275v-108h-409zM413 445q29 0 50.5 -14.5t21.5 -51.5t-21.5 -52t-50.5 -15q-31 0 -52 15t-21 52t21 51.5t52 14.5z" />
    <glyph glyph-name="ldot" unicode="&#x140;" horiz-adv-x="327" 
d="M205 0h-133v760h133v-760zM303 445q29 0 50.5 -14.5t21.5 -51.5t-21.5 -52t-50.5 -15q-31 0 -52 15t-21 52t21 51.5t52 14.5z" />
    <glyph glyph-name="Lslash" unicode="&#x141;" horiz-adv-x="530" 
d="M91 0v243l-42 -23l-49 82l91 53v359h133v-282l98 57l51 -83l-149 -86v-212h276v-108h-409z" />
    <glyph glyph-name="lslash" unicode="&#x142;" horiz-adv-x="304" 
d="M84 0v253l-46 -26l-49 83l95 55v395h132v-317l48 30l51 -82l-99 -60v-331h-132z" />
    <glyph glyph-name="Nacute" unicode="&#x143;" horiz-adv-x="754" 
d="M670 0h-169l-301 560h-4q2 -45 4.5 -96.5t3.5 -103.5v-360h-120v714h168l300 -556h4q-2 40 -4.5 92t-2.5 101v363h121v-714zM534 938v-10q-17 -18 -47.5 -47t-63 -57t-56.5 -46h-88v13q14 19 34 44.5t39.5 53t32.5 49.5h149z" />
    <glyph glyph-name="nacute" unicode="&#x144;" horiz-adv-x="609" 
d="M357 552q85 0 134 -47t49 -152v-353h-133v328q0 122 -87 122q-67 0 -91 -48t-24 -137v-265h-133v542h102l19 -71h6q24 42 66 61.5t92 19.5zM461 766v-10q-17 -18 -47.5 -47t-63 -57t-56.5 -46h-88v13q14 19 34 44.5t39.5 53t32.5 49.5h149z" />
    <glyph glyph-name="uni0145" unicode="&#x145;" horiz-adv-x="754" 
d="M670 0h-169l-301 560h-4q2 -45 4.5 -96.5t3.5 -103.5v-360h-120v714h168l300 -556h4q-2 40 -4.5 92t-2.5 101v363h121v-714zM445 -61v-10q-12 -31 -32 -72t-45 -78h-76v13q5 18 11.5 44.5t11.5 54t7 48.5h123z" />
    <glyph glyph-name="uni0146" unicode="&#x146;" horiz-adv-x="609" 
d="M357 552q85 0 134 -47t49 -152v-353h-133v328q0 122 -87 122q-67 0 -91 -48t-24 -137v-265h-133v542h102l19 -71h6q24 42 66 61.5t92 19.5zM372 -61v-10q-12 -31 -32 -72t-45 -78h-76v13q5 18 11.5 44.5t11.5 54t7 48.5h123z" />
    <glyph glyph-name="Ncaron" unicode="&#x147;" horiz-adv-x="754" 
d="M670 0h-169l-301 560h-4q2 -45 4.5 -96.5t3.5 -103.5v-360h-120v714h168l300 -556h4q-2 40 -4.5 92t-2.5 101v363h121v-714zM565 938v-13q-17 -19 -39.5 -44.5t-44 -53t-34.5 -49.5h-141q-13 22 -34 49.5t-43 53t-40 44.5v13h88q51 -34 99 -88q25 27 50.5 49.5t50.5 38.5
h88z" />
    <glyph glyph-name="ncaron" unicode="&#x148;" horiz-adv-x="609" 
d="M357 552q85 0 134 -47t49 -152v-353h-133v328q0 122 -87 122q-67 0 -91 -48t-24 -137v-265h-133v542h102l19 -71h6q24 42 66 61.5t92 19.5zM492 766v-13q-17 -19 -39.5 -44.5t-44 -53t-34.5 -49.5h-141q-13 22 -34 49.5t-43 53t-40 44.5v13h88q51 -34 99 -88
q25 27 50.5 49.5t50.5 38.5h88z" />
    <glyph glyph-name="napostrophe" unicode="&#x149;" horiz-adv-x="739" 
d="M487 552q85 0 134 -47t49 -152v-353h-133v328q0 122 -87 122q-67 0 -91 -48t-24 -137v-265h-133v542h102l19 -71h6q24 42 66 61.5t92 19.5zM172 714l7 -11q-13 -53 -35.5 -116.5t-45.5 -117.5h-95q13 58 26 125.5t20 119.5h123z" />
    <glyph glyph-name="Eng" unicode="&#x14a;" horiz-adv-x="754" 
d="M462 -202q-29 0 -51 3t-37 8v102q16 -4 35 -7t40 -3q48 0 75 22.5t29 77.5l-353 559h-4q1 -6 2 -28t2.5 -53t2.5 -64t1 -60v-355h-120v714h163l305 -490h4q-1 6 -2 27.5t-2 51.5t-2 61.5t-1 57.5v292h121v-712q0 -106 -57.5 -155t-150.5 -49z" />
    <glyph glyph-name="eng" unicode="&#x14b;" horiz-adv-x="609" 
d="M377 -240q-48 0 -82 12v100q14 -4 26.5 -7t28.5 -3q24 0 40.5 17t16.5 67v389q0 115 -86 115q-67 0 -91.5 -47.5t-24.5 -137.5v-265h-133v542h102l18 -71h8q25 42 67.5 61.5t89.5 19.5q84 0 133.5 -47t49.5 -151v-421q0 -75 -37.5 -124t-125.5 -49z" />
    <glyph glyph-name="Omacron" unicode="&#x14c;" horiz-adv-x="744" 
d="M690 358q0 -111 -34.5 -193.5t-105 -128.5t-178.5 -46q-109 0 -179.5 46t-105 129t-34.5 194q0 110 34.5 192.5t105.5 128t180 45.5q107 0 177.5 -45.5t105 -128t34.5 -193.5zM195 358q0 -121 42 -190t135 -69q94 0 135 69t41 190t-41 190t-134 69q-94 0 -136 -69
t-42 -190zM525 880v-91h-307v91h307z" />
    <glyph glyph-name="omacron" unicode="&#x14d;" horiz-adv-x="582" 
d="M538 272q0 -135 -66.5 -208.5t-181.5 -73.5q-71 0 -126.5 33t-87 96t-31.5 153q0 135 66.5 207.5t181.5 72.5q71 0 126.5 -32.5t87 -95t31.5 -152.5zM180 272q0 -86 26.5 -133t85.5 -47q58 0 84.5 47t26.5 133t-26.5 132t-85.5 46t-85 -46t-26 -132zM445 697v-91h-307v91
h307z" />
    <glyph glyph-name="Obreve" unicode="&#x14e;" horiz-adv-x="744" 
d="M690 358q0 -111 -34.5 -193.5t-105 -128.5t-178.5 -46q-109 0 -179.5 46t-105 129t-34.5 194q0 110 34.5 192.5t105.5 128t180 45.5q107 0 177.5 -45.5t105 -128t34.5 -193.5zM195 358q0 -121 42 -190t135 -69q94 0 135 69t41 190t-41 190t-134 69q-94 0 -136 -69
t-42 -190zM542 942q-4 -67 -50 -110t-122 -43q-80 0 -122 41.5t-46 111.5h74q6 -41 30 -51t65 -10q34 0 61.5 11t33.5 50h76z" />
    <glyph glyph-name="obreve" unicode="&#x14f;" horiz-adv-x="582" 
d="M538 272q0 -135 -66.5 -208.5t-181.5 -73.5q-71 0 -126.5 33t-87 96t-31.5 153q0 135 66.5 207.5t181.5 72.5q71 0 126.5 -32.5t87 -95t31.5 -152.5zM180 272q0 -86 26.5 -133t85.5 -47q58 0 84.5 47t26.5 133t-26.5 132t-85.5 46t-85 -46t-26 -132zM462 759
q-4 -67 -50 -110t-122 -43q-80 0 -122 41.5t-46 111.5h74q6 -41 30 -51t65 -10q34 0 61.5 11t33.5 50h76z" />
    <glyph glyph-name="Ohungarumlaut" unicode="&#x150;" horiz-adv-x="744" 
d="M690 358q0 -111 -34.5 -193.5t-105 -128.5t-178.5 -46q-109 0 -179.5 46t-105 129t-34.5 194q0 110 34.5 192.5t105.5 128t180 45.5q107 0 177.5 -45.5t105 -128t34.5 -193.5zM195 358q0 -121 42 -190t135 -69q94 0 135 69t41 190t-41 190t-134 69q-94 0 -136 -69
t-42 -190zM575 949v-10q-8 -13 -25.5 -33t-40 -42t-45 -41.5t-39.5 -33.5h-70v13q13 19 29.5 45t32.5 53t26 49h132zM389 949v-10q-8 -13 -25.5 -33t-40 -42t-44.5 -41.5t-39 -33.5h-71v13q13 19 29.5 45t32 53t26.5 49h132z" />
    <glyph glyph-name="ohungarumlaut" unicode="&#x151;" horiz-adv-x="582" 
d="M538 272q0 -135 -66.5 -208.5t-181.5 -73.5q-71 0 -126.5 33t-87 96t-31.5 153q0 135 66.5 207.5t181.5 72.5q71 0 126.5 -32.5t87 -95t31.5 -152.5zM180 272q0 -86 26.5 -133t85.5 -47q58 0 84.5 47t26.5 133t-26.5 132t-85.5 46t-85 -46t-26 -132zM495 766v-10
q-8 -13 -25.5 -33t-40 -42t-45 -41.5t-39.5 -33.5h-70v13q13 19 29.5 45t32.5 53t26 49h132zM309 766v-10q-8 -13 -25.5 -33t-40 -42t-44.5 -41.5t-39 -33.5h-71v13q13 19 29.5 45t32 53t26.5 49h132z" />
    <glyph glyph-name="OE" unicode="&#x152;" horiz-adv-x="895" 
d="M358 725q25 0 53.5 -3t49.5 -8h382v-107h-250v-182h232v-107h-232v-210h250v-108h-382q-20 -4 -49 -7t-53 -3q-103 0 -171 46t-101.5 129t-33.5 194t33.5 193t101 127.5t170.5 45.5zM361 617q-86 0 -126.5 -69t-40.5 -190t40.5 -190t126.5 -69q27 0 53.5 4.5t44.5 13.5
v481q-18 9 -44 14t-54 5z" />
    <glyph glyph-name="oe" unicode="&#x153;" horiz-adv-x="909" 
d="M644 552q101 0 161.5 -65t60.5 -181v-64h-332q5 -155 135 -155q47 0 87 10.5t82 30.5v-101q-38 -19 -79 -28t-100 -9q-58 0 -105.5 22t-80.5 67q-65 -89 -184 -89q-71 0 -126.5 33t-87 96t-31.5 153q0 134 66 207t181 73q53 0 99 -23t77 -66q63 89 177 89zM642 459
q-44 0 -72 -32.5t-33 -96.5h204q-1 57 -25 93t-74 36zM289 450q-58 0 -83.5 -45t-25.5 -133t26 -134t84 -46t83 45t25 134t-25.5 134t-83.5 45z" />
    <glyph glyph-name="Racute" unicode="&#x154;" horiz-adv-x="613" 
d="M283 714q133 0 197 -52t64 -158q0 -78 -36.5 -123t-87.5 -67l192 -314h-152l-155 282h-87v-282h-134v714h199zM277 607h-59v-220h61q129 0 129 113q0 58 -32 82.5t-99 24.5zM467 938v-10q-17 -18 -47.5 -47t-63 -57t-56.5 -46h-88v13q14 19 34 44.5t39.5 53t32.5 49.5
h149z" />
    <glyph glyph-name="racute" unicode="&#x155;" horiz-adv-x="418" 
d="M349 552q13 0 28.5 -1.5t25.5 -3.5l-12 -117q-22 5 -52 5q-33 0 -64 -16.5t-50.5 -50.5t-19.5 -87v-281h-133v542h102l18 -94h7q23 43 62 73.5t88 30.5zM400 766v-10q-17 -18 -47.5 -47t-63 -57t-56.5 -46h-88v13q14 19 34 44.5t39.5 53t32.5 49.5h149z" />
    <glyph glyph-name="uni0156" unicode="&#x156;" horiz-adv-x="613" 
d="M283 714q133 0 197 -52t64 -158q0 -78 -36.5 -123t-87.5 -67l192 -314h-152l-155 282h-87v-282h-134v714h199zM277 607h-59v-220h61q129 0 129 113q0 58 -32 82.5t-99 24.5zM394 -61v-10q-12 -31 -32 -72t-45 -78h-76v13q5 18 11.5 44.5t11.5 54t7 48.5h123z" />
    <glyph glyph-name="uni0157" unicode="&#x157;" horiz-adv-x="418" 
d="M349 552q13 0 28.5 -1.5t25.5 -3.5l-12 -117q-22 5 -52 5q-33 0 -64 -16.5t-50.5 -50.5t-19.5 -87v-281h-133v542h102l18 -94h7q23 43 62 73.5t88 30.5zM207 -61v-10q-12 -31 -32 -72t-45 -78h-76v13q5 18 11.5 44.5t11.5 54t7 48.5h123z" />
    <glyph glyph-name="Rcaron" unicode="&#x158;" horiz-adv-x="613" 
d="M283 714q133 0 197 -52t64 -158q0 -78 -36.5 -123t-87.5 -67l192 -314h-152l-155 282h-87v-282h-134v714h199zM277 607h-59v-220h61q129 0 129 113q0 58 -32 82.5t-99 24.5zM498 938v-13q-17 -19 -39.5 -44.5t-44 -53t-34.5 -49.5h-141q-13 22 -34 49.5t-43 53t-40 44.5
v13h88q51 -34 99 -88q25 27 50.5 49.5t50.5 38.5h88z" />
    <glyph glyph-name="rcaron" unicode="&#x159;" horiz-adv-x="418" 
d="M349 552q13 0 28.5 -1.5t25.5 -3.5l-12 -117q-22 5 -52 5q-33 0 -64 -16.5t-50.5 -50.5t-19.5 -87v-281h-133v542h102l18 -94h7q23 43 62 73.5t88 30.5zM431 766v-13q-17 -19 -39.5 -44.5t-44 -53t-34.5 -49.5h-141q-13 22 -34 49.5t-43 53t-40 44.5v13h88q51 -34 99 -88
q25 27 50.5 49.5t50.5 38.5h88z" />
    <glyph glyph-name="Sacute" unicode="&#x15a;" horiz-adv-x="524" 
d="M487 195q0 -95 -64.5 -150t-185.5 -55q-59 0 -106 10t-87 30v120q45 -20 97.5 -36.5t102.5 -16.5q56 0 82.5 25.5t26.5 65.5q0 44 -32.5 71t-104.5 56q-46 19 -83.5 45.5t-59.5 67t-22 101.5q0 91 63.5 143t167.5 52q58 0 106 -12t92 -34l-42 -103q-41 19 -81 30t-79 11
q-46 0 -70 -23t-24 -61q0 -29 14 -49t44 -37.5t78 -40.5q53 -25 90.5 -52t57 -64.5t19.5 -93.5zM426 938v-10q-17 -18 -47.5 -47t-63 -57t-56.5 -46h-88v13q14 19 34 44.5t39.5 53t32.5 49.5h149z" />
    <glyph glyph-name="sacute" unicode="&#x15b;" horiz-adv-x="468" 
d="M429 157q0 -82 -53.5 -124.5t-159.5 -42.5q-54 0 -94 8t-77 25v107q40 -19 86.5 -32t84.5 -13q45 0 65 16t20 43q0 16 -9 29t-34 28t-73 36q-47 21 -78.5 42t-47 50t-15.5 75q0 73 55 110.5t146 37.5q49 0 91 -10t86 -30l-39 -93q-37 16 -73 27t-67 11q-71 0 -71 -47
q0 -17 9.5 -29.5t34 -25.5t70.5 -32t77.5 -39.5t48.5 -50t17 -76.5zM389 766v-10q-17 -18 -47.5 -47t-63 -57t-56.5 -46h-88v13q14 19 34 44.5t39.5 53t32.5 49.5h149z" />
    <glyph glyph-name="Scircumflex" unicode="&#x15c;" horiz-adv-x="524" 
d="M487 195q0 -95 -64.5 -150t-185.5 -55q-59 0 -106 10t-87 30v120q45 -20 97.5 -36.5t102.5 -16.5q56 0 82.5 25.5t26.5 65.5q0 44 -32.5 71t-104.5 56q-46 19 -83.5 45.5t-59.5 67t-22 101.5q0 91 63.5 143t167.5 52q58 0 106 -12t92 -34l-42 -103q-41 19 -81 30t-79 11
q-46 0 -70 -23t-24 -61q0 -29 14 -49t44 -37.5t78 -40.5q53 -25 90.5 -52t57 -64.5t19.5 -93.5zM339 938q13 -22 34.5 -49.5t44 -54t39.5 -44.5v-12h-88q-25 16 -50.5 38.5t-50.5 49.5q-25 -27 -49.5 -49.5t-49.5 -38.5h-88v12q18 19 40 45t43 53.5t34 49.5h141z" />
    <glyph glyph-name="scircumflex" unicode="&#x15d;" horiz-adv-x="468" 
d="M429 157q0 -82 -53.5 -124.5t-159.5 -42.5q-54 0 -94 8t-77 25v107q40 -19 86.5 -32t84.5 -13q45 0 65 16t20 43q0 16 -9 29t-34 28t-73 36q-47 21 -78.5 42t-47 50t-15.5 75q0 73 55 110.5t146 37.5q49 0 91 -10t86 -30l-39 -93q-37 16 -73 27t-67 11q-71 0 -71 -47
q0 -17 9.5 -29.5t34 -25.5t70.5 -32t77.5 -39.5t48.5 -50t17 -76.5zM302 766q13 -22 34.5 -49.5t44 -54t39.5 -44.5v-12h-88q-25 16 -50.5 38.5t-50.5 49.5q-25 -27 -49.5 -49.5t-49.5 -38.5h-88v12q18 19 40 45t43 53.5t34 49.5h141z" />
    <glyph glyph-name="Scedilla" unicode="&#x15e;" horiz-adv-x="524" 
d="M487 195q0 -95 -64.5 -150t-185.5 -55q-59 0 -106 10t-87 30v120q45 -20 97.5 -36.5t102.5 -16.5q56 0 82.5 25.5t26.5 65.5q0 44 -32.5 71t-104.5 56q-46 19 -83.5 45.5t-59.5 67t-22 101.5q0 91 63.5 143t167.5 52q58 0 106 -12t92 -34l-42 -103q-41 19 -81 30t-79 11
q-46 0 -70 -23t-24 -61q0 -29 14 -49t44 -37.5t78 -40.5q53 -25 90.5 -52t57 -64.5t19.5 -93.5zM372 -128q0 -53 -33.5 -82.5t-102.5 -29.5q-44 0 -71 8v72q12 -3 28 -5.5t30 -2.5q22 0 35 7.5t13 27.5q0 42 -77 54l35 79h77l-15 -39q30 -9 55.5 -30.5t25.5 -58.5z" />
    <glyph glyph-name="scedilla" unicode="&#x15f;" horiz-adv-x="468" 
d="M429 157q0 -82 -53.5 -124.5t-159.5 -42.5q-54 0 -94 8t-77 25v107q40 -19 86.5 -32t84.5 -13q45 0 65 16t20 43q0 16 -9 29t-34 28t-73 36q-47 21 -78.5 42t-47 50t-15.5 75q0 73 55 110.5t146 37.5q49 0 91 -10t86 -30l-39 -93q-37 16 -73 27t-67 11q-71 0 -71 -47
q0 -17 9.5 -29.5t34 -25.5t70.5 -32t77.5 -39.5t48.5 -50t17 -76.5zM346 -128q0 -53 -33.5 -82.5t-102.5 -29.5q-44 0 -71 8v72q12 -3 28 -5.5t30 -2.5q22 0 35 7.5t13 27.5q0 42 -77 54l35 79h77l-15 -39q30 -9 55.5 -30.5t25.5 -58.5z" />
    <glyph glyph-name="Scaron" unicode="&#x160;" horiz-adv-x="524" 
d="M487 195q0 -95 -64.5 -150t-185.5 -55q-59 0 -106 10t-87 30v120q45 -20 97.5 -36.5t102.5 -16.5q56 0 82.5 25.5t26.5 65.5q0 44 -32.5 71t-104.5 56q-46 19 -83.5 45.5t-59.5 67t-22 101.5q0 91 63.5 143t167.5 52q58 0 106 -12t92 -34l-42 -103q-41 19 -81 30t-79 11
q-46 0 -70 -23t-24 -61q0 -29 14 -49t44 -37.5t78 -40.5q53 -25 90.5 -52t57 -64.5t19.5 -93.5zM457 938v-13q-17 -19 -39.5 -44.5t-44 -53t-34.5 -49.5h-141q-13 22 -34 49.5t-43 53t-40 44.5v13h88q51 -34 99 -88q25 27 50.5 49.5t50.5 38.5h88z" />
    <glyph glyph-name="scaron" unicode="&#x161;" horiz-adv-x="468" 
d="M429 157q0 -82 -53.5 -124.5t-159.5 -42.5q-54 0 -94 8t-77 25v107q40 -19 86.5 -32t84.5 -13q45 0 65 16t20 43q0 16 -9 29t-34 28t-73 36q-47 21 -78.5 42t-47 50t-15.5 75q0 73 55 110.5t146 37.5q49 0 91 -10t86 -30l-39 -93q-37 16 -73 27t-67 11q-71 0 -71 -47
q0 -17 9.5 -29.5t34 -25.5t70.5 -32t77.5 -39.5t48.5 -50t17 -76.5zM420 766v-13q-17 -19 -39.5 -44.5t-44 -53t-34.5 -49.5h-141q-13 22 -34 49.5t-43 53t-40 44.5v13h88q51 -34 99 -88q25 27 50.5 49.5t50.5 38.5h88z" />
    <glyph glyph-name="uni021A" unicode="&#x21a;" horiz-adv-x="540" 
d="M338 0h-135v606h-186v108h506v-108h-185v-606zM338 -61v-10q-12 -31 -32 -72t-45 -78h-76v13q5 18 11.5 44.5t11.5 54t7 48.5h123z" />
    <glyph glyph-name="uni021B" unicode="&#x21b;" horiz-adv-x="392" 
d="M284 91q22 0 42.5 4.5t38.5 10.5v-94q-21 -10 -51 -16t-67 -6q-45 0 -81 15t-57 53t-21 107v282h-68v55l76 44l40 115h84v-119h140v-95h-140v-281q0 -38 17.5 -56.5t46.5 -18.5zM293 -61v-10q-12 -31 -32 -72t-45 -78h-76v13q5 18 11.5 44.5t11.5 54t7 48.5h123z" />
    <glyph glyph-name="Tcaron" unicode="&#x164;" horiz-adv-x="540" 
d="M338 0h-135v606h-186v108h506v-108h-185v-606zM458 938v-13q-17 -19 -39.5 -44.5t-44 -53t-34.5 -49.5h-141q-13 22 -34 49.5t-43 53t-40 44.5v13h88q51 -34 99 -88q25 27 50.5 49.5t50.5 38.5h88z" />
    <glyph glyph-name="tcaron" unicode="&#x165;" horiz-adv-x="392" 
d="M284 91q22 0 42.5 4.5t38.5 10.5v-94q-21 -10 -51 -16t-67 -6q-45 0 -81 15t-57 53t-21 107v282h-68v55l76 44l40 115h84v-119h140v-95h-140v-281q0 -38 17.5 -56.5t46.5 -18.5zM514 760v-10q-13 -31 -32 -71.5t-42 -78.5h-77v13q8 29 16.5 72t11.5 75h123z" />
    <glyph glyph-name="Tbar" unicode="&#x166;" horiz-adv-x="540" 
d="M203 0v304h-117v105h117v196h-186v109h506v-109h-186v-196h117v-105h-117v-304h-134z" />
    <glyph glyph-name="tbar" unicode="&#x167;" horiz-adv-x="406" 
d="M29 257v85h59v105h-68v55l76 44l40 115h84v-119h140v-95h-140v-105h139v-85h-139v-91q0 -38 17.5 -56.5t46.5 -18.5q22 0 42.5 4.5t38.5 10.5v-94q-21 -10 -51 -16t-67 -6q-45 0 -81 15t-57 53t-21 107v92h-59z" />
    <glyph glyph-name="Utilde" unicode="&#x168;" horiz-adv-x="703" 
d="M625 714v-462q0 -74 -30.5 -133.5t-92 -94t-154.5 -34.5q-132 0 -201 72.5t-69 191.5v460h134v-447q0 -88 35 -128t105 -40q73 0 105.5 43.5t32.5 125.5v446h135zM537 921q-6 -71 -36.5 -107t-76.5 -36q-27 0 -52.5 13.5t-49 27t-45.5 13.5q-32 0 -44 -55h-66
q6 71 36.5 107t77.5 36q26 0 51.5 -13.5t49 -27t45.5 -13.5q32 0 44 55h66z" />
    <glyph glyph-name="utilde" unicode="&#x169;" horiz-adv-x="609" 
d="M536 542v-542h-101l-18 70h-7q-25 -42 -67.5 -61t-91.5 -19q-83 0 -132.5 47t-49.5 151v354h133v-329q0 -61 20.5 -91t65.5 -30q67 0 91.5 48t24.5 137v265h132zM489 749q-6 -71 -36.5 -107t-76.5 -36q-27 0 -52.5 13.5t-49 27t-45.5 13.5q-32 0 -44 -55h-66
q6 71 36.5 107t77.5 36q26 0 51.5 -13.5t49 -27t45.5 -13.5q32 0 44 55h66z" />
    <glyph glyph-name="Umacron" unicode="&#x16a;" horiz-adv-x="703" 
d="M625 714v-462q0 -74 -30.5 -133.5t-92 -94t-154.5 -34.5q-132 0 -201 72.5t-69 191.5v460h134v-447q0 -88 35 -128t105 -40q73 0 105.5 43.5t32.5 125.5v446h135zM505 869v-91h-307v91h307z" />
    <glyph glyph-name="umacron" unicode="&#x16b;" horiz-adv-x="609" 
d="M536 542v-542h-101l-18 70h-7q-25 -42 -67.5 -61t-91.5 -19q-83 0 -132.5 47t-49.5 151v354h133v-329q0 -61 20.5 -91t65.5 -30q67 0 91.5 48t24.5 137v265h132zM457 697v-91h-307v91h307z" />
    <glyph glyph-name="Ubreve" unicode="&#x16c;" horiz-adv-x="703" 
d="M625 714v-462q0 -74 -30.5 -133.5t-92 -94t-154.5 -34.5q-132 0 -201 72.5t-69 191.5v460h134v-447q0 -88 35 -128t105 -40q73 0 105.5 43.5t32.5 125.5v446h135zM522 931q-4 -67 -50 -110t-122 -43q-80 0 -122 41.5t-46 111.5h74q6 -41 30 -51t65 -10q34 0 61.5 11
t33.5 50h76z" />
    <glyph glyph-name="ubreve" unicode="&#x16d;" horiz-adv-x="609" 
d="M536 542v-542h-101l-18 70h-7q-25 -42 -67.5 -61t-91.5 -19q-83 0 -132.5 47t-49.5 151v354h133v-329q0 -61 20.5 -91t65.5 -30q67 0 91.5 48t24.5 137v265h132zM474 759q-4 -67 -50 -110t-122 -43q-80 0 -122 41.5t-46 111.5h74q6 -41 30 -51t65 -10q34 0 61.5 11
t33.5 50h76z" />
    <glyph glyph-name="Uring" unicode="&#x16e;" horiz-adv-x="703" 
d="M625 714v-462q0 -74 -30.5 -133.5t-92 -94t-154.5 -34.5q-132 0 -201 72.5t-69 191.5v460h134v-447q0 -88 35 -128t105 -40q73 0 105.5 43.5t32.5 125.5v446h135zM350 777q-50 0 -81 30t-31 83q0 52 31 81.5t81 29.5q48 0 81.5 -29.5t33.5 -80.5q0 -54 -33 -84t-82 -30z
M350 839q20 0 32.5 13.5t12.5 37.5q0 23 -12.5 36.5t-32.5 13.5t-32.5 -13.5t-12.5 -36.5q0 -51 45 -51z" />
    <glyph glyph-name="uring" unicode="&#x16f;" horiz-adv-x="609" 
d="M536 542v-542h-101l-18 70h-7q-25 -42 -67.5 -61t-91.5 -19q-83 0 -132.5 47t-49.5 151v354h133v-329q0 -61 20.5 -91t65.5 -30q67 0 91.5 48t24.5 137v265h132zM303 605q-50 0 -81 30t-31 83q0 52 31 81.5t81 29.5q48 0 81.5 -29.5t33.5 -80.5q0 -54 -33 -84t-82 -30z
M303 667q20 0 32.5 13.5t12.5 37.5q0 23 -12.5 36.5t-32.5 13.5t-32.5 -13.5t-12.5 -36.5q0 -51 45 -51z" />
    <glyph glyph-name="Uhungarumlaut" unicode="&#x170;" horiz-adv-x="703" 
d="M625 714v-462q0 -74 -30.5 -133.5t-92 -94t-154.5 -34.5q-132 0 -201 72.5t-69 191.5v460h134v-447q0 -88 35 -128t105 -40q73 0 105.5 43.5t32.5 125.5v446h135zM555 938v-10q-8 -13 -25.5 -33t-40 -42t-45 -41.5t-39.5 -33.5h-70v13q13 19 29.5 45t32.5 53t26 49h132z
M369 938v-10q-8 -13 -25.5 -33t-40 -42t-44.5 -41.5t-39 -33.5h-71v13q13 19 29.5 45t32 53t26.5 49h132z" />
    <glyph glyph-name="uhungarumlaut" unicode="&#x171;" horiz-adv-x="609" 
d="M536 542v-542h-101l-18 70h-7q-25 -42 -67.5 -61t-91.5 -19q-83 0 -132.5 47t-49.5 151v354h133v-329q0 -61 20.5 -91t65.5 -30q67 0 91.5 48t24.5 137v265h132zM507 766v-10q-8 -13 -25.5 -33t-40 -42t-45 -41.5t-39.5 -33.5h-70v13q13 19 29.5 45t32.5 53t26 49h132z
M321 766v-10q-8 -13 -25.5 -33t-40 -42t-44.5 -41.5t-39 -33.5h-71v13q13 19 29.5 45t32 53t26.5 49h132z" />
    <glyph glyph-name="Uogonek" unicode="&#x172;" horiz-adv-x="747" 
d="M447 -103q0 -27 12 -39.5t31 -12.5q16 0 29 3t23 5v-75q-16 -4 -32 -7t-39 -3q-55 0 -85 29.5t-30 83.5q0 30 14 59.5t35 53.5q-27 -4 -57 -4q-132 0 -201 72.5t-69 191.5v460h134v-447q0 -88 35 -128t105 -40q73 0 105.5 43.5t32.5 125.5v446h135v-462q0 -63 -22 -115.5
t-65 -88.5q-47 -47 -69 -82.5t-22 -68.5z" />
    <glyph glyph-name="uogonek" unicode="&#x173;" horiz-adv-x="609" 
d="M536 542v-542h-101l-18 70h-7q-25 -42 -67.5 -61t-91.5 -19q-83 0 -132.5 47t-49.5 151v354h133v-329q0 -61 20.5 -91t65.5 -30q67 0 91.5 48t24.5 137v265h132zM454 -113q0 -21 10.5 -31.5t27.5 -10.5q14 0 28 3t22 5v-75q-14 -4 -30.5 -7t-38.5 -3q-52 0 -82 28.5
t-30 76.5q0 43 27.5 81.5t71.5 61.5l58 -16q-31 -32 -47.5 -58.5t-16.5 -54.5z" />
    <glyph glyph-name="Wcircumflex" unicode="&#x174;" horiz-adv-x="918" 
d="M909 714l-172 -714h-152l-97 410q-4 20 -11 51.5t-12 61t-7 44.5q-2 -15 -7 -44.5t-11.5 -61t-11.5 -53.5l-96 -408h-152l-172 714h134l88 -407q6 -26 12 -59t12 -65.5t8 -56.5q4 26 10 58.5t12 64.5t12 55l98 410h128l99 -413q5 -23 12 -55t13 -64t9 -56q3 24 8.5 56.5
t12 65t12.5 59.5l88 407h133zM529 938q13 -22 34.5 -49.5t44 -54t39.5 -44.5v-12h-88q-25 16 -50.5 38.5t-50.5 49.5q-25 -27 -49.5 -49.5t-49.5 -38.5h-88v12q18 19 40 45t43 53.5t34 49.5h141z" />
    <glyph glyph-name="wcircumflex" unicode="&#x175;" horiz-adv-x="797" 
d="M496 0l-68 294q-8 36 -16 72.5t-12 64.5h-3q-3 -28 -10.5 -65.5t-16.5 -74.5l-73 -291h-153l-134 543h131l59 -282q8 -40 15 -80.5t10 -68.5h4q2 18 6.5 45t10 53.5t9.5 41.5l72 291h145l70 -291q4 -17 9 -42.5t9 -51.5t6 -45h3q3 26 10.5 66.5t16.5 81.5l63 282h128
l-137 -543h-154zM469 766q13 -22 34.5 -49.5t44 -54t39.5 -44.5v-12h-88q-25 16 -50.5 38.5t-50.5 49.5q-25 -27 -49.5 -49.5t-49.5 -38.5h-88v12q18 19 40 45t43 53.5t34 49.5h141z" />
    <glyph glyph-name="Ycircumflex" unicode="&#x176;" horiz-adv-x="579" 
d="M290 399l144 315h145l-222 -436v-278h-134v273l-223 441h146zM360 938q13 -22 34.5 -49.5t44 -54t39.5 -44.5v-12h-88q-25 16 -50.5 38.5t-50.5 49.5q-25 -27 -49.5 -49.5t-49.5 -38.5h-88v12q18 19 40 45t43 53.5t34 49.5h141z" />
    <glyph glyph-name="ycircumflex" unicode="&#x177;" horiz-adv-x="528" 
d="M0 542h142l97 -306q10 -28 16 -57t9 -57h3q4 26 10.5 55.5t15.5 58.5l95 306h140l-215 -613q-29 -82 -80 -125.5t-133 -43.5q-23 0 -40.5 2.5t-30.5 5.5v100q10 -2 24.5 -4t31.5 -2q43 0 68.5 27.5t36.5 68.5l14 44zM334 766q13 -22 34.5 -49.5t44 -54t39.5 -44.5v-12
h-88q-25 16 -50.5 38.5t-50.5 49.5q-25 -27 -49.5 -49.5t-49.5 -38.5h-88v12q18 19 40 45t43 53.5t34 49.5h141z" />
    <glyph glyph-name="Ydieresis" unicode="&#x178;" horiz-adv-x="579" 
d="M290 399l144 315h145l-222 -436v-278h-134v273l-223 441h146zM132 856q0 32 18 46t44 14q24 0 42.5 -14t18.5 -46q0 -30 -18.5 -44.5t-42.5 -14.5q-26 0 -44 14.5t-18 44.5zM325 856q0 32 17.5 46t43.5 14t44.5 -14t18.5 -46q0 -30 -18.5 -44.5t-44.5 -14.5t-43.5 14.5
t-17.5 44.5z" />
    <glyph glyph-name="Zacute" unicode="&#x179;" horiz-adv-x="551" 
d="M524 0h-495v87l323 519h-314v108h477v-87l-323 -519h332v-108zM438 938v-10q-17 -18 -47.5 -47t-63 -57t-56.5 -46h-88v13q14 19 34 44.5t39.5 53t32.5 49.5h149z" />
    <glyph glyph-name="zacute" unicode="&#x17a;" horiz-adv-x="459" 
d="M429 0h-400v77l242 369h-228v96h377v-85l-235 -360h244v-97zM386 766v-10q-17 -18 -47.5 -47t-63 -57t-56.5 -46h-88v13q14 19 34 44.5t39.5 53t32.5 49.5h149z" />
    <glyph glyph-name="Zdotaccent" unicode="&#x17b;" horiz-adv-x="551" 
d="M524 0h-495v87l323 519h-314v108h477v-87l-323 -519h332v-108zM281 923q29 0 50.5 -14.5t21.5 -51.5t-21.5 -52t-50.5 -15q-31 0 -52 15t-21 52t21 51.5t52 14.5z" />
    <glyph glyph-name="zdotaccent" unicode="&#x17c;" horiz-adv-x="459" 
d="M429 0h-400v77l242 369h-228v96h377v-85l-235 -360h244v-97zM229 751q29 0 50.5 -14.5t21.5 -51.5t-21.5 -52t-50.5 -15q-31 0 -52 15t-21 52t21 51.5t52 14.5z" />
    <glyph glyph-name="Zcaron" unicode="&#x17d;" horiz-adv-x="551" 
d="M524 0h-495v87l323 519h-314v108h477v-87l-323 -519h332v-108zM469 938v-13q-17 -19 -39.5 -44.5t-44 -53t-34.5 -49.5h-141q-13 22 -34 49.5t-43 53t-40 44.5v13h88q51 -34 99 -88q25 27 50.5 49.5t50.5 38.5h88z" />
    <glyph glyph-name="zcaron" unicode="&#x17e;" horiz-adv-x="459" 
d="M429 0h-400v77l242 369h-228v96h377v-85l-235 -360h244v-97zM417 766v-13q-17 -19 -39.5 -44.5t-44 -53t-34.5 -49.5h-141q-13 22 -34 49.5t-43 53t-40 44.5v13h88q51 -34 99 -88q25 27 50.5 49.5t50.5 38.5h88z" />
    <glyph glyph-name="longs" unicode="&#x17f;" horiz-adv-x="347" 
d="M269 664q-35 0 -49.5 -21.5t-14.5 -63.5v-579h-133v583q0 69 22 108.5t62 56.5t95 17q41 0 70.5 -6.5t50.5 -14.5l-29 -94q-16 5 -34.5 9.5t-39.5 4.5z" />
    <glyph glyph-name="florin" unicode="&#x192;" horiz-adv-x="533" 
d="M363 724q37 0 68 -7t54 -15l-30 -94q-15 5 -32 10t-36 5q-31 0 -44.5 -20.5t-13.5 -61.5v-48h116v-95h-116v-459q0 -83 -41 -131t-125 -48q-21 0 -44 3t-38 8v100q14 -4 26.5 -6.5t28.5 -2.5q28 0 44 19t16 72v445h-82v60l83 36v50q0 69 19 108.5t56.5 55.5t90.5 16z" />
    <glyph glyph-name="Aringacute" unicode="&#x1fa;" horiz-adv-x="642" 
d="M262 846v8q20 21 42.5 50.5t37.5 53.5h149v-7q-10 -13 -35.5 -33t-55 -40t-50.5 -32h-88zM0 0l232 629q-24 27 -24 78q0 53 31 83t81 30q48 0 81.5 -30t33.5 -82q0 -50 -25 -78l232 -630h-143l-55 173h-247l-53 -173h-144zM320 658q45 0 45 49q0 24 -12.5 37.5
t-32.5 13.5t-32.5 -13.5t-12.5 -37.5q0 -23 11.5 -36t33.5 -13zM230 282h184l-54 166q-4 14 -12 38t-15.5 49t-11.5 42q-4 -16 -11.5 -43t-14.5 -51.5t-11 -35.5z" />
    <glyph glyph-name="aringacute" unicode="&#x1fb;" horiz-adv-x="560" 
d="M448 958v-6q-10 -12 -36.5 -30t-56.5 -36t-51 -30h-89v8q20 19 42.5 45.5t37.5 48.5h153zM285 817q48 0 81.5 -29.5t33.5 -81.5q0 -53 -33 -83t-82 -30q-50 0 -81 29.5t-31 82.5t31 82.5t81 29.5zM285 756q-19 0 -32.5 -14t-13.5 -37t11.5 -36.5t34.5 -13.5q19 0 32 13.5
t13 36.5t-13 37t-32 14zM289 552q98 0 150 -46t52 -142v-364h-93l-26 75h-4q-33 -44 -69.5 -64.5t-100.5 -20.5q-68 0 -113.5 41t-45.5 127q0 84 57.5 126t175.5 47l86 3v27q0 52 -21.5 74t-60.5 22q-37 0 -73.5 -11.5t-70.5 -28.5l-41 88q40 21 90 34t108 13zM359 256
l-57 -2q-71 -3 -99 -28.5t-28 -68.5q0 -39 19.5 -55.5t51.5 -16.5q47 0 80 31.5t33 93.5v46z" />
    <glyph glyph-name="AEacute" unicode="&#x1fc;" horiz-adv-x="870" 
d="M817 0h-382v189h-221l-73 -189h-143l304 714h515v-107h-248v-182h232v-107h-232v-210h248v-108zM260 299h175v304h-55zM653 938v-10q-17 -18 -47.5 -47t-63 -57t-56.5 -46h-88v13q14 19 34 44.5t39.5 53t32.5 49.5h149z" />
    <glyph glyph-name="aeacute" unicode="&#x1fd;" horiz-adv-x="850" 
d="M594 552q64 0 112 -29.5t75 -84t27 -131.5v-65h-325q1 -76 35 -115.5t96 -39.5q44 0 84 10.5t82 30.5v-101q-38 -19 -78.5 -28t-98.5 -9q-62 0 -113 26.5t-83 79.5q-27 -35 -54 -58.5t-63 -35.5t-88 -12q-44 0 -81.5 18t-59.5 55t-22 95q0 84 58.5 126.5t168.5 46.5l85 3
v38q0 46 -22.5 65.5t-58.5 19.5t-72 -11t-70 -28l-40 87q39 21 88.5 34t102.5 13q52 0 90.5 -17t64.5 -55q28 35 67.5 53.5t92.5 18.5zM590 459q-46 0 -73 -32.5t-32 -96.5h197q0 57 -23.5 93t-68.5 36zM351 256l-54 -2q-69 -3 -95.5 -28.5t-26.5 -68.5q0 -39 19 -55.5
t49 -16.5q45 0 76.5 31.5t31.5 93.5v46zM591 773v-10q-17 -18 -47.5 -47t-63 -57t-56.5 -46h-88v13q14 19 34 44.5t39.5 53t32.5 49.5h149z" />
    <glyph glyph-name="Oslashacute" unicode="&#x1fe;" horiz-adv-x="744" 
d="M690 358q0 -111 -34.5 -193.5t-105 -128.5t-178.5 -46q-93 0 -157 38l-42 -67l-73 48l43 69q-46 49 -68 120.5t-22 160.5q0 110 34.5 192.5t105.5 128t180 45.5q47 0 86.5 -10t71.5 -28l40 63l72 -47l-42 -67q45 -48 67 -119t22 -159zM195 358q0 -51 6.5 -93.5
t21.5 -74.5l241 400q-40 27 -91 27q-94 0 -136 -69t-42 -190zM548 358q0 51 -6.5 92.5t-20.5 73.5l-239 -399q37 -26 90 -26q94 0 135 69t41 190zM532 974v-10q-17 -18 -47.5 -47t-63 -57t-56.5 -46h-88v13q14 19 34 44.5t39.5 53t32.5 49.5h149z" />
    <glyph glyph-name="oslashacute" unicode="&#x1ff;" horiz-adv-x="591" 
d="M546 272q0 -135 -67.5 -208.5t-184.5 -73.5q-62 0 -112 26l-35 -51l-68 46l37 54q-34 37 -52.5 88t-18.5 119q0 135 67 207.5t185 72.5q63 0 115 -29l31 46l67 -47l-33 -50q32 -35 50.5 -85.5t18.5 -114.5zM177 272q0 -29 2.5 -54t9.5 -45l164 260q-25 17 -58 17
q-63 0 -90.5 -46t-27.5 -132zM414 272q0 26 -2.5 48.5t-8.5 40.5l-160 -256q23 -13 53 -13q63 0 90.5 47t27.5 133zM453 793v-10q-17 -18 -47.5 -47t-63 -57t-56.5 -46h-88v13q14 19 34 44.5t39.5 53t32.5 49.5h149z" />
    <glyph glyph-name="uni0218" unicode="&#x218;" horiz-adv-x="524" 
d="M487 195q0 -95 -64.5 -150t-185.5 -55q-59 0 -106 10t-87 30v120q45 -20 97.5 -36.5t102.5 -16.5q56 0 82.5 25.5t26.5 65.5q0 44 -32.5 71t-104.5 56q-46 19 -83.5 45.5t-59.5 67t-22 101.5q0 91 63.5 143t167.5 52q58 0 106 -12t92 -34l-42 -103q-41 19 -81 30t-79 11
q-46 0 -70 -23t-24 -61q0 -29 14 -49t44 -37.5t78 -40.5q53 -25 90.5 -52t57 -64.5t19.5 -93.5zM322 -61v-10q-12 -31 -32 -72t-45 -78h-76v13q5 18 11.5 44.5t11.5 54t7 48.5h123z" />
    <glyph glyph-name="uni0219" unicode="&#x219;" horiz-adv-x="468" 
d="M429 157q0 -82 -53.5 -124.5t-159.5 -42.5q-54 0 -94 8t-77 25v107q40 -19 86.5 -32t84.5 -13q45 0 65 16t20 43q0 16 -9 29t-34 28t-73 36q-47 21 -78.5 42t-47 50t-15.5 75q0 73 55 110.5t146 37.5q49 0 91 -10t86 -30l-39 -93q-37 16 -73 27t-67 11q-71 0 -71 -47
q0 -17 9.5 -29.5t34 -25.5t70.5 -32t77.5 -39.5t48.5 -50t17 -76.5zM300 -61v-10q-12 -31 -32 -72t-45 -78h-76v13q5 18 11.5 44.5t11.5 54t7 48.5h123z" />
    <glyph glyph-name="circumflex" unicode="&#x2c6;" horiz-adv-x="456" 
d="M298 766q13 -22 34.5 -49.5t44 -54t39.5 -44.5v-12h-88q-25 16 -50.5 38.5t-50.5 49.5q-25 -27 -49.5 -49.5t-49.5 -38.5h-88v12q18 19 40 45t43 53.5t34 49.5h141z" />
    <glyph glyph-name="caron" unicode="&#x2c7;" horiz-adv-x="456" 
d="M416 766v-13q-17 -19 -39.5 -44.5t-44 -53t-34.5 -49.5h-141q-13 22 -34 49.5t-43 53t-40 44.5v13h88q51 -34 99 -88q25 27 50.5 49.5t50.5 38.5h88z" />
    <glyph glyph-name="macron" unicode="&#x2c9;" horiz-adv-x="387" 
d="M347 697v-91h-307v91h307z" />
    <glyph glyph-name="breve" unicode="&#x2d8;" horiz-adv-x="420" 
d="M380 759q-4 -67 -50 -110t-122 -43q-80 0 -122 41.5t-46 111.5h74q6 -41 30 -51t65 -10q34 0 61.5 11t33.5 50h76z" />
    <glyph glyph-name="dotaccent" unicode="&#x2d9;" horiz-adv-x="225" 
d="M113 751q29 0 50.5 -14.5t21.5 -51.5t-21.5 -52t-50.5 -15q-31 0 -52 15t-21 52t21 51.5t52 14.5z" />
    <glyph glyph-name="ring" unicode="&#x2da;" horiz-adv-x="307" 
d="M152 605q-50 0 -81 30t-31 83q0 52 31 81.5t81 29.5q48 0 81.5 -29.5t33.5 -80.5q0 -54 -33 -84t-82 -30zM152 667q20 0 32.5 13.5t12.5 37.5q0 23 -12.5 36.5t-32.5 13.5t-32.5 -13.5t-12.5 -36.5q0 -51 45 -51z" />
    <glyph glyph-name="ogonek" unicode="&#x2db;" horiz-adv-x="261" 
d="M133 -113q0 -21 10.5 -31.5t27.5 -10.5q14 0 28 3t22 5v-75q-14 -4 -30.5 -7t-38.5 -3q-52 0 -82 28.5t-30 76.5q0 43 27.5 81.5t71.5 61.5l58 -16q-31 -32 -47.5 -58.5t-16.5 -54.5z" />
    <glyph glyph-name="tilde" unicode="&#x2dc;" horiz-adv-x="450" 
d="M410 749q-6 -71 -36.5 -107t-76.5 -36q-27 0 -52.5 13.5t-49 27t-45.5 13.5q-32 0 -44 -55h-66q6 71 36.5 107t77.5 36q26 0 51.5 -13.5t49 -27t45.5 -13.5q32 0 44 55h66z" />
    <glyph glyph-name="hungarumlaut" unicode="&#x2dd;" horiz-adv-x="486" 
d="M446 766v-10q-8 -13 -25.5 -33t-40 -42t-45 -41.5t-39.5 -33.5h-70v13q13 19 29.5 45t32.5 53t26 49h132zM260 766v-10q-8 -13 -25.5 -33t-40 -42t-44.5 -41.5t-39 -33.5h-71v13q13 19 29.5 45t32 53t26.5 49h132z" />
    <glyph glyph-name="tonos" unicode="&#x384;" horiz-adv-x="532" 
d="M216 606v15q8 23 15.5 55t14 64.5t9.5 58.5h124v-11q-14 -37 -36.5 -87t-48.5 -95h-78z" />
    <glyph glyph-name="dieresistonos" unicode="&#x385;" horiz-adv-x="538" 
d="M369 838v-10q-13 -32 -36.5 -72t-49.5 -78h-60v13q8 29 17 71.5t13 75.5h116zM146 744q25 0 41.5 -14t16.5 -46q0 -30 -16.5 -44.5t-41.5 -14.5q-26 0 -41.5 14.5t-15.5 44.5q0 32 15.5 46t41.5 14zM392 744q25 0 41 -14t16 -46q0 -30 -16 -44.5t-41 -14.5
q-26 0 -42.5 14.5t-16.5 44.5q0 32 16.5 46t42.5 14z" />
    <glyph glyph-name="Alphatonos" unicode="&#x386;" horiz-adv-x="654" 
d="M510 0l-55 189h-244l-55 -189h-144l240 717h161l241 -717h-144zM423 299l-57 184q-7 25 -17 61.5t-16 68.5q-7 -37 -16 -71t-16 -59l-56 -184h178zM-16 557v15q8 23 15.5 55t14 64.5t9.5 58.5h124v-11q-14 -37 -36.5 -87t-48.5 -95h-78z" />
    <glyph glyph-name="anoteleia" unicode="&#x387;" horiz-adv-x="279" 
d="M62 476q0 42 22.5 59.5t54.5 17.5t54.5 -17.5t22.5 -59.5q0 -41 -22.5 -59t-54.5 -18t-54.5 18t-22.5 59z" />
    <glyph glyph-name="Epsilontonos" unicode="&#x388;" horiz-adv-x="625" 
d="M573 0h-385v714h385v-107h-251v-182h235v-107h-235v-210h251v-108zM-26 557v15q8 23 15.5 55t14 64.5t9.5 58.5h124v-11q-14 -37 -36.5 -87t-48.5 -95h-78z" />
    <glyph glyph-name="Etatonos" unicode="&#x389;" horiz-adv-x="816" 
d="M733 0h-135v317h-276v-317h-134v714h134v-288h276v288h135v-714zM-26 557v15q8 23 15.5 55t14 64.5t9.5 58.5h124v-11q-14 -37 -36.5 -87t-48.5 -95h-78z" />
    <glyph glyph-name="Iotatonos" unicode="&#x38a;" horiz-adv-x="513" 
d="M479 0h-297v73l82 32v503l-82 33v73h297v-73l-81 -33v-503l81 -32v-73zM-26 557v15q8 23 15.5 55t14 64.5t9.5 58.5h124v-11q-14 -37 -36.5 -87t-48.5 -95h-78z" />
    <glyph glyph-name="Omicrontonos" unicode="&#x38c;" horiz-adv-x="799" 
d="M745 358q0 -111 -34.5 -193.5t-105 -128.5t-178.5 -46q-109 0 -179.5 46t-105 129t-34.5 194q0 110 34.5 192.5t105.5 128t180 45.5q107 0 177.5 -45.5t105 -128t34.5 -193.5zM250 358q0 -121 42 -190t135 -69q94 0 135 69t41 190t-41 190t-134 69q-94 0 -136 -69
t-42 -190zM-26 557v15q8 23 15.5 55t14 64.5t9.5 58.5h124v-11q-14 -37 -36.5 -87t-48.5 -95h-78z" />
    <glyph glyph-name="Upsilontonos" unicode="&#x38e;" horiz-adv-x="755" 
d="M466 399l144 315h145l-222 -436v-278h-134v273l-223 441h146zM-26 557v15q8 23 15.5 55t14 64.5t9.5 58.5h124v-11q-14 -37 -36.5 -87t-48.5 -95h-78z" />
    <glyph glyph-name="Omegatonos" unicode="&#x38f;" horiz-adv-x="804" 
d="M433 617q-84 0 -131 -57.5t-47 -162.5q0 -91 28 -163t98 -122v-112h-290v109h170q-67 45 -106.5 124.5t-39.5 184.5q0 93 38.5 162t110 107t169.5 38t169.5 -38t110 -107t38.5 -163q0 -105 -39 -183.5t-107 -124.5h171v-109h-292v112q73 49 101 121.5t28 163.5
q0 105 -47 162.5t-133 57.5zM-29 557v15q8 23 15.5 55t14 64.5t9.5 58.5h124v-11q-14 -37 -36.5 -87t-48.5 -95h-78z" />
    <glyph glyph-name="iotadieresistonos" unicode="&#x390;" horiz-adv-x="370" 
d="M203 542v-376q0 -38 17 -56.5t46 -18.5q22 0 44 4.5t42 10.5v-94q-20 -10 -50.5 -16t-65.5 -6q-47 0 -84.5 15t-59 53.5t-21.5 107.5v376h132zM243 838v-10q-13 -32 -36.5 -72t-49.5 -78h-60v13q8 29 17 71.5t13 75.5h116zM20 744q25 0 41.5 -14t16.5 -46
q0 -30 -16.5 -44.5t-41.5 -14.5q-26 0 -41.5 14.5t-15.5 44.5q0 32 15.5 46t41.5 14zM266 744q25 0 41 -14t16 -46q0 -30 -16 -44.5t-41 -14.5q-26 0 -42.5 14.5t-16.5 44.5q0 32 16.5 46t42.5 14z" />
    <glyph glyph-name="Alpha" unicode="&#x391;" horiz-adv-x="642" 
d="M498 0l-55 189h-244l-55 -189h-144l240 717h161l241 -717h-144zM411 299l-57 184q-7 25 -17 61.5t-16 68.5q-7 -37 -16 -71t-16 -59l-56 -184h178z" />
    <glyph glyph-name="Beta" unicode="&#x392;" horiz-adv-x="625" 
d="M84 714h210q134 0 199.5 -40t65.5 -139q0 -62 -31 -103.5t-81 -52.5v-5q35 -8 64.5 -26t47.5 -52.5t18 -90.5q0 -97 -65.5 -151t-179.5 -54h-248v714zM218 423h88q65 0 90 24.5t25 70.5q0 48 -29.5 69t-93.5 21h-80v-185zM218 320v-213h98q68 0 94.5 30.5t26.5 79.5
q0 47 -27.5 75t-97.5 28h-94z" />
    <glyph glyph-name="Gamma" unicode="&#x393;" horiz-adv-x="521" 
d="M499 714v-108h-281v-606h-134v714h415z" />
    <glyph glyph-name="uni0394" unicode="&#x394;" horiz-adv-x="608" 
d="M379 716l208 -642v-74h-567v75l209 641h150zM444 108l-113 374q-5 16 -10.5 39t-10 45.5t-7.5 35.5q-3 -13 -7 -35.5t-9.5 -45.5t-10.5 -39l-113 -374h281z" />
    <glyph glyph-name="Epsilon" unicode="&#x395;" horiz-adv-x="522" 
d="M469 0h-385v714h385v-107h-251v-182h235v-107h-235v-210h251v-108z" />
    <glyph glyph-name="Zeta" unicode="&#x396;" horiz-adv-x="551" 
d="M524 0h-495v87l323 519h-314v108h477v-87l-323 -519h332v-108z" />
    <glyph glyph-name="Eta" unicode="&#x397;" horiz-adv-x="713" 
d="M629 0h-135v317h-276v-317h-134v714h134v-288h276v288h135v-714z" />
    <glyph glyph-name="Theta" unicode="&#x398;" horiz-adv-x="790" 
d="M690 358q0 -111 -34.5 -193.5t-105 -128.5t-178.5 -46q-109 0 -179.5 46t-105 129t-34.5 194q0 110 34.5 192.5t105.5 128t180 45.5q107 0 177.5 -45.5t105 -128t34.5 -193.5zM195 358q0 -121 42 -190t135 -69q94 0 135 69t41 190t-41 190t-134 69q-94 0 -136 -69
t-42 -190zM510 416v-106h-272v106h272z" />
    <glyph glyph-name="Iota" unicode="&#x399;" horiz-adv-x="364" 
d="M330 0h-297v73l82 32v503l-82 33v73h297v-73l-81 -33v-503l81 -32v-73z" />
    <glyph glyph-name="Kappa" unicode="&#x39a;" horiz-adv-x="616" 
d="M616 0h-153l-184 316l-61 -53v-263h-134v714h134v-336q18 26 38 52t39 51l168 233h150l-237 -314z" />
    <glyph glyph-name="Lambda" unicode="&#x39b;" horiz-adv-x="611" 
d="M380 714l230 -714h-144l-123 437q-6 21 -13.5 50.5t-14.5 59.5t-10 51q-3 -22 -10 -52t-14.5 -59.5t-13.5 -49.5l-124 -437h-143l230 714h150z" />
    <glyph glyph-name="Mu" unicode="&#x39c;" horiz-adv-x="883" 
d="M374 0l-174 585h-4q2 -20 3.5 -56.5t3 -79t1.5 -79.5v-370h-120v714h184l170 -561h3l173 561h185v-714h-126v376q0 34 1 74.5t2.5 77t3.5 56.5h-4l-179 -584h-123z" />
    <glyph glyph-name="Nu" unicode="&#x39d;" horiz-adv-x="754" 
d="M670 0h-169l-301 560h-4q2 -45 4.5 -96.5t3.5 -103.5v-360h-120v714h168l300 -556h4q-2 40 -4.5 92t-2.5 101v363h121v-714z" />
    <glyph glyph-name="Xi" unicode="&#x39e;" horiz-adv-x="532" 
d="M54 607v107h423v-107h-423zM91 318v107h348v-107h-348zM35 0v108h461v-108h-461z" />
    <glyph glyph-name="Omicron" unicode="&#x39f;" horiz-adv-x="744" 
d="M690 358q0 -111 -34.5 -193.5t-105 -128.5t-178.5 -46q-109 0 -179.5 46t-105 129t-34.5 194q0 110 34.5 192.5t105.5 128t180 45.5q107 0 177.5 -45.5t105 -128t34.5 -193.5zM195 358q0 -121 42 -190t135 -69q94 0 135 69t41 190t-41 190t-134 69q-94 0 -136 -69
t-42 -190z" />
    <glyph glyph-name="Pi" unicode="&#x3a0;" horiz-adv-x="695" 
d="M84 0v714h527v-714h-134v606h-259v-606h-134z" />
    <glyph glyph-name="Rho" unicode="&#x3a1;" horiz-adv-x="585" 
d="M290 714q130 0 191 -57.5t61 -160.5q0 -61 -24 -114t-81 -86t-155 -33h-64v-263h-134v714h206zM285 608h-67v-239h50q65 0 102 28.5t37 93.5q0 117 -122 117z" />
    <glyph glyph-name="Sigma" unicode="&#x3a3;" horiz-adv-x="552" 
d="M35 0v102l213 272l-207 239v101h455v-107h-201q-25 0 -54.5 0.5t-52.5 2.5l205 -235l-215 -271q33 2 64.5 3t66.5 1h214v-108h-488z" />
    <glyph glyph-name="Tau" unicode="&#x3a4;" horiz-adv-x="540" 
d="M338 0h-135v606h-186v108h506v-108h-185v-606z" />
    <glyph glyph-name="Upsilon" unicode="&#x3a5;" horiz-adv-x="579" 
d="M290 399l144 315h145l-222 -436v-278h-134v273l-223 441h146z" />
    <glyph glyph-name="Phi" unicode="&#x3a6;" horiz-adv-x="800" 
d="M464 724v-88q108 -2 172.5 -39t93 -97t28.5 -130q0 -46 -15 -93t-48.5 -86.5t-90 -64t-140.5 -26.5v-110h-127v110q-85 2 -142 27t-90.5 64.5t-48 86.5t-14.5 92q0 70 28 129.5t92.5 97t174.5 39.5v88h127zM337 534q-63 -2 -98.5 -23.5t-50.5 -57t-15 -82.5
q0 -76 36.5 -121t127.5 -49v333zM464 534v-333q90 4 127 50t37 120q0 71 -36 115t-128 48z" />
    <glyph glyph-name="Chi" unicode="&#x3a7;" horiz-adv-x="616" 
d="M615 0h-154l-156 285l-157 -285h-146l223 370l-209 344h149l144 -266l142 266h148l-211 -349z" />
    <glyph glyph-name="Psi" unicode="&#x3a8;" horiz-adv-x="816" 
d="M765 714v-234q0 -81 -27 -140.5t-91.5 -92t-175.5 -32.5v-215h-127v215q-112 0 -176 33.5t-90.5 92.5t-26.5 137v236h130v-234q0 -90 39 -125t124 -35v394h127v-394q81 0 122 34.5t41 123.5v236h131z" />
    <glyph glyph-name="uni03A9" unicode="&#x3a9;" horiz-adv-x="741" 
d="M370 617q-84 0 -131 -57.5t-47 -162.5q0 -91 28 -163t98 -122v-112h-290v109h170q-67 45 -106.5 124.5t-39.5 184.5q0 93 38.5 162t110 107t169.5 38t169.5 -38t110 -107t38.5 -163q0 -105 -39 -183.5t-107 -124.5h171v-109h-292v112q73 49 101 121.5t28 163.5
q0 105 -47 162.5t-133 57.5z" />
    <glyph glyph-name="Iotadieresis" unicode="&#x3aa;" horiz-adv-x="364" 
d="M330 0h-297v73l82 32v503l-82 33v73h297v-73l-81 -33v-503l81 -32v-73zM25 856q0 32 18 46t44 14q24 0 42.5 -14t18.5 -46q0 -30 -18.5 -44.5t-42.5 -14.5q-26 0 -44 14.5t-18 44.5zM218 856q0 32 17.5 46t43.5 14t44.5 -14t18.5 -46q0 -30 -18.5 -44.5t-44.5 -14.5
t-43.5 14.5t-17.5 44.5z" />
    <glyph glyph-name="Upsilondieresis" unicode="&#x3ab;" horiz-adv-x="579" 
d="M290 399l144 315h145l-222 -436v-278h-134v273l-223 441h146zM132 856q0 32 18 46t44 14q24 0 42.5 -14t18.5 -46q0 -30 -18.5 -44.5t-42.5 -14.5q-26 0 -44 14.5t-18 44.5zM325 856q0 32 17.5 46t43.5 14t44.5 -14t18.5 -46q0 -30 -18.5 -44.5t-44.5 -14.5t-43.5 14.5
t-17.5 44.5z" />
    <glyph glyph-name="alphatonos" unicode="&#x3ac;" horiz-adv-x="605" 
d="M246 -10q-90 0 -145.5 70.5t-55.5 208.5t57 210.5t155 72.5q54 0 89.5 -21t58.5 -61h7q4 17 12 37t19 35h108q-7 -22 -14 -57t-12 -77t-5 -83v-173q0 -32 11 -44.5t28 -12.5q6 0 14.5 1.5t12.5 3.5v-97q-7 -5 -27 -9t-35 -4q-46 0 -73.5 18t-43.5 64h-9q-21 -34 -57 -58
t-95 -24zM285 92q61 0 86 41.5t25 130.5v6q0 87 -24 133.5t-88 46.5q-53 0 -78.5 -47t-25.5 -135q0 -176 105 -176zM253 606v15q8 23 15.5 55t14 64.5t9.5 58.5h124v-11q-14 -37 -36.5 -87t-48.5 -95h-78z" />
    <glyph glyph-name="epsilontonos" unicode="&#x3ad;" horiz-adv-x="498" 
d="M367 328v-91h-71q-71 0 -100 -19.5t-29 -57.5q0 -35 28 -53t90 -18q55 0 101 13t77 29v-103q-34 -17 -80.5 -27.5t-110.5 -10.5q-125 0 -181 44t-56 115q0 60 33 89.5t87 41.5v5q-44 13 -69.5 44.5t-25.5 80.5t28.5 80.5t77.5 46.5t110 15q55 0 101.5 -10.5t86.5 -29.5
l-41 -93q-34 15 -67.5 26t-76.5 11q-96 0 -96 -60q0 -37 31 -52.5t94 -15.5h59zM227 606v15q8 23 15.5 55t14 64.5t9.5 58.5h124v-11q-14 -37 -36.5 -87t-48.5 -95h-78z" />
    <glyph glyph-name="etatonos" unicode="&#x3ae;" horiz-adv-x="609" 
d="M357 552q83 0 133 -47t50 -152v-593h-133v568q0 61 -20.5 91.5t-66.5 30.5q-67 0 -91 -48t-24 -137v-265h-133v542h102l18 -71h7q25 42 67.5 61.5t90.5 19.5zM266 606v15q8 23 15.5 55t14 64.5t9.5 58.5h124v-11q-14 -37 -36.5 -87t-48.5 -95h-78z" />
    <glyph glyph-name="iotatonos" unicode="&#x3af;" horiz-adv-x="370" 
d="M203 542v-376q0 -38 17 -56.5t46 -18.5q22 0 44 4.5t42 10.5v-94q-20 -10 -50.5 -16t-65.5 -6q-47 0 -84.5 15t-59 53.5t-21.5 107.5v376h132zM93 606v15q8 23 15.5 55t14 64.5t9.5 58.5h124v-11q-14 -37 -36.5 -87t-48.5 -95h-78z" />
    <glyph glyph-name="upsilondieresistonos" unicode="&#x3b0;" horiz-adv-x="601" 
d="M300 -9q-91 0 -141.5 34t-71 91.5t-20.5 130.5v295h133v-297q0 -77 25 -115t80 -38q58 0 86.5 48t28.5 158q0 67 -8.5 123.5t-24.5 120.5h133q16 -63 24 -119.5t8 -128.5q0 -156 -64 -229.5t-188 -73.5zM399 838v-10q-13 -32 -36.5 -72t-49.5 -78h-60v13q8 29 17 71.5
t13 75.5h116zM176 744q25 0 41.5 -14t16.5 -46q0 -30 -16.5 -44.5t-41.5 -14.5q-26 0 -41.5 14.5t-15.5 44.5q0 32 15.5 46t41.5 14zM422 744q25 0 41 -14t16 -46q0 -30 -16 -44.5t-41 -14.5q-26 0 -42.5 14.5t-16.5 44.5q0 32 16.5 46t42.5 14z" />
    <glyph glyph-name="alpha" unicode="&#x3b1;" horiz-adv-x="605" 
d="M246 -10q-90 0 -145.5 70.5t-55.5 208.5t57 210.5t155 72.5q54 0 89.5 -21t58.5 -61h7q4 17 12 37t19 35h108q-7 -22 -14 -57t-12 -77t-5 -83v-173q0 -32 11 -44.5t28 -12.5q6 0 14.5 1.5t12.5 3.5v-97q-7 -5 -27 -9t-35 -4q-46 0 -73.5 18t-43.5 64h-9q-21 -34 -57 -58
t-95 -24zM285 92q61 0 86 41.5t25 130.5v6q0 87 -24 133.5t-88 46.5q-53 0 -78.5 -47t-25.5 -135q0 -176 105 -176z" />
    <glyph glyph-name="beta" unicode="&#x3b2;" horiz-adv-x="618" 
d="M315 765q67 0 118.5 -21.5t81.5 -64t30 -106.5q0 -72 -35.5 -114t-100.5 -54v-3q80 -10 125.5 -56.5t45.5 -137.5q0 -104 -61 -161t-164 -57q-47 0 -84 8.5t-66 23.5v-262h-133v775q0 81 32 131.5t87 74.5t124 24zM311 665q-29 0 -53 -12t-38.5 -42.5t-14.5 -85.5v-397
q23 -16 54.5 -26.5t63.5 -10.5q62 0 92.5 33.5t30.5 93.5q0 68 -37 97t-90 29h-37v102h28q53 0 77.5 31.5t24.5 83.5q0 53 -27.5 78.5t-73.5 25.5z" />
    <glyph glyph-name="gamma" unicode="&#x3b3;" horiz-adv-x="528" 
d="M527 542l-189 -531q-14 -41 -24.5 -86t-16 -88t-5.5 -77h-140q0 28 6 70t16.5 88.5t23.5 87.5l-196 536h137l80 -256q8 -26 17.5 -61t17.5 -67t10 -49h4q2 15 9 45t16 64t17 62l80 262h137z" />
    <glyph glyph-name="delta" unicode="&#x3b4;" horiz-adv-x="582" 
d="M317 763q64 0 114.5 -15.5t96.5 -38.5l-52 -91q-41 21 -81.5 35t-80.5 14q-36 0 -52 -16.5t-16 -39.5q0 -30 28 -55.5t96 -63.5q86 -47 127 -106.5t41 -140.5q0 -129 -68.5 -192t-181.5 -63q-70 0 -125.5 26t-87 76t-31.5 122q0 100 49.5 156.5t132.5 80.5q-49 31 -79 71
t-30 95q0 71 53.5 108.5t146.5 37.5zM306 399q-27 -9 -56.5 -29t-49.5 -57t-20 -96q0 -54 28.5 -89.5t80.5 -35.5q54 0 83.5 38t29.5 108q0 58 -26 96t-70 65z" />
    <glyph glyph-name="epsilon" unicode="&#x3b5;" horiz-adv-x="498" 
d="M367 328v-91h-71q-71 0 -100 -19.5t-29 -57.5q0 -35 28 -53t90 -18q55 0 101 13t77 29v-103q-34 -17 -80.5 -27.5t-110.5 -10.5q-125 0 -181 44t-56 115q0 60 33 89.5t87 41.5v5q-44 13 -69.5 44.5t-25.5 80.5t28.5 80.5t77.5 46.5t110 15q55 0 101.5 -10.5t86.5 -29.5
l-41 -93q-34 15 -67.5 26t-76.5 11q-96 0 -96 -60q0 -37 31 -52.5t94 -15.5h59z" />
    <glyph glyph-name="zeta" unicode="&#x3b6;" horiz-adv-x="467" 
d="M459 -26q0 -44 -18.5 -86.5t-43.5 -76.5h-133q27 36 45.5 75.5t18.5 64.5q0 11 -7 20t-28.5 17t-65.5 16q-95 18 -138.5 70.5t-43.5 151.5q0 90 33.5 167t92.5 145t135 133q-13 -3 -46 -4.5t-61 -1.5h-127v95h383v-80q-89 -84 -143.5 -151t-83 -121t-38.5 -97t-10 -78
q0 -51 15.5 -77.5t46 -38.5t77.5 -22q79 -17 109.5 -47t30.5 -74z" />
    <glyph glyph-name="eta" unicode="&#x3b7;" horiz-adv-x="609" 
d="M357 552q83 0 133 -47t50 -152v-593h-133v568q0 61 -20.5 91.5t-66.5 30.5q-67 0 -91 -48t-24 -137v-265h-133v542h102l18 -71h7q25 42 67.5 61.5t90.5 19.5z" />
    <glyph glyph-name="theta" unicode="&#x3b8;" horiz-adv-x="580" 
d="M536 378q0 -122 -24.5 -208.5t-79 -133t-143.5 -46.5q-124 0 -184 103t-60 285q0 122 24.5 208.5t78 132.5t141.5 46q125 0 186 -101.5t61 -285.5zM290 671q-56 0 -81 -60.5t-29 -179.5h221q-4 119 -30 179.5t-81 60.5zM289 84q56 0 83 62.5t29 188.5h-222
q1 -125 27 -188t83 -63z" />
    <glyph glyph-name="iota" unicode="&#x3b9;" horiz-adv-x="370" 
d="M203 542v-376q0 -38 17 -56.5t46 -18.5q22 0 44 4.5t42 10.5v-94q-20 -10 -50.5 -16t-65.5 -6q-47 0 -84.5 15t-59 53.5t-21.5 107.5v376h132z" />
    <glyph glyph-name="kappa" unicode="&#x3ba;" horiz-adv-x="566" 
d="M551 542l-193 -245l205 -297h-152l-142 221l-63 -48v-173h-134v542h134v-141q0 -34 -1 -67t-3 -59h2q11 18 24.5 36t27.5 36l147 195h148z" />
    <glyph glyph-name="lambda" unicode="&#x3bb;" horiz-adv-x="569" 
d="M-1 0l219 520l-17 56q-15 49 -37 67t-57 18q-15 0 -29 -2t-25 -4v103q13 3 35.5 5.5t39.5 2.5q57 0 94 -19.5t60.5 -58t42.5 -94.5l139 -418q16 -50 32 -65.5t37 -15.5q14 0 31 5v-96q-10 -6 -34.5 -10t-41.5 -4q-55 0 -84 25.5t-43 74.5l-51 160q-10 34 -20 70.5
t-14 60.5h-4q-6 -29 -16 -63.5t-21 -63.5l-98 -254h-138z" />
    <glyph glyph-name="uni03BC" unicode="&#x3bc;" horiz-adv-x="609" 
d="M540 542v-542h-102l-19 73h-6q-39 -83 -122 -83q-30 0 -51.5 12t-37.5 32h-2q2 -16 3.5 -51t1.5 -67v-156h-133v782h133v-329q0 -60 21 -90.5t67 -30.5q65 0 89.5 48t24.5 137v265h133z" />
    <glyph glyph-name="nu" unicode="&#x3bd;" horiz-adv-x="551" 
d="M1 542h137l97 -297q6 -19 13 -44.5t12.5 -50t9.5 -40.5h4q29 18 49.5 60.5t33.5 101.5t19 128.5t6 141.5h133q0 -107 -18 -199t-62 -175.5t-121 -167.5h-121z" />
    <glyph glyph-name="xi" unicode="&#x3be;" horiz-adv-x="466" 
d="M44 211q0 70 36 116t94 68v5q-48 14 -73.5 45t-25.5 84q0 60 32.5 91.5t90.5 50.5q-18 -2 -49.5 -4t-58.5 -2h-22v95h367v-90h-44q-47 0 -90 -15t-69.5 -45t-26.5 -75t28.5 -69t101.5 -24h77v-90h-78q-83 0 -118.5 -35t-35.5 -97q0 -46 15 -69.5t46 -34.5t78 -21
q78 -17 109 -47.5t31 -73.5q0 -44 -18.5 -86.5t-42.5 -76.5h-132q27 36 45.5 75.5t18.5 64.5q0 16 -17 29t-78 24q-94 18 -142.5 68t-48.5 139z" />
    <glyph glyph-name="omicron" unicode="&#x3bf;" horiz-adv-x="582" 
d="M538 272q0 -135 -66.5 -208.5t-181.5 -73.5q-71 0 -126.5 33t-87 96t-31.5 153q0 135 66.5 207.5t181.5 72.5q71 0 126.5 -32.5t87 -95t31.5 -152.5zM180 272q0 -86 26.5 -133t85.5 -47q58 0 84.5 47t26.5 133t-26.5 132t-85.5 46t-85 -46t-26 -132z" />
    <glyph glyph-name="pi" unicode="&#x3c0;" horiz-adv-x="685" 
d="M588 90q15 0 30 4t27 10v-92q-15 -8 -42 -15t-58 -7q-65 0 -98.5 36t-33.5 112v306h-163v-444h-132v444h-107v54l80 44h561v-98h-107v-300q0 -28 12 -41t31 -13z" />
    <glyph glyph-name="rho" unicode="&#x3c1;" horiz-adv-x="586" 
d="M541 271q0 -136 -57 -208.5t-156 -72.5q-36 0 -70.5 11t-59.5 30h-9q1 -5 2.5 -25t3.5 -49t2 -58v-139h-133v514q0 136 63.5 207t177.5 71q69 0 122 -33t83.5 -95.5t30.5 -152.5zM302 450q-53 0 -79 -41.5t-26 -130.5v-141q20 -23 48.5 -34t56.5 -11q56 0 80 43.5
t24 135.5q0 93 -24 136t-80 43z" />
    <glyph glyph-name="sigma1" unicode="&#x3c2;" horiz-adv-x="474" 
d="M300 552q41 0 82.5 -9t77.5 -26l-39 -98q-31 13 -63.5 21t-60.5 8q-61 0 -89 -50.5t-28 -149.5q0 -50 13 -77.5t43.5 -42t83.5 -25.5q79 -18 109 -49.5t30 -75.5q0 -45 -18.5 -89t-42.5 -78h-132q27 37 45.5 77.5t18.5 67.5q0 11 -7 20.5t-29 18.5t-65 18
q-81 17 -132.5 72t-51.5 161q0 112 31.5 179.5t88.5 97t135 29.5z" />
    <glyph glyph-name="sigma" unicode="&#x3c3;" horiz-adv-x="610" 
d="M544 237q0 -70 -28.5 -126t-84.5 -88.5t-138 -32.5q-112 0 -180 69t-68 203q0 151 74.5 216t216.5 65h252v-96h-127q37 -37 60 -88.5t23 -121.5zM180 262q0 -76 27 -123t88 -47q60 0 87 44t27 115q0 61 -16 109t-45 87h-22q-74 0 -110 -40.5t-36 -144.5z" />
    <glyph glyph-name="tau" unicode="&#x3c4;" horiz-adv-x="484" 
d="M454 542v-97h-179v-277q0 -41 18.5 -59t48.5 -18q22 0 44 4t41 10v-94q-19 -9 -50 -15t-66 -6q-48 0 -86 15t-60 53t-22 107v280h-130v53l79 44h362z" />
    <glyph glyph-name="upsilon" unicode="&#x3c5;" horiz-adv-x="601" 
d="M300 -9q-91 0 -141.5 34t-71 91.5t-20.5 130.5v295h133v-297q0 -77 25 -115t80 -38q58 0 86.5 48t28.5 158q0 67 -8.5 123.5t-24.5 120.5h133q16 -63 24 -119.5t8 -128.5q0 -156 -64 -229.5t-188 -73.5z" />
    <glyph glyph-name="phi" unicode="&#x3c6;" horiz-adv-x="738" 
d="M147 551l98 -61q-34 -51 -53 -103.5t-19 -119.5q0 -59 16.5 -96t45 -56t64.5 -25v270q0 94 47 142.5t132 48.5q66 0 114.5 -32.5t75 -92t26.5 -140.5q0 -95 -36.5 -158t-98 -96t-135.5 -39v-233h-125v233q-73 7 -130.5 36.5t-90.5 88.5t-33 152q0 84 27.5 153t74.5 128z
M480 456q-26 0 -41 -21t-15 -74v-271q65 7 102.5 58t37.5 137q0 76 -21.5 123.5t-62.5 47.5z" />
    <glyph glyph-name="chi" unicode="&#x3c7;" horiz-adv-x="559" 
d="M106 548q62 0 92.5 -32.5t51.5 -101.5l42 -132l121 260h136l-199 -373l85 -234q14 -37 30.5 -53.5t44.5 -16.5q10 0 20.5 1t24.5 4v-98q-19 -5 -38 -8.5t-47 -3.5q-62 0 -98 36t-56 104l-50 170l-140 -310h-144l224 424l-64 187q-14 38 -30 55t-37 17q-10 0 -22 -1.5
t-26 -6.5v100q17 5 36 9t43 4z" />
    <glyph glyph-name="psi" unicode="&#x3c8;" horiz-adv-x="778" 
d="M455 759v-668q71 7 108.5 49.5t37.5 140.5q0 67 -9.5 129t-26.5 132h127q19 -69 27.5 -131.5t8.5 -128.5q0 -103 -36.5 -165.5t-98.5 -91.5t-138 -34v-231h-125v231q-77 3 -136.5 31t-93 88.5t-33.5 160.5v271h129v-275q0 -95 35 -133.5t99 -43.5v669h125z" />
    <glyph glyph-name="omega" unicode="&#x3c9;" horiz-adv-x="799" 
d="M698 542q27 -71 39.5 -135.5t12.5 -143.5q0 -81 -23 -142.5t-68 -96t-113 -34.5q-58 0 -92.5 26t-51.5 72h-6q-16 -46 -50.5 -72t-93.5 -26q-68 0 -113 34.5t-67.5 96t-22.5 142.5q0 79 12.5 143.5t39.5 135.5h132q-29 -68 -43 -134t-14 -142q0 -82 22 -129t64 -47
q41 0 58 33.5t17 91.5v146h124v-146q0 -60 17.5 -92.5t57.5 -32.5q46 0 66.5 47t20.5 128q0 76 -14 142.5t-44 134.5h133z" />
    <glyph glyph-name="iotadieresis" unicode="&#x3ca;" horiz-adv-x="370" 
d="M203 542v-376q0 -38 17 -56.5t46 -18.5q22 0 44 4.5t42 10.5v-94q-20 -10 -50.5 -16t-65.5 -6q-47 0 -84.5 15t-59 53.5t-21.5 107.5v376h132zM-15 684q0 32 18 46t44 14q24 0 42.5 -14t18.5 -46q0 -30 -18.5 -44.5t-42.5 -14.5q-26 0 -44 14.5t-18 44.5zM178 684
q0 32 17.5 46t43.5 14t44.5 -14t18.5 -46q0 -30 -18.5 -44.5t-44.5 -14.5t-43.5 14.5t-17.5 44.5z" />
    <glyph glyph-name="upsilondieresis" unicode="&#x3cb;" horiz-adv-x="601" 
d="M300 -9q-91 0 -141.5 34t-71 91.5t-20.5 130.5v295h133v-297q0 -77 25 -115t80 -38q58 0 86.5 48t28.5 158q0 67 -8.5 123.5t-24.5 120.5h133q16 -63 24 -119.5t8 -128.5q0 -156 -64 -229.5t-188 -73.5zM141 684q0 32 18 46t44 14q24 0 42.5 -14t18.5 -46
q0 -30 -18.5 -44.5t-42.5 -14.5q-26 0 -44 14.5t-18 44.5zM334 684q0 32 17.5 46t43.5 14t44.5 -14t18.5 -46q0 -30 -18.5 -44.5t-44.5 -14.5t-43.5 14.5t-17.5 44.5z" />
    <glyph glyph-name="omicrontonos" unicode="&#x3cc;" horiz-adv-x="582" 
d="M538 272q0 -135 -66.5 -208.5t-181.5 -73.5q-71 0 -126.5 33t-87 96t-31.5 153q0 135 66.5 207.5t181.5 72.5q71 0 126.5 -32.5t87 -95t31.5 -152.5zM180 272q0 -86 26.5 -133t85.5 -47q58 0 84.5 47t26.5 133t-26.5 132t-85.5 46t-85 -46t-26 -132zM242 606v15
q8 23 15.5 55t14 64.5t9.5 58.5h124v-11q-14 -37 -36.5 -87t-48.5 -95h-78z" />
    <glyph glyph-name="upsilontonos" unicode="&#x3cd;" horiz-adv-x="601" 
d="M300 -9q-91 0 -141.5 34t-71 91.5t-20.5 130.5v295h133v-297q0 -77 25 -115t80 -38q58 0 86.5 48t28.5 158q0 67 -8.5 123.5t-24.5 120.5h133q16 -63 24 -119.5t8 -128.5q0 -156 -64 -229.5t-188 -73.5zM249 606v15q8 23 15.5 55t14 64.5t9.5 58.5h124v-11
q-14 -37 -36.5 -87t-48.5 -95h-78z" />
    <glyph glyph-name="omegatonos" unicode="&#x3ce;" horiz-adv-x="799" 
d="M698 542q27 -71 39.5 -135.5t12.5 -143.5q0 -81 -23 -142.5t-68 -96t-113 -34.5q-58 0 -92.5 26t-51.5 72h-6q-16 -46 -50.5 -72t-93.5 -26q-68 0 -113 34.5t-67.5 96t-22.5 142.5q0 79 12.5 143.5t39.5 135.5h132q-29 -68 -43 -134t-14 -142q0 -82 22 -129t64 -47
q41 0 58 33.5t17 91.5v146h124v-146q0 -60 17.5 -92.5t57.5 -32.5q46 0 66.5 47t20.5 128q0 76 -14 142.5t-44 134.5h133zM351 606v15q8 23 15.5 55t14 64.5t9.5 58.5h124v-11q-14 -37 -36.5 -87t-48.5 -95h-78z" />
    <glyph glyph-name="afii10023" unicode="&#x401;" horiz-adv-x="522" 
d="M469 0h-385v714h385v-107h-251v-182h235v-107h-235v-210h251v-108zM128 856q0 32 18 46t44 14q24 0 42.5 -14t18.5 -46q0 -30 -18.5 -44.5t-42.5 -14.5q-26 0 -44 14.5t-18 44.5zM321 856q0 32 17.5 46t43.5 14t44.5 -14t18.5 -46q0 -30 -18.5 -44.5t-44.5 -14.5
t-43.5 14.5t-17.5 44.5z" />
    <glyph glyph-name="afii10051" unicode="&#x402;" horiz-adv-x="742" 
d="M502 -9q-23 0 -45.5 4t-38.5 12v107q16 -8 34 -12.5t35 -4.5t32.5 6t24.5 25t9 58v63q0 49 -20.5 70t-66.5 21h-152v-340h-135v606h-162v108h492v-108h-195v-157h158q104 0 159.5 -49.5t55.5 -139.5v-66q0 -100 -47.5 -151.5t-137.5 -51.5z" />
    <glyph glyph-name="afii10052" unicode="&#x403;" horiz-adv-x="521" 
d="M499 714v-108h-281v-606h-134v714h415zM460 938v-10q-17 -18 -47.5 -47t-63 -57t-56.5 -46h-88v13q14 19 34 44.5t39.5 53t32.5 49.5h149z" />
    <glyph glyph-name="afii10053" unicode="&#x404;" horiz-adv-x="623" 
d="M384 616q-80 0 -130 -50.5t-59 -147.5h296v-107h-296q5 -102 52 -157.5t139 -55.5q48 0 92 9.5t91 25.5v-109q-42 -18 -90 -26t-104 -8q-111 0 -182.5 45.5t-105.5 128t-34 193.5q0 109 38.5 191.5t112.5 129t183 46.5q62 0 112.5 -12.5t93.5 -34.5l-48 -106
q-37 18 -74.5 31.5t-86.5 13.5z" />
    <glyph glyph-name="afii10054" unicode="&#x405;" horiz-adv-x="524" 
d="M487 195q0 -95 -64.5 -150t-185.5 -55q-59 0 -106 10t-87 30v120q45 -20 97.5 -36.5t102.5 -16.5q56 0 82.5 25.5t26.5 65.5q0 44 -32.5 71t-104.5 56q-46 19 -83.5 45.5t-59.5 67t-22 101.5q0 91 63.5 143t167.5 52q58 0 106 -12t92 -34l-42 -103q-41 19 -81 30t-79 11
q-46 0 -70 -23t-24 -61q0 -29 14 -49t44 -37.5t78 -40.5q53 -25 90.5 -52t57 -64.5t19.5 -93.5z" />
    <glyph glyph-name="afii10055" unicode="&#x406;" horiz-adv-x="364" 
d="M330 0h-297v73l82 32v503l-82 33v73h297v-73l-81 -33v-503l81 -32v-73z" />
    <glyph glyph-name="afii10056" unicode="&#x407;" horiz-adv-x="364" 
d="M330 0h-297v73l82 32v503l-82 33v73h297v-73l-81 -33v-503l81 -32v-73zM25 856q0 32 18 46t44 14q24 0 42.5 -14t18.5 -46q0 -30 -18.5 -44.5t-42.5 -14.5q-26 0 -44 14.5t-18 44.5zM218 856q0 32 17.5 46t43.5 14t44.5 -14t18.5 -46q0 -30 -18.5 -44.5t-44.5 -14.5
t-43.5 14.5t-17.5 44.5z" />
    <glyph glyph-name="afii10057" unicode="&#x408;" horiz-adv-x="298" 
d="M10 -202q-27 0 -47.5 3t-34.5 8v107q15 -4 31.5 -7t35.5 -3q26 0 46 10t30.5 37t10.5 77v684h135v-681q0 -83 -26 -135t-72.5 -76t-108.5 -24z" />
    <glyph glyph-name="afii10058" unicode="&#x409;" horiz-adv-x="927" 
d="M73 -10q-37 0 -67 11v106q24 -11 49 -11q31 0 47 38t29 112q7 35 17 105t22 163.5t24 199.5h382v-285h59q91 0 148 -27.5t83 -75.5t26 -108q0 -102 -64.5 -160t-196.5 -58h-188v606h-137q-5 -50 -11.5 -106.5t-14 -113t-15 -107t-14.5 -88.5q-19 -97 -57 -149t-121 -52z
M576 106h52q64 0 96.5 26.5t32.5 85.5q0 62 -36 83.5t-101 21.5h-44v-217z" />
    <glyph glyph-name="afii10059" unicode="&#x40a;" horiz-adv-x="930" 
d="M84 0v714h134v-288h227v288h134v-285h58q91 0 148 -27.5t83 -75.5t26 -108q0 -102 -65 -160t-195 -58h-189v317h-227v-317h-134zM579 106h51q64 0 96.5 26.5t32.5 85.5q0 62 -35.5 83.5t-100.5 21.5h-44v-217z" />
    <glyph glyph-name="afii10060" unicode="&#x40b;" horiz-adv-x="743" 
d="M519 714v-109h-205v-157h164q100 0 154.5 -49t54.5 -139v-260h-135v249q0 49 -18.5 70t-62.5 21h-157v-340h-135v605h-162v109h502z" />
    <glyph glyph-name="afii10061" unicode="&#x40c;" horiz-adv-x="622" 
d="M623 0h-154l-251 362v-362h-134v714h134v-346l245 346h147l-249 -345zM496 938v-10q-17 -18 -47.5 -47t-63 -57t-56.5 -46h-88v13q14 19 34 44.5t39.5 53t32.5 49.5h149z" />
    <glyph glyph-name="afii10062" unicode="&#x40e;" horiz-adv-x="615" 
d="M619 714l-210 -508q-29 -70 -61 -118t-79 -73t-123 -25q-25 0 -53 4t-51 11v117q22 -10 47.5 -14.5t49.5 -4.5q46 0 72.5 22.5t43.5 64.5l-245 524h144l137 -317q9 -23 17.5 -46t13.5 -45h5q5 21 13.5 45t16.5 46l121 317h141zM528 944q-8 -76 -55 -121t-155 -45
q-73 0 -116.5 19.5t-64 57t-24.5 89.5h116q4 -55 25 -73t65 -18q38 0 62.5 19.5t28.5 71.5h118z" />
    <glyph glyph-name="afii10145" unicode="&#x40f;" horiz-adv-x="695" 
d="M611 0h-198v-200h-133v200h-196v714h134v-605h259v605h134v-714z" />
    <glyph glyph-name="afii10017" unicode="&#x410;" horiz-adv-x="642" 
d="M498 0l-55 189h-244l-55 -189h-144l240 717h161l241 -717h-144zM411 299l-57 184q-7 25 -17 61.5t-16 68.5q-7 -37 -16 -71t-16 -59l-56 -184h178z" />
    <glyph glyph-name="afii10018" unicode="&#x411;" horiz-adv-x="595" 
d="M84 0v714h420v-108h-286v-177h74q94 0 151.5 -27.5t83.5 -75t26 -108.5q0 -104 -64.5 -161t-199.5 -57h-205zM218 106h67q67 0 99.5 26.5t32.5 85.5q0 62 -35.5 83.5t-103.5 21.5h-60v-217z" />
    <glyph glyph-name="afii10019" unicode="&#x412;" horiz-adv-x="625" 
d="M84 714h210q134 0 199.5 -40t65.5 -139q0 -62 -31 -103.5t-81 -52.5v-5q35 -8 64.5 -26t47.5 -52.5t18 -90.5q0 -97 -65.5 -151t-179.5 -54h-248v714zM218 423h88q65 0 90 24.5t25 70.5q0 48 -29.5 69t-93.5 21h-80v-185zM218 320v-213h98q68 0 94.5 30.5t26.5 79.5
q0 47 -27.5 75t-97.5 28h-94z" />
    <glyph glyph-name="afii10020" unicode="&#x413;" horiz-adv-x="521" 
d="M499 714v-108h-281v-606h-134v714h415z" />
    <glyph glyph-name="afii10021" unicode="&#x414;" horiz-adv-x="709" 
d="M601 714v-605h89v-309h-129v200h-426v-200h-130v309h53q62 116 105.5 269t57.5 336h380zM467 605h-136q-5 -54 -17 -118t-29.5 -130.5t-39 -130t-46.5 -117.5h268v496z" />
    <glyph glyph-name="afii10022" unicode="&#x415;" horiz-adv-x="522" 
d="M469 0h-385v714h385v-107h-251v-182h235v-107h-235v-210h251v-108z" />
    <glyph glyph-name="afii10024" unicode="&#x416;" horiz-adv-x="882" 
d="M241 369l-229 345h144l221 -346v346h127v-346l222 346h143l-228 -344l241 -370h-148l-230 362v-362h-127v362l-230 -362h-148z" />
    <glyph glyph-name="afii10025" unicode="&#x417;" horiz-adv-x="594" 
d="M530 547q0 -72 -44.5 -115.5t-118.5 -55.5v-3q90 -11 136 -55t46 -115q0 -95 -70.5 -154t-206.5 -59q-73 0 -129.5 9.5t-99.5 29.5v110q43 -23 100 -35t104 -12q86 0 126 31t40 86q0 58 -51 84.5t-142 26.5h-80v101h74q101 0 141 29t40 79q0 43 -30 67.5t-88 24.5
q-53 0 -96 -16.5t-81 -42.5l-59 86q49 34 109.5 55t144.5 21q112 0 173.5 -50t61.5 -127z" />
    <glyph glyph-name="afii10026" unicode="&#x418;" horiz-adv-x="763" 
d="M84 714h123v-363q0 -33 -1 -74.5t-2.5 -76t-3.5 -46.5h4l321 560h155v-714h-124v360q0 36 1.5 79.5t3.5 78.5t3 47h-3l-321 -565h-156v714z" />
    <glyph glyph-name="afii10027" unicode="&#x419;" horiz-adv-x="763" 
d="M84 714h123v-363q0 -33 -1 -74.5t-2.5 -76t-3.5 -46.5h4l321 560h155v-714h-124v360q0 36 1.5 79.5t3.5 78.5t3 47h-3l-321 -565h-156v714zM606 944q-8 -76 -55 -121t-155 -45q-73 0 -116.5 19.5t-64 57t-24.5 89.5h116q4 -55 25 -73t65 -18q38 0 62.5 19.5t28.5 71.5
h118z" />
    <glyph glyph-name="afii10028" unicode="&#x41a;" horiz-adv-x="622" 
d="M623 0h-154l-251 362v-362h-134v714h134v-346l245 346h147l-249 -345z" />
    <glyph glyph-name="afii10029" unicode="&#x41b;" horiz-adv-x="693" 
d="M609 0h-134v606h-170q-5 -50 -11.5 -106.5t-13.5 -113t-14.5 -107t-14.5 -88.5q-19 -97 -57 -149t-121 -52q-37 0 -67 11v106q24 -11 49 -11q31 0 47 38t29 112q6 34 16 104t22.5 164t23.5 200h416v-714z" />
    <glyph glyph-name="afii10030" unicode="&#x41c;" horiz-adv-x="883" 
d="M374 0l-174 585h-4q2 -20 3.5 -56.5t3 -79t1.5 -79.5v-370h-120v714h184l170 -561h3l173 561h185v-714h-126v376q0 34 1 74.5t2.5 77t3.5 56.5h-4l-179 -584h-123z" />
    <glyph glyph-name="afii10031" unicode="&#x41d;" horiz-adv-x="713" 
d="M629 0h-135v317h-276v-317h-134v714h134v-288h276v288h135v-714z" />
    <glyph glyph-name="afii10032" unicode="&#x41e;" horiz-adv-x="744" 
d="M690 358q0 -111 -34.5 -193.5t-105 -128.5t-178.5 -46q-109 0 -179.5 46t-105 129t-34.5 194q0 110 34.5 192.5t105.5 128t180 45.5q107 0 177.5 -45.5t105 -128t34.5 -193.5zM195 358q0 -121 42 -190t135 -69q94 0 135 69t41 190t-41 190t-134 69q-94 0 -136 -69
t-42 -190z" />
    <glyph glyph-name="afii10033" unicode="&#x41f;" horiz-adv-x="695" 
d="M84 0v714h527v-714h-134v606h-259v-606h-134z" />
    <glyph glyph-name="afii10034" unicode="&#x420;" horiz-adv-x="585" 
d="M290 714q130 0 191 -57.5t61 -160.5q0 -61 -24 -114t-81 -86t-155 -33h-64v-263h-134v714h206zM285 608h-67v-239h50q65 0 102 28.5t37 93.5q0 117 -122 117z" />
    <glyph glyph-name="afii10035" unicode="&#x421;" horiz-adv-x="600" 
d="M373 616q-85 0 -133 -69.5t-48 -190.5q0 -122 45.5 -190t138.5 -68q43 0 83.5 9.5t83.5 25.5v-109q-42 -18 -85 -26t-97 -8q-105 0 -173.5 45.5t-101.5 128t-33 193.5q0 108 37 190.5t108.5 129.5t175.5 47q50 0 103 -12t93 -35l-45 -105q-35 17 -73 30.5t-79 13.5z" />
    <glyph glyph-name="afii10036" unicode="&#x422;" horiz-adv-x="540" 
d="M338 0h-135v606h-186v108h506v-108h-185v-606z" />
    <glyph glyph-name="afii10037" unicode="&#x423;" horiz-adv-x="615" 
d="M619 714l-210 -508q-29 -70 -61 -118t-79 -73t-123 -25q-25 0 -53 4t-51 11v117q22 -10 47.5 -14.5t49.5 -4.5q46 0 72.5 22.5t43.5 64.5l-245 524h144l137 -317q9 -23 17.5 -46t13.5 -45h5q5 21 13.5 45t16.5 46l121 317h141z" />
    <glyph glyph-name="afii10038" unicode="&#x424;" horiz-adv-x="800" 
d="M464 724v-88q108 -2 172.5 -39t93 -97t28.5 -130q0 -46 -15 -93t-48.5 -86.5t-90 -64t-140.5 -26.5v-110h-127v110q-85 2 -142 27t-90.5 64.5t-48 86.5t-14.5 92q0 70 28 129.5t92.5 97t174.5 39.5v88h127zM337 534q-63 -2 -98.5 -23.5t-50.5 -57t-15 -82.5
q0 -76 36.5 -121t127.5 -49v333zM464 534v-333q90 4 127 50t37 120q0 71 -36 115t-128 48z" />
    <glyph glyph-name="afii10039" unicode="&#x425;" horiz-adv-x="616" 
d="M615 0h-154l-156 285l-157 -285h-146l223 370l-209 344h149l144 -266l142 266h148l-211 -349z" />
    <glyph glyph-name="afii10040" unicode="&#x426;" horiz-adv-x="736" 
d="M717 105v-305h-129v200h-504v714h134v-605h259v605h134v-609h106z" />
    <glyph glyph-name="afii10041" unicode="&#x427;" horiz-adv-x="684" 
d="M600 0h-134v282q-58 -21 -107.5 -32.5t-100.5 -11.5q-94 0 -147 48t-53 137v291h135v-260q0 -54 23 -81t78 -27q42 0 82 9.5t90 28.5v330h134v-714z" />
    <glyph glyph-name="afii10042" unicode="&#x428;" horiz-adv-x="1004" 
d="M920 0h-836v714h134v-605h216v605h134v-605h217v605h135v-714z" />
    <glyph glyph-name="afii10043" unicode="&#x429;" horiz-adv-x="1043" 
d="M1021 105v-305h-130v200h-807v714h134v-605h214v605h134v-605h215v605h134v-609h106z" />
    <glyph glyph-name="afii10044" unicode="&#x42a;" horiz-adv-x="683" 
d="M173 0v606h-163v108h297v-285h77q92 0 148.5 -27.5t83 -75.5t26.5 -108q0 -102 -64.5 -160t-196.5 -58h-208zM307 106h70q65 0 97.5 26.5t32.5 85.5q0 62 -36.5 83.5t-101.5 21.5h-62v-217z" />
    <glyph glyph-name="afii10045" unicode="&#x42b;" horiz-adv-x="842" 
d="M84 0v714h134v-285h70q91 0 147.5 -27.5t83 -75.5t26.5 -108q0 -102 -64.5 -160t-196.5 -58h-200zM624 0v714h135v-714h-135zM218 106h63q64 0 96 26.5t32 85.5q0 62 -34.5 83t-98.5 21h-58v-216z" />
    <glyph glyph-name="afii10046" unicode="&#x42c;" horiz-adv-x="603" 
d="M84 0v714h134v-285h84q91 0 148.5 -27.5t84.5 -75.5t27 -108q0 -102 -66 -160t-198 -58h-214zM218 106h76q64 0 97.5 26.5t33.5 85.5q0 62 -36.5 83.5t-100.5 21.5h-70v-217z" />
    <glyph glyph-name="afii10047" unicode="&#x42d;" horiz-adv-x="615" 
d="M238 616q-46 0 -86 -13t-78 -30l-43 104q43 23 97 35t115 12q106 0 177 -44.5t106.5 -126t35.5 -192.5q0 -113 -35.5 -196t-108 -129t-183.5 -46q-59 0 -104 8t-89 26v109q48 -16 91.5 -25.5t90.5 -9.5q94 0 143 54.5t53 159.5h-296v107h296q-7 93 -55 145t-127 52z" />
    <glyph glyph-name="afii10048" unicode="&#x42e;" horiz-adv-x="1002" 
d="M948 358q0 -111 -32.5 -193.5t-99 -128.5t-168.5 -46q-94 0 -157.5 40.5t-98 114t-40.5 172.5h-134v-317h-134v714h134v-288h137q13 136 85 217.5t209 81.5q101 0 167.5 -45.5t99 -128t32.5 -193.5zM488 358q0 -121 38.5 -190t121.5 -69q85 0 122.5 69t37.5 190
t-37.5 190t-121.5 69t-122.5 -69t-38.5 -190z" />
    <glyph glyph-name="afii10049" unicode="&#x42f;" horiz-adv-x="621" 
d="M311 282l-156 -282h-152l188 313q-31 13 -58.5 36t-45 63t-17.5 100q0 98 66 150t193 52h209v-714h-134v282h-93zM404 608h-72q-64 0 -95 -24.5t-31 -80.5q0 -54 33 -84.5t97 -30.5h68v220z" />
    <glyph glyph-name="afii10065" unicode="&#x430;" horiz-adv-x="560" 
d="M289 552q98 0 150 -46t52 -142v-364h-93l-26 75h-4q-33 -44 -69.5 -64.5t-100.5 -20.5q-68 0 -113.5 41t-45.5 127q0 84 58 126t175 47l86 3v27q0 52 -21.5 74t-60.5 22q-37 0 -73.5 -11.5t-70.5 -28.5l-41 88q40 21 90 34t108 13zM359 256l-57 -2q-71 -3 -99 -28.5
t-28 -68.5q0 -39 19.5 -55.5t51.5 -16.5q47 0 80 31.5t33 93.5v46z" />
    <glyph glyph-name="afii10066" unicode="&#x431;" horiz-adv-x="586" 
d="M46 325q0 179 60.5 278t206.5 128q52 10 105.5 18t105.5 16l15 -110q-32 -5 -70.5 -10.5t-76.5 -11.5t-66 -11q-50 -8 -81 -28.5t-46 -61.5t-18 -111h6q11 19 32 38t51 32.5t70 13.5q92 0 146.5 -62.5t54.5 -177.5q0 -91 -31.5 -152.5t-87.5 -92t-130 -30.5
q-112 0 -179 86t-67 249zM300 93q47 0 75.5 36t28.5 125q0 71 -21.5 113t-72.5 42q-32 0 -58.5 -17t-45 -38.5t-25.5 -36.5q0 -57 10.5 -108t36.5 -83.5t72 -32.5z" />
    <glyph glyph-name="afii10067" unicode="&#x432;" horiz-adv-x="574" 
d="M518 402q0 -46 -26 -76t-75 -39v-4q52 -7 84.5 -38t32.5 -84q0 -47 -21.5 -83t-71 -57t-131.5 -21h-238v542h238q96 0 152 -30.5t56 -109.5zM385 391q0 58 -79 58h-101v-122h88q46 0 69 15t23 49zM398 166q0 38 -24 54t-73 16h-96v-145h97q46 0 71 17t25 58z" />
    <glyph glyph-name="afii10068" unicode="&#x433;" horiz-adv-x="441" 
d="M420 542v-97h-215v-445h-133v542h348z" />
    <glyph glyph-name="afii10069" unicode="&#x434;" horiz-adv-x="606" 
d="M517 542v-446h75v-288h-120v192h-339v-192h-119v288h43q53 87 82 205t36 241h342zM385 446h-102q-9 -94 -31 -186.5t-59 -163.5h192v350z" />
    <glyph glyph-name="afii10070" unicode="&#x435;" horiz-adv-x="554" 
d="M285 552q105 0 166 -65t61 -181v-64h-332q2 -74 36 -114.5t98 -40.5q49 0 88.5 10.5t81.5 30.5v-101q-38 -19 -79.5 -28t-100.5 -9q-76 0 -134.5 30.5t-91.5 92t-33 154.5q0 139 66.5 212t173.5 73zM287 459q-44 0 -72.5 -32.5t-32.5 -96.5h204q-1 56 -25 92.5t-74 36.5z
" />
    <glyph glyph-name="afii10072" unicode="&#x436;" horiz-adv-x="809" 
d="M791 542l-191 -261l209 -281h-145l-197 275v-275h-125v275l-199 -275h-144l209 281l-191 261h140l185 -263v263h125v-263l183 263h141z" />
    <glyph glyph-name="afii10073" unicode="&#x437;" horiz-adv-x="497" 
d="M234 552q58 0 105.5 -16t75.5 -47.5t28 -79.5q0 -49 -26.5 -78t-69.5 -42v-5q51 -13 82.5 -40.5t31.5 -88.5q0 -45 -25.5 -82.5t-79.5 -60t-137 -22.5q-62 0 -107.5 9t-78.5 25v107q31 -16 76 -29t100 -13q57 0 89 16.5t32 56.5q0 38 -30 56.5t-101 18.5h-63v91h54
q64 0 97.5 14.5t33.5 52.5q0 61 -97 61q-39 0 -75 -9t-73 -25l-40 91q44 18 91.5 28.5t106.5 10.5z" />
    <glyph glyph-name="afii10074" unicode="&#x438;" horiz-adv-x="651" 
d="M196 542v-258q0 -18 -1.5 -49.5t-3 -60t-2.5 -40.5l236 408h153v-542h-124v255q0 23 1 53t3 57t3 42l-235 -407h-154v542h124z" />
    <glyph glyph-name="afii10075" unicode="&#x439;" horiz-adv-x="651" 
d="M196 542v-258q0 -18 -1.5 -49.5t-3 -60t-2.5 -40.5l236 408h153v-542h-124v255q0 23 1 53t3 57t3 42l-235 -407h-154v542h124zM539 772q-8 -76 -55 -121t-155 -45q-73 0 -116.5 19.5t-64 57t-24.5 89.5h116q4 -55 25 -73t65 -18q38 0 62.5 19.5t28.5 71.5h118z" />
    <glyph glyph-name="afii10076" unicode="&#x43a;" horiz-adv-x="569" 
d="M404 542h145l-205 -260l223 -282h-152l-210 275v-275h-133v542h133v-263z" />
    <glyph glyph-name="afii10077" unicode="&#x43b;" horiz-adv-x="597" 
d="M525 0h-133v445h-128q-13 -163 -34.5 -263t-58.5 -145.5t-99 -45.5q-20 0 -37 3t-30 10v99q18 -8 37 -8t34.5 22t28.5 73t23.5 137.5t19.5 214.5h377v-542z" />
    <glyph glyph-name="afii10078" unicode="&#x43c;" horiz-adv-x="766" 
d="M693 542v-542h-120v296q0 32 1.5 65t3.5 61h-3l-143 -422h-99l-143 422h-3q3 -28 4 -60t1 -70v-292h-120v542h182l129 -393l132 393h178z" />
    <glyph glyph-name="afii10079" unicode="&#x43d;" horiz-adv-x="615" 
d="M205 542v-215h206v215h132v-542h-132v230h-206v-230h-133v542h133z" />
    <glyph glyph-name="afii10080" unicode="&#x43e;" horiz-adv-x="582" 
d="M538 272q0 -135 -66.5 -208.5t-181.5 -73.5q-71 0 -126.5 33t-87 96t-31.5 153q0 135 66.5 207.5t181.5 72.5q71 0 126.5 -32.5t87 -95t31.5 -152.5zM180 272q0 -86 26.5 -133t85.5 -47q58 0 84.5 47t26.5 133t-26.5 132t-85.5 46t-85 -46t-26 -132z" />
    <glyph glyph-name="afii10081" unicode="&#x43f;" horiz-adv-x="605" 
d="M533 542v-542h-133v444h-195v-444h-133v542h461z" />
    <glyph glyph-name="afii10082" unicode="&#x440;" horiz-adv-x="592" 
d="M352 552q88 0 141.5 -70.5t53.5 -209.5t-55.5 -210.5t-143.5 -71.5q-56 0 -90 22t-53 51h-7q2 -19 4.5 -41t2.5 -42v-220h-133v782h108l18 -72h7q20 34 54.5 58t92.5 24zM310 450q-58 0 -81.5 -40t-23.5 -121v-16q0 -87 22.5 -133.5t84.5 -46.5q50 0 75 48.5t25 132.5
t-25 130t-77 46z" />
    <glyph glyph-name="afii10083" unicode="&#x441;" horiz-adv-x="480" 
d="M288 -10q-112 0 -177.5 67t-65.5 211q0 100 32.5 162.5t89.5 92t131 29.5q46 0 86.5 -10t67.5 -24l-40 -97q-27 11 -54 19t-55 8q-123 0 -123 -179q0 -87 32 -131t90 -44q39 0 72.5 11t63.5 30v-109q-31 -19 -65.5 -27.5t-84.5 -8.5z" />
    <glyph glyph-name="afii10084" unicode="&#x442;" horiz-adv-x="509" 
d="M488 445h-168v-445h-132v445h-167v97h467v-97z" />
    <glyph glyph-name="afii10085" unicode="&#x443;" horiz-adv-x="528" 
d="M0 542h142l97 -306q10 -28 16 -57t9 -57h3q4 26 10.5 55.5t15.5 58.5l95 306h140l-215 -613q-29 -82 -80 -125.5t-133 -43.5q-23 0 -40.5 2.5t-30.5 5.5v100q10 -2 24.5 -4t31.5 -2q43 0 68.5 27.5t36.5 68.5l14 44z" />
    <glyph glyph-name="afii10086" unicode="&#x444;" horiz-adv-x="752" 
d="M438 760v-213q130 -12 199.5 -85t69.5 -191q0 -117 -67.5 -191t-201.5 -86v-234h-124v234q-128 12 -199 86t-71 191q0 119 67 192.5t204 83.5v213h123zM315 450q-65 -9 -100.5 -56.5t-35.5 -122.5q0 -76 35 -123.5t101 -55.5v358zM438 448v-356q65 9 100 56t35 123
q0 75 -35.5 121.5t-99.5 55.5z" />
    <glyph glyph-name="afii10087" unicode="&#x445;" horiz-adv-x="543" 
d="M184 277l-167 265h151l104 -184l104 184h150l-169 -265l177 -277h-150l-112 197l-113 -197h-150z" />
    <glyph glyph-name="afii10088" unicode="&#x446;" horiz-adv-x="650" 
d="M636 -192h-120v192h-444v542h133v-444h211v444h133v-447h87v-287z" />
    <glyph glyph-name="afii10089" unicode="&#x447;" horiz-adv-x="607" 
d="M188 542v-198q0 -79 70 -79q39 0 74 11.5t70 31.5v234h133v-542h-133v225q-34 -23 -76 -38.5t-96 -15.5q-84 0 -129 43.5t-45 125.5v202h132z" />
    <glyph glyph-name="afii10090" unicode="&#x448;" horiz-adv-x="898" 
d="M826 542v-542h-754v542h133v-444h179v444h130v-444h179v444h133z" />
    <glyph glyph-name="afii10091" unicode="&#x449;" horiz-adv-x="926" 
d="M825 542v-447h88v-287h-121v192h-720v542h133v-444h179v444h130v-444h179v444h132z" />
    <glyph glyph-name="afii10092" unicode="&#x44a;" horiz-adv-x="663" 
d="M308 542v-214h101q115 0 165.5 -39.5t50.5 -118.5q0 -78 -50 -124t-171 -46h-228v445h-163v97h295zM397 236h-89v-145h91q43 0 68.5 17.5t25.5 58.5q0 37 -23 53t-73 16z" />
    <glyph glyph-name="afii10093" unicode="&#x44b;" horiz-adv-x="780" 
d="M72 0v542h133v-214h86q113 0 163 -39t50 -119q0 -78 -50 -124t-169 -46h-213zM576 0v542h132v-542h-132zM205 91h72q43 0 68.5 17t25.5 59q0 38 -23 53.5t-72 15.5h-71v-145z" />
    <glyph glyph-name="afii10094" unicode="&#x44c;" horiz-adv-x="561" 
d="M205 328h104q112 0 163 -39t51 -119q0 -78 -50.5 -124t-169.5 -46h-231v542h133v-214zM390 167q0 38 -23 53.5t-72 15.5h-90v-145h92q42 0 67.5 17.5t25.5 58.5z" />
    <glyph glyph-name="afii10095" unicode="&#x44d;" horiz-adv-x="484" 
d="M185 -10q-48 0 -85 8t-69 24v101q33 -15 70 -25.5t76 -10.5q53 0 88 34t38 110h-207v89h207q-4 69 -33 102t-81 33q-30 0 -62.5 -9t-57.5 -20l-38 90q30 14 73.5 25t92.5 11q71 0 125.5 -26t85.5 -86.5t31 -164.5q0 -146 -66.5 -215.5t-187.5 -69.5z" />
    <glyph glyph-name="afii10096" unicode="&#x44e;" horiz-adv-x="818" 
d="M773 272q0 -135 -64 -208.5t-174 -73.5q-95 0 -158 60t-75 180h-97v-230h-133v542h133v-215h98q14 109 75.5 167t159.5 58q68 0 121.5 -32.5t83.5 -95t30 -152.5zM435 272q0 -88 24 -134t78 -46t77.5 46t23.5 134t-24 133t-78 45q-53 0 -77 -45t-24 -133z" />
    <glyph glyph-name="afii10097" unicode="&#x44f;" horiz-adv-x="551" 
d="M146 0h-144l138 219q-40 15 -71 52.5t-31 105.5q0 80 56 122.5t147 42.5h238v-542h-133v207h-85zM168 376q0 -39 24.5 -59t70.5 -20h83v152h-95q-44 0 -63.5 -21t-19.5 -52z" />
    <glyph glyph-name="afii10071" unicode="&#x451;" horiz-adv-x="554" 
d="M285 552q105 0 166 -65t61 -181v-64h-332q2 -74 36 -114.5t98 -40.5q49 0 88.5 10.5t81.5 30.5v-101q-38 -19 -79.5 -28t-100.5 -9q-76 0 -134.5 30.5t-91.5 92t-33 154.5q0 139 66.5 212t173.5 73zM287 459q-44 0 -72.5 -32.5t-32.5 -96.5h204q-1 56 -25 92.5t-74 36.5z
M117 684q0 32 18 46t44 14q24 0 42.5 -14t18.5 -46q0 -30 -18.5 -44.5t-42.5 -14.5q-26 0 -44 14.5t-18 44.5zM310 684q0 32 17.5 46t43.5 14t44.5 -14t18.5 -46q0 -30 -18.5 -44.5t-44.5 -14.5t-43.5 14.5t-17.5 44.5z" />
    <glyph glyph-name="afii10099" unicode="&#x452;" horiz-adv-x="611" 
d="M381 -240q-48 0 -82 12v100q14 -4 26 -6.5t28 -2.5q23 0 40 16.5t17 66.5v363q0 115 -87 115q-65 0 -90.5 -48t-25.5 -137v-239h-132v592h-71v85h71v83h132v-83h146v-85h-146v-39q0 -32 -2 -62t-3 -46h8q24 41 62.5 61t86.5 20q85 0 134.5 -47t49.5 -151v-395
q0 -75 -37.5 -124t-124.5 -49z" />
    <glyph glyph-name="afii10100" unicode="&#x453;" horiz-adv-x="441" 
d="M420 542v-97h-215v-445h-133v542h348zM407 766v-10q-17 -18 -47.5 -47t-63 -57t-56.5 -46h-88v13q14 19 34 44.5t39.5 53t32.5 49.5h149z" />
    <glyph glyph-name="afii10101" unicode="&#x454;" horiz-adv-x="489" 
d="M297 -10q-76 0 -132.5 29t-88 90t-31.5 159q0 106 32.5 168t89.5 89t132 27q86 0 161 -33l-39 -93q-31 13 -63 21t-61 8q-105 0 -117 -135h205v-89h-205q9 -144 117 -144q42 0 77.5 10.5t72.5 25.5v-100q-32 -17 -68 -25t-82 -8z" />
    <glyph glyph-name="afii10102" unicode="&#x455;" horiz-adv-x="468" 
d="M429 157q0 -82 -53.5 -124.5t-159.5 -42.5q-54 0 -94 8t-77 25v107q40 -19 86.5 -32t84.5 -13q45 0 65 16t20 43q0 16 -9 29t-34 28t-73 36q-47 21 -78.5 42t-47 50t-15.5 75q0 73 55 110.5t146 37.5q49 0 91 -10t86 -30l-39 -93q-37 16 -73 27t-67 11q-71 0 -71 -47
q0 -17 9.5 -29.5t34 -25.5t70.5 -32t77.5 -39.5t48.5 -50t17 -76.5z" />
    <glyph glyph-name="afii10103" unicode="&#x456;" horiz-adv-x="277" 
d="M140 751q28 0 49.5 -14.5t21.5 -51.5t-21.5 -52t-49.5 -15q-31 0 -52 15t-21 52t21 51.5t52 14.5zM205 542v-542h-132v542h132z" />
    <glyph glyph-name="afii10104" unicode="&#x457;" horiz-adv-x="277" 
d="M205 0h-133v542h133v-542zM-19 684q0 32 18 46t44 14q24 0 42.5 -14t18.5 -46q0 -30 -18.5 -44.5t-42.5 -14.5q-26 0 -44 14.5t-18 44.5zM174 684q0 32 17.5 46t43.5 14t44.5 -14t18.5 -46q0 -30 -18.5 -44.5t-44.5 -14.5t-43.5 14.5t-17.5 44.5z" />
    <glyph glyph-name="afii10105" unicode="&#x458;" horiz-adv-x="277" 
d="M67 685q0 37 21 51.5t51 14.5q29 0 50.5 -14.5t21.5 -51.5t-21.5 -52t-50.5 -15q-30 0 -51 15t-21 52zM33 -240q-23 0 -47 3.5t-39 8.5v100q15 -4 29.5 -7t31.5 -3q27 0 46 17t19 67v596h131v-609q0 -50 -17 -89t-54.5 -61.5t-99.5 -22.5z" />
    <glyph glyph-name="afii10106" unicode="&#x459;" horiz-adv-x="832" 
d="M503 542v-214h68q118 0 170.5 -39.5t52.5 -118.5q0 -78 -50 -124t-169 -46h-205v445h-106q-13 -163 -34.5 -263t-59 -145.5t-98.5 -45.5q-20 0 -37 3t-30 10v98q17 -7 36 -7t35 22t29 73t23.5 137.5t19.5 214.5h355zM567 236h-64v-145h66q42 0 67 17.5t25 58.5
q0 37 -22.5 53t-71.5 16z" />
    <glyph glyph-name="afii10107" unicode="&#x45a;" horiz-adv-x="835" 
d="M507 542v-215h67q118 0 170.5 -39t52.5 -118q0 -78 -49.5 -124t-168.5 -46h-206v230h-168v-230h-133v542h133v-215h169v215h133zM571 236h-65v-145h67q42 0 67 17.5t25 58.5q0 37 -22.5 53t-71.5 16z" />
    <glyph glyph-name="afii10108" unicode="&#x45b;" horiz-adv-x="611" 
d="M207 760v-83h153v-85h-153v-39q0 -32 -2.5 -62.5t-3.5 -45.5h9q24 41 62.5 61t86.5 20q84 0 133.5 -47.5t49.5 -151.5v-327h-132v302q0 122 -87 122q-66 0 -91 -48t-25 -137v-239h-132v592h-71v85h71v83h132z" />
    <glyph glyph-name="afii10109" unicode="&#x45c;" horiz-adv-x="569" 
d="M404 542h145l-205 -260l223 -282h-152l-210 275v-275h-133v542h133v-263zM453 766v-10q-17 -18 -47.5 -47t-63 -57t-56.5 -46h-88v13q14 19 34 44.5t39.5 53t32.5 49.5h149z" />
    <glyph glyph-name="afii10110" unicode="&#x45e;" horiz-adv-x="528" 
d="M0 542h142l97 -306q10 -28 16 -57t9 -57h3q4 26 10.5 55.5t15.5 58.5l95 306h140l-215 -613q-29 -82 -80 -125.5t-133 -43.5q-23 0 -40.5 2.5t-30.5 5.5v100q10 -2 24.5 -4t31.5 -2q43 0 68.5 27.5t36.5 68.5l14 44zM474 772q-8 -76 -55 -121t-155 -45q-73 0 -116.5 19.5
t-64 57t-24.5 89.5h116q4 -55 25 -73t65 -18q38 0 62.5 19.5t28.5 71.5h118z" />
    <glyph glyph-name="afii10193" unicode="&#x45f;" horiz-adv-x="622" 
d="M251 0h-179v542h133v-444h212v444h132v-542h-178v-192h-120v192z" />
    <glyph glyph-name="afii10050" unicode="&#x490;" horiz-adv-x="538" 
d="M519 863v-257h-301v-606h-134v714h316v149h119z" />
    <glyph glyph-name="afii10098" unicode="&#x491;" horiz-adv-x="465" 
d="M434 694v-247h-229v-447h-133v542h243v152h119z" />
    <glyph glyph-name="Wgrave" unicode="&#x1e80;" horiz-adv-x="918" 
d="M909 714l-172 -714h-152l-97 410q-4 20 -11 51.5t-12 61t-7 44.5q-2 -15 -7 -44.5t-11.5 -61t-11.5 -53.5l-96 -408h-152l-172 714h134l88 -407q6 -26 12 -59t12 -65.5t8 -56.5q4 26 10 58.5t12 64.5t12 55l98 410h128l99 -413q5 -23 12 -55t13 -64t9 -56q3 24 8.5 56.5
t12 65t12.5 59.5l88 407h133zM439 938q13 -22 32.5 -49.5t39 -53t34.5 -44.5v-13h-88q-23 18 -56 46t-63.5 57t-47.5 47v10h149z" />
    <glyph glyph-name="wgrave" unicode="&#x1e81;" horiz-adv-x="797" 
d="M496 0l-68 294q-8 36 -16 72.5t-12 64.5h-3q-3 -28 -10.5 -65.5t-16.5 -74.5l-73 -291h-153l-134 543h131l59 -282q8 -40 15 -80.5t10 -68.5h4q2 18 6.5 45t10 53.5t9.5 41.5l72 291h145l70 -291q4 -17 9 -42.5t9 -51.5t6 -45h3q3 26 10.5 66.5t16.5 81.5l63 282h128
l-137 -543h-154zM379 766q13 -22 32.5 -49.5t39 -53t34.5 -44.5v-13h-88q-23 18 -56 46t-63.5 57t-47.5 47v10h149z" />
    <glyph glyph-name="Wacute" unicode="&#x1e82;" horiz-adv-x="918" 
d="M909 714l-172 -714h-152l-97 410q-4 20 -11 51.5t-12 61t-7 44.5q-2 -15 -7 -44.5t-11.5 -61t-11.5 -53.5l-96 -408h-152l-172 714h134l88 -407q6 -26 12 -59t12 -65.5t8 -56.5q4 26 10 58.5t12 64.5t12 55l98 410h128l99 -413q5 -23 12 -55t13 -64t9 -56q3 24 8.5 56.5
t12 65t12.5 59.5l88 407h133zM616 938v-10q-17 -18 -47.5 -47t-63 -57t-56.5 -46h-88v13q14 19 34 44.5t39.5 53t32.5 49.5h149z" />
    <glyph glyph-name="wacute" unicode="&#x1e83;" horiz-adv-x="797" 
d="M496 0l-68 294q-8 36 -16 72.5t-12 64.5h-3q-3 -28 -10.5 -65.5t-16.5 -74.5l-73 -291h-153l-134 543h131l59 -282q8 -40 15 -80.5t10 -68.5h4q2 18 6.5 45t10 53.5t9.5 41.5l72 291h145l70 -291q4 -17 9 -42.5t9 -51.5t6 -45h3q3 26 10.5 66.5t16.5 81.5l63 282h128
l-137 -543h-154zM556 766v-10q-17 -18 -47.5 -47t-63 -57t-56.5 -46h-88v13q14 19 34 44.5t39.5 53t32.5 49.5h149z" />
    <glyph glyph-name="Wdieresis" unicode="&#x1e84;" horiz-adv-x="918" 
d="M909 714l-172 -714h-152l-97 410q-4 20 -11 51.5t-12 61t-7 44.5q-2 -15 -7 -44.5t-11.5 -61t-11.5 -53.5l-96 -408h-152l-172 714h134l88 -407q6 -26 12 -59t12 -65.5t8 -56.5q4 26 10 58.5t12 64.5t12 55l98 410h128l99 -413q5 -23 12 -55t13 -64t9 -56q3 24 8.5 56.5
t12 65t12.5 59.5l88 407h133zM301 856q0 32 18 46t44 14q24 0 42.5 -14t18.5 -46q0 -30 -18.5 -44.5t-42.5 -14.5q-26 0 -44 14.5t-18 44.5zM494 856q0 32 17.5 46t43.5 14t44.5 -14t18.5 -46q0 -30 -18.5 -44.5t-44.5 -14.5t-43.5 14.5t-17.5 44.5z" />
    <glyph glyph-name="wdieresis" unicode="&#x1e85;" horiz-adv-x="797" 
d="M496 0l-68 294q-8 36 -16 72.5t-12 64.5h-3q-3 -28 -10.5 -65.5t-16.5 -74.5l-73 -291h-153l-134 543h131l59 -282q8 -40 15 -80.5t10 -68.5h4q2 18 6.5 45t10 53.5t9.5 41.5l72 291h145l70 -291q4 -17 9 -42.5t9 -51.5t6 -45h3q3 26 10.5 66.5t16.5 81.5l63 282h128
l-137 -543h-154zM241 684q0 32 18 46t44 14q24 0 42.5 -14t18.5 -46q0 -30 -18.5 -44.5t-42.5 -14.5q-26 0 -44 14.5t-18 44.5zM434 684q0 32 17.5 46t43.5 14t44.5 -14t18.5 -46q0 -30 -18.5 -44.5t-44.5 -14.5t-43.5 14.5t-17.5 44.5z" />
    <glyph glyph-name="Ygrave" unicode="&#x1ef2;" horiz-adv-x="579" 
d="M290 399l144 315h145l-222 -436v-278h-134v273l-223 441h146zM270 938q13 -22 32.5 -49.5t39 -53t34.5 -44.5v-13h-88q-23 18 -56 46t-63.5 57t-47.5 47v10h149z" />
    <glyph glyph-name="ygrave" unicode="&#x1ef3;" horiz-adv-x="528" 
d="M0 542h142l97 -306q10 -28 16 -57t9 -57h3q4 26 10.5 55.5t15.5 58.5l95 306h140l-215 -613q-29 -82 -80 -125.5t-133 -43.5q-23 0 -40.5 2.5t-30.5 5.5v100q10 -2 24.5 -4t31.5 -2q43 0 68.5 27.5t36.5 68.5l14 44zM245 766q13 -22 32.5 -49.5t39 -53t34.5 -44.5v-13
h-88q-23 18 -56 46t-63.5 57t-47.5 47v10h149z" />
    <glyph glyph-name="endash" unicode="&#x2013;" horiz-adv-x="471" 
d="M37 219v99h397v-99h-397z" />
    <glyph glyph-name="emdash" unicode="&#x2014;" horiz-adv-x="941" 
d="M37 219v99h867v-99h-867z" />
    <glyph glyph-name="afii00208" unicode="&#x2015;" horiz-adv-x="941" 
d="M37 219v99h867v-99h-867z" />
    <glyph glyph-name="underscoredbl" unicode="&#x2017;" horiz-adv-x="412" 
d="M414 -90h-416v66h416v-66zM414 -224h-416v66h416v-66z" />
    <glyph glyph-name="quoteleft" unicode="&#x2018;" horiz-adv-x="199" 
d="M17 469l-7 11q13 53 35.5 116.5t45.5 117.5h96q-13 -58 -26.5 -125.5t-20.5 -119.5h-123z" />
    <glyph glyph-name="quoteright" unicode="&#x2019;" horiz-adv-x="199" 
d="M182 714l7 -11q-13 -53 -35.5 -116.5t-45.5 -117.5h-95q13 58 26 125.5t20 119.5h123z" />
    <glyph glyph-name="quotesinglbase" unicode="&#x201a;" horiz-adv-x="272" 
d="M201 116l7 -11q-13 -53 -35.5 -116.5t-45.5 -117.5h-95q13 58 26 125.5t20 119.5h123z" />
    <glyph glyph-name="quotereversed" unicode="&#x201b;" horiz-adv-x="199" 
d="M141 714q7 -52 20 -119.5t26 -125.5h-95q-23 54 -46 117.5t-36 116.5l7 11h124z" />
    <glyph glyph-name="quotedblleft" unicode="&#x201c;" horiz-adv-x="405" 
d="M392 714q-14 -58 -26.5 -125.5t-18.5 -119.5h-124l-7 11q13 53 35.5 116t45.5 118h95zM186 714q-14 -58 -26.5 -125.5t-19.5 -119.5h-123l-7 11q13 53 35.5 116t45.5 118h95z" />
    <glyph glyph-name="quotedblright" unicode="&#x201d;" horiz-adv-x="405" 
d="M389 714l6 -11q-13 -53 -35.5 -116.5t-45.5 -117.5h-96q14 58 27 125.5t20 119.5h124zM182 714l7 -11q-13 -53 -36 -116.5t-45 -117.5h-95q13 58 26 125.5t20 119.5h123z" />
    <glyph glyph-name="quotedblbase" unicode="&#x201e;" horiz-adv-x="476" 
d="M408 116l6 -11q-13 -53 -35.5 -116.5t-45.5 -117.5h-96q14 58 27 125.5t20 119.5h124zM201 116l7 -11q-13 -53 -36 -116.5t-45 -117.5h-95q13 58 26 125.5t20 119.5h123z" />
    <glyph glyph-name="dagger" unicode="&#x2020;" horiz-adv-x="483" 
d="M427 465l-153 15l25 -480h-123l25 480l-144 -15v106l144 -15l-25 204h123l-25 -204l153 15v-106z" />
    <glyph glyph-name="daggerdbl" unicode="&#x2021;" horiz-adv-x="485" 
d="M279 260l153 15v-105l-153 14l25 -184h-123l25 184l-153 -14v105l153 -15l-21 124l21 116l-153 -15v105l153 -15l-25 185h123l-25 -185l153 15v-105l-153 15l22 -116z" />
    <glyph glyph-name="bullet" unicode="&#x2022;" horiz-adv-x="359" 
d="M51 365q0 78 37 110.5t91 32.5q53 0 90.5 -32.5t37.5 -110.5q0 -77 -37.5 -110t-90.5 -33q-54 0 -91 33t-37 110z" />
    <glyph glyph-name="ellipsis" unicode="&#x2026;" horiz-adv-x="831" 
d="M55 64q0 42 22.5 59.5t54.5 17.5t54.5 -17.5t22.5 -59.5q0 -41 -22.5 -59t-54.5 -18t-54.5 18t-22.5 59zM331 64q0 42 22.5 59.5t54.5 17.5t54.5 -17.5t22.5 -59.5q0 -41 -22.5 -59t-54.5 -18t-54.5 18t-22.5 59zM607 64q0 42 22.5 59.5t54.5 17.5t54.5 -17.5t22.5 -59.5
q0 -41 -22.5 -59t-54.5 -18t-54.5 18t-22.5 59z" />
    <glyph glyph-name="perthousand" unicode="&#x2030;" horiz-adv-x="1189" 
d="M186 724q76 0 117 -58.5t41 -164.5t-39 -165.5t-119 -59.5q-74 0 -114.5 59.5t-40.5 165.5t38 164.5t117 58.5zM656 714l-372 -714h-105l372 714h105zM187 637q-26 0 -37.5 -34t-11.5 -103q0 -68 11.5 -102.5t37.5 -34.5q51 0 51 137t-51 137zM648 439q75 0 116.5 -58.5
t41.5 -164.5t-39 -165.5t-119 -59.5q-74 0 -114.5 59.5t-40.5 165.5t38 164.5t117 58.5zM1000 439q75 0 116 -58.5t41 -164.5t-38.5 -165.5t-118.5 -59.5q-74 0 -114.5 59.5t-40.5 165.5t38 164.5t117 58.5zM649 351q-26 0 -37.5 -34t-11.5 -102q0 -69 11.5 -103.5
t37.5 -34.5q51 0 51 138q0 136 -51 136zM1001 351q-27 0 -38.5 -34t-11.5 -102q0 -69 11.5 -103.5t38.5 -34.5q51 0 51 138q0 136 -51 136z" />
    <glyph glyph-name="minute" unicode="&#x2032;" horiz-adv-x="265" 
d="M159 714h124l-157 -258h-89z" />
    <glyph glyph-name="second" unicode="&#x2033;" horiz-adv-x="469" 
d="M363 714h124l-157 -258h-89zM159 714h124l-157 -258h-89z" />
    <glyph glyph-name="guilsinglleft" unicode="&#x2039;" horiz-adv-x="336" 
d="M37 276l168 214l95 -49l-128 -171l128 -170l-95 -50l-168 213v13z" />
    <glyph glyph-name="guilsinglright" unicode="&#x203a;" horiz-adv-x="336" 
d="M131 490l169 -214v-13l-169 -213l-95 50l128 170l-128 171z" />
    <glyph glyph-name="exclamdbl" unicode="&#x203c;" horiz-adv-x="543" 
d="M187 223h-108l-21 491h151zM55 64q0 42 22.5 59.5t55.5 17.5q31 0 53.5 -17.5t22.5 -59.5q0 -41 -22.5 -59t-53.5 -18q-33 0 -55.5 18t-22.5 59zM451 223h-108l-21 491h151zM319 64q0 42 22.5 59.5t55.5 17.5q31 0 53.5 -17.5t22.5 -59.5q0 -41 -22.5 -59t-53.5 -18
q-33 0 -55.5 18t-22.5 59z" />
    <glyph glyph-name="fraction" unicode="&#x2044;" horiz-adv-x="110" 
d="M296 714l-377 -714h-105l377 714h105z" />
    <glyph glyph-name="nsuperior" unicode="&#x207f;" horiz-adv-x="396" 
d="M232.059 503.38q55.252 0 87.1035 -28.1992t31.8516 -91.1963v-211.791h-86.4541v196.792q0 73.1963 -56.5518 73.1963q-43.5518 0 -59.1523 -28.7988t-15.6006 -82.1963v-158.993h-86.4531v325.187h66.3027l12.3506 -42.5986h3.89941q15.6006 25.1992 42.9023 36.8984
q27.3008 11.7002 59.8018 11.7002z" />
    <glyph glyph-name="franc" unicode="&#x20a3;" horiz-adv-x="542" 
d="M95 0v129h-71v78h71v507h397v-107h-265v-197h248v-107h-248v-96h144v-78h-144v-129h-132z" />
    <glyph glyph-name="afii08941" unicode="&#x20a4;" horiz-adv-x="542" 
d="M325 724q49 0 93.5 -12t81.5 -28l-41 -96q-34 14 -64.5 23t-63.5 9q-35 0 -56 -22.5t-21 -76.5v-67h167v-78h-167v-65h167v-79h-168q-2 -40 -19 -72t-50 -51h335v-109h-481v103q42 15 62.5 47.5t22.5 81.5h-84v79h84v65h-84v78h84v60q0 107 55 158.5t147 51.5z" />
    <glyph glyph-name="peseta" unicode="&#x20a7;" horiz-adv-x="821" 
d="M238 714q132 0 192.5 -57.5t60.5 -160.5q0 -62 -24 -115t-81.5 -85.5t-158.5 -32.5h-24v-263h-127v714h162zM237 608h-34v-239h25q67 0 100.5 28.5t33.5 93.5q0 59 -30 88t-95 29zM665 524v-111h119v-89h-119v-172q0 -32 13 -49.5t38 -17.5q21 0 40.5 4t33.5 10v-87
q-18 -9 -45 -15.5t-59 -6.5q-64 0 -102 35t-38 120v179h-67v48l77 45l38 107h71z" />
    <glyph glyph-name="Euro" unicode="&#x20ac;" horiz-adv-x="542" 
d="M369 721q90 0 163 -43l-44 -97q-28 15 -58 25t-61 10q-121 0 -145 -155h191v-78h-197q-1 -6 -1 -14v-17v-16.5t1 -17.5h169v-79h-161q12 -68 50 -104.5t101 -36.5q37 0 70 8t60 21v-107q-26 -14 -60.5 -22t-77.5 -8q-112 0 -182 65.5t-92 183.5h-69v79h61q-1 8 -1.5 16
t-0.5 18q0 9 0.5 17.5t0.5 13.5h-60v78h67q19 121 90 190.5t186 69.5z" />
    <glyph glyph-name="afii61248" unicode="&#x2105;" horiz-adv-x="759" 
d="M199 374q-71 0 -116.5 42t-45.5 129q0 95 46.5 134.5t116.5 39.5q52 0 99 -22l-24 -67q-19 8 -38 13t-36 5q-36 0 -54 -27t-18 -75q0 -49 16.5 -75t54.5 -26q25 0 48 5.5t41 14.5v-70q-16 -9 -40 -15t-50 -6zM606 714l-373 -714h-105l373 714h105zM721 166
q0 -83 -41.5 -128.5t-112.5 -45.5q-65 0 -107.5 45.5t-42.5 128.5q0 84 41 129t112 45q64 0 107.5 -45t43.5 -129zM507 166q0 -50 14.5 -77t47.5 -27q31 0 45.5 27t14.5 77t-14.5 77t-45.5 27q-33 0 -47.5 -27t-14.5 -77z" />
    <glyph glyph-name="afii61289" unicode="&#x2113;" horiz-adv-x="508" 
d="M303 80q28 0 45.5 24t19.5 76h92q-3 -90 -41.5 -139.5t-133.5 -49.5q-75 0 -122 45t-47 143v81q-20 -6 -41 -12.5t-43 -12.5v82q45 12 84 27v215q0 81 40 122.5t131 41.5q72 0 114 -40.5t42 -112.5q0 -98 -51 -163t-149 -108v-122q0 -43 14.5 -70t45.5 -27zM331 567
q0 37 -10.5 57t-33.5 20q-26 0 -35 -21t-9 -56v-179q44 25 66 71.5t22 107.5z" />
    <glyph glyph-name="afii61352" unicode="&#x2116;" horiz-adv-x="983" 
d="M73 0v714h148l236 -538h7l-1 19t-3 48.5t-3 63t-1 62.5v345h118v-714h-147l-239 541h-7l1.5 -20t3.5 -51.5t3.5 -66t1.5 -62.5v-341h-118zM788 134q-67 0 -110 45.5t-43 129.5q0 83 42 128.5t113 45.5q66 0 110 -45t44 -129t-42.5 -129.5t-113.5 -45.5zM789 206
q33 0 47.5 26t14.5 77t-14.5 76.5t-47.5 25.5t-47.5 -25.5t-14.5 -76.5t14.5 -77t47.5 -26zM646 0v83h286v-83h-286z" />
    <glyph glyph-name="trademark" unicode="&#x2122;" horiz-adv-x="725" 
d="M661 714v-352h-70v204q0 8 1 31.5t2 35.5h-4l-87 -271h-57l-83 271h-4q1 -16 2 -36t1 -26v-209h-66v352h102l80 -271l84 271h99zM265 714v-54h-91v-298h-68v298h-90v54h249z" />
    <glyph glyph-name="uni2126" unicode="&#x2126;" horiz-adv-x="741" 
d="M370 617q-84 0 -131 -57.5t-47 -162.5q0 -91 28 -163t98 -122v-112h-290v109h170q-67 45 -106.5 124.5t-39.5 184.5q0 93 38.5 162t110 107t169.5 38t169.5 -38t110 -107t38.5 -163q0 -105 -39 -183.5t-107 -124.5h171v-109h-292v112q73 49 101 121.5t28 163.5
q0 105 -47 162.5t-133 57.5z" />
    <glyph glyph-name="estimated" unicode="&#x212e;" horiz-adv-x="582" 
d="M290 -17q-79 0 -133 39t-82 102t-28 135t21.5 124t57 86t78.5 50t86 16q70 0 125 -33.5t87 -95.5t32 -147h-380v-174q20 -23 57 -41.5t79 -18.5q69 0 109.5 30t72.5 84l33 -20q-22 -37 -49.5 -68t-67.5 -49.5t-98 -18.5zM428 301v135q-18 20 -54 39t-84 19
q-47 0 -80.5 -17t-55.5 -40v-136h274z" />
    <glyph glyph-name="oneeighth" unicode="&#x215b;" horiz-adv-x="826" 
d="M132 0l377 714h105l-377 -714h-105zM144 286v240q0 22 1 51.5t3 44.5q-7 -8 -16.5 -19t-19.5 -19l-42 -33l-49 57l138 106h86v-428h-101zM619 -9q-74 0 -115 34t-41 90q0 41 19 66t53 42q-27 19 -42.5 43t-15.5 61q0 54 41 82t101 28q59 0 99.5 -27t40.5 -82
q0 -37 -18 -60.5t-48 -40.5q37 -17 58.5 -42.5t21.5 -66.5q0 -56 -42.5 -91.5t-111.5 -35.5zM619 263q21 11 34 24.5t13 37.5q0 19 -12.5 31.5t-35.5 12.5t-35 -12.5t-12 -31.5q0 -23 13 -37t35 -25zM617 60q31 0 46 15.5t15 39.5q0 45 -61 67l-8 3q-25 -12 -38 -28.5
t-13 -41.5q0 -24 15 -39.5t44 -15.5z" />
    <glyph glyph-name="threeeighths" unicode="&#x215c;" horiz-adv-x="831" 
d="M154 278q-72 0 -129 32v81q30 -18 61.5 -29t66.5 -11q72 0 72 61q0 26 -20 42.5t-61 16.5h-52v69h45q43 0 60 17.5t17 41.5q0 50 -51 50q-25 0 -46 -9.5t-47 -28.5l-45 61q31 22 66 36.5t80 14.5q64 0 100.5 -31t36.5 -81q0 -73 -73 -99v-5q43 -9 65 -36t22 -64
q0 -59 -42 -94t-126 -35zM163 0l377 714h105l-377 -714h-105zM634 -9q-75 0 -115.5 34t-40.5 90q0 41 19 66t53 42q-28 19 -43.5 43t-15.5 61q0 54 41 82t102 28q60 0 100 -27t40 -82q0 -37 -18 -60.5t-49 -40.5q37 -17 59 -42.5t22 -66.5q0 -56 -42.5 -91.5t-111.5 -35.5z
M634 263q21 11 33.5 24.5t12.5 37.5q0 19 -12 31.5t-35 12.5t-35 -12.5t-12 -31.5q0 -23 13 -37t35 -25zM632 60q31 0 46 15.5t15 39.5t-15 40t-45 27l-9 3q-25 -12 -38.5 -28.5t-13.5 -41.5q0 -24 15.5 -39.5t44.5 -15.5z" />
    <glyph glyph-name="fiveeighths" unicode="&#x215d;" horiz-adv-x="832" 
d="M165 0l377 714h105l-377 -714h-105zM158 278q-33 0 -64.5 6t-53.5 19v84q24 -17 55 -26.5t55 -9.5q38 0 59.5 16.5t21.5 54.5q0 69 -79 69q-16 0 -31 -3t-26 -7l-48 21l17 212h238v-77h-166l-7 -82q12 1 25.5 3t26.5 2q64 0 105.5 -34.5t41.5 -99.5q0 -70 -43.5 -109
t-126.5 -39zM637 -10q-75 0 -116 34t-41 90q0 41 19 66.5t54 42.5q-27 19 -42.5 42t-15.5 61q0 54 40.5 82.5t101.5 28.5q59 0 99.5 -27.5t40.5 -82.5q0 -37 -18 -61t-48 -40q36 -17 58.5 -42.5t22.5 -66.5q0 -56 -43 -91.5t-112 -35.5zM637 263q21 10 33.5 24t12.5 37
q0 19 -12.5 31.5t-34.5 12.5q-23 0 -35.5 -12.5t-12.5 -31.5q0 -22 13.5 -36t35.5 -25zM635 59q30 0 45 15.5t15 39.5q0 47 -59 67l-9 4q-25 -13 -38.5 -29.5t-13.5 -41.5q0 -24 15 -39.5t45 -15.5z" />
    <glyph glyph-name="seveneighths" unicode="&#x215e;" horiz-adv-x="830" 
d="M133 0l378 714h104l-377 -714h-105zM76 286l157 349h-201v79h302v-64l-149 -364h-109zM627 -9q-73 0 -114 34t-41 90q0 41 19 66t53 42q-27 19 -43 43t-16 61q0 54 41 82t102 28q60 0 99.5 -27t39.5 -82q0 -37 -17.5 -60.5t-47.5 -40.5q36 -17 58.5 -42.5t22.5 -66.5
q0 -56 -43 -91.5t-113 -35.5zM628 263q21 11 33.5 24.5t12.5 37.5q0 19 -12 31.5t-36 12.5q-22 0 -34.5 -12.5t-12.5 -31.5q0 -23 13.5 -37t35.5 -25zM625 60q31 0 46.5 15.5t15.5 39.5q0 45 -61 67l-8 3q-26 -12 -39 -28.5t-13 -41.5q0 -24 15 -39.5t44 -15.5z" />
    <glyph glyph-name="cyrillicbreve" horiz-adv-x="542" 
d="M478 772q-8 -76 -55 -121t-155 -45q-73 0 -116.5 19.5t-64 57t-24.5 89.5h116q4 -55 25 -73t65 -18q38 0 62.5 19.5t28.5 71.5h118z" />
    <glyph glyph-name="caroncommaaccent" horiz-adv-x="461" 
d="M310 760v-10q-13 -31 -32 -71.5t-42 -78.5h-77v13q8 29 16.5 72t11.5 75h123z" />
    <glyph glyph-name="commaaccent" unicode="&#x326;" 
d="M68 -61v-10q-12 -31 -32 -72t-45 -78h-76v13q5 18 11.5 44.5t11.5 54t7 48.5h123z" />
    <glyph glyph-name="commaaccentrotate" horiz-adv-x="461" 
d="M305 766v-13q-6 -19 -12 -45t-10.5 -53t-7.5 -49h-124v10q11 31 32 71.5t45 78.5h77z" />
    <glyph glyph-name="uni2074" unicode="&#x2074;" horiz-adv-x="353" 
d="M344 498h-58v-82h-100v82h-177v67l175 282h102v-275h58v-74zM186 572v85q0 20 1 45t2 49q-5 -13 -17 -37.5t-20 -39.5l-61 -102h95z" />
    <glyph glyph-name="uni2075" unicode="&#x2075;" horiz-adv-x="353" 
d="M298 844v-77h-165l-8 -82q10 1 23 3t29 2q62 0 104.5 -34.5t42.5 -99.5q0 -70 -43 -109t-126 -39q-32 0 -64.5 6t-54.5 19v84q23 -17 54.5 -26.5t56.5 -9.5q36 0 58 16.5t22 54.5q0 69 -79 69q-14 0 -30 -3t-27 -7l-47 21l16 212h238z" />
    <glyph glyph-name="uni2077" unicode="&#x2077;" horiz-adv-x="353" 
d="M72 416l157 349h-202v79h303v-64l-149 -364h-109z" />
    <glyph glyph-name="uni2078" unicode="&#x2078;" horiz-adv-x="353" 
d="M177 853q59 0 99.5 -27t40.5 -82q0 -37 -19.5 -60.5t-46.5 -40.5q34 -17 57.5 -42.5t23.5 -66.5q0 -56 -42 -91.5t-113 -35.5q-79 0 -117.5 34t-38.5 90q0 41 21.5 66t50.5 42q-26 19 -42 43t-16 61q0 54 41.5 82t100.5 28zM176 785q-23 0 -35 -12.5t-12 -31.5
q0 -23 13.5 -37t35.5 -25q20 11 33 24.5t13 37.5q0 19 -11 31.5t-37 12.5zM167 601q-25 -12 -38 -28.5t-13 -41.5q0 -24 15 -39.5t44 -15.5q31 0 46 15.5t15 39.5t-16 40t-45 27z" />
    <glyph glyph-name="uni2000" unicode="&#x2000;" horiz-adv-x="500" 
 />
    <glyph glyph-name="uni2001" unicode="&#x2001;" horiz-adv-x="1000" 
 />
    <glyph glyph-name="uni2002" unicode="&#x2002;" horiz-adv-x="500" 
 />
    <glyph glyph-name="uni2003" unicode="&#x2003;" horiz-adv-x="1000" 
 />
    <glyph glyph-name="uni2004" unicode="&#x2004;" horiz-adv-x="333" 
 />
    <glyph glyph-name="uni2005" unicode="&#x2005;" horiz-adv-x="250" 
 />
    <glyph glyph-name="uni2006" unicode="&#x2006;" horiz-adv-x="167" 
 />
    <glyph glyph-name="uni2007" unicode="&#x2007;" horiz-adv-x="541" 
 />
    <glyph glyph-name="uni2008" unicode="&#x2008;" horiz-adv-x="264" 
 />
    <glyph glyph-name="uni2009" unicode="&#x2009;" horiz-adv-x="188" 
 />
    <glyph glyph-name="uni200A" unicode="&#x200a;" horiz-adv-x="100" 
 />
    <glyph glyph-name="uni200B" unicode="&#x200b;" 
 />
    <glyph glyph-name="uniFEFF" unicode="&#xfeff;" 
 />
    <glyph glyph-name="uniFFFC" unicode="&#xfffc;" horiz-adv-x="939" 
d="M770 687v54h139v-148h-49v94h-90zM591 687v54h125v-54h-125zM411 687v54h125v-54h-125zM232 687v54h124v-54h-124zM37 593v148h139v-54h-88v-94h-51zM909 402h-49v132h49v-132zM88 402h-51v132h51v-132zM395 307q0 -66 -29 -106.5t-91 -40.5t-91 40.5t-29 106.5
q0 67 29 107t91 40t91 -40t29 -107zM683 161q-22 0 -37 5v50q8 -2 15 -3t16 -1q17 0 28.5 8.5t11.5 33.5v196h57v-194q0 -50 -25.5 -72.5t-65.5 -22.5zM434 450h79q49 0 75 -16t26 -57q0 -24 -11 -40.5t-30 -20.5v-2q20 -4 34.5 -18.5t14.5 -48.5q0 -39 -25 -61t-68 -22h-95
v286zM213 307q0 -45 15.5 -70.5t46.5 -25.5q32 0 47 25.5t15 70.5t-15 70.5t-47 25.5q-31 0 -46.5 -25.5t-15.5 -70.5zM490 337h30q21 0 29.5 8t8.5 24q0 31 -41 31h-27v-63zM88 210h-51v133h51v-133zM909 210h-49v133h49v-133zM490 289v-75h34q22 0 30.5 10.5t8.5 28.5
q0 16 -8.5 26t-32.5 10h-32zM88 19h-51v132h51v-132zM909 19h-49v132h49v-132zM37 -187v148h51v-95h88v-53h-139zM770 -187v53h90v95h49v-148h-139zM411 -187v53h125v-53h-125zM232 -187v53h124v-53h-124zM591 -187v53h125v-53h-125z" />
    <glyph glyph-name="uniFFFD" unicode="&#xfffd;" horiz-adv-x="940" 
d="M469 760l432 -458l-432 -458l-430 458zM499 179v23q0 25 9.5 39.5t40.5 40.5q40 34 60.5 65t20.5 80q0 67 -43.5 104t-118.5 37q-40 0 -80.5 -14t-73.5 -34l38 -87q32 17 60 28t54 11q29 0 43.5 -14t14.5 -37q0 -29 -12.5 -46t-43.5 -43q-35 -30 -50.5 -57.5t-15.5 -66.5
v-29h97zM390 45q0 -35 18.5 -50.5t46.5 -15.5q25 0 44.5 15.5t19.5 50.5q0 37 -19.5 52t-44.5 15q-28 0 -46.5 -15t-18.5 -52z" />
    <glyph glyph-name="uni01F0" unicode="&#x1f0;" horiz-adv-x="277" 
d="M33 -240q-23 0 -47 3.5t-39 8.5v100q15 -4 29.5 -7t31.5 -3q27 0 46 17t19 67v596h131v-609q0 -50 -17 -89t-54.5 -61.5t-99.5 -22.5zM314 766v-13q-17 -19 -39.5 -44.5t-44 -53t-34.5 -49.5h-141q-13 22 -34 49.5t-43 53t-40 44.5v13h88q51 -34 99 -88q25 27 50.5 49.5
t50.5 38.5h88z" />
    <glyph glyph-name="uni02BC" unicode="&#x2bc;" horiz-adv-x="201" 
d="M182 714l7 -11q-13 -53 -35.5 -116.5t-45.5 -117.5h-95q13 58 26 125.5t20 119.5h123z" />
    <glyph glyph-name="uni03D1" unicode="&#x3d1;" horiz-adv-x="644" 
d="M307 765q81 0 133.5 -35.5t81.5 -99.5t40 -148h65v-97h-57q1 -8 1 -22.5v-24.5q0 -72 -15.5 -135t-48 -111t-85.5 -75t-128 -27q-77 0 -119 24.5t-58.5 62.5t-16.5 81q0 31 3.5 61.5t3.5 53.5q0 21 -6 28.5t-19 7.5q-10 0 -22 -4.5t-20 -9.5l-32 79q26 14 59.5 24
t72.5 10q42 0 65 -24t23 -66q0 -32 -4 -67.5t-4 -74.5q0 -34 20 -60.5t65 -26.5q64 0 98.5 62.5t34.5 193.5q0 7 -0.5 19t-1.5 20q-114 2 -183.5 32.5t-100.5 80t-31 106.5q0 45 19.5 82t60.5 58.5t106 21.5zM310 668q-60 0 -60 -64q0 -32 17 -59.5t57 -44.5t107 -18
q-10 89 -42.5 137.5t-78.5 48.5z" />
    <glyph glyph-name="uni03D2" unicode="&#x3d2;" horiz-adv-x="586" 
d="M288 394l58 140t54 114q22 38 48.5 55t68.5 17q35 0 65 -11v-96q-4 1 -13 3t-17 2q-15 0 -27.5 -8t-30.5 -37q-16 -23 -40 -72.5t-50.5 -111t-47.5 -120.5v-269h-134v273l-222 441h146z" />
    <glyph glyph-name="uni03D6" unicode="&#x3d6;" horiz-adv-x="912" 
d="M884 542v-97h-115q16 -50 25.5 -103.5t9.5 -105.5q0 -119 -51 -182.5t-152 -63.5q-59 0 -93.5 26t-51.5 72h-5q-18 -46 -52.5 -72t-92.5 -26q-100 0 -151.5 63.5t-51.5 182.5q0 52 10.5 106t27.5 103h-121v53l79 44h785zM643 445h-376q-16 -48 -26.5 -101t-10.5 -103
q0 -80 21.5 -115.5t65.5 -35.5q43 0 58.5 33.5t15.5 91.5v75h125v-75q0 -60 16 -92.5t59 -32.5t64.5 35.5t21.5 114.5q0 50 -9 103t-25 102z" />
    <glyph glyph-name="uni1E3E" unicode="&#x1e3e;" horiz-adv-x="883" 
d="M374 0l-174 585h-4q2 -20 3.5 -56.5t3 -79t1.5 -79.5v-370h-120v714h184l170 -561h3l173 561h185v-714h-126v376q0 34 1 74.5t2.5 77t3.5 56.5h-4l-179 -584h-123zM607 938v-10q-17 -18 -47.5 -47t-63 -57t-56.5 -46h-88v13q14 19 34 44.5t39.5 53t32.5 49.5h149z" />
    <glyph glyph-name="uni1E3F" unicode="&#x1e3f;" horiz-adv-x="913" 
d="M667 552q88 0 132 -47t44 -152v-353h-131v329q0 121 -82 121q-58 0 -82 -43t-24 -125v-282h-132v329q0 121 -82 121q-61 0 -83 -48t-22 -137v-265h-133v542h102l19 -71h6q23 42 62 61.5t89 19.5q57 0 95.5 -20t59.5 -64h7q25 44 66.5 64t88.5 20zM635 766v-10
q-17 -18 -47.5 -47t-63 -57t-56.5 -46h-88v13q14 19 34 44.5t39.5 53t32.5 49.5h149z" />
    <glyph glyph-name="uni1E00" unicode="&#x1e00;" horiz-adv-x="642" 
d="M498 0l-55 189h-244l-55 -189h-144l240 717h161l241 -717h-144zM411 299l-57 184q-7 25 -17 61.5t-16 68.5q-7 -37 -16 -71t-16 -59l-56 -184h178zM324 -285q-49 0 -80.5 29.5t-31.5 82.5t31.5 82.5t80.5 29.5q48 0 81.5 -29.5t33.5 -81.5q0 -53 -33 -83t-82 -30z
M325 -224q20 0 32.5 14t12.5 37t-12.5 36.5t-32.5 13.5t-32.5 -13.5t-12.5 -36.5t11.5 -37t33.5 -14z" />
    <glyph glyph-name="uni1E01" unicode="&#x1e01;" horiz-adv-x="560" 
d="M289 552q98 0 150 -46t52 -142v-364h-93l-26 75h-4q-33 -44 -69.5 -64.5t-100.5 -20.5q-68 0 -113.5 41t-45.5 127q0 84 58 126t175 47l86 3v27q0 52 -21.5 74t-60.5 22q-37 0 -73.5 -11.5t-70.5 -28.5l-41 88q40 21 90 34t108 13zM359 256l-57 -2q-71 -3 -99 -28.5
t-28 -68.5q0 -39 19.5 -55.5t51.5 -16.5q47 0 80 31.5t33 93.5v46zM268 -285q-49 0 -80.5 29.5t-31.5 82.5t31.5 82.5t80.5 29.5q48 0 81.5 -29.5t33.5 -81.5q0 -53 -33 -83t-82 -30zM269 -224q20 0 32.5 14t12.5 37t-12.5 36.5t-32.5 13.5t-32.5 -13.5t-12.5 -36.5
t11.5 -37t33.5 -14z" />
    <glyph glyph-name="uni02F3" unicode="&#x2f3;" horiz-adv-x="312" 
d="M153 -285q-49 0 -80.5 29.5t-31.5 82.5t31.5 82.5t80.5 29.5q48 0 81.5 -29.5t33.5 -81.5q0 -53 -33 -83t-82 -30zM154 -224q20 0 32.5 14t12.5 37t-12.5 36.5t-32.5 13.5t-32.5 -13.5t-12.5 -36.5t11.5 -37t33.5 -14z" />
    <glyph glyph-name="Ohorn" unicode="&#x1a0;" horiz-adv-x="767" 
d="M689 358q0 -111 -34.5 -193.5t-104.5 -128.5t-178 -46q-109 0 -179.5 46t-105 129t-34.5 194q0 110 34.5 192.5t105.5 128t180 45.5q81 0 141 -26.5t99 -74.5q25 14 35 50t10 86h132l6 -11q-15 -73 -46 -123.5t-90 -75.5q15 -40 22 -88t7 -104zM195 358q0 -121 42 -190
t135 -69q94 0 135 69t41 190t-41 190t-134 69q-94 0 -136 -69t-42 -190z" />
    <glyph glyph-name="ohorn" unicode="&#x1a1;" horiz-adv-x="630" 
d="M538 272q0 -135 -66.5 -208.5t-181.5 -73.5q-71 0 -126.5 33t-87 96t-31.5 153q0 135 66.5 207.5t181.5 72.5q51 0 96.5 -17.5t77.5 -50.5q35 13 47.5 50.5t12.5 89.5h131l7 -11q-9 -47 -24.5 -86.5t-45 -68t-81.5 -43.5q11 -30 17.5 -65.5t6.5 -77.5zM180 272
q0 -88 26.5 -134t85.5 -46q58 0 84.5 46t26.5 134t-26.5 133t-85.5 45t-85 -45t-26 -133z" />
    <glyph glyph-name="Uhorn" unicode="&#x1af;" horiz-adv-x="802" 
d="M625 714v-94q37 10 51.5 47.5t14.5 92.5h131l7 -11q-10 -51 -29.5 -94.5t-60.5 -73t-114 -40.5v-289q0 -74 -30.5 -133.5t-91.5 -94t-154 -34.5q-133 0 -202 72.5t-69 191.5v460h134v-455q0 -82 35 -121t106 -39q73 0 105 42.5t32 118.5v454h135z" />
    <glyph glyph-name="uhorn" unicode="&#x1b0;" horiz-adv-x="701" 
d="M731 625l7 -11q-10 -52 -29.5 -96t-60 -74t-112.5 -39v-405h-101l-18 70h-8q-25 -42 -67.5 -61t-89.5 -19q-84 0 -133.5 47t-49.5 151v354h133v-329q0 -61 20.5 -91t65.5 -30q67 0 91.5 48t24.5 137v265h132v-58q36 10 49.5 48t13.5 93h132z" />
    <glyph glyph-name="hook" 
d="M-176 728q0 -38 -20 -61t-56 -32l-5 -42h-74l-10 77q33 6 47.5 18t14.5 32q0 19 -12.5 27t-30.5 8q-16 0 -30 -2.5t-27 -5.5v70q28 10 77 10q126 0 126 -99z" />
    <glyph glyph-name="uni0400" unicode="&#x400;" horiz-adv-x="522" 
d="M469 0h-385v714h385v-107h-251v-182h235v-107h-235v-210h251v-108zM276 938q13 -22 32.5 -49.5t39 -53t34.5 -44.5v-13h-88q-23 18 -56 46t-63.5 57t-47.5 47v10h149z" />
    <glyph glyph-name="uni040D" unicode="&#x40d;" horiz-adv-x="763" 
d="M84 714h123v-363q0 -33 -1 -74.5t-2.5 -76t-3.5 -46.5h4l321 560h155v-714h-124v360q0 36 1.5 79.5t3.5 78.5t3 47h-3l-321 -565h-156v714zM387 938q13 -22 32.5 -49.5t39 -53t34.5 -44.5v-13h-88q-23 18 -56 46t-63.5 57t-47.5 47v10h149z" />
    <glyph glyph-name="uni0450" unicode="&#x450;" horiz-adv-x="554" 
d="M285 552q105 0 166 -65t61 -181v-64h-332q2 -74 36 -114.5t98 -40.5q49 0 88.5 10.5t81.5 30.5v-101q-38 -19 -79.5 -28t-100.5 -9q-76 0 -134.5 30.5t-91.5 92t-33 154.5q0 139 66.5 212t173.5 73zM287 459q-44 0 -72.5 -32.5t-32.5 -96.5h204q-1 56 -25 92.5t-74 36.5z
M265 766q13 -22 32.5 -49.5t39 -53t34.5 -44.5v-13h-88q-23 18 -56 46t-63.5 57t-47.5 47v10h149z" />
    <glyph glyph-name="uni045D" unicode="&#x45d;" horiz-adv-x="651" 
d="M196 542v-258q0 -18 -1.5 -49.5t-3 -60t-2.5 -40.5l236 408h153v-542h-124v255q0 23 1 53t3 57t3 42l-235 -407h-154v542h124zM322 766q13 -22 32.5 -49.5t39 -53t34.5 -44.5v-13h-88q-23 18 -56 46t-63.5 57t-47.5 47v10h149z" />
    <glyph glyph-name="uni0460" unicode="&#x460;" horiz-adv-x="892" 
d="M217 -2q-40 68 -75 152.5t-62 178t-42.5 191.5t-17.5 193h136q5 -118 23.5 -226.5t44 -199.5t52.5 -155h5q7 34 17.5 77t22.5 83l67 213q-9 53 -14.5 103.5t-7.5 105.5h137q3 -105 21 -212.5t46 -204.5t62 -172h5q47 113 72.5 257t26.5 331h136q-2 -209 -46 -388
t-135 -327h-120q-25 46 -50.5 102t-47 113t-35.5 108l-94 -323h-127z" />
    <glyph glyph-name="uni0461" unicode="&#x461;" horiz-adv-x="804" 
d="M777 543q-3 -97 -21 -185.5t-53.5 -176t-92.5 -181.5h-120q-24 50 -50 107t-43 110l-95 -217h-120q-40 68 -77.5 156.5t-62 188t-25.5 198.5h130q3 -91 18.5 -173t37 -149.5t42.5 -115.5h4q7 25 20 53.5t25 56.5l58 127q-10 45 -16 98.5t-6 102.5h129q2 -123 28 -230.5
t62 -208.5h3q40 85 65.5 194t30.5 245h129z" />
    <glyph glyph-name="uni0462" unicode="&#x462;" horiz-adv-x="632" 
d="M123 0v519h-121v98h121v97h135v-97h180v-98h-180v-90h70q94 0 151.5 -27.5t84 -75.5t26.5 -108q0 -102 -65 -160t-199 -58h-203zM258 106h64q66 0 99 26.5t33 85.5q0 61 -36 82.5t-104 21.5h-56v-216z" />
    <glyph glyph-name="uni0463" unicode="&#x463;" horiz-adv-x="620" 
d="M249 644v-102h165v-97h-165v-118h104q117 0 173 -39t56 -118q0 -78 -52 -124t-172 -46h-240v445h-115v97h115v102h131zM349 236h-100v-145h102q43 0 71 17.5t28 58.5q0 37 -25.5 53t-75.5 16z" />
    <glyph glyph-name="uni0464" unicode="&#x464;" horiz-adv-x="887" 
d="M651 -10q-101 0 -169 40.5t-104 114t-43 172.5h-117v-317h-134v714h134v-288h119q11 90 52 157t110 104t166 37q57 0 108.5 -13t93.5 -35l-46 -106q-37 18 -75 32t-83 14q-79 0 -128 -49t-60 -141h289v-108h-290q5 -99 52 -159.5t137 -60.5q47 0 90 9.5t90 25.5v-109
q-42 -18 -88.5 -26t-103.5 -8z" />
    <glyph glyph-name="uni0465" unicode="&#x465;" horiz-adv-x="745" 
d="M558 -10q-106 0 -172 58t-77 182h-104v-230h-133v542h133v-215h105q10 83 42.5 132.5t84 71t117.5 21.5q44 0 85.5 -11t73.5 -24l-38 -91q-28 12 -59.5 20.5t-60.5 8.5q-53 0 -79.5 -32t-32.5 -96h203v-97h-203q4 -75 34 -109t83 -34q40 0 76 10.5t70 25.5v-101
q-32 -16 -67 -24t-81 -8z" />
    <glyph glyph-name="uni0466" unicode="&#x466;" horiz-adv-x="705" 
d="M429 716l277 -716h-136l-107 316h-51v-316h-119v316h-51l-107 -316h-136l276 716h154zM352 626q-3 -14 -11.5 -40.5t-18.5 -54t-16 -45.5l-25 -68h141l-25 72q-7 19 -15.5 44t-17 49.5t-12.5 42.5z" />
    <glyph glyph-name="uni0467" unicode="&#x467;" horiz-adv-x="596" 
d="M374 542l223 -542h-129l-76 217h-38v-217h-112v217h-39l-75 -217h-129l221 542h154zM299 466h-4q-7 -24 -17.5 -57t-17.5 -49l-21 -53h119l-21 51q-5 12 -12.5 32t-14.5 41t-11 35z" />
    <glyph glyph-name="uni0468" unicode="&#x468;" horiz-adv-x="966" 
d="M691 716l276 -716h-137l-107 317h-50v-317h-118v317h-50l-108 -317h-137l120 317h-162v-317h-134v714h134v-288h209l109 290h155zM614 626q-4 -16 -11.5 -43t-16.5 -55t-16 -48l-26 -61h138l-25 64q-7 19 -15.5 46.5t-16 54t-11.5 42.5z" />
    <glyph glyph-name="uni0469" unicode="&#x469;" horiz-adv-x="836" 
d="M614 542l222 -542h-128l-78 230h-37v-230h-111v230h-36l-79 -230h-129l92 230h-135v-230h-123v542h123v-215h179l86 215h154zM539 466h-4q-4 -14 -11 -35.5t-13.5 -42t-11.5 -30.5l-17 -38h112l-18 40q-6 12 -13 32t-13.5 40t-10.5 34z" />
    <glyph glyph-name="uni046A" unicode="&#x46a;" horiz-adv-x="747" 
d="M668 714v-67l-176 -233q72 -14 110 -60.5t66 -132.5l70 -221h-136l-59 200q-18 61 -39.5 86.5t-64.5 31.5v-318h-131v318q-44 -6 -64.5 -31.5t-38.5 -86.5l-60 -200h-136l71 221q18 57 39.5 97t53 63.5t79.5 32.5l-173 233v67h589zM499 605h-251l125 -176z" />
    <glyph glyph-name="uni046B" unicode="&#x46b;" horiz-adv-x="617" 
d="M557 542v-51l-137 -177q57 -13 86.5 -50t49.5 -97l56 -167h-123l-47 151q-14 42 -29.5 59.5t-46.5 20.5v-231h-113v232q-33 -3 -48.5 -20.5t-29.5 -60.5l-48 -151h-122l54 167q20 61 51 97.5t88 49.5l-138 177v51h497zM404 452h-192l96 -125z" />
    <glyph glyph-name="uni046C" unicode="&#x46c;" horiz-adv-x="1008" 
d="M933 714v-67l-177 -234q73 -13 110 -59.5t65 -132.5l72 -221h-136l-60 200q-18 62 -39.5 87t-64.5 30v-317h-130v317q-44 -5 -65.5 -31t-39.5 -85l-60 -201h-135l70 223q10 30 20 54.5t22 39.5h-167v-317h-134v714h134v-288h285l-160 221v67h590zM763 605h-252l126 -177z
" />
    <glyph glyph-name="uni046D" unicode="&#x46d;" horiz-adv-x="856" 
d="M796 542v-51l-137 -178q57 -12 87 -49t49 -96l56 -168h-123l-47 151q-13 42 -29 59.5t-47 20.5v-231h-113v231q-32 -2 -48 -19.5t-29 -60.5l-48 -151h-122l53 167q6 19 13 36t15 28h-131v-231h-123v542h123v-215h227l-123 164v51h497zM643 452h-191l95 -124z" />
    <glyph glyph-name="uni046E" unicode="&#x46e;" horiz-adv-x="589" 
d="M438 862q21 0 34.5 -3t20.5 -5v-67q-5 2 -15 4t-21 2q-23 0 -46 -21t-43 -54q74 -15 115 -61t41 -110q0 -72 -43.5 -116t-116.5 -55v-3q87 -11 133.5 -55t46.5 -115q0 -94 -68 -152t-208 -60q-69 -1 -90.5 -13.5t-21.5 -37.5q0 -20 15 -33t54 -13q53 0 91 2.5t74 2.5
t57 -5.5t30 -13.5v-102q-9 9 -33 15.5t-55 6.5q-43 0 -86 -2.5t-103 -2.5q-63 0 -102 19.5t-57 52.5t-18 74q0 45 20 78.5t68.5 53t132.5 21.5q87 2 125 29t38 87q0 58 -52 84t-141 26h-79v101h72q103 0 143 29t40 79q0 43 -31 67.5t-89 24.5q-50 0 -94 -16.5t-82 -42.5
l-59 86q37 26 78 44t93 26q-23 31 -53.5 65t-49.5 55v13h91q22 -16 47.5 -42.5t49.5 -52.5q21 23 42.5 47.5t46.5 41.5t58 17z" />
    <glyph glyph-name="uni046F" unicode="&#x46f;" horiz-adv-x="500" 
d="M391 670q21 0 34 -2.5t21 -4.5v-68q-6 2 -17 4t-22 2q-19 0 -39 -16.5t-37 -42.5q52 -14 83.5 -47t31.5 -86q0 -49 -26 -78t-69 -42v-5q51 -13 82 -40.5t31 -87.5q0 -45 -23.5 -82.5t-76 -59.5t-138.5 -23q-62 -1 -80.5 -14t-18.5 -33q0 -25 16.5 -35.5t54.5 -10.5
q46 0 79 2.5t68 2.5q31 0 49 -5.5t26 -14.5v-98q-10 11 -31 16t-41 5q-35 0 -76 -2.5t-92 -2.5q-63 0 -100.5 18.5t-54 49.5t-16.5 70q0 66 46 107.5t152 42.5q67 1 96.5 19t29.5 55q0 38 -30.5 56t-100.5 18h-63v91h54q65 0 98 14.5t33 52.5q0 61 -97 61q-37 0 -74 -9
t-74 -25l-40 91q25 11 51 19.5t54 13.5q-20 26 -43 54t-40 47v13h87q20 -16 45 -41t51 -53q21 23 42.5 47t47 40.5t57.5 16.5z" />
    <glyph glyph-name="uni0470" unicode="&#x470;" horiz-adv-x="816" 
d="M765 714v-234q0 -81 -27 -140.5t-91.5 -92t-175.5 -32.5v-215h-127v215q-112 0 -176 33.5t-90.5 92.5t-26.5 137v236h130v-234q0 -90 39 -125t124 -35v394h127v-394q81 0 122 34.5t41 123.5v236h131z" />
    <glyph glyph-name="uni0471" unicode="&#x471;" horiz-adv-x="778" 
d="M455 759v-668q71 7 108.5 49.5t37.5 140.5q0 67 -9.5 129t-26.5 132h127q19 -69 27.5 -131.5t8.5 -128.5q0 -103 -36.5 -165.5t-98.5 -91.5t-138 -34v-231h-125v231q-77 3 -136.5 31t-93 88.5t-33.5 160.5v271h129v-275q0 -95 35 -133.5t99 -43.5v669h125z" />
    <glyph glyph-name="uni0472" unicode="&#x472;" horiz-adv-x="744" 
d="M690 358q0 -111 -34.5 -193.5t-105 -128.5t-178.5 -46q-109 0 -179.5 46t-105 129t-34.5 194q0 110 34.5 192.5t105.5 128t180 45.5q107 0 177.5 -45.5t105 -128t34.5 -193.5zM373 617q-85 0 -128.5 -52.5t-53.5 -145.5h360q-9 93 -52 145.5t-126 52.5zM372 99
q87 0 130.5 56t49.5 156h-362q7 -100 51 -156t131 -56z" />
    <glyph glyph-name="uni0473" unicode="&#x473;" horiz-adv-x="582" 
d="M538 272q0 -135 -66.5 -208.5t-181.5 -73.5q-71 0 -126.5 33t-87 96t-31.5 153q0 135 66.5 207.5t181.5 72.5q71 0 126.5 -32.5t87 -95t31.5 -152.5zM291 450q-53 0 -80.5 -32.5t-33.5 -96.5h229q-12 129 -115 129zM292 92q104 0 113 137h-228q5 -67 33 -102t82 -35z" />
    <glyph glyph-name="uni0474" unicode="&#x474;" horiz-adv-x="656" 
d="M612 614q-28 0 -42 -27t-31 -81l-153 -506h-153l-233 714h143l128 -449q13 -46 22 -80.5t15 -72.5q5 38 15 76t22 81l66 253q17 66 37 110t50 66t78 22q26 0 48 -5t35 -11v-101q-10 5 -21.5 8t-25.5 3z" />
    <glyph glyph-name="uni0475" unicode="&#x475;" horiz-adv-x="549" 
d="M490 547q10 0 28 -3t34 -8v-98q-10 4 -19 6t-17 2q-20 0 -32 -17t-20 -44l-125 -385h-153l-186 542h138l97 -325q11 -35 18 -66t10 -52h3q3 23 9.5 55.5t16.5 64.5l55 187q15 52 32 82.5t43 44.5t68 14z" />
    <glyph glyph-name="uni0476" unicode="&#x476;" horiz-adv-x="656" 
d="M612 614q-28 0 -42 -27t-31 -81l-153 -506h-153l-233 714h143l128 -449q13 -46 22 -80.5t15 -72.5q5 38 15 76t22 81l66 253q17 66 37 110t50 66t78 22q26 0 48 -5t35 -11v-101q-10 5 -21.5 8t-25.5 3zM374 938q14 -34 37 -76t43 -71v-13h-70q-22 18 -50.5 46.5t-53 57
t-34.5 46.5v10h128zM194 938q15 -34 37.5 -76t42.5 -71v-13h-71q-21 18 -49.5 46.5t-53 57t-34.5 46.5v10h128z" />
    <glyph glyph-name="uni0477" unicode="&#x477;" horiz-adv-x="549" 
d="M490 547q10 0 28 -3t34 -8v-98q-10 4 -19 6t-17 2q-20 0 -32 -17t-20 -44l-125 -385h-153l-186 542h138l97 -325q11 -35 18 -66t10 -52h3q3 23 9.5 55.5t16.5 64.5l55 187q15 52 32 82.5t43 44.5t68 14zM333 766q14 -34 37 -76t43 -71v-13h-70q-22 18 -50.5 46.5t-53 57
t-34.5 46.5v10h128zM153 766q15 -34 37.5 -76t42.5 -71v-13h-71q-21 18 -49.5 46.5t-53 57t-34.5 46.5v10h128z" />
    <glyph glyph-name="uni0478" unicode="&#x478;" horiz-adv-x="1233" 
d="M660 358q0 -111 -32 -193.5t-99 -128.5t-173 -46q-105 0 -172 46t-99 129t-32 194q0 110 32 192.5t99.5 128t172.5 45.5t172 -45.5t99 -128t32 -193.5zM194 358q0 -121 37.5 -190t124.5 -69q91 0 127.5 69t36.5 190t-36.5 190t-126.5 69q-89 0 -126 -69t-37 -190z
M704 542h143l97 -307q10 -28 15.5 -56.5t9.5 -57.5h3q3 26 10 56t16 59l95 306h139l-215 -614q-29 -82 -79.5 -125t-132.5 -43q-25 0 -42 2.5t-30 5.5v100q11 -2 25 -4t31 -2q43 0 68.5 27.5t37.5 68.5l14 44z" />
    <glyph glyph-name="uni0479" unicode="&#x479;" horiz-adv-x="1091" 
d="M538 272q0 -135 -66.5 -208.5t-181.5 -73.5q-71 0 -126.5 33t-87 96t-31.5 153q0 135 66.5 207.5t181.5 72.5q71 0 126.5 -32.5t87 -95t31.5 -152.5zM180 272q0 -86 26.5 -133t85.5 -47q58 0 84.5 47t26.5 133t-26.5 132t-85.5 46t-85 -46t-26 -132zM563 542h142l97 -306
q10 -28 16 -57t9 -57h3q4 26 10.5 55.5t15.5 58.5l95 306h140l-215 -613q-29 -82 -80 -125.5t-133 -43.5q-23 0 -40.5 2.5t-30.5 5.5v100q10 -2 24.5 -4t31.5 -2q43 0 68.5 27.5t36.5 68.5l14 44z" />
    <glyph glyph-name="uni047A" unicode="&#x47a;" horiz-adv-x="781" 
d="M391 -60q-55 0 -68 55q-90 13 -150 61.5t-90 126t-30 176.5q0 148 67.5 244.5t203.5 116.5q8 31 24.5 42t42.5 11q25 0 42 -11t25 -42q135 -20 202 -117t67 -245t-66.5 -245t-201.5 -118q-14 -55 -68 -55zM326 106q9 22 25.5 30t39.5 8t39 -8.5t26 -29.5q67 20 99 85.5
t32 166.5q0 100 -32 165t-99 85q-16 -39 -65 -39t-66 39q-67 -20 -99 -85t-32 -165q0 -101 32 -166.5t100 -85.5z" />
    <glyph glyph-name="uni047B" unicode="&#x47b;" horiz-adv-x="638" 
d="M594 272q0 -118 -56.5 -187.5t-156.5 -86.5q-9 -52 -62 -52t-62 53q-95 17 -153.5 86t-58.5 187q0 117 56.5 187t157.5 86q4 24 19.5 33.5t40.5 9.5q23 0 39 -9.5t21 -33.5q96 -17 155.5 -86.5t59.5 -186.5zM458 272q0 68 -18.5 112.5t-58.5 60.5q-12 -45 -62 -45t-62 45
q-41 -16 -59 -60.5t-18 -112.5q0 -69 18.5 -115t59.5 -61q14 39 61 39t61 -39q40 15 59 61t19 115z" />
    <glyph glyph-name="uni047C" unicode="&#x47c;" horiz-adv-x="1065" 
d="M351 913v20q0 51 18.5 77.5t48 35.5t61.5 9q37 0 74 -14.5t78 -29t92 -14.5h6v-83h-8q-50 0 -86.5 8t-63.5 19t-48.5 19t-41.5 8q-24 0 -35.5 -13t-14.5 -42h-80zM455 738v40q29 8 43 22t14 27q0 9 -8 13.5t-19 8t-19 10.5t-8 20q0 23 17 35.5t46 12.5q35 0 54 -20
t19 -53q0 -46 -40 -77t-99 -39zM329 -10q-96 0 -157 49t-90 135t-29 197q0 109 30.5 187.5t88.5 121.5t140 43q40 0 78.5 -13.5t66.5 -36.5l-49 -90q-17 13 -39.5 25t-51.5 12q-61 0 -94.5 -64.5t-33.5 -185.5q0 -124 39.5 -196t115.5 -72q27 0 50 11t44 27v201h134v-201
q40 -38 97 -38q79 0 116.5 72t37.5 196q0 121 -35 185.5t-94 64.5q-27 0 -49.5 -12t-39.5 -25l-50 90q28 23 67 36.5t80 13.5q83 0 140.5 -43t87 -121.5t29.5 -187.5q0 -111 -28.5 -197t-89.5 -135t-158 -49q-109 0 -178 68q-68 -68 -176 -68z" />
    <glyph glyph-name="uni047D" unicode="&#x47d;" horiz-adv-x="938" 
d="M398 902q38 0 74.5 -14.5t77.5 -29t92 -14.5h7v-83h-8q-50 0 -86.5 8t-64 19t-49 19t-41.5 8q-23 0 -35 -13t-15 -42h-80v21q0 51 18.5 77t48 35t61.5 9zM441 774q34 0 53 -20t19 -53q1 -46 -38 -77.5t-101 -38.5v40q29 8 43.5 22t14.5 27q0 9 -8.5 13.5t-19 8t-19 10
t-8.5 20.5q0 23 17 35.5t47 12.5zM280 -10q-108 0 -169 69t-61 209q0 145 62 215t159 70q41 0 70.5 -11t52.5 -27l-50 -90q-19 11 -36 18t-34 7q-43 0 -66 -45.5t-23 -135.5q0 -86 29.5 -131t78.5 -45q25 0 44 10.5t39 39.5v141h132v-138q20 -30 40.5 -41.5t45.5 -11.5
q50 0 77.5 45t27.5 131q0 90 -23 135.5t-66 45.5q-17 0 -34 -7t-36 -18l-50 90q24 16 53.5 27t70.5 11q99 0 160 -70t61 -215q0 -278 -231 -278q-106 0 -161 83q-28 -43 -69 -63t-94 -20z" />
    <glyph glyph-name="uni047E" unicode="&#x47e;" horiz-adv-x="892" 
d="M217 -2q-40 68 -75 152.5t-62 178t-42.5 191.5t-17.5 193h136q5 -118 23.5 -226.5t44 -199.5t52.5 -155h5q7 34 17.5 77t22.5 83l67 213q-9 53 -14.5 103.5t-7.5 105.5h137q3 -105 21 -212.5t46 -204.5t62 -172h5q47 113 72.5 257t26.5 331h136q-2 -209 -46 -388
t-135 -327h-120q-25 46 -50.5 102t-47 113t-35.5 108l-94 -323h-127zM652 896v-33l-37 -84h-24l-23 50h-73l-22 -50h-24l-22 50h-73l-23 -50h-23l-37 84v33h381z" />
    <glyph glyph-name="uni047F" unicode="&#x47f;" horiz-adv-x="804" 
d="M777 543q-3 -97 -21 -185.5t-53.5 -176t-92.5 -181.5h-120q-24 50 -50 107t-43 110l-95 -217h-120q-40 68 -77.5 156.5t-62 188t-25.5 198.5h130q3 -91 18.5 -173t37 -149.5t42.5 -115.5h4q7 25 20 53.5t25 56.5l58 127q-10 45 -16 98.5t-6 102.5h129q2 -123 28 -230.5
t62 -208.5h3q40 85 65.5 194t30.5 245h129zM586 724v-33l-37 -84h-24l-23 50h-73l-22 -50h-24l-22 50h-73l-23 -50h-23l-37 84v33h381z" />
    <glyph glyph-name="uni0480" unicode="&#x480;" horiz-adv-x="621" 
d="M385 724q52 0 103.5 -12.5t98.5 -34.5l-45 -106q-37 18 -76.5 31t-83.5 13q-90 0 -140 -69.5t-50 -190.5q0 -120 46 -188t147 -68q35 0 70 4.5t66 11.5v-355h-134v230q-105 0 -180 46.5t-114.5 129t-39.5 190.5t38.5 191t112.5 130t181 47z" />
    <glyph glyph-name="uni0481" unicode="&#x481;" horiz-adv-x="488" 
d="M302 552q88 0 156 -35l-39 -98q-30 12 -60.5 20.5t-59.5 8.5q-119 0 -119 -179q0 -89 31.5 -132t89.5 -43q36 0 64 5.5t54 13.5v-353h-133v231q-112 6 -176.5 72t-64.5 205q0 106 33 168t91 89t133 27z" />
    <glyph glyph-name="uni0482" unicode="&#x482;" horiz-adv-x="566" 
d="M408 629l71 -35l-77 -154l124 -81l-41 -59l-122 81l-85 -170l123 -82l-40 -59l-123 81l-77 -154l-73 35l77 155l-124 80l39 59l126 -81l84 171l-125 80l40 60l125 -81z" />
    <glyph glyph-name="uni0488" unicode="&#x488;" horiz-adv-x="929" 
d="M359 601q2 43 28.5 69t72.5 26t72.5 -26.5t29.5 -68.5h-42q-3 28 -20.5 35.5t-39.5 7.5q-25 0 -41 -7t-19 -36h-41zM627 462q2 44 28 69.5t73 25.5q46 0 72.5 -26.5t28.5 -68.5h-41q-3 28 -20.5 35.5t-39.5 7.5q-25 0 -41.5 -7t-18.5 -36h-41zM96 462q2 44 28 69.5
t72 25.5t73 -26.5t29 -68.5h-42q-2 28 -19.5 35.5t-40.5 7.5q-25 0 -41 -7t-18 -36h-41zM18 224q2 44 28 69.5t73 25.5t73 -26.5t28 -68.5h-41q-2 28 -19.5 35.5t-40.5 7.5q-25 0 -41 -7t-18 -36h-42zM708 224q2 44 28 69.5t73 25.5t73 -26.5t28 -68.5h-42q-2 28 -19 35.5
t-40 7.5q-24 0 -41 -7t-19 -36h-41zM96 -20q2 44 28 69.5t72 25.5t73 -26.5t29 -68.5h-42q-2 28 -19.5 35.5t-40.5 7.5q-25 0 -41 -7t-18 -36h-41zM627 -20q2 44 28 69.5t73 25.5q46 0 72.5 -26.5t28.5 -68.5h-41q-3 28 -20.5 35.5t-39.5 7.5q-25 0 -41.5 -7t-18.5 -36h-41z
M359 -156q2 44 28.5 69.5t72.5 25.5t72.5 -26.5t29.5 -68.5h-42q-3 28 -20.5 35.5t-39.5 7.5q-25 0 -41 -7t-19 -36h-41z" />
    <glyph glyph-name="uni0489" unicode="&#x489;" horiz-adv-x="898" 
d="M506 728q-10 -41 -19 -88t-13 -83h-76l-5 7q10 38 25.5 82t31.5 82h56zM184 621q20 -36 45.5 -76t45.5 -69l-54 -48l-7 1q-19 34 -37.5 76.5t-32.5 81.5zM754 579l39 -33q-34 -22 -71 -48.5t-65 -48.5l-53 48l1 8q31 19 71 39t78 35zM18 323q39 -10 83 -19.5t78 -14.5
v-68l-7 -5q-35 10 -76.5 26.5t-77.5 33.5v47zM725 323q35 -10 76.5 -26.5t77.5 -33.5v-47q-39 10 -83 19.5t-78 14.5v68zM676 90l8 -1q18 -34 36.5 -76.5t32.5 -81.5l-39 -34q-21 36 -46 76t-45 69zM241 70l54 -48l-2 -8q-31 -20 -71 -39.5t-77 -34.5l-40 33q34 23 71.5 49
t64.5 48zM501 -17l5 -7q-10 -38 -25 -82t-32 -82h-56q10 41 18.5 88t13.5 83h76z" />
    <glyph glyph-name="uni048A" unicode="&#x48a;" horiz-adv-x="823" 
d="M379 771q-109 0 -154 43.5t-50 122.5h115q4 -55 25.5 -73t65.5 -18q37 0 61 19.5t29 71.5h118q-7 -77 -54 -121.5t-156 -44.5zM580 -200l84 200h-108v360q0 31 1 68.5t3 73.5t4 62h-3l-321 -564h-156v714h123v-363q0 -31 -1 -67.5t-2.5 -71t-3.5 -59.5h4l320 561h155
v-603h130l-79 -311h-150z" />
    <glyph glyph-name="uni048B" unicode="&#x48b;" horiz-adv-x="702" 
d="M330 606q-110 0 -154.5 43.5t-49.5 122.5h115q5 -52 26 -71.5t65 -19.5q38 0 62 19.5t28 71.5h118q-8 -76 -55 -121t-155 -45zM499 -192l62 192h-107v255q0 23 1 52t2.5 56t3.5 44l-236 -407h-153v542h124v-252q0 -22 -1 -51t-3 -57t-3 -48l236 408h153v-446h114
l-65 -288h-128z" />
    <glyph glyph-name="uni048C" unicode="&#x48c;" horiz-adv-x="588" 
d="M218 714v-80h149v-107h-149v-98h51q101 0 162.5 -27.5t88.5 -75t27 -108.5q0 -104 -66.5 -161t-204.5 -57h-192v527h-70v107h70v80h134zM265 322h-47v-216h52q70 0 105 26.5t35 85.5q0 61 -37 82.5t-108 21.5z" />
    <glyph glyph-name="uni048D" unicode="&#x48d;" horiz-adv-x="560" 
d="M204 760v-113h161v-85h-161v-234h101q115 0 166 -39.5t51 -118.5q0 -78 -50.5 -124t-170.5 -46h-229v562h-69v85h69v113h132zM292 236h-88v-145h90q44 0 70 17.5t26 58.5q0 37 -24 53t-74 16z" />
    <glyph glyph-name="uni048E" unicode="&#x48e;" horiz-adv-x="599" 
d="M556 496q0 -57 -21 -107.5t-71 -82.5l45 -66l-65 -51l-59 85q-20 -6 -42.5 -8.5t-48.5 -2.5h-76v-263h-134v714h221q129 0 190 -57.5t61 -160.5zM218 369h61q10 0 19 0.5t17 1.5l-43 58l68 50l52 -75q28 30 28 87q0 117 -123 117h-79v-239z" />
    <glyph glyph-name="uni048F" unicode="&#x48f;" horiz-adv-x="599" 
d="M352 -10q-58 0 -92.5 22t-54.5 51h-8q2 -19 5 -42.5t3 -46.5v-214h-133v782h108l19 -72h6q22 34 57.5 58t92.5 24q89 0 144 -70.5t55 -209.5q0 -80 -20 -137t-55 -92l45 -66l-70 -52l-53 75q-21 -10 -49 -10zM314 450q-59 0 -84 -40t-25 -121v-16q0 -87 22.5 -133.5
t86.5 -46.5q11 0 20 3l-57 76l74 53l49 -70q20 41 20 119q0 176 -106 176z" />
    <glyph glyph-name="uni0492" unicode="&#x492;" horiz-adv-x="522" 
d="M501 714v-107h-277v-201h181v-106h-181v-300h-135v300h-71v106h71v308h412z" />
    <glyph glyph-name="uni0493" unicode="&#x493;" horiz-adv-x="446" 
d="M425 542v-103h-219v-127h147v-97h-147v-215h-132v215h-68v97h68v230h351z" />
    <glyph glyph-name="uni0494" unicode="&#x494;" horiz-adv-x="667" 
d="M304 282q-22 0 -46 -2.5t-40 -4.5v-275h-134v714h419v-107h-285v-218q50 8 116 8q80 0 147 -33.5t107 -105.5t40 -187q0 -107 -34.5 -178.5t-93 -107t-129.5 -35.5q-81 0 -136 23v113q29 -11 56 -17t57 -6q72 0 108 56t36 152q0 107 -49 159t-139 52z" />
    <glyph glyph-name="uni0495" unicode="&#x495;" horiz-adv-x="557" 
d="M435 542v-103h-230v-133q33 6 68 6q114 0 182 -69t68 -212q0 -97 -29.5 -157.5t-80 -89.5t-113.5 -29q-31 0 -59.5 6.5t-57.5 20.5v109q19 -13 45.5 -20.5t52.5 -7.5q50 0 80 40.5t30 129.5q0 81 -33 125.5t-104 44.5q-26 0 -49 -5v-198h-133v542h363z" />
    <glyph glyph-name="uni0496" unicode="&#x496;" horiz-adv-x="951" 
d="M869 714l-228 -344l164 -259h128v-311h-130v200h-69l-230 362v-362h-127v362l-230 -362h-148l242 369l-229 345h144l221 -346v346h127v-346l222 346h143z" />
    <glyph glyph-name="uni0497" unicode="&#x497;" horiz-adv-x="862" 
d="M791 542l-191 -261l131 -186h115v-287h-120v192h-62l-197 275v-275h-125v275l-199 -275h-144l209 281l-191 261h140l185 -263v263h125v-263l183 263h141z" />
    <glyph glyph-name="uni0498" unicode="&#x498;" horiz-adv-x="594" 
d="M530 547q0 -72 -44.5 -115.5t-118.5 -55.5v-3q90 -11 136 -55t46 -115q0 -95 -70.5 -154t-206.5 -59q-73 0 -129.5 9.5t-99.5 29.5v110q43 -23 100 -35t104 -12q86 0 126 31t40 86q0 58 -51 84.5t-142 26.5h-80v101h74q101 0 141 29t40 79q0 43 -30 67.5t-88 24.5
q-53 0 -96 -16.5t-81 -42.5l-59 86q49 34 109.5 55t144.5 21q112 0 173.5 -50t61.5 -127zM284 -113q0 26 -16 53.5t-48 59.5h78q34 -24 56.5 -54t22.5 -72q0 -48 -30 -77t-81 -29q-20 0 -37 2.5t-31 6.5v76q9 -3 22.5 -5.5t26.5 -2.5q17 0 27 10.5t10 31.5z" />
    </font>
</defs>
</svg>
