<?xml version="1.0" standalone="no"?>
<!DOCTYPE svg PUBLIC "-//W3C//DTD SVG 1.1//EN" "http://www.w3.org/Graphics/SVG/1.1/DTD/svg11.dtd" >
<svg xmlns="http://www.w3.org/2000/svg" xmlns:xlink="http://www.w3.org/1999/xlink" version="1.1">
<metadata>
Created by FontForge 20190801 at Wed Sep 20 00:00:03 2017
 By Jimmy Wärting
Copyright 2015 Google Inc. All Rights Reserved.
</metadata>
<defs>
<font id="NotoSansDisplay-Regular" horiz-adv-x="0" >
  <font-face 
    font-family="Noto Sans Disp"
    font-weight="400"
    font-stretch="normal"
    units-per-em="1000"
    panose-1="2 11 5 2 4 5 4 2 2 4"
    ascent="800"
    descent="-200"
    x-height="536"
    cap-height="714"
    bbox="-623 -389 2743 1072"
    underline-thickness="50"
    underline-position="-125"
    unicode-range="U+000D-FFFD"
  />
<missing-glyph horiz-adv-x="563" 
d="M88 0v714h386v-714h-386zM136 51h290v612h-290v-612z" />
    <glyph glyph-name="f_f" unicode="ff" horiz-adv-x="652" 
d="M315 468h-126v-468h-88v468h-87v41l87 30v31q0 104 43.5 149.5t121.5 45.5q31 0 56.5 -5.5t44.5 -12.5l-23 -69q-16 5 -35.5 10t-40.5 5q-40 0 -59.5 -29.5t-19.5 -92.5v-35h126v-68zM641 468h-126v-468h-88v468h-87v41l87 30v31q0 104 43.5 149.5t121.5 45.5
q31 0 56.5 -5.5t44.5 -12.5l-23 -69q-16 5 -35.5 10t-40.5 5q-40 0 -59.5 -29.5t-19.5 -92.5v-35h126v-68z" />
    <glyph glyph-name="f_f_i" unicode="ffi" horiz-adv-x="898" 
d="M315 468h-126v-468h-88v468h-87v41l87 30v31q0 104 43.5 149.5t121.5 45.5q31 0 56.5 -5.5t44.5 -12.5l-23 -69q-16 5 -35.5 10t-40.5 5q-40 0 -59.5 -29.5t-19.5 -92.5v-35h126v-68zM641 468h-126v-468h-88v468h-87v41l87 30v31q0 104 43.5 149.5t121.5 45.5
q31 0 56.5 -5.5t44.5 -12.5l-23 -69q-16 5 -35.5 10t-40.5 5q-40 0 -59.5 -29.5t-19.5 -92.5v-35h126v-68zM776 737q20 0 35 -13.5t15 -42.5t-15 -42.5t-35 -13.5q-21 0 -36 13.5t-15 42.5t15 42.5t36 13.5zM819 536v-536h-87v536h87z" />
    <glyph glyph-name="f_f_l" unicode="ffl" horiz-adv-x="897" 
d="M315 468h-126v-468h-88v468h-87v41l87 30v31q0 104 43.5 149.5t121.5 45.5q31 0 56.5 -5.5t44.5 -12.5l-23 -69q-16 5 -35.5 10t-40.5 5q-40 0 -59.5 -29.5t-19.5 -92.5v-35h126v-68zM641 468h-126v-468h-88v468h-87v41l87 30v31q0 104 43.5 149.5t121.5 45.5
q31 0 56.5 -5.5t44.5 -12.5l-23 -69q-16 5 -35.5 10t-40.5 5q-40 0 -59.5 -29.5t-19.5 -92.5v-35h126v-68zM818 0h-87v760h87v-760z" />
    <glyph glyph-name="f_i" unicode="fi" horiz-adv-x="572" 
d="M315 468h-126v-468h-88v468h-87v41l87 30v31q0 104 43.5 149.5t121.5 45.5q31 0 56.5 -5.5t44.5 -12.5l-23 -69q-16 5 -35.5 10t-40.5 5q-40 0 -59.5 -29.5t-19.5 -92.5v-35h126v-68zM450 737q20 0 35 -13.5t15 -42.5t-15 -42.5t-35 -13.5q-21 0 -36 13.5t-15 42.5
t15 42.5t36 13.5zM493 536v-536h-87v536h87z" />
    <glyph glyph-name="f_l" unicode="fl" horiz-adv-x="571" 
d="M315 468h-126v-468h-88v468h-87v41l87 30v31q0 104 43.5 149.5t121.5 45.5q31 0 56.5 -5.5t44.5 -12.5l-23 -69q-16 5 -35.5 10t-40.5 5q-40 0 -59.5 -29.5t-19.5 -92.5v-35h126v-68zM492 0h-87v760h87v-760z" />
    <glyph glyph-name=".notdef" horiz-adv-x="563" 
d="M88 0v714h386v-714h-386zM136 51h290v612h-290v-612z" />
    <glyph glyph-name="NULL" 
 />
    <glyph glyph-name="NULL" 
 />
    <glyph glyph-name="CR" unicode="&#xd;" horiz-adv-x="244" 
 />
    <glyph glyph-name="space" unicode=" " horiz-adv-x="244" 
 />
    <glyph glyph-name="exclam" unicode="!" horiz-adv-x="255" 
d="M162 201h-70l-17 513h105zM67 54q0 37 17.5 52t42.5 15q24 0 42 -15t18 -52q0 -36 -18 -52t-42 -16q-25 0 -42.5 16t-17.5 52z" />
    <glyph glyph-name="quotedbl" unicode="&#x22;" horiz-adv-x="388" 
d="M153 714l-19 -258h-54l-19 258h92zM327 714l-19 -258h-55l-18 258h92z" />
    <glyph glyph-name="numbersign" unicode="#" horiz-adv-x="607" 
d="M451 436l-28 -160h128v-67h-141l-38 -209h-69l38 209h-131l-37 -209h-68l36 209h-118v67h130l30 160h-125v66h137l37 212h70l-37 -212h132l37 212h68l-38 -212h119v-66h-132zM223 276h131l28 160h-131z" />
    <glyph glyph-name="dollar" unicode="$" horiz-adv-x="537" 
d="M238 -58v107q-53 1 -101.5 9.5t-79.5 23.5v85q32 -16 82.5 -28t98.5 -13v202q-94 27 -137.5 68t-43.5 112q0 74 49 116t132 47v88h60v-87q50 -2 91.5 -12t76.5 -25l-27 -74q-31 13 -67 22.5t-74 12.5v-201q62 -19 103.5 -40.5t63 -53t21.5 -81.5q0 -70 -48.5 -113.5
t-139.5 -53.5v-111h-60zM238 417v177q-49 -4 -72.5 -25t-23.5 -54q0 -40 20.5 -61.5t75.5 -36.5zM298 131q53 6 78 27.5t25 55.5q0 38 -22 57t-81 36v-176z" />
    <glyph glyph-name="percent" unicode="%" horiz-adv-x="787" 
d="M184 724q70 0 106 -58.5t36 -164.5t-34 -165.5t-108 -59.5q-68 0 -103.5 59.5t-35.5 165.5t33.5 164.5t105.5 58.5zM617 714l-372 -714h-75l372 714h75zM184 662q-35 0 -51 -40.5t-16 -120.5t16 -121t51 -41q70 0 70 162q0 161 -70 161zM599 438q69 0 106 -58.5
t37 -164.5t-35 -165.5t-108 -59.5q-67 0 -103 59.5t-36 165.5t33.5 164.5t105.5 58.5zM599 375q-66 0 -66 -160q0 -162 66 -162q70 0 70 162q0 160 -70 160z" />
    <glyph glyph-name="ampersand" unicode="&#x26;" horiz-adv-x="690" 
d="M286 725q76 0 120.5 -40.5t44.5 -113.5q0 -63 -38.5 -107t-96.5 -80l178 -186q24 31 39 71.5t26 87.5h88q-14 -65 -37.5 -119.5t-59.5 -95.5l138 -142h-117l-79 84q-44 -42 -98 -68t-131 -26q-99 0 -156.5 51t-57.5 145q0 76 38.5 123t104.5 87q-31 36 -55.5 77t-24.5 96
q0 73 47 114.5t127 41.5zM284 653q-38 0 -63 -22t-25 -61q0 -36 17.5 -66.5t50.5 -67.5q54 34 77.5 64t23.5 71q0 36 -22 59t-59 23zM244 341q-49 -32 -76.5 -65t-27.5 -87q0 -55 34.5 -88t91.5 -33q58 0 100 21t71 50z" />
    <glyph glyph-name="quotesingle" unicode="'" horiz-adv-x="214" 
d="M153 714l-19 -258h-54l-19 258h92z" />
    <glyph glyph-name="parenleft" unicode="(" horiz-adv-x="285" 
d="M38 274q0 122 33.5 235.5t104.5 204.5h81q-65 -94 -98.5 -207t-33.5 -232q0 -116 33.5 -227.5t97.5 -205.5h-80q-71 88 -104.5 199.5t-33.5 232.5z" />
    <glyph glyph-name="parenright" unicode=")" horiz-adv-x="285" 
d="M247 274q0 -121 -33.5 -232.5t-104.5 -199.5h-80q65 94 98 205.5t33 227.5q0 119 -33.5 232t-98.5 207h81q71 -91 104.5 -204.5t33.5 -235.5z" />
    <glyph glyph-name="asterisk" unicode="*" horiz-adv-x="518" 
d="M304 760l-19 -192l180 54l13 -92l-172 -15l112 -158l-83 -47l-79 175l-72 -175l-85 47l109 158l-170 15l14 92l177 -54l-19 192h94z" />
    <glyph glyph-name="plus" unicode="+" horiz-adv-x="537" 
d="M303 388h186v-71h-186v-206h-71v206h-186v71h186v207h71v-207z" />
    <glyph glyph-name="comma" unicode="," horiz-adv-x="254" 
d="M176 116l7 -11q-13 -53 -36 -116.5t-45 -117.5h-64q14 57 27 125t20 120h91z" />
    <glyph glyph-name="hyphen" unicode="-" horiz-adv-x="303" 
d="M37 229v78h229v-78h-229z" />
    <glyph glyph-name="period" unicode="." horiz-adv-x="254" 
d="M67 54q0 37 17 52t42 15t43 -15t18 -52q0 -36 -18 -52t-43 -16t-42 16t-17 52z" />
    <glyph glyph-name="slash" unicode="/" horiz-adv-x="352" 
d="M343 714l-250 -714h-84l250 714h84z" />
    <glyph glyph-name="zero" unicode="0" horiz-adv-x="537" 
d="M492 358q0 -116 -22.5 -198t-72 -126t-129.5 -44q-114 0 -168.5 97.5t-54.5 270.5q0 116 22 198t71 125.5t130 43.5q113 0 168.5 -96.5t55.5 -270.5zM132 358q0 -147 31 -220t105 -73t105 72.5t31 220.5q0 146 -31 219t-105 73t-105 -73t-31 -219z" />
    <glyph glyph-name="one" unicode="1" horiz-adv-x="537" 
d="M337 0h-85v499q0 43 1 69t3 54q-14 -16 -27 -27.5t-31 -27.5l-71 -62l-46 59l184 150h72v-714z" />
    <glyph glyph-name="two" unicode="2" horiz-adv-x="537" 
d="M491 0h-446v73l175 189q50 54 84.5 96t52.5 82t18 89q0 59 -32 89.5t-84 30.5q-48 0 -85 -18t-75 -50l-47 59q40 35 91 59.5t117 24.5q94 0 149 -51t55 -139q0 -56 -22 -104.5t-61 -97t-90 -102.5l-137 -146l1 -4h336v-80z" />
    <glyph glyph-name="three" unicode="3" horiz-adv-x="537" 
d="M465 547q0 -72 -38 -114.5t-102 -56.5v-4q81 -10 121 -54t40 -115q0 -94 -63 -153.5t-196 -59.5q-53 0 -98 8.5t-87 30.5v82q42 -23 91 -35t94 -12q89 0 128 37.5t39 103.5q0 67 -48.5 96.5t-137.5 29.5h-63v75h64q83 0 125 37t42 98q0 52 -32 80.5t-88 28.5
q-54 0 -92.5 -17t-74.5 -43l-43 60q36 30 89 52t121 22q105 0 157 -50t52 -127z" />
    <glyph glyph-name="four" unicode="4" horiz-adv-x="537" 
d="M519 162h-97v-162h-84v162h-319v75l314 481h89v-477h97v-79zM338 241v225q0 52 2 88.5t3 69.5h-4q-8 -19 -19 -41t-21 -37l-196 -305h235z" />
    <glyph glyph-name="five" unicode="5" horiz-adv-x="537" 
d="M260 438q102 0 163.5 -55t61.5 -155q0 -111 -66.5 -174.5t-186.5 -63.5q-52 0 -97 10t-77 29v83q34 -22 82.5 -34.5t92.5 -12.5q73 0 118 37.5t45 116.5q0 70 -40 107.5t-126 37.5q-27 0 -60.5 -5t-53.5 -10l-42 28l25 337h339v-80h-264l-16 -207q16 3 42.5 7t59.5 4z
" />
    <glyph glyph-name="six" unicode="6" horiz-adv-x="537" 
d="M50 305q0 77 13 151.5t46.5 135t94 96.5t156.5 36q20 0 43.5 -2t39.5 -7v-75q-17 6 -38.5 9t-42.5 3q-65 0 -107.5 -23t-67.5 -63t-36.5 -92t-14.5 -111h6q21 35 59 59.5t99 24.5q88 0 141 -56.5t53 -160.5q0 -112 -58 -176t-156 -64q-64 0 -116.5 34t-83 104t-30.5 177z
M279 64q58 0 93.5 40.5t35.5 125.5q0 68 -31.5 108t-95.5 40q-43 0 -75 -19.5t-50 -50t-18 -61.5q0 -43 16 -85.5t47 -70t78 -27.5z" />
    <glyph glyph-name="seven" unicode="7" horiz-adv-x="537" 
d="M126 0l274 634h-360v80h453v-68l-271 -646h-96z" />
    <glyph glyph-name="eight" unicode="8" horiz-adv-x="537" 
d="M268 724q88 0 145 -44t57 -127q0 -65 -37.5 -106t-89.5 -69q41 -22 75 -48t54 -61t20 -84q0 -90 -60.5 -142.5t-160.5 -52.5q-109 0 -167.5 50.5t-58.5 141.5q0 48 19 84.5t50.5 62.5t68.5 44q-49 30 -82.5 72.5t-33.5 108.5q0 54 26.5 92t71.5 58t103 20zM267 653
q-51 0 -83.5 -26.5t-32.5 -76.5q0 -37 16.5 -62t43.5 -42.5t60 -33.5q48 22 80.5 53t32.5 85q0 50 -32 76.5t-85 26.5zM130 181q0 -52 34 -86.5t105 -34.5q67 0 102.5 34.5t35.5 89.5q0 52 -38.5 86.5t-99.5 60.5l-14 6q-61 -29 -93 -65t-32 -91z" />
    <glyph glyph-name="nine" unicode="9" horiz-adv-x="537" 
d="M490 409q0 -77 -13 -151.5t-46 -135t-94 -96.5t-157 -36q-20 0 -44.5 2.5t-40.5 7.5v75q36 -13 82 -13q66 0 108.5 23t67.5 62.5t36.5 92t13.5 110.5h-6q-21 -34 -59 -58.5t-100 -24.5q-86 0 -139 56.5t-53 159.5q0 112 59 176.5t156 64.5q65 0 116.5 -34.5t82 -104
t30.5 -176.5zM262 650q-58 0 -94 -41t-36 -125q0 -68 31 -107.5t95 -39.5q44 0 76.5 19t50 49t17.5 62q0 43 -15.5 85t-47 70t-77.5 28z" />
    <glyph glyph-name="colon" unicode=":" horiz-adv-x="254" 
d="M67 482q0 38 17 53t42 15t43 -15t18 -53q0 -36 -18 -52t-43 -16t-42 16t-17 52zM67 54q0 37 17 52t42 15t43 -15t18 -52q0 -36 -18 -52t-43 -16t-42 16t-17 52z" />
    <glyph glyph-name="semicolon" unicode=";" horiz-adv-x="254" 
d="M65 482q0 38 17 53t42 15q26 0 43.5 -15t17.5 -53q0 -36 -17.5 -52t-43.5 -16q-25 0 -42 16t-17 52zM168 116l7 -11q-13 -53 -36 -117t-45 -117h-65q9 37 18 81t17 86.5t13 77.5h91z" />
    <glyph glyph-name="less" unicode="&#x3c;" horiz-adv-x="537" 
d="M490 116l-444 207v50l444 235v-78l-352 -178l352 -158v-78z" />
    <glyph glyph-name="equal" unicode="=" horiz-adv-x="538" 
d="M52 416v71h432v-71h-432zM52 217v71h432v-71h-432z" />
    <glyph glyph-name="greater" unicode="&#x3e;" horiz-adv-x="537" 
d="M46 194l351 157l-351 179v78l444 -235v-50l-444 -207v78z" />
    <glyph glyph-name="question" unicode="?" horiz-adv-x="411" 
d="M132 201v27q0 38 7 65.5t24 52t48 52.5q35 32 55.5 54.5t29 43.5t8.5 51q0 48 -29 74t-82 26q-47 0 -82.5 -12.5t-68.5 -29.5l-31 70q38 21 84.5 35t103.5 14q90 0 139 -47t49 -128q0 -45 -14 -76.5t-38.5 -58t-58.5 -56.5q-31 -28 -47 -49t-21.5 -42t-5.5 -49v-17h-70z
M110 54q0 37 17.5 52t43.5 15q23 0 41 -15t18 -52q0 -36 -18 -52t-41 -16q-26 0 -43.5 16t-17.5 52z" />
    <glyph glyph-name="at" unicode="@" horiz-adv-x="845" 
d="M791 357q0 -46 -10 -90t-30.5 -79.5t-51 -57t-71.5 -21.5q-43 0 -68 26.5t-31 60.5h-5q-16 -37 -49 -62t-83 -25q-73 0 -112 51t-39 135q0 65 24.5 116t69.5 80t107 29q42 0 82 -7.5t63 -16.5l-9 -203q-1 -18 -1 -25.5v-10.5q0 -53 16.5 -69.5t39.5 -16.5q29 0 49 25.5
t30.5 67.5t10.5 94q0 92 -35 157t-96.5 99t-138.5 34q-107 0 -180 -47t-111 -129.5t-38 -188.5q0 -148 73 -227t211 -79q56 0 109 13.5t94 29.5v-68q-41 -18 -91.5 -29.5t-111.5 -11.5q-112 0 -191 44t-121 126.5t-42 198.5q0 93 27.5 172.5t79 138t125.5 91t167 32.5
q98 0 174.5 -43t120 -123t43.5 -191zM317 293q0 -65 23.5 -93.5t63.5 -28.5q52 0 75.5 42t26.5 109l6 125q-13 4 -31.5 7t-37.5 3q-47 0 -74.5 -24t-39.5 -61.5t-12 -78.5z" />
    <glyph glyph-name="A" unicode="A" horiz-adv-x="604" 
d="M511 0l-78 221h-265l-77 -221h-91l260 717h84l259 -717h-92zM407 301l-74 216q-3 8 -9 29t-13 43.5t-10 34.5q-7 -31 -15.5 -60.5t-14.5 -46.5l-74 -216h210z" />
    <glyph glyph-name="B" unicode="B" horiz-adv-x="613" 
d="M91 714h193q126 0 191 -40t65 -137q0 -63 -32 -104.5t-94 -53.5v-5q42 -8 75.5 -27t53 -54t19.5 -90q0 -97 -62.5 -150t-171.5 -53h-237v714zM180 410h121q84 0 115.5 29.5t31.5 87.5q0 59 -38.5 84.5t-121.5 25.5h-108v-227zM180 335v-259h132q87 0 121.5 37t34.5 97
q0 56 -35.5 90.5t-126.5 34.5h-126z" />
    <glyph glyph-name="C" unicode="C" horiz-adv-x="594" 
d="M378 645q-106 0 -166.5 -77t-60.5 -211q0 -133 56.5 -210.5t169.5 -77.5q43 0 83 8t79 20v-78q-38 -15 -78.5 -22t-95.5 -7q-103 0 -171.5 45t-102.5 128t-34 195q0 108 37 190.5t109 129t176 46.5q105 0 186 -42l-35 -76q-32 15 -70 27t-82 12z" />
    <glyph glyph-name="D" unicode="D" horiz-adv-x="687" 
d="M630 364q0 -181 -93 -272.5t-259 -91.5h-187v714h207q102 0 176.5 -40t115 -118t40.5 -192zM536 361q0 143 -65 209.5t-184 66.5h-107v-560h89q267 0 267 284z" />
    <glyph glyph-name="E" unicode="E" horiz-adv-x="523" 
d="M467 0h-376v714h376v-79h-287v-223h270v-78h-270v-255h287v-79z" />
    <glyph glyph-name="F" unicode="F" horiz-adv-x="491" 
d="M180 0h-89v714h376v-79h-287v-253h269v-79h-269v-303z" />
    <glyph glyph-name="G" unicode="G" horiz-adv-x="684" 
d="M379 377h235v-350q-54 -19 -110 -28t-126 -9q-104 0 -175.5 44.5t-108.5 127t-37 195.5q0 111 41 193.5t119 128t188 45.5q56 0 106.5 -11t93.5 -31l-33 -78q-35 16 -79.5 28.5t-91.5 12.5q-119 0 -185 -77.5t-66 -210.5q0 -85 25 -150.5t79.5 -102t142.5 -36.5
q43 0 73 5t55 12v212h-146v80z" />
    <glyph glyph-name="H" unicode="H" horiz-adv-x="699" 
d="M607 0h-89v333h-338v-333h-89v714h89v-302h338v302h89v-714z" />
    <glyph glyph-name="I" unicode="I" horiz-adv-x="322" 
d="M284 0h-247v52l79 19v571l-79 20v52h247v-52l-79 -20v-571l79 -19v-52z" />
    <glyph glyph-name="J" unicode="J" horiz-adv-x="260" 
d="M-2 -190q-23 0 -40.5 3.5t-30.5 9.5v76q15 -5 32 -7.5t36 -2.5q23 0 44 10t34 34.5t13 70.5v710h89v-703q0 -103 -48.5 -152t-128.5 -49z" />
    <glyph glyph-name="K" unicode="K" horiz-adv-x="585" 
d="M585 0h-104l-233 341l-68 -64v-277h-89v714h89v-352q27 34 55 68l56 68l181 216h104l-264 -311z" />
    <glyph glyph-name="L" unicode="L" horiz-adv-x="496" 
d="M91 0v714h89v-634h292v-80h-381z" />
    <glyph glyph-name="M" unicode="M" horiz-adv-x="856" 
d="M386 0l-216 626h-4q3 -31 5 -83.5t2 -109.5v-433h-82v714h130l203 -585h4l207 585h130v-714h-88v439q0 52 2.5 103t4.5 83h-4l-220 -625h-74z" />
    <glyph glyph-name="N" unicode="N" horiz-adv-x="719" 
d="M628 0h-105l-354 593h-4q2 -35 5 -87t3 -107v-399h-82v714h104l353 -591h4q-1 16 -2.5 48t-3 69.5t-1.5 70.5v403h83v-714z" />
    <glyph glyph-name="O" unicode="O" horiz-adv-x="735" 
d="M678 358q0 -111 -35 -193.5t-104 -128.5t-171 -46q-105 0 -174 46t-103 129t-34 194q0 109 34 191.5t103.5 128.5t174.5 46q101 0 170 -45.5t104 -128t35 -193.5zM151 358q0 -135 52.5 -212.5t164.5 -77.5t164 77.5t52 212.5t-51.5 211.5t-163.5 76.5
q-113 0 -165.5 -76.5t-52.5 -211.5z" />
    <glyph glyph-name="P" unicode="P" horiz-adv-x="571" 
d="M271 714q132 0 192 -55t60 -155q0 -59 -25 -110.5t-83.5 -83.5t-158.5 -32h-76v-278h-89v714h180zM264 637h-84v-282h66q93 0 139 33t46 112q0 69 -40.5 103t-126.5 34z" />
    <glyph glyph-name="Q" unicode="Q" horiz-adv-x="735" 
d="M678 358q0 -131 -49 -223.5t-144 -126.5l161 -178h-126l-130 161q-5 0 -11 -0.5t-11 -0.5q-105 0 -174 46t-103 129t-34 194q0 109 34 191.5t103.5 128.5t174.5 46q101 0 170 -45.5t104 -128t35 -193.5zM151 358q0 -135 52.5 -212.5t164.5 -77.5t164 77.5t52 212.5
t-51.5 211.5t-163.5 76.5q-113 0 -165.5 -76.5t-52.5 -211.5z" />
    <glyph glyph-name="R" unicode="R" horiz-adv-x="588" 
d="M277 714q126 0 186 -50.5t60 -152.5q0 -57 -19.5 -95t-50 -61t-64.5 -35l186 -320h-104l-162 295h-129v-295h-89v714h186zM272 636h-92v-265h96q81 0 118 34.5t37 101.5q0 70 -39 99.5t-120 29.5z" />
    <glyph glyph-name="S" unicode="S" horiz-adv-x="517" 
d="M473 191q0 -95 -65 -148t-175 -53q-56 0 -104.5 9t-80.5 25v86q35 -16 85.5 -29t103.5 -13q73 0 110 31t37 84q0 35 -14.5 59t-48.5 44t-93 44q-83 33 -127.5 81t-44.5 131q0 56 27.5 97t76 63t112.5 22q55 0 101 -11t85 -29l-28 -77q-36 16 -76.5 27t-83.5 11
q-62 0 -93 -28.5t-31 -75.5q0 -36 14 -60t46 -43.5t85 -40.5q59 -23 99.5 -49.5t61.5 -63.5t21 -93z" />
    <glyph glyph-name="T" unicode="T" horiz-adv-x="524" 
d="M307 0h-89v635h-208v79h503v-79h-206v-635z" />
    <glyph glyph-name="U" unicode="U" horiz-adv-x="689" 
d="M604 714v-462q0 -74 -28.5 -133.5t-87 -94t-147.5 -34.5q-126 0 -191.5 72.5t-65.5 191.5v460h89v-463q0 -87 43 -135t130 -48q89 0 129 51.5t40 132.5v462h89z" />
    <glyph glyph-name="V" unicode="V" horiz-adv-x="568" 
d="M568 714l-239 -714h-90l-239 714h93l149 -458q14 -44 24.5 -82.5t17.5 -73.5q6 35 17 74t25 84l148 456h94z" />
    <glyph glyph-name="W" unicode="W" horiz-adv-x="876" 
d="M865 714l-178 -714h-91l-127 468q-8 28 -15.5 57.5t-12.5 52t-6 31.5q-2 -13 -11 -55.5t-21 -88.5l-124 -465h-92l-177 714h93l103 -436q10 -46 18 -89t13 -81q5 39 14.5 85t21.5 90l116 431h92l121 -434q13 -46 22 -92t14 -80q4 37 13 80.5t20 90.5l102 435h92z" />
    <glyph glyph-name="X" unicode="X" horiz-adv-x="556" 
d="M553 0h-101l-176 310l-179 -310h-94l223 372l-209 342h99l163 -280l164 280h94l-208 -340z" />
    <glyph glyph-name="Y" unicode="Y" horiz-adv-x="536" 
d="M268 363l172 351h96l-223 -437v-277h-89v273l-224 441h97z" />
    <glyph glyph-name="Z" unicode="Z" horiz-adv-x="539" 
d="M503 0h-468v68l351 566h-340v80h448v-68l-351 -566h360v-80z" />
    <glyph glyph-name="bracketleft" unicode="[" horiz-adv-x="309" 
d="M285 -158h-211v872h211v-72h-127v-728h127v-72z" />
    <glyph glyph-name="backslash" unicode="\" horiz-adv-x="352" 
d="M93 714l251 -714h-85l-250 714h84z" />
    <glyph glyph-name="bracketright" unicode="]" horiz-adv-x="309" 
d="M24 -86h128v728h-128v72h211v-872h-211v72z" />
    <glyph glyph-name="asciicircum" unicode="^" horiz-adv-x="538" 
d="M35 267l199 452h49l220 -452h-76l-167 359l-149 -359h-76z" />
    <glyph glyph-name="underscore" unicode="_" horiz-adv-x="415" 
d="M417 -154h-419v64h419v-64z" />
    <glyph glyph-name="grave" unicode="`" horiz-adv-x="275" 
d="M143 766q11 -22 27 -49.5t33 -54t32 -44.5v-12h-59q-22 18 -49 46.5t-51 57t-36 46.5v10h103z" />
    <glyph glyph-name="a" unicode="a" horiz-adv-x="531" 
d="M272 545q92 0 137.5 -43t45.5 -137v-365h-63l-17 76h-4q-33 -44 -69 -65t-100 -21q-68 0 -113.5 38.5t-45.5 120.5q0 80 59 123.5t182 47.5l85 3v32q0 67 -26.5 93t-75.5 26q-39 0 -75 -12.5t-67 -28.5l-27 66q34 19 79 32.5t95 13.5zM369 262l-73 -3q-92 -4 -127.5 -32
t-35.5 -79q0 -45 25 -66t65 -21q62 0 104 37.5t42 115.5v48z" />
    <glyph glyph-name="b" unicode="b" horiz-adv-x="579" 
d="M166 760v-185q0 -34 -2 -63.5t-3 -46.5h5q21 34 58.5 57t96.5 23q94 0 150.5 -69.5t56.5 -207.5t-57 -208t-150 -70q-59 0 -96.5 23t-58.5 55h-7l-17 -68h-63v760h87zM305 472q-79 0 -109 -49t-30 -152v-4q0 -99 29.5 -151.5t111.5 -52.5q65 0 98 53t33 153
q0 203 -133 203z" />
    <glyph glyph-name="c" unicode="c" horiz-adv-x="454" 
d="M282 -10q-68 0 -120 29t-81.5 90t-29.5 156q0 99 31 161t84.5 91t121.5 29q39 0 75.5 -8.5t59.5 -20.5l-27 -73q-23 9 -53.5 17t-56.5 8q-145 0 -145 -203q0 -97 35.5 -148.5t105.5 -51.5q41 0 73 9t59 22v-78q-26 -14 -57 -21.5t-75 -7.5z" />
    <glyph glyph-name="d" unicode="d" horiz-adv-x="579" 
d="M257 -10q-93 0 -149.5 69.5t-56.5 207.5t57 208.5t150 70.5q58 0 95 -23t60 -56h6q-1 13 -3.5 38.5t-2.5 40.5v214h87v-760h-70l-13 72h-4q-23 -34 -60 -58t-96 -24zM273 63q78 0 109.5 46.5t31.5 140.5v16q0 100 -30 153.5t-112 53.5q-66 0 -98.5 -56.5t-32.5 -151.5
q0 -96 32.5 -149t99.5 -53z" />
    <glyph glyph-name="e" unicode="e" horiz-adv-x="532" 
d="M275 546q65 0 112 -30t72.5 -84.5t25.5 -127.5v-53h-344q2 -91 43 -138.5t115 -47.5q48 0 85.5 9.5t77.5 27.5v-77q-39 -18 -76.5 -26.5t-90.5 -8.5q-73 0 -127.5 31t-85.5 92t-31 151q0 88 28 151t78.5 97t117.5 34zM275 474q-59 0 -92.5 -40.5t-39.5 -112.5h252
q-1 68 -30 110.5t-90 42.5z" />
    <glyph glyph-name="f" unicode="f" horiz-adv-x="326" 
d="M315 468h-126v-468h-88v468h-87v41l87 30v31q0 104 43.5 149.5t121.5 45.5q31 0 56.5 -5.5t44.5 -12.5l-23 -69q-16 5 -35.5 10t-40.5 5q-40 0 -59.5 -29.5t-19.5 -92.5v-35h126v-68z" />
    <glyph glyph-name="g" unicode="g" horiz-adv-x="579" 
d="M257 546q49 0 89 -20t68 -61h5l11 71h70v-545q0 -115 -56 -173t-172 -58q-110 0 -182 34v81q76 -42 187 -42q64 0 100.5 40.5t36.5 110.5v21q0 12 1 34.5t2 31.5h-4q-52 -81 -155 -81q-98 0 -152.5 73t-54.5 204q0 128 54.5 203.5t151.5 75.5zM271 472q-62 0 -96 -53.5
t-34 -152.5t33.5 -151.5t98.5 -52.5q74 0 108 43.5t34 140.5v21q0 109 -35 157t-109 48z" />
    <glyph glyph-name="h" unicode="h" horiz-adv-x="584" 
d="M166 760v-223q0 -40 -5 -75h6q24 41 66 62t90 21q91 0 138 -46.5t47 -149.5v-349h-87v343q0 129 -110 129q-83 0 -114 -50.5t-31 -144.5v-277h-87v760h87z" />
    <glyph glyph-name="i" unicode="i" horiz-adv-x="246" 
d="M124 737q20 0 35 -13.5t15 -42.5t-15 -42.5t-35 -13.5q-21 0 -36 13.5t-15 42.5t15 42.5t36 13.5zM167 536v-536h-87v536h87z" />
    <glyph glyph-name="j" unicode="j" horiz-adv-x="246" 
d="M73 681q0 29 15 42.5t36 13.5q20 0 35 -13.5t15 -42.5t-15 -42.5t-35 -13.5q-21 0 -36 13.5t-15 42.5zM22 -240q-24 0 -42.5 3.5t-31.5 8.5v71q14 -5 29 -7.5t33 -2.5q31 0 50.5 17.5t19.5 66.5v619h87v-616q0 -75 -34.5 -117.5t-110.5 -42.5z" />
    <glyph glyph-name="k" unicode="k" horiz-adv-x="508" 
d="M165 760v-397q0 -16 -1.5 -42t-2.5 -45h4q6 8 17 23t23 30.5t21 25.5l159 181h101l-204 -229l218 -307h-104l-173 250l-58 -53v-197h-86v760h86z" />
    <glyph glyph-name="l" unicode="l" horiz-adv-x="245" 
d="M166 0h-87v760h87v-760z" />
    <glyph glyph-name="m" unicode="m" horiz-adv-x="882" 
d="M636 546q86 0 128 -47t42 -150v-349h-86v345q0 127 -101 127q-72 0 -102.5 -45t-30.5 -131v-296h-87v345q0 127 -101 127q-75 0 -103.5 -50t-28.5 -144v-278h-87v536h70l13 -73h5q23 42 63 62.5t85 20.5q58 0 97 -22t57 -68h6q25 46 68 68t93 22z" />
    <glyph glyph-name="n" unicode="n" horiz-adv-x="584" 
d="M325 546q90 0 136.5 -47t46.5 -150v-349h-87v343q0 129 -110 129q-83 0 -114 -50t-31 -144v-278h-87v536h70l13 -73h5q24 42 67 62.5t91 20.5z" />
    <glyph glyph-name="o" unicode="o" horiz-adv-x="570" 
d="M520 269q0 -133 -64 -206t-173 -73q-67 0 -119.5 32.5t-82.5 95t-30 151.5q0 133 63 205t172 72q68 0 121 -32.5t83 -94t30 -150.5zM141 269q0 -95 34.5 -150.5t109.5 -55.5t110 55.5t35 150.5t-35 149t-111 54q-75 0 -109 -54t-34 -149z" />
    <glyph glyph-name="p" unicode="p" horiz-adv-x="579" 
d="M322 546q93 0 149.5 -69t56.5 -208q0 -137 -57 -208t-150 -71q-59 0 -96 23t-59 55h-6q2 -17 4 -43t2 -45v-220h-87v776h71l12 -73h4q22 35 58.5 59t97.5 24zM305 472q-75 0 -107 -46t-32 -140v-17q0 -99 30 -152.5t111 -53.5q45 0 74 26.5t43 73.5t14 107
q0 92 -32.5 147t-100.5 55z" />
    <glyph glyph-name="q" unicode="q" horiz-adv-x="579" 
d="M413 -240v229q0 18 1 42t4 41h-6q-22 -34 -59.5 -58t-97.5 -24q-91 0 -147.5 69.5t-56.5 207.5t57.5 208.5t149.5 70.5q59 0 96.5 -24t59.5 -59h4l12 73h70v-776h-87zM274 63q76 0 108 45.5t32 139.5v18q0 102 -31 154.5t-111 52.5q-67 0 -99 -56.5t-32 -151.5
t32.5 -148.5t100.5 -53.5z" />
    <glyph glyph-name="r" unicode="r" horiz-adv-x="391" 
d="M318 546q14 0 30 -1.5t28 -4.5l-10 -81q-12 3 -26.5 5t-27.5 2q-38 0 -71.5 -22.5t-54 -63t-20.5 -94.5v-286h-87v536h71l10 -98h4q24 44 63 76t91 32z" />
    <glyph glyph-name="s" unicode="s" horiz-adv-x="452" 
d="M410 148q0 -78 -54 -118t-148 -40q-53 0 -91.5 9t-67.5 25v80q31 -16 74 -29.5t87 -13.5q61 0 88.5 21.5t27.5 57.5q0 20 -10.5 36t-37 32t-76.5 36q-48 20 -82.5 40t-53 48t-18.5 72q0 68 52 105t138 37q46 0 86 -10t76 -26l-29 -70q-32 14 -67 24t-71 10
q-49 0 -75 -17.5t-26 -47.5q0 -23 12 -38.5t39.5 -30t75.5 -33.5t81.5 -39t51.5 -48.5t18 -71.5z" />
    <glyph glyph-name="t" unicode="t" horiz-adv-x="345" 
d="M252 62q19 0 39 3t33 8v-67q-14 -7 -39.5 -11.5t-48.5 -4.5q-40 0 -74 14.5t-54.5 50.5t-20.5 101v312h-71v42l73 35l33 114h52v-123h146v-68h-146v-310q0 -49 22 -72.5t56 -23.5z" />
    <glyph glyph-name="u" unicode="u" horiz-adv-x="583" 
d="M504 536v-536h-70l-13 71h-4q-25 -42 -68 -61.5t-92 -19.5q-90 0 -136.5 46.5t-46.5 148.5v351h88v-345q0 -128 110 -128q82 0 113.5 50t31.5 144v279h87z" />
    <glyph glyph-name="v" unicode="v" horiz-adv-x="482" 
d="M191 0l-191 536h93l106 -316q7 -22 15.5 -49t15 -52t8.5 -41h4q3 16 10 41.5t15.5 52t15.5 48.5l106 316h93l-192 -536h-99z" />
    <glyph glyph-name="w" unicode="w" horiz-adv-x="743" 
d="M492 1l-83 302q-11 41 -21.5 80t-14.5 62h-4q-4 -23 -13.5 -62t-21.5 -81l-87 -301h-98l-139 536h90l69 -286q11 -43 19.5 -87t12.5 -73h4q3 17 8.5 42t12 52.5t12.5 49.5l87 302h96l84 -302q10 -35 19.5 -75t13.5 -68h3q3 25 13 69t21 90l70 286h88l-140 -536h-101z" />
    <glyph glyph-name="x" unicode="x" horiz-adv-x="501" 
d="M198 274l-174 262h99l128 -202l126 202h99l-174 -262l183 -274h-99l-135 214l-137 -214h-98z" />
    <glyph glyph-name="y" unicode="y" horiz-adv-x="484" 
d="M1 536h94l107 -305q14 -41 25 -77t16 -69h3q6 25 17 65.5t25 81.5l101 304h95l-217 -610q-27 -76 -70 -121t-116 -45q-23 0 -40 2.5t-29 5.5v70q10 -2 25 -4t31 -2q43 0 69.5 26t41.5 69l25 71z" />
    <glyph glyph-name="z" unicode="z" horiz-adv-x="443" 
d="M407 0h-371v58l268 410h-252v68h349v-66l-265 -402h271v-68z" />
    <glyph glyph-name="braceleft" unicode="{" horiz-adv-x="358" 
d="M327 -158q-89 1 -138 40t-49 119v147q0 51 -30 72.5t-85 21.5v73q55 1 85 22t30 71v148q0 80 51 119t136 39v-72q-47 -2 -74.5 -23.5t-27.5 -70.5v-144q0 -103 -103 -122v-6q103 -19 103 -122v-147q0 -49 26.5 -70.5t75.5 -22.5v-72z" />
    <glyph glyph-name="bar" unicode="|" horiz-adv-x="517" 
d="M223 760h71v-1001h-71v1001z" />
    <glyph glyph-name="braceright" unicode="}" horiz-adv-x="358" 
d="M31 -158v72q48 2 75 23.5t27 70.5v145q0 102 103 122v6q-103 19 -103 122v146q0 49 -26.5 70.5t-75.5 22.5v72q89 -1 138 -40t49 -119v-146q0 -51 30 -72.5t85 -21.5v-73q-55 -1 -85 -22t-30 -71v-149q0 -80 -51 -119t-136 -39z" />
    <glyph glyph-name="asciitilde" unicode="~" horiz-adv-x="537" 
d="M253 319q-35 16 -57.5 21.5t-42.5 5.5q-26 0 -55.5 -17t-51.5 -42v78q45 53 113 53q27 0 54 -6t71 -26q34 -16 56 -21.5t42 -5.5q27 0 56.5 17t51.5 42v-77q-46 -54 -113 -54q-27 0 -54.5 6.5t-69.5 25.5z" />
    <glyph glyph-name="uni00A0" unicode="&#xa0;" horiz-adv-x="244" 
 />
    <glyph glyph-name="exclamdown" unicode="&#xa1;" horiz-adv-x="255" 
d="M187 478q0 -38 -17.5 -52.5t-42.5 -14.5t-42.5 14.5t-17.5 52.5q0 36 17.5 52t42.5 16t42.5 -16t17.5 -52zM93 330h70l16 -512h-106z" />
    <glyph glyph-name="cent" unicode="&#xa2;" horiz-adv-x="538" 
d="M332 724v-80q36 -2 69 -10t57 -19l-26 -73q-26 10 -56.5 18t-56.5 8q-75 0 -110.5 -51t-35.5 -154q0 -104 36.5 -151.5t106.5 -47.5q41 0 72 8.5t61 21.5v-77q-26 -13 -53.5 -21t-63.5 -9v-97h-65v100q-56 9 -97 39t-63.5 86.5t-22.5 146.5q0 91 23 149t64 89t96 40v84
h65z" />
    <glyph glyph-name="sterling" unicode="&#xa3;" horiz-adv-x="538" 
d="M315 723q51 0 93 -12t74 -29l-30 -70q-28 14 -63 26t-72 12q-52 0 -79.5 -29.5t-27.5 -95.5v-139h190v-66h-190v-104q0 -61 -19.5 -90.5t-44.5 -45.5h358v-80h-473v74q40 10 66 42.5t26 98.5v105h-89v66h89v148q0 89 53 139t139 50z" />
    <glyph glyph-name="currency" unicode="&#xa4;" horiz-adv-x="538" 
d="M85 353q0 30 8.5 58.5t23.5 51.5l-62 68l48 47l61 -64q46 35 105 35q29 0 54 -9.5t48 -25.5l63 64l47 -47l-61 -67q14 -23 23.5 -51.5t9.5 -59.5q0 -63 -33 -112l60 -66l-46 -47l-63 64q-22 -16 -47.5 -25t-54.5 -9q-60 0 -105 35l-61 -64l-47 47l61 66
q-15 23 -23.5 51.5t-8.5 59.5zM150 353q0 -36 16 -65.5t43 -46.5t60 -17t60 17t43 46.5t16 65.5q0 37 -16 66.5t-43 47t-60 17.5t-60 -17.5t-43 -47t-16 -66.5z" />
    <glyph glyph-name="yen" unicode="&#xa5;" horiz-adv-x="537" 
d="M268 365l164 349h91l-188 -375h115v-64h-140v-82h140v-64h-140v-129h-85v129h-140v64h140v82h-140v64h113l-186 375h92z" />
    <glyph glyph-name="brokenbar" unicode="&#xa6;" horiz-adv-x="517" 
d="M223 760h71v-381h-71v381zM223 140h71v-381h-71v381z" />
    <glyph glyph-name="section" unicode="&#xa7;" horiz-adv-x="481" 
d="M62 395q0 49 23 80t51 46q-34 19 -52.5 47t-18.5 68q0 60 48.5 94.5t136.5 34.5q52 0 89 -9.5t72 -24.5l-26 -67q-32 14 -64 23.5t-76 9.5q-55 0 -77.5 -15.5t-22.5 -43.5t25.5 -47.5t96.5 -47.5q72 -29 112.5 -64.5t40.5 -95.5q0 -51 -21.5 -83.5t-48.5 -49.5
q33 -19 51 -45.5t18 -64.5q0 -69 -54.5 -107t-150.5 -38q-52 0 -90.5 8.5t-68.5 24.5v75q31 -15 75 -28t87 -13q69 0 94.5 21t25.5 50q0 19 -8.5 33.5t-34.5 29.5t-76 35q-50 19 -84.5 40.5t-53 50.5t-18.5 73zM135 405q0 -37 29.5 -62t103.5 -56l19 -8q22 13 40.5 35
t18.5 56q0 25 -12.5 45t-44 38.5t-88.5 37.5q-25 -7 -45.5 -30t-20.5 -56z" />
    <glyph glyph-name="dieresis" unicode="&#xa8;" horiz-adv-x="547" 
d="M139 681q0 26 13.5 37.5t32.5 11.5q18 0 31.5 -11.5t13.5 -37.5q0 -25 -13.5 -37.5t-31.5 -12.5q-19 0 -32.5 12.5t-13.5 37.5zM316 681q0 26 13.5 37.5t31.5 11.5q19 0 32.5 -11.5t13.5 -37.5q0 -25 -13.5 -37.5t-32.5 -12.5q-18 0 -31.5 12.5t-13.5 37.5z" />
    <glyph glyph-name="copyright" unicode="&#xa9;" horiz-adv-x="782" 
d="M46 357q0 76 26.5 142.5t74 117t110 79t134.5 28.5t134.5 -28.5t110 -79t74 -117t26.5 -142.5t-26.5 -142.5t-74 -117t-110 -79t-134.5 -28.5t-134.5 28.5t-110 79t-74 117t-26.5 142.5zM96 357q0 -65 23 -122t63.5 -100t94 -67.5t114.5 -24.5t114.5 24.5t94 67.5
t63.5 100t23 122t-23 122t-63.5 100t-94 67.5t-114.5 24.5t-114.5 -24.5t-94 -67.5t-63.5 -100t-23 -122zM410 515q-56 0 -86.5 -42.5t-30.5 -115.5q0 -77 27 -118t89 -41q22 0 49 6.5t50 16.5v-64q-23 -11 -46.5 -17.5t-56.5 -6.5q-93 0 -139 61.5t-46 162.5q0 65 22 115.5
t64 79t103 28.5t115 -30l-27 -61q-47 26 -87 26z" />
    <glyph glyph-name="ordfeminine" unicode="&#xaa;" horiz-adv-x="337" 
d="M168 722q61 0 92 -27t31 -86v-220h-45l-12 42q-19 -21 -45.5 -34.5t-61.5 -13.5q-45 0 -71.5 24.5t-26.5 74.5q0 99 150 105l52 2v22q0 33 -19.5 46t-47.5 13q-26 0 -49.5 -7.5t-45.5 -18.5l-21 49q24 13 55 21t65 8zM231 544l-45 -2q-56 -2 -75 -17.5t-19 -42.5
q0 -26 13 -37t36 -11q47 0 68.5 23.5t21.5 63.5v23z" />
    <glyph glyph-name="guillemotleft" unicode="&#xab;" horiz-adv-x="487" 
d="M38 270l159 201l62 -36l-131 -171l131 -171l-62 -37l-159 201v13zM228 270l160 201l62 -36l-132 -171l132 -171l-62 -37l-160 201v13z" />
    <glyph glyph-name="logicalnot" unicode="&#xac;" horiz-adv-x="537" 
d="M489 388v-260h-69v189h-374v71h443z" />
    <glyph glyph-name="uni00AD" unicode="&#xad;" horiz-adv-x="322" 
d="M37 229v78h229v-78h-229z" />
    <glyph glyph-name="registered" unicode="&#xae;" horiz-adv-x="782" 
d="M46 357q0 76 26.5 142.5t74 117t110 79t134.5 28.5t134.5 -28.5t110 -79t74 -117t26.5 -142.5t-26.5 -142.5t-74 -117t-110 -79t-134.5 -28.5t-134.5 28.5t-110 79t-74 117t-26.5 142.5zM96 357q0 -65 23 -122t63.5 -100t94 -67.5t114.5 -24.5t114.5 24.5t94 67.5
t63.5 100t23 122t-23 122t-63.5 100t-94 67.5t-114.5 24.5t-114.5 -24.5t-94 -67.5t-63.5 -100t-23 -122zM531 446q0 -47 -22.5 -74.5t-50.5 -39.5l109 -194h-81l-94 173h-58v-173h-72v437h121q77 0 112.5 -32.5t35.5 -96.5zM334 373h47q37 0 57.5 19.5t20.5 51.5
q0 35 -19.5 51t-59.5 16h-46v-138z" />
    <glyph glyph-name="overscore" unicode="&#xaf;" horiz-adv-x="470" 
d="M473 760h-476v66h476v-66z" />
    <glyph glyph-name="degree" unicode="&#xb0;" horiz-adv-x="402" 
d="M55 570q0 44 19.5 78.5t52.5 55t74 20.5q40 0 73 -20.5t53 -55t20 -78.5t-20 -78.5t-53 -54.5t-73 -20q-41 0 -74 20t-52.5 54.5t-19.5 78.5zM114 570q0 -39 26 -66.5t62 -27.5t61 27.5t25 66.5q0 40 -25 67t-61 27t-62 -27t-26 -67z" />
    <glyph glyph-name="plusminus" unicode="&#xb1;" horiz-adv-x="537" 
d="M303 391h186v-71h-186v-206h-71v206h-186v71h186v207h71v-207zM46 0v71h444v-71h-444z" />
    <glyph glyph-name="uni00B2" unicode="&#xb2;" horiz-adv-x="331" 
d="M291 416h-268v54l107 112q38 39 57 63.5t26 43.5t7 42q0 31 -16.5 47.5t-44.5 16.5q-27 0 -50 -11.5t-47 -31.5l-35 46q28 25 60.5 40t73.5 15q60 0 95 -31.5t35 -86.5q0 -49 -28 -88t-80 -92l-75 -77h183v-62z" />
    <glyph glyph-name="uni00B3" unicode="&#xb3;" horiz-adv-x="331" 
d="M157 853q66 0 100 -31t34 -79q0 -41 -20.5 -66.5t-48.5 -35.5v-3q37 -8 59 -33t22 -66q0 -58 -40 -94.5t-123 -36.5q-34 0 -64 6.5t-59 21.5v63q65 -34 124 -34q47 0 69.5 20.5t22.5 55.5q0 36 -26.5 52.5t-74.5 16.5h-54v55h53q47 0 68.5 19.5t21.5 50.5t-18.5 46
t-45.5 15q-29 0 -53 -10.5t-50 -27.5l-35 46q29 22 61.5 35.5t76.5 13.5z" />
    <glyph glyph-name="acute" unicode="&#xb4;" horiz-adv-x="275" 
d="M235 766v-10q-13 -18 -37 -46.5t-51 -57t-50 -46.5h-57v12q14 18 31 44.5t33 54t27 49.5h104z" />
    <glyph glyph-name="uni00B5" unicode="&#xb5;" horiz-adv-x="588" 
d="M509 536v-536h-70l-14 72h-5q-23 -40 -59.5 -61t-88.5 -21q-36 0 -62.5 12.5t-44.5 32.5h-4q2 -18 3.5 -48.5t1.5 -70.5v-156h-87v776h87v-346q0 -127 111 -127q82 0 113 50t31 144v279h88z" />
    <glyph glyph-name="paragraph" unicode="&#xb6;" horiz-adv-x="616" 
d="M518 -127h-56v831h-95v-831h-56v400q-13 -5 -31 -7t-35 -2q-59 0 -102 23t-67 77t-24 145q0 95 26 150t73 78t108 23h259v-887z" />
    <glyph glyph-name="periodcentered" unicode="&#xb7;" horiz-adv-x="268" 
d="M67 353q0 37 17 52t42 15t43 -15t18 -52q0 -36 -18 -52t-43 -16t-42 16t-17 52z" />
    <glyph glyph-name="cedilla" unicode="&#xb8;" horiz-adv-x="210" 
d="M199 -139q0 -48 -34.5 -74.5t-104.5 -26.5q-31 0 -49 5v55q20 -5 51 -5q32 0 49.5 9.5t17.5 34.5q0 26 -24 38t-61 17l40 86h57l-23 -53q33 -8 57 -28t24 -58z" />
    <glyph glyph-name="uni00B9" unicode="&#xb9;" horiz-adv-x="331" 
d="M229 844v-428h-70v276q0 26 0.5 47t2.5 42q-9 -9 -20.5 -19.5t-22.5 -19.5l-50 -39l-34 49l123 92h71z" />
    <glyph glyph-name="ordmasculine" unicode="&#xba;" horiz-adv-x="355" 
d="M326 553q0 -81 -41 -125.5t-109 -44.5q-64 0 -105 43.5t-41 126.5q0 82 40 125.5t108 43.5q67 0 107.5 -43t40.5 -126zM92 553q0 -59 20 -88t65 -29t65.5 29t20.5 88t-20.5 87.5t-65.5 28.5q-44 0 -64.5 -28.5t-20.5 -87.5z" />
    <glyph glyph-name="guillemotright" unicode="&#xbb;" horiz-adv-x="487" 
d="M449 257l-161 -201l-61 37l131 171l-131 171l61 36l161 -201v-13zM258 257l-159 -201l-62 37l131 171l-131 171l62 36l159 -201v-13z" />
    <glyph glyph-name="onequarter" unicode="&#xbc;" horiz-adv-x="706" 
d="M121 0l406 714h74l-407 -714h-73zM155 286v276q0 26 0.5 47t2.5 42q-9 -9 -20.5 -19.5t-22.5 -19.5l-50 -39l-34 49l123 92h71v-428h-70zM567 0v96h-183v52l185 283h72v-275h57v-60h-57v-96h-74zM452 156h115v93q0 21 0.5 49t2.5 52q-5 -11 -19.5 -35.5t-24.5 -41.5z" />
    <glyph glyph-name="onehalf" unicode="&#xbd;" horiz-adv-x="732" 
d="M95 0l407 714h73l-407 -714h-73zM145 286v276q0 26 0.5 47t2.5 42q-9 -9 -20 -19.5t-23 -19.5l-50 -39l-34 49l123 92h71v-428h-70zM424 0v54l107 112q37 39 57 63.5t27 43.5t7 42q0 31 -17 47.5t-45 16.5q-27 0 -50 -11.5t-47 -31.5l-35 46q28 25 61 40t73 15
q60 0 95 -31.5t35 -86.5q0 -49 -28 -88t-80 -92l-75 -77h183v-62h-268z" />
    <glyph glyph-name="threequarters" unicode="&#xbe;" horiz-adv-x="738" 
d="M139 278q-35 0 -65 6.5t-58 21.5v63q65 -34 124 -34q47 0 69.5 20.5t22.5 55.5q0 36 -26.5 52.5t-74.5 16.5h-54v55h53q47 0 68.5 19.5t21.5 50.5t-18.5 46t-45.5 15q-28 0 -53 -10.5t-50 -27.5l-35 46q28 22 61 35.5t77 13.5q66 0 100 -31t34 -79q0 -41 -20 -66.5
t-49 -35.5v-3q37 -8 59 -33t22 -66q0 -58 -40 -94.5t-123 -36.5zM161 0l407 714h74l-407 -714h-74zM599 0v96h-182v52l184 283h72v-275h57v-60h-57v-96h-74zM484 156h115v93q0 21 0.5 49t2.5 52q-4 -11 -19 -35.5t-25 -41.5z" />
    <glyph glyph-name="questiondown" unicode="&#xbf;" horiz-adv-x="434" 
d="M300 331v-27q0 -38 -7 -65.5t-24 -52t-48 -52.5q-35 -32 -55.5 -54.5t-29 -43.5t-8.5 -51q0 -48 29 -74t82 -26q47 0 82.5 12.5t68.5 29.5l31 -70q-38 -21 -84.5 -35t-103.5 -14q-90 0 -139 47t-49 128q0 45 14 76.5t38.5 58t58.5 56.5q31 28 47 49t21.5 42t5.5 49v17h70
zM322 478q0 -37 -17.5 -52t-43.5 -15q-23 0 -41 15t-18 52q0 36 18 52t41 16q26 0 43.5 -16t17.5 -52z" />
    <glyph glyph-name="Agrave" unicode="&#xc0;" horiz-adv-x="604" 
d="M511 0l-78 221h-265l-77 -221h-91l260 717h84l259 -717h-92zM407 301l-74 216q-3 8 -9 29t-13 43.5t-10 34.5q-7 -31 -15.5 -60.5t-14.5 -46.5l-74 -216h210zM262 944q11 -22 27 -49.5t33 -54t32 -44.5v-12h-59q-22 18 -49 46.5t-51 57t-36 46.5v10h103z" />
    <glyph glyph-name="Aacute" unicode="&#xc1;" horiz-adv-x="604" 
d="M511 0l-78 221h-265l-77 -221h-91l260 717h84l259 -717h-92zM407 301l-74 216q-3 8 -9 29t-13 43.5t-10 34.5q-7 -31 -15.5 -60.5t-14.5 -46.5l-74 -216h210zM428 944v-10q-13 -18 -37 -46.5t-51 -57t-50 -46.5h-57v12q14 18 31 44.5t33 54t27 49.5h104z" />
    <glyph glyph-name="Acircumflex" unicode="&#xc2;" horiz-adv-x="604" 
d="M511 0l-78 221h-265l-77 -221h-91l260 717h84l259 -717h-92zM407 301l-74 216q-3 8 -9 29t-13 43.5t-10 34.5q-7 -31 -15.5 -60.5t-14.5 -46.5l-74 -216h210zM345 944q12 -22 33 -49.5t44 -54t41 -45.5v-11h-61q-25 16 -51 39.5t-52 50.5q-26 -27 -51 -50.5t-50 -39.5
h-59v11q18 19 40 45.5t43 54t33 49.5h90z" />
    <glyph glyph-name="Atilde" unicode="&#xc3;" horiz-adv-x="604" 
d="M511 0l-78 221h-265l-77 -221h-91l260 717h84l259 -717h-92zM407 301l-74 216q-3 8 -9 29t-13 43.5t-10 34.5q-7 -31 -15.5 -60.5t-14.5 -46.5l-74 -216h210zM475 913q-6 -59 -33 -93.5t-71 -34.5q-26 0 -51 14t-48 28.5t-44 14.5q-22 0 -33.5 -14.5t-17.5 -43.5h-50
q6 59 33 93.5t72 34.5q27 0 52.5 -14.5t48 -28.5t42.5 -14q21 0 32.5 14.5t18.5 43.5h49z" />
    <glyph glyph-name="Adieresis" unicode="&#xc4;" horiz-adv-x="604" 
d="M511 0l-78 221h-265l-77 -221h-91l260 717h84l259 -717h-92zM407 301l-74 216q-3 8 -9 29t-13 43.5t-10 34.5q-7 -31 -15.5 -60.5t-14.5 -46.5l-74 -216h210zM167 859q0 26 13.5 37.5t32.5 11.5q18 0 31.5 -11.5t13.5 -37.5q0 -25 -13.5 -37.5t-31.5 -12.5
q-19 0 -32.5 12.5t-13.5 37.5zM344 859q0 26 13.5 37.5t31.5 11.5q19 0 32.5 -11.5t13.5 -37.5q0 -25 -13.5 -37.5t-32.5 -12.5q-18 0 -31.5 12.5t-13.5 37.5z" />
    <glyph glyph-name="Aring" unicode="&#xc5;" horiz-adv-x="604" 
d="M511 0l-78 221h-265l-77 -221h-91l260 717h84l259 -717h-92zM407 301l-74 216q-3 8 -9 29t-13 43.5t-10 34.5q-7 -31 -15.5 -60.5t-14.5 -46.5l-74 -216h210zM299 667q-46 0 -74.5 28t-28.5 78t28.5 77.5t74.5 27.5q45 0 75.5 -27.5t30.5 -76.5q0 -51 -30 -79t-76 -28z
M299 717q23 0 37.5 15t14.5 41t-14.5 41t-37.5 15q-22 0 -37 -15t-15 -41t13.5 -41t38.5 -15z" />
    <glyph glyph-name="AE" unicode="&#xc6;" horiz-adv-x="833" 
d="M777 0h-354v221h-234l-98 -221h-92l317 714h461v-79h-265v-223h247v-78h-247v-255h265v-79zM223 301h200v333h-55z" />
    <glyph glyph-name="Ccedilla" unicode="&#xc7;" horiz-adv-x="594" 
d="M378 645q-106 0 -166.5 -77t-60.5 -211q0 -133 56.5 -210.5t169.5 -77.5q43 0 83 8t79 20v-78q-38 -15 -78.5 -22t-95.5 -7q-103 0 -171.5 45t-102.5 128t-34 195q0 108 37 190.5t109 129t176 46.5q105 0 186 -42l-35 -76q-32 15 -70 27t-82 12zM460 -139
q0 -48 -34.5 -74.5t-104.5 -26.5q-31 0 -49 5v55q20 -5 51 -5q32 0 49.5 9.5t17.5 34.5q0 26 -24 38t-61 17l40 86h57l-23 -53q33 -8 57 -28t24 -58z" />
    <glyph glyph-name="Egrave" unicode="&#xc8;" horiz-adv-x="523" 
d="M467 0h-376v714h376v-79h-287v-223h270v-78h-270v-255h287v-79zM248 944q11 -22 27 -49.5t33 -54t32 -44.5v-12h-59q-22 18 -49 46.5t-51 57t-36 46.5v10h103z" />
    <glyph glyph-name="Eacute" unicode="&#xc9;" horiz-adv-x="523" 
d="M467 0h-376v714h376v-79h-287v-223h270v-78h-270v-255h287v-79zM414 944v-10q-13 -18 -37 -46.5t-51 -57t-50 -46.5h-57v12q14 18 31 44.5t33 54t27 49.5h104z" />
    <glyph glyph-name="Ecircumflex" unicode="&#xca;" horiz-adv-x="523" 
d="M467 0h-376v714h376v-79h-287v-223h270v-78h-270v-255h287v-79zM331 944q12 -22 33 -49.5t44 -54t41 -45.5v-11h-61q-25 16 -51 39.5t-52 50.5q-26 -27 -51 -50.5t-50 -39.5h-59v11q18 19 40 45.5t43 54t33 49.5h90z" />
    <glyph glyph-name="Edieresis" unicode="&#xcb;" horiz-adv-x="523" 
d="M467 0h-376v714h376v-79h-287v-223h270v-78h-270v-255h287v-79zM153 859q0 26 13.5 37.5t32.5 11.5q18 0 31.5 -11.5t13.5 -37.5q0 -25 -13.5 -37.5t-31.5 -12.5q-19 0 -32.5 12.5t-13.5 37.5zM330 859q0 26 13.5 37.5t31.5 11.5q19 0 32.5 -11.5t13.5 -37.5
q0 -25 -13.5 -37.5t-32.5 -12.5q-18 0 -31.5 12.5t-13.5 37.5z" />
    <glyph glyph-name="Igrave" unicode="&#xcc;" horiz-adv-x="322" 
d="M284 0h-247v52l79 19v571l-79 20v52h247v-52l-79 -20v-571l79 -19v-52zM123 944q11 -22 27 -49.5t33 -54t32 -44.5v-12h-59q-22 18 -49 46.5t-51 57t-36 46.5v10h103z" />
    <glyph glyph-name="Iacute" unicode="&#xcd;" horiz-adv-x="322" 
d="M284 0h-247v52l79 19v571l-79 20v52h247v-52l-79 -20v-571l79 -19v-52zM289 944v-10q-13 -18 -37 -46.5t-51 -57t-50 -46.5h-57v12q14 18 31 44.5t33 54t27 49.5h104z" />
    <glyph glyph-name="Icircumflex" unicode="&#xce;" horiz-adv-x="322" 
d="M284 0h-247v52l79 19v571l-79 20v52h247v-52l-79 -20v-571l79 -19v-52zM206 944q12 -22 33 -49.5t44 -54t41 -45.5v-11h-61q-25 16 -51 39.5t-52 50.5q-26 -27 -51 -50.5t-50 -39.5h-59v11q18 19 40 45.5t43 54t33 49.5h90z" />
    <glyph glyph-name="Idieresis" unicode="&#xcf;" horiz-adv-x="322" 
d="M284 0h-247v52l79 19v571l-79 20v52h247v-52l-79 -20v-571l79 -19v-52zM28 859q0 26 13.5 37.5t32.5 11.5q18 0 31.5 -11.5t13.5 -37.5q0 -25 -13.5 -37.5t-31.5 -12.5q-19 0 -32.5 12.5t-13.5 37.5zM205 859q0 26 13.5 37.5t31.5 11.5q19 0 32.5 -11.5t13.5 -37.5
q0 -25 -13.5 -37.5t-32.5 -12.5q-18 0 -31.5 12.5t-13.5 37.5z" />
    <glyph glyph-name="Eth" unicode="&#xd0;" horiz-adv-x="687" 
d="M298 714q101 0 175.5 -40t115.5 -118t41 -192q0 -181 -93 -272.5t-260 -91.5h-180v314h-69v78h69v322h201zM287 637h-101v-245h163v-78h-163v-237h83q267 0 267 284q0 143 -65 209.5t-184 66.5z" />
    <glyph glyph-name="Ntilde" unicode="&#xd1;" horiz-adv-x="719" 
d="M628 0h-105l-354 593h-4q2 -35 5 -87t3 -107v-399h-82v714h104l353 -591h4q-1 16 -2.5 48t-3 69.5t-1.5 70.5v403h83v-714zM533 913q-6 -59 -33 -93.5t-71 -34.5q-26 0 -51 14t-48 28.5t-44 14.5q-22 0 -33.5 -14.5t-17.5 -43.5h-50q6 59 33 93.5t72 34.5
q27 0 52.5 -14.5t48 -28.5t42.5 -14q21 0 32.5 14.5t18.5 43.5h49z" />
    <glyph glyph-name="Ograve" unicode="&#xd2;" horiz-adv-x="735" 
d="M678 358q0 -111 -35 -193.5t-104 -128.5t-171 -46q-105 0 -174 46t-103 129t-34 194q0 109 34 191.5t103.5 128.5t174.5 46q101 0 170 -45.5t104 -128t35 -193.5zM151 358q0 -135 52.5 -212.5t164.5 -77.5t164 77.5t52 212.5t-51.5 211.5t-163.5 76.5
q-113 0 -165.5 -76.5t-52.5 -211.5zM329 955q11 -22 27 -49.5t33 -54t32 -44.5v-12h-59q-22 18 -49 46.5t-51 57t-36 46.5v10h103z" />
    <glyph glyph-name="Oacute" unicode="&#xd3;" horiz-adv-x="735" 
d="M678 358q0 -111 -35 -193.5t-104 -128.5t-171 -46q-105 0 -174 46t-103 129t-34 194q0 109 34 191.5t103.5 128.5t174.5 46q101 0 170 -45.5t104 -128t35 -193.5zM151 358q0 -135 52.5 -212.5t164.5 -77.5t164 77.5t52 212.5t-51.5 211.5t-163.5 76.5
q-113 0 -165.5 -76.5t-52.5 -211.5zM495 955v-10q-13 -18 -37 -46.5t-51 -57t-50 -46.5h-57v12q14 18 31 44.5t33 54t27 49.5h104z" />
    <glyph glyph-name="Ocircumflex" unicode="&#xd4;" horiz-adv-x="735" 
d="M678 358q0 -111 -35 -193.5t-104 -128.5t-171 -46q-105 0 -174 46t-103 129t-34 194q0 109 34 191.5t103.5 128.5t174.5 46q101 0 170 -45.5t104 -128t35 -193.5zM151 358q0 -135 52.5 -212.5t164.5 -77.5t164 77.5t52 212.5t-51.5 211.5t-163.5 76.5
q-113 0 -165.5 -76.5t-52.5 -211.5zM412 955q12 -22 33 -49.5t44 -54t41 -45.5v-11h-61q-25 16 -51 39.5t-52 50.5q-26 -27 -51 -50.5t-50 -39.5h-59v11q18 19 40 45.5t43 54t33 49.5h90z" />
    <glyph glyph-name="Otilde" unicode="&#xd5;" horiz-adv-x="735" 
d="M678 358q0 -111 -35 -193.5t-104 -128.5t-171 -46q-105 0 -174 46t-103 129t-34 194q0 109 34 191.5t103.5 128.5t174.5 46q101 0 170 -45.5t104 -128t35 -193.5zM151 358q0 -135 52.5 -212.5t164.5 -77.5t164 77.5t52 212.5t-51.5 211.5t-163.5 76.5
q-113 0 -165.5 -76.5t-52.5 -211.5zM542 924q-6 -59 -33 -93.5t-71 -34.5q-26 0 -51 14t-48 28.5t-44 14.5q-22 0 -33.5 -14.5t-17.5 -43.5h-50q6 59 33 93.5t72 34.5q27 0 52.5 -14.5t48 -28.5t42.5 -14q21 0 32.5 14.5t18.5 43.5h49z" />
    <glyph glyph-name="Odieresis" unicode="&#xd6;" horiz-adv-x="735" 
d="M678 358q0 -111 -35 -193.5t-104 -128.5t-171 -46q-105 0 -174 46t-103 129t-34 194q0 109 34 191.5t103.5 128.5t174.5 46q101 0 170 -45.5t104 -128t35 -193.5zM151 358q0 -135 52.5 -212.5t164.5 -77.5t164 77.5t52 212.5t-51.5 211.5t-163.5 76.5
q-113 0 -165.5 -76.5t-52.5 -211.5zM234 870q0 26 13.5 37.5t32.5 11.5q18 0 31.5 -11.5t13.5 -37.5q0 -25 -13.5 -37.5t-31.5 -12.5q-19 0 -32.5 12.5t-13.5 37.5zM411 870q0 26 13.5 37.5t31.5 11.5q19 0 32.5 -11.5t13.5 -37.5q0 -25 -13.5 -37.5t-32.5 -12.5
q-18 0 -31.5 12.5t-13.5 37.5z" />
    <glyph glyph-name="multiply" unicode="&#xd7;" horiz-adv-x="538" 
d="M427 574l49 -51l-159 -170l158 -170l-49 -51l-159 169l-156 -169l-50 51l157 170l-158 169l50 52l158 -171z" />
    <glyph glyph-name="Oslash" unicode="&#xd8;" horiz-adv-x="735" 
d="M678 358q0 -111 -35 -193.5t-104 -128.5t-171 -46q-105 0 -172 47l-45 -68l-59 40l48 74q-42 49 -62.5 119t-20.5 157q0 109 34 191.5t103.5 128.5t174.5 46q49 0 90.5 -12t75.5 -33l43 66l59 -41l-47 -71q88 -99 88 -276zM151 358q0 -125 43 -198l294 451
q-47 35 -119 35q-113 0 -165.5 -76.5t-52.5 -211.5zM584 358q0 63 -11.5 114t-34.5 88l-295 -454q24 -18 55.5 -28t69.5 -10q112 0 164 77.5t52 212.5z" />
    <glyph glyph-name="Ugrave" unicode="&#xd9;" horiz-adv-x="689" 
d="M604 714v-462q0 -74 -28.5 -133.5t-87 -94t-147.5 -34.5q-126 0 -191.5 72.5t-65.5 191.5v460h89v-463q0 -87 43 -135t130 -48q89 0 129 51.5t40 132.5v462h89zM306 944q11 -22 27 -49.5t33 -54t32 -44.5v-12h-59q-22 18 -49 46.5t-51 57t-36 46.5v10h103z" />
    <glyph glyph-name="Uacute" unicode="&#xda;" horiz-adv-x="689" 
d="M604 714v-462q0 -74 -28.5 -133.5t-87 -94t-147.5 -34.5q-126 0 -191.5 72.5t-65.5 191.5v460h89v-463q0 -87 43 -135t130 -48q89 0 129 51.5t40 132.5v462h89zM472 944v-10q-13 -18 -37 -46.5t-51 -57t-50 -46.5h-57v12q14 18 31 44.5t33 54t27 49.5h104z" />
    <glyph glyph-name="Ucircumflex" unicode="&#xdb;" horiz-adv-x="689" 
d="M604 714v-462q0 -74 -28.5 -133.5t-87 -94t-147.5 -34.5q-126 0 -191.5 72.5t-65.5 191.5v460h89v-463q0 -87 43 -135t130 -48q89 0 129 51.5t40 132.5v462h89zM389 944q12 -22 33 -49.5t44 -54t41 -45.5v-11h-61q-25 16 -51 39.5t-52 50.5q-26 -27 -51 -50.5t-50 -39.5
h-59v11q18 19 40 45.5t43 54t33 49.5h90z" />
    <glyph glyph-name="Udieresis" unicode="&#xdc;" horiz-adv-x="689" 
d="M604 714v-462q0 -74 -28.5 -133.5t-87 -94t-147.5 -34.5q-126 0 -191.5 72.5t-65.5 191.5v460h89v-463q0 -87 43 -135t130 -48q89 0 129 51.5t40 132.5v462h89zM211 859q0 26 13.5 37.5t32.5 11.5q18 0 31.5 -11.5t13.5 -37.5q0 -25 -13.5 -37.5t-31.5 -12.5
q-19 0 -32.5 12.5t-13.5 37.5zM388 859q0 26 13.5 37.5t31.5 11.5q19 0 32.5 -11.5t13.5 -37.5q0 -25 -13.5 -37.5t-32.5 -12.5q-18 0 -31.5 12.5t-13.5 37.5z" />
    <glyph glyph-name="Yacute" unicode="&#xdd;" horiz-adv-x="536" 
d="M268 363l172 351h96l-223 -437v-277h-89v273l-224 441h97zM395 944v-10q-13 -18 -37 -46.5t-51 -57t-50 -46.5h-57v12q14 18 31 44.5t33 54t27 49.5h104z" />
    <glyph glyph-name="Thorn" unicode="&#xde;" horiz-adv-x="571" 
d="M523 382q0 -60 -24.5 -112t-82.5 -83.5t-160 -31.5h-76v-155h-89v714h89v-124h90q135 0 194 -55t59 -153zM180 231h66q96 0 140.5 33.5t44.5 112.5q0 69 -40 102.5t-129 33.5h-82v-282z" />
    <glyph glyph-name="germandbls" unicode="&#xdf;" horiz-adv-x="599" 
d="M497 617q0 -34 -13.5 -59.5t-33 -45t-39 -35.5t-33 -31.5t-13.5 -33.5q0 -14 6.5 -24.5t24.5 -25t53 -39.5q50 -36 79 -73.5t29 -96.5q0 -85 -49.5 -124t-128.5 -39q-44 0 -77.5 9t-58.5 25v79q24 -16 60 -29t73 -13q50 0 72.5 23t22.5 63q0 36 -19 60.5t-69 59.5
q-59 41 -80.5 70.5t-21.5 69.5q0 31 13 53t31.5 38.5t37.5 32.5t32 35t13 46q0 42 -33 61t-85 19q-33 0 -61.5 -9.5t-45.5 -33t-17 -65.5v-584h-87v584q0 67 27.5 106.5t75.5 57t108 17.5q92 0 149.5 -37t57.5 -111z" />
    <glyph glyph-name="agrave" unicode="&#xe0;" horiz-adv-x="531" 
d="M272 545q92 0 137.5 -43t45.5 -137v-365h-63l-17 76h-4q-33 -44 -69 -65t-100 -21q-68 0 -113.5 38.5t-45.5 120.5q0 80 59 123.5t182 47.5l85 3v32q0 67 -26.5 93t-75.5 26q-39 0 -75 -12.5t-67 -28.5l-27 66q34 19 79 32.5t95 13.5zM369 262l-73 -3q-92 -4 -127.5 -32
t-35.5 -79q0 -45 25 -66t65 -21q62 0 104 37.5t42 115.5v48zM227 766q11 -22 27 -49.5t33 -54t32 -44.5v-12h-59q-22 18 -49 46.5t-51 57t-36 46.5v10h103z" />
    <glyph glyph-name="aacute" unicode="&#xe1;" horiz-adv-x="531" 
d="M272 545q92 0 137.5 -43t45.5 -137v-365h-63l-17 76h-4q-33 -44 -69 -65t-100 -21q-68 0 -113.5 38.5t-45.5 120.5q0 80 59 123.5t182 47.5l85 3v32q0 67 -26.5 93t-75.5 26q-39 0 -75 -12.5t-67 -28.5l-27 66q34 19 79 32.5t95 13.5zM369 262l-73 -3q-92 -4 -127.5 -32
t-35.5 -79q0 -45 25 -66t65 -21q62 0 104 37.5t42 115.5v48zM393 766v-10q-13 -18 -37 -46.5t-51 -57t-50 -46.5h-57v12q14 18 31 44.5t33 54t27 49.5h104z" />
    <glyph glyph-name="acircumflex" unicode="&#xe2;" horiz-adv-x="531" 
d="M272 545q92 0 137.5 -43t45.5 -137v-365h-63l-17 76h-4q-33 -44 -69 -65t-100 -21q-68 0 -113.5 38.5t-45.5 120.5q0 80 59 123.5t182 47.5l85 3v32q0 67 -26.5 93t-75.5 26q-39 0 -75 -12.5t-67 -28.5l-27 66q34 19 79 32.5t95 13.5zM369 262l-73 -3q-92 -4 -127.5 -32
t-35.5 -79q0 -45 25 -66t65 -21q62 0 104 37.5t42 115.5v48zM310 766q12 -22 33 -49.5t44 -54t41 -45.5v-11h-61q-25 16 -51 39.5t-52 50.5q-26 -27 -51 -50.5t-50 -39.5h-59v11q18 19 40 45.5t43 54t33 49.5h90z" />
    <glyph glyph-name="atilde" unicode="&#xe3;" horiz-adv-x="531" 
d="M272 545q92 0 137.5 -43t45.5 -137v-365h-63l-17 76h-4q-33 -44 -69 -65t-100 -21q-68 0 -113.5 38.5t-45.5 120.5q0 80 59 123.5t182 47.5l85 3v32q0 67 -26.5 93t-75.5 26q-39 0 -75 -12.5t-67 -28.5l-27 66q34 19 79 32.5t95 13.5zM369 262l-73 -3q-92 -4 -127.5 -32
t-35.5 -79q0 -45 25 -66t65 -21q62 0 104 37.5t42 115.5v48zM440 735q-6 -59 -33 -93.5t-71 -34.5q-26 0 -51 14t-48 28.5t-44 14.5q-22 0 -33.5 -14.5t-17.5 -43.5h-50q6 59 33 93.5t72 34.5q27 0 52.5 -14.5t48 -28.5t42.5 -14q21 0 32.5 14.5t18.5 43.5h49z" />
    <glyph glyph-name="adieresis" unicode="&#xe4;" horiz-adv-x="531" 
d="M272 545q92 0 137.5 -43t45.5 -137v-365h-63l-17 76h-4q-33 -44 -69 -65t-100 -21q-68 0 -113.5 38.5t-45.5 120.5q0 80 59 123.5t182 47.5l85 3v32q0 67 -26.5 93t-75.5 26q-39 0 -75 -12.5t-67 -28.5l-27 66q34 19 79 32.5t95 13.5zM369 262l-73 -3q-92 -4 -127.5 -32
t-35.5 -79q0 -45 25 -66t65 -21q62 0 104 37.5t42 115.5v48zM132 681q0 26 13.5 37.5t32.5 11.5q18 0 31.5 -11.5t13.5 -37.5q0 -25 -13.5 -37.5t-31.5 -12.5q-19 0 -32.5 12.5t-13.5 37.5zM309 681q0 26 13.5 37.5t31.5 11.5q19 0 32.5 -11.5t13.5 -37.5q0 -25 -13.5 -37.5
t-32.5 -12.5q-18 0 -31.5 12.5t-13.5 37.5z" />
    <glyph glyph-name="aring" unicode="&#xe5;" horiz-adv-x="531" 
d="M272 545q92 0 137.5 -43t45.5 -137v-365h-63l-17 76h-4q-33 -44 -69 -65t-100 -21q-68 0 -113.5 38.5t-45.5 120.5q0 80 59 123.5t182 47.5l85 3v32q0 67 -26.5 93t-75.5 26q-39 0 -75 -12.5t-67 -28.5l-27 66q34 19 79 32.5t95 13.5zM369 262l-73 -3q-92 -4 -127.5 -32
t-35.5 -79q0 -45 25 -66t65 -21q62 0 104 37.5t42 115.5v48zM265 606q-46 0 -74.5 28t-28.5 78t28.5 77.5t74.5 27.5q45 0 75.5 -27.5t30.5 -76.5q0 -51 -30 -79t-76 -28zM265 656q23 0 37.5 15t14.5 41t-14.5 41t-37.5 15q-22 0 -37 -15t-15 -41t13.5 -41t38.5 -15z" />
    <glyph glyph-name="ae" unicode="&#xe6;" horiz-adv-x="816" 
d="M570 546q61 0 105.5 -30t69 -84t24.5 -126v-54h-323q2 -96 38.5 -141.5t105.5 -45.5q46 0 82.5 9.5t73.5 27.5v-77q-38 -18 -74.5 -26.5t-84.5 -8.5q-133 0 -192 113q-33 -52 -76 -82.5t-116 -30.5q-68 0 -114 38.5t-46 120.5q0 164 229 171l85 3v34q0 65 -28.5 91
t-74.5 26q-38 0 -74 -12t-67 -29l-27 66q34 19 81 32.5t93 13.5q58 0 96.5 -20.5t58.5 -65.5q25 41 64.5 64t90.5 23zM569 474q-54 0 -85.5 -39.5t-36.5 -113.5h231q0 69 -27 111t-82 42zM355 262l-69 -3q-86 -4 -119.5 -32t-33.5 -79q0 -45 23.5 -66t62.5 -21q58 0 97 37.5
t39 115.5v48z" />
    <glyph glyph-name="ccedilla" unicode="&#xe7;" horiz-adv-x="454" 
d="M282 -10q-68 0 -120 29t-81.5 90t-29.5 156q0 99 31 161t84.5 91t121.5 29q39 0 75.5 -8.5t59.5 -20.5l-27 -73q-23 9 -53.5 17t-56.5 8q-145 0 -145 -203q0 -97 35.5 -148.5t105.5 -51.5q41 0 73 9t59 22v-78q-26 -14 -57 -21.5t-75 -7.5zM369 -139q0 -48 -34.5 -74.5
t-104.5 -26.5q-31 0 -49 5v55q20 -5 51 -5q32 0 49.5 9.5t17.5 34.5q0 26 -24 38t-61 17l40 86h57l-23 -53q33 -8 57 -28t24 -58z" />
    <glyph glyph-name="egrave" unicode="&#xe8;" horiz-adv-x="532" 
d="M275 546q65 0 112 -30t72.5 -84.5t25.5 -127.5v-53h-344q2 -91 43 -138.5t115 -47.5q48 0 85.5 9.5t77.5 27.5v-77q-39 -18 -76.5 -26.5t-90.5 -8.5q-73 0 -127.5 31t-85.5 92t-31 151q0 88 28 151t78.5 97t117.5 34zM275 474q-59 0 -92.5 -40.5t-39.5 -112.5h252
q-1 68 -30 110.5t-90 42.5zM230 766q11 -22 27 -49.5t33 -54t32 -44.5v-12h-59q-22 18 -49 46.5t-51 57t-36 46.5v10h103z" />
    <glyph glyph-name="eacute" unicode="&#xe9;" horiz-adv-x="532" 
d="M275 546q65 0 112 -30t72.5 -84.5t25.5 -127.5v-53h-344q2 -91 43 -138.5t115 -47.5q48 0 85.5 9.5t77.5 27.5v-77q-39 -18 -76.5 -26.5t-90.5 -8.5q-73 0 -127.5 31t-85.5 92t-31 151q0 88 28 151t78.5 97t117.5 34zM275 474q-59 0 -92.5 -40.5t-39.5 -112.5h252
q-1 68 -30 110.5t-90 42.5zM396 766v-10q-13 -18 -37 -46.5t-51 -57t-50 -46.5h-57v12q14 18 31 44.5t33 54t27 49.5h104z" />
    <glyph glyph-name="ecircumflex" unicode="&#xea;" horiz-adv-x="532" 
d="M275 546q65 0 112 -30t72.5 -84.5t25.5 -127.5v-53h-344q2 -91 43 -138.5t115 -47.5q48 0 85.5 9.5t77.5 27.5v-77q-39 -18 -76.5 -26.5t-90.5 -8.5q-73 0 -127.5 31t-85.5 92t-31 151q0 88 28 151t78.5 97t117.5 34zM275 474q-59 0 -92.5 -40.5t-39.5 -112.5h252
q-1 68 -30 110.5t-90 42.5zM313 766q12 -22 33 -49.5t44 -54t41 -45.5v-11h-61q-25 16 -51 39.5t-52 50.5q-26 -27 -51 -50.5t-50 -39.5h-59v11q18 19 40 45.5t43 54t33 49.5h90z" />
    <glyph glyph-name="edieresis" unicode="&#xeb;" horiz-adv-x="532" 
d="M275 546q65 0 112 -30t72.5 -84.5t25.5 -127.5v-53h-344q2 -91 43 -138.5t115 -47.5q48 0 85.5 9.5t77.5 27.5v-77q-39 -18 -76.5 -26.5t-90.5 -8.5q-73 0 -127.5 31t-85.5 92t-31 151q0 88 28 151t78.5 97t117.5 34zM275 474q-59 0 -92.5 -40.5t-39.5 -112.5h252
q-1 68 -30 110.5t-90 42.5zM135 681q0 26 13.5 37.5t32.5 11.5q18 0 31.5 -11.5t13.5 -37.5q0 -25 -13.5 -37.5t-31.5 -12.5q-19 0 -32.5 12.5t-13.5 37.5zM312 681q0 26 13.5 37.5t31.5 11.5q19 0 32.5 -11.5t13.5 -37.5q0 -25 -13.5 -37.5t-32.5 -12.5q-18 0 -31.5 12.5
t-13.5 37.5z" />
    <glyph glyph-name="igrave" unicode="&#xec;" horiz-adv-x="245" 
d="M166 0h-87v536h87v-536zM84 766q11 -22 27 -49.5t33 -54t32 -44.5v-12h-59q-22 18 -49 46.5t-51 57t-36 46.5v10h103z" />
    <glyph glyph-name="iacute" unicode="&#xed;" horiz-adv-x="245" 
d="M166 0h-87v536h87v-536zM250 766v-10q-13 -18 -37 -46.5t-51 -57t-50 -46.5h-57v12q14 18 31 44.5t33 54t27 49.5h104z" />
    <glyph glyph-name="icircumflex" unicode="&#xee;" horiz-adv-x="245" 
d="M166 0h-87v536h87v-536zM167 766q12 -22 33 -49.5t44 -54t41 -45.5v-11h-61q-25 16 -51 39.5t-52 50.5q-26 -27 -51 -50.5t-50 -39.5h-59v11q18 19 40 45.5t43 54t33 49.5h90z" />
    <glyph glyph-name="idieresis" unicode="&#xef;" horiz-adv-x="245" 
d="M166 0h-87v536h87v-536zM-11 681q0 26 13.5 37.5t32.5 11.5q18 0 31.5 -11.5t13.5 -37.5q0 -25 -13.5 -37.5t-31.5 -12.5q-19 0 -32.5 12.5t-13.5 37.5zM166 681q0 26 13.5 37.5t31.5 11.5q19 0 32.5 -11.5t13.5 -37.5q0 -25 -13.5 -37.5t-32.5 -12.5q-18 0 -31.5 12.5
t-13.5 37.5z" />
    <glyph glyph-name="eth" unicode="&#xf0;" horiz-adv-x="570" 
d="M204 765q30 -15 60.5 -33t57.5 -39l108 67l36 -54l-92 -57q64 -64 105 -158.5t41 -215.5q0 -143 -63.5 -214t-173.5 -71q-68 0 -120.5 29.5t-82 84t-29.5 129.5q0 112 60 176t161 64q49 0 86 -14t59 -44l4 2q-15 57 -45.5 105t-69.5 86l-121 -75l-36 55l103 64
q-40 29 -83 53zM285 402q-77 0 -111.5 -44.5t-34.5 -127.5q0 -74 34.5 -121t111.5 -47t111.5 48.5t34.5 140.5q0 62 -35.5 106.5t-110.5 44.5z" />
    <glyph glyph-name="ntilde" unicode="&#xf1;" horiz-adv-x="584" 
d="M325 546q90 0 136.5 -47t46.5 -150v-349h-87v343q0 129 -110 129q-83 0 -114 -50t-31 -144v-278h-87v536h70l13 -73h5q24 42 67 62.5t91 20.5zM466 735q-6 -59 -33 -93.5t-71 -34.5q-26 0 -51 14t-48 28.5t-44 14.5q-22 0 -33.5 -14.5t-17.5 -43.5h-50q6 59 33 93.5
t72 34.5q27 0 52.5 -14.5t48 -28.5t42.5 -14q21 0 32.5 14.5t18.5 43.5h49z" />
    <glyph glyph-name="ograve" unicode="&#xf2;" horiz-adv-x="570" 
d="M520 269q0 -133 -64 -206t-173 -73q-67 0 -119.5 32.5t-82.5 95t-30 151.5q0 133 63 205t172 72q68 0 121 -32.5t83 -94t30 -150.5zM141 269q0 -95 34.5 -150.5t109.5 -55.5t110 55.5t35 150.5t-35 149t-111 54q-75 0 -109 -54t-34 -149zM246 766q11 -22 27 -49.5t33 -54
t32 -44.5v-12h-59q-22 18 -49 46.5t-51 57t-36 46.5v10h103z" />
    <glyph glyph-name="oacute" unicode="&#xf3;" horiz-adv-x="570" 
d="M520 269q0 -133 -64 -206t-173 -73q-67 0 -119.5 32.5t-82.5 95t-30 151.5q0 133 63 205t172 72q68 0 121 -32.5t83 -94t30 -150.5zM141 269q0 -95 34.5 -150.5t109.5 -55.5t110 55.5t35 150.5t-35 149t-111 54q-75 0 -109 -54t-34 -149zM412 766v-10q-13 -18 -37 -46.5
t-51 -57t-50 -46.5h-57v12q14 18 31 44.5t33 54t27 49.5h104z" />
    <glyph glyph-name="ocircumflex" unicode="&#xf4;" horiz-adv-x="570" 
d="M520 269q0 -133 -64 -206t-173 -73q-67 0 -119.5 32.5t-82.5 95t-30 151.5q0 133 63 205t172 72q68 0 121 -32.5t83 -94t30 -150.5zM141 269q0 -95 34.5 -150.5t109.5 -55.5t110 55.5t35 150.5t-35 149t-111 54q-75 0 -109 -54t-34 -149zM329 766q12 -22 33 -49.5t44 -54
t41 -45.5v-11h-61q-25 16 -51 39.5t-52 50.5q-26 -27 -51 -50.5t-50 -39.5h-59v11q18 19 40 45.5t43 54t33 49.5h90z" />
    <glyph glyph-name="otilde" unicode="&#xf5;" horiz-adv-x="570" 
d="M520 269q0 -133 -64 -206t-173 -73q-67 0 -119.5 32.5t-82.5 95t-30 151.5q0 133 63 205t172 72q68 0 121 -32.5t83 -94t30 -150.5zM141 269q0 -95 34.5 -150.5t109.5 -55.5t110 55.5t35 150.5t-35 149t-111 54q-75 0 -109 -54t-34 -149zM459 735q-6 -59 -33 -93.5
t-71 -34.5q-26 0 -51 14t-48 28.5t-44 14.5q-22 0 -33.5 -14.5t-17.5 -43.5h-50q6 59 33 93.5t72 34.5q27 0 52.5 -14.5t48 -28.5t42.5 -14q21 0 32.5 14.5t18.5 43.5h49z" />
    <glyph glyph-name="odieresis" unicode="&#xf6;" horiz-adv-x="570" 
d="M520 269q0 -133 -64 -206t-173 -73q-67 0 -119.5 32.5t-82.5 95t-30 151.5q0 133 63 205t172 72q68 0 121 -32.5t83 -94t30 -150.5zM141 269q0 -95 34.5 -150.5t109.5 -55.5t110 55.5t35 150.5t-35 149t-111 54q-75 0 -109 -54t-34 -149zM151 681q0 26 13.5 37.5
t32.5 11.5q18 0 31.5 -11.5t13.5 -37.5q0 -25 -13.5 -37.5t-31.5 -12.5q-19 0 -32.5 12.5t-13.5 37.5zM328 681q0 26 13.5 37.5t31.5 11.5q19 0 32.5 -11.5t13.5 -37.5q0 -25 -13.5 -37.5t-32.5 -12.5q-18 0 -31.5 12.5t-13.5 37.5z" />
    <glyph glyph-name="divide" unicode="&#xf7;" horiz-adv-x="537" 
d="M267 462q-22 0 -37.5 14.5t-15.5 46.5q0 34 15.5 47t37.5 13t37.5 -13t15.5 -47q0 -32 -15.5 -46.5t-37.5 -14.5zM46 317v71h444v-71h-444zM267 121q-22 0 -37.5 14.5t-15.5 46.5q0 34 15.5 47t37.5 13t37.5 -13t15.5 -47q0 -32 -15.5 -46.5t-37.5 -14.5z" />
    <glyph glyph-name="oslash" unicode="&#xf8;" horiz-adv-x="570" 
d="M520 269q0 -133 -64 -206t-173 -73q-67 0 -120 33l-37 -56l-56 39l42 62q-29 36 -45 86t-16 115q0 133 63 205t172 72q68 0 123 -36l35 56l57 -38l-41 -63q28 -35 44 -84.5t16 -111.5zM141 269q0 -38 5 -70.5t16 -57.5l203 306q-33 25 -81 25q-75 0 -109 -54t-34 -149z
M430 269q0 75 -21 123l-202 -306q32 -23 78 -23q75 0 110 55.5t35 150.5z" />
    <glyph glyph-name="ugrave" unicode="&#xf9;" horiz-adv-x="583" 
d="M504 536v-536h-70l-13 71h-4q-25 -42 -68 -61.5t-92 -19.5q-90 0 -136.5 46.5t-46.5 148.5v351h88v-345q0 -128 110 -128q82 0 113.5 50t31.5 144v279h87zM253 766q11 -22 27 -49.5t33 -54t32 -44.5v-12h-59q-22 18 -49 46.5t-51 57t-36 46.5v10h103z" />
    <glyph glyph-name="uacute" unicode="&#xfa;" horiz-adv-x="583" 
d="M504 536v-536h-70l-13 71h-4q-25 -42 -68 -61.5t-92 -19.5q-90 0 -136.5 46.5t-46.5 148.5v351h88v-345q0 -128 110 -128q82 0 113.5 50t31.5 144v279h87zM419 766v-10q-13 -18 -37 -46.5t-51 -57t-50 -46.5h-57v12q14 18 31 44.5t33 54t27 49.5h104z" />
    <glyph glyph-name="ucircumflex" unicode="&#xfb;" horiz-adv-x="583" 
d="M504 536v-536h-70l-13 71h-4q-25 -42 -68 -61.5t-92 -19.5q-90 0 -136.5 46.5t-46.5 148.5v351h88v-345q0 -128 110 -128q82 0 113.5 50t31.5 144v279h87zM336 766q12 -22 33 -49.5t44 -54t41 -45.5v-11h-61q-25 16 -51 39.5t-52 50.5q-26 -27 -51 -50.5t-50 -39.5h-59
v11q18 19 40 45.5t43 54t33 49.5h90z" />
    <glyph glyph-name="udieresis" unicode="&#xfc;" horiz-adv-x="583" 
d="M504 536v-536h-70l-13 71h-4q-25 -42 -68 -61.5t-92 -19.5q-90 0 -136.5 46.5t-46.5 148.5v351h88v-345q0 -128 110 -128q82 0 113.5 50t31.5 144v279h87zM158 681q0 26 13.5 37.5t32.5 11.5q18 0 31.5 -11.5t13.5 -37.5q0 -25 -13.5 -37.5t-31.5 -12.5q-19 0 -32.5 12.5
t-13.5 37.5zM335 681q0 26 13.5 37.5t31.5 11.5q19 0 32.5 -11.5t13.5 -37.5q0 -25 -13.5 -37.5t-32.5 -12.5q-18 0 -31.5 12.5t-13.5 37.5z" />
    <glyph glyph-name="yacute" unicode="&#xfd;" horiz-adv-x="484" 
d="M1 536h94l107 -305q14 -41 25 -77t16 -69h3q6 25 17 65.5t25 81.5l101 304h95l-217 -610q-27 -76 -70 -121t-116 -45q-23 0 -40 2.5t-29 5.5v70q10 -2 25 -4t31 -2q43 0 69.5 26t41.5 69l25 71zM369 766v-10q-13 -18 -37 -46.5t-51 -57t-50 -46.5h-57v12q14 18 31 44.5
t33 54t27 49.5h104z" />
    <glyph glyph-name="thorn" unicode="&#xfe;" horiz-adv-x="579" 
d="M528 269q0 -137 -56.5 -208t-149.5 -71q-58 0 -96 23t-60 55h-6q1 -8 2.5 -24t2.5 -33t1 -27v-224h-87v1000h87v-224q0 -14 -1 -36.5t-2 -35.5h4q23 34 59 58t96 24q93 0 149.5 -70t56.5 -207zM438 270q0 101 -32 151.5t-100 50.5q-76 0 -108 -46t-32 -138v-19
q0 -99 30 -152.5t111 -53.5q67 0 99 53.5t32 153.5z" />
    <glyph glyph-name="ydieresis" unicode="&#xff;" horiz-adv-x="484" 
d="M1 536h94l107 -305q14 -41 25 -77t16 -69h3q6 25 17 65.5t25 81.5l101 304h95l-217 -610q-27 -76 -70 -121t-116 -45q-23 0 -40 2.5t-29 5.5v70q10 -2 25 -4t31 -2q43 0 69.5 26t41.5 69l25 71zM108 681q0 26 13.5 37.5t32.5 11.5q18 0 31.5 -11.5t13.5 -37.5
q0 -25 -13.5 -37.5t-31.5 -12.5q-19 0 -32.5 12.5t-13.5 37.5zM285 681q0 26 13.5 37.5t31.5 11.5q19 0 32.5 -11.5t13.5 -37.5q0 -25 -13.5 -37.5t-32.5 -12.5q-18 0 -31.5 12.5t-13.5 37.5z" />
    <glyph glyph-name="Amacron" unicode="&#x100;" horiz-adv-x="604" 
d="M511 0l-78 221h-265l-77 -221h-91l260 717h84l259 -717h-92zM407 301l-74 216q-3 8 -9 29t-13 43.5t-10 34.5q-7 -31 -15.5 -60.5t-14.5 -46.5l-74 -216h210zM441 855v-71h-282v71h282z" />
    <glyph glyph-name="amacron" unicode="&#x101;" horiz-adv-x="531" 
d="M272 545q92 0 137.5 -43t45.5 -137v-365h-63l-17 76h-4q-33 -44 -69 -65t-100 -21q-68 0 -113.5 38.5t-45.5 120.5q0 80 59 123.5t182 47.5l85 3v32q0 67 -26.5 93t-75.5 26q-39 0 -75 -12.5t-67 -28.5l-27 66q34 19 79 32.5t95 13.5zM369 262l-73 -3q-92 -4 -127.5 -32
t-35.5 -79q0 -45 25 -66t65 -21q62 0 104 37.5t42 115.5v48zM406 677v-71h-282v71h282z" />
    <glyph glyph-name="Abreve" unicode="&#x102;" horiz-adv-x="604" 
d="M511 0l-78 221h-265l-77 -221h-91l260 717h84l259 -717h-92zM407 301l-74 216q-3 8 -9 29t-13 43.5t-10 34.5q-7 -31 -15.5 -60.5t-14.5 -46.5l-74 -216h210zM450 918q-5 -60 -44 -97t-107 -37q-71 0 -107 36t-40 98h53q4 -41 28 -52t67 -11q37 0 64 12t32 51h54z" />
    <glyph glyph-name="abreve" unicode="&#x103;" horiz-adv-x="531" 
d="M272 545q92 0 137.5 -43t45.5 -137v-365h-63l-17 76h-4q-33 -44 -69 -65t-100 -21q-68 0 -113.5 38.5t-45.5 120.5q0 80 59 123.5t182 47.5l85 3v32q0 67 -26.5 93t-75.5 26q-39 0 -75 -12.5t-67 -28.5l-27 66q34 19 79 32.5t95 13.5zM369 262l-73 -3q-92 -4 -127.5 -32
t-35.5 -79q0 -45 25 -66t65 -21q62 0 104 37.5t42 115.5v48zM415 740q-5 -60 -44 -97t-107 -37q-71 0 -107 36t-40 98h53q4 -41 28 -52t67 -11q37 0 64 12t32 51h54z" />
    <glyph glyph-name="Aogonek" unicode="&#x104;" horiz-adv-x="604" 
d="M511 0l-78 221h-265l-77 -221h-91l260 717h84l259 -717h-92zM407 301l-74 216q-3 8 -9 29t-13 43.5t-10 34.5q-7 -31 -15.5 -60.5t-14.5 -46.5l-74 -216h210zM541 -116q0 -45 42 -45q15 0 26.5 2.5t18.5 3.5v-56q-13 -4 -26.5 -6.5t-32.5 -2.5q-50 0 -74 25t-24 69
q0 28 14 55.5t34 49.5t40 36l46 -15q-32 -32 -48 -58.5t-16 -57.5z" />
    <glyph glyph-name="aogonek" unicode="&#x105;" horiz-adv-x="531" 
d="M272 545q92 0 137.5 -43t45.5 -137v-365h-63l-17 76h-4q-33 -44 -69 -65t-100 -21q-68 0 -113.5 38.5t-45.5 120.5q0 80 59 123.5t182 47.5l85 3v32q0 67 -26.5 93t-75.5 26q-39 0 -75 -12.5t-67 -28.5l-27 66q34 19 79 32.5t95 13.5zM369 262l-73 -3q-92 -4 -127.5 -32
t-35.5 -79q0 -45 25 -66t65 -21q62 0 104 37.5t42 115.5v48zM408 -116q0 -45 42 -45q15 0 26.5 2.5t18.5 3.5v-56q-13 -4 -26.5 -6.5t-32.5 -2.5q-50 0 -74 25t-24 69q0 28 14 55.5t34 49.5t40 36l46 -15q-32 -32 -48 -58.5t-16 -57.5z" />
    <glyph glyph-name="Cacute" unicode="&#x106;" horiz-adv-x="594" 
d="M378 645q-106 0 -166.5 -77t-60.5 -211q0 -133 56.5 -210.5t169.5 -77.5q43 0 83 8t79 20v-78q-38 -15 -78.5 -22t-95.5 -7q-103 0 -171.5 45t-102.5 128t-34 195q0 108 37 190.5t109 129t176 46.5q105 0 186 -42l-35 -76q-32 15 -70 27t-82 12zM484 944v-10
q-13 -18 -37 -46.5t-51 -57t-50 -46.5h-57v12q14 18 31 44.5t33 54t27 49.5h104z" />
    <glyph glyph-name="cacute" unicode="&#x107;" horiz-adv-x="454" 
d="M282 -10q-68 0 -120 29t-81.5 90t-29.5 156q0 99 31 161t84.5 91t121.5 29q39 0 75.5 -8.5t59.5 -20.5l-27 -73q-23 9 -53.5 17t-56.5 8q-145 0 -145 -203q0 -97 35.5 -148.5t105.5 -51.5q41 0 73 9t59 22v-78q-26 -14 -57 -21.5t-75 -7.5zM394 766v-10
q-13 -18 -37 -46.5t-51 -57t-50 -46.5h-57v12q14 18 31 44.5t33 54t27 49.5h104z" />
    <glyph glyph-name="Ccircumflex" unicode="&#x108;" horiz-adv-x="594" 
d="M378 645q-106 0 -166.5 -77t-60.5 -211q0 -133 56.5 -210.5t169.5 -77.5q43 0 83 8t79 20v-78q-38 -15 -78.5 -22t-95.5 -7q-103 0 -171.5 45t-102.5 128t-34 195q0 108 37 190.5t109 129t176 46.5q105 0 186 -42l-35 -76q-32 15 -70 27t-82 12zM401 944q12 -22 33 -49.5
t44 -54t41 -45.5v-11h-61q-25 16 -51 39.5t-52 50.5q-26 -27 -51 -50.5t-50 -39.5h-59v11q18 19 40 45.5t43 54t33 49.5h90z" />
    <glyph glyph-name="ccircumflex" unicode="&#x109;" horiz-adv-x="454" 
d="M282 -10q-68 0 -120 29t-81.5 90t-29.5 156q0 99 31 161t84.5 91t121.5 29q39 0 75.5 -8.5t59.5 -20.5l-27 -73q-23 9 -53.5 17t-56.5 8q-145 0 -145 -203q0 -97 35.5 -148.5t105.5 -51.5q41 0 73 9t59 22v-78q-26 -14 -57 -21.5t-75 -7.5zM311 766q12 -22 33 -49.5
t44 -54t41 -45.5v-11h-61q-25 16 -51 39.5t-52 50.5q-26 -27 -51 -50.5t-50 -39.5h-59v11q18 19 40 45.5t43 54t33 49.5h90z" />
    <glyph glyph-name="Cdot" unicode="&#x10a;" horiz-adv-x="594" 
d="M378 645q-106 0 -166.5 -77t-60.5 -211q0 -133 56.5 -210.5t169.5 -77.5q43 0 83 8t79 20v-78q-38 -15 -78.5 -22t-95.5 -7q-103 0 -171.5 45t-102.5 128t-34 195q0 108 37 190.5t109 129t176 46.5q105 0 186 -42l-35 -76q-32 15 -70 27t-82 12zM357 915q20 0 35 -13.5
t15 -42.5t-15 -42.5t-35 -13.5q-21 0 -36 13.5t-15 42.5t15 42.5t36 13.5z" />
    <glyph glyph-name="cdot" unicode="&#x10b;" horiz-adv-x="454" 
d="M282 -10q-68 0 -120 29t-81.5 90t-29.5 156q0 99 31 161t84.5 91t121.5 29q39 0 75.5 -8.5t59.5 -20.5l-27 -73q-23 9 -53.5 17t-56.5 8q-145 0 -145 -203q0 -97 35.5 -148.5t105.5 -51.5q41 0 73 9t59 22v-78q-26 -14 -57 -21.5t-75 -7.5zM267 737q20 0 35 -13.5
t15 -42.5t-15 -42.5t-35 -13.5q-21 0 -36 13.5t-15 42.5t15 42.5t36 13.5z" />
    <glyph glyph-name="Ccaron" unicode="&#x10c;" horiz-adv-x="594" 
d="M378 645q-106 0 -166.5 -77t-60.5 -211q0 -133 56.5 -210.5t169.5 -77.5q43 0 83 8t79 20v-78q-38 -15 -78.5 -22t-95.5 -7q-103 0 -171.5 45t-102.5 128t-34 195q0 108 37 190.5t109 129t176 46.5q105 0 186 -42l-35 -76q-32 15 -70 27t-82 12zM519 944v-13
q-18 -19 -41 -45t-44 -53t-33 -49h-90q-12 22 -33 49t-43.5 53t-39.5 45v13h59q25 -17 51.5 -41t49.5 -51q26 27 52 51t51 41h61z" />
    <glyph glyph-name="ccaron" unicode="&#x10d;" horiz-adv-x="454" 
d="M282 -10q-68 0 -120 29t-81.5 90t-29.5 156q0 99 31 161t84.5 91t121.5 29q39 0 75.5 -8.5t59.5 -20.5l-27 -73q-23 9 -53.5 17t-56.5 8q-145 0 -145 -203q0 -97 35.5 -148.5t105.5 -51.5q41 0 73 9t59 22v-78q-26 -14 -57 -21.5t-75 -7.5zM429 766v-13q-18 -19 -41 -45
t-44 -53t-33 -49h-90q-12 22 -33 49t-43.5 53t-39.5 45v13h59q25 -17 51.5 -41t49.5 -51q26 27 52 51t51 41h61z" />
    <glyph glyph-name="Dcaron" unicode="&#x10e;" horiz-adv-x="687" 
d="M630 364q0 -181 -93 -272.5t-259 -91.5h-187v714h207q102 0 176.5 -40t115 -118t40.5 -192zM536 361q0 143 -65 209.5t-184 66.5h-107v-560h89q267 0 267 284zM502 944v-13q-18 -19 -41 -45t-44 -53t-33 -49h-90q-12 22 -33 49t-43.5 53t-39.5 45v13h59q25 -17 51.5 -41
t49.5 -51q26 27 52 51t51 41h61z" />
    <glyph glyph-name="dcaron" unicode="&#x10f;" horiz-adv-x="615" 
d="M257 -10q-93 0 -149.5 69.5t-56.5 207.5t57 208.5t150 70.5q58 0 95 -23t60 -56h6q-1 13 -3.5 38.5t-2.5 40.5v214h87v-760h-70l-13 72h-4q-23 -34 -60 -58t-96 -24zM273 63q78 0 109.5 46.5t31.5 140.5v16q0 100 -30 153.5t-112 53.5q-66 0 -98.5 -56.5t-32.5 -151.5
q0 -96 32.5 -149t99.5 -53zM671 760v-9q-5 -18 -15.5 -45t-24.5 -55.5t-28 -50.5h-48v12q6 19 12 45.5t11.5 53.5t7.5 49h85z" />
    <glyph glyph-name="Dcroat" unicode="&#x110;" horiz-adv-x="687" 
d="M298 714q101 0 175.5 -40t115.5 -118t41 -192q0 -181 -93 -272.5t-260 -91.5h-180v314h-69v78h69v322h201zM287 637h-101v-245h163v-78h-163v-237h83q267 0 267 284q0 143 -65 209.5t-184 66.5z" />
    <glyph glyph-name="dcroat" unicode="&#x111;" horiz-adv-x="582" 
d="M257 -10q-94 0 -150 69t-56 206q0 140 57 209t149 69q59 0 96 -23t60 -56h6q-2 13 -4 38.5t-2 41.5v61h-196v66h196v89h87v-89h71v-66h-71v-605h-71l-13 72h-4q-22 -34 -59 -58t-96 -24zM274 63q77 0 108.5 46t31.5 139v17q0 101 -30 153t-112 52q-66 0 -98 -55t-32 -151
t32 -148.5t100 -52.5z" />
    <glyph glyph-name="Emacron" unicode="&#x112;" horiz-adv-x="523" 
d="M467 0h-376v714h376v-79h-287v-223h270v-78h-270v-255h287v-79zM427 855v-71h-282v71h282z" />
    <glyph glyph-name="emacron" unicode="&#x113;" horiz-adv-x="532" 
d="M275 546q65 0 112 -30t72.5 -84.5t25.5 -127.5v-53h-344q2 -91 43 -138.5t115 -47.5q48 0 85.5 9.5t77.5 27.5v-77q-39 -18 -76.5 -26.5t-90.5 -8.5q-73 0 -127.5 31t-85.5 92t-31 151q0 88 28 151t78.5 97t117.5 34zM275 474q-59 0 -92.5 -40.5t-39.5 -112.5h252
q-1 68 -30 110.5t-90 42.5zM409 677v-71h-282v71h282z" />
    <glyph glyph-name="Ebreve" unicode="&#x114;" horiz-adv-x="523" 
d="M467 0h-376v714h376v-79h-287v-223h270v-78h-270v-255h287v-79zM436 918q-5 -60 -44 -97t-107 -37q-71 0 -107 36t-40 98h53q4 -41 28 -52t67 -11q37 0 64 12t32 51h54z" />
    <glyph glyph-name="ebreve" unicode="&#x115;" horiz-adv-x="532" 
d="M275 546q65 0 112 -30t72.5 -84.5t25.5 -127.5v-53h-344q2 -91 43 -138.5t115 -47.5q48 0 85.5 9.5t77.5 27.5v-77q-39 -18 -76.5 -26.5t-90.5 -8.5q-73 0 -127.5 31t-85.5 92t-31 151q0 88 28 151t78.5 97t117.5 34zM275 474q-59 0 -92.5 -40.5t-39.5 -112.5h252
q-1 68 -30 110.5t-90 42.5zM418 740q-5 -60 -44 -97t-107 -37q-71 0 -107 36t-40 98h53q4 -41 28 -52t67 -11q37 0 64 12t32 51h54z" />
    <glyph glyph-name="Edotaccent" unicode="&#x116;" horiz-adv-x="523" 
d="M467 0h-376v714h376v-79h-287v-223h270v-78h-270v-255h287v-79zM287 915q20 0 35 -13.5t15 -42.5t-15 -42.5t-35 -13.5q-21 0 -36 13.5t-15 42.5t15 42.5t36 13.5z" />
    <glyph glyph-name="edotaccent" unicode="&#x117;" horiz-adv-x="532" 
d="M275 546q65 0 112 -30t72.5 -84.5t25.5 -127.5v-53h-344q2 -91 43 -138.5t115 -47.5q48 0 85.5 9.5t77.5 27.5v-77q-39 -18 -76.5 -26.5t-90.5 -8.5q-73 0 -127.5 31t-85.5 92t-31 151q0 88 28 151t78.5 97t117.5 34zM275 474q-59 0 -92.5 -40.5t-39.5 -112.5h252
q-1 68 -30 110.5t-90 42.5zM269 737q20 0 35 -13.5t15 -42.5t-15 -42.5t-35 -13.5q-21 0 -36 13.5t-15 42.5t15 42.5t36 13.5z" />
    <glyph glyph-name="Eogonek" unicode="&#x118;" horiz-adv-x="523" 
d="M467 0h-376v714h376v-79h-287v-223h270v-78h-270v-255h287v-79zM394 -116q0 -45 42 -45q15 0 26.5 2.5t18.5 3.5v-56q-13 -4 -26.5 -6.5t-32.5 -2.5q-50 0 -74 25t-24 69q0 28 14 55.5t34 49.5t40 36l46 -15q-32 -32 -48 -58.5t-16 -57.5z" />
    <glyph glyph-name="eogonek" unicode="&#x119;" horiz-adv-x="532" 
d="M359 -116q0 -45 45 -45q16 0 28 2.5t20 3.5v-56q-14 -4 -28 -6.5t-34 -2.5q-53 0 -78 25t-25 69q0 33 20 64.5t45 54.5q-26 -3 -57 -3q-73 0 -127.5 31t-85.5 92t-31 151q0 88 28 151t78.5 97t117.5 34q65 0 112 -30t72.5 -84.5t25.5 -127.5v-53h-344q2 -91 43 -138.5
t115 -47.5q48 0 85.5 9.5t77.5 27.5v-77q-4 -2 -7 -3q-58 -47 -77 -77.5t-19 -60.5zM275 474q-59 0 -92.5 -40.5t-39.5 -112.5h252q-1 68 -30 110.5t-90 42.5z" />
    <glyph glyph-name="Ecaron" unicode="&#x11a;" horiz-adv-x="523" 
d="M467 0h-376v714h376v-79h-287v-223h270v-78h-270v-255h287v-79zM449 944v-13q-18 -19 -41 -45t-44 -53t-33 -49h-90q-12 22 -33 49t-43.5 53t-39.5 45v13h59q25 -17 51.5 -41t49.5 -51q26 27 52 51t51 41h61z" />
    <glyph glyph-name="ecaron" unicode="&#x11b;" horiz-adv-x="532" 
d="M275 546q65 0 112 -30t72.5 -84.5t25.5 -127.5v-53h-344q2 -91 43 -138.5t115 -47.5q48 0 85.5 9.5t77.5 27.5v-77q-39 -18 -76.5 -26.5t-90.5 -8.5q-73 0 -127.5 31t-85.5 92t-31 151q0 88 28 151t78.5 97t117.5 34zM275 474q-59 0 -92.5 -40.5t-39.5 -112.5h252
q-1 68 -30 110.5t-90 42.5zM431 766v-13q-18 -19 -41 -45t-44 -53t-33 -49h-90q-12 22 -33 49t-43.5 53t-39.5 45v13h59q25 -17 51.5 -41t49.5 -51q26 27 52 51t51 41h61z" />
    <glyph glyph-name="Gcircumflex" unicode="&#x11c;" horiz-adv-x="684" 
d="M379 377h235v-350q-54 -19 -110 -28t-126 -9q-104 0 -175.5 44.5t-108.5 127t-37 195.5q0 111 41 193.5t119 128t188 45.5q56 0 106.5 -11t93.5 -31l-33 -78q-35 16 -79.5 28.5t-91.5 12.5q-119 0 -185 -77.5t-66 -210.5q0 -85 25 -150.5t79.5 -102t142.5 -36.5
q43 0 73 5t55 12v212h-146v80zM424 944q12 -22 33 -49.5t44 -54t41 -45.5v-11h-61q-25 16 -51 39.5t-52 50.5q-26 -27 -51 -50.5t-50 -39.5h-59v11q18 19 40 45.5t43 54t33 49.5h90z" />
    <glyph glyph-name="gcircumflex" unicode="&#x11d;" horiz-adv-x="579" 
d="M257 546q49 0 89 -20t68 -61h5l11 71h70v-545q0 -115 -56 -173t-172 -58q-110 0 -182 34v81q76 -42 187 -42q64 0 100.5 40.5t36.5 110.5v21q0 12 1 34.5t2 31.5h-4q-52 -81 -155 -81q-98 0 -152.5 73t-54.5 204q0 128 54.5 203.5t151.5 75.5zM271 472q-62 0 -96 -53.5
t-34 -152.5t33.5 -151.5t98.5 -52.5q74 0 108 43.5t34 140.5v21q0 109 -35 157t-109 48zM324 766q12 -22 33 -49.5t44 -54t41 -45.5v-11h-61q-25 16 -51 39.5t-52 50.5q-26 -27 -51 -50.5t-50 -39.5h-59v11q18 19 40 45.5t43 54t33 49.5h90z" />
    <glyph glyph-name="Gbreve" unicode="&#x11e;" horiz-adv-x="684" 
d="M379 377h235v-350q-54 -19 -110 -28t-126 -9q-104 0 -175.5 44.5t-108.5 127t-37 195.5q0 111 41 193.5t119 128t188 45.5q56 0 106.5 -11t93.5 -31l-33 -78q-35 16 -79.5 28.5t-91.5 12.5q-119 0 -185 -77.5t-66 -210.5q0 -85 25 -150.5t79.5 -102t142.5 -36.5
q43 0 73 5t55 12v212h-146v80zM529 918q-5 -60 -44 -97t-107 -37q-71 0 -107 36t-40 98h53q4 -41 28 -52t67 -11q37 0 64 12t32 51h54z" />
    <glyph glyph-name="gbreve" unicode="&#x11f;" horiz-adv-x="579" 
d="M257 546q49 0 89 -20t68 -61h5l11 71h70v-545q0 -115 -56 -173t-172 -58q-110 0 -182 34v81q76 -42 187 -42q64 0 100.5 40.5t36.5 110.5v21q0 12 1 34.5t2 31.5h-4q-52 -81 -155 -81q-98 0 -152.5 73t-54.5 204q0 128 54.5 203.5t151.5 75.5zM271 472q-62 0 -96 -53.5
t-34 -152.5t33.5 -151.5t98.5 -52.5q74 0 108 43.5t34 140.5v21q0 109 -35 157t-109 48zM429 740q-5 -60 -44 -97t-107 -37q-71 0 -107 36t-40 98h53q4 -41 28 -52t67 -11q37 0 64 12t32 51h54z" />
    <glyph glyph-name="Gdot" unicode="&#x120;" horiz-adv-x="684" 
d="M379 377h235v-350q-54 -19 -110 -28t-126 -9q-104 0 -175.5 44.5t-108.5 127t-37 195.5q0 111 41 193.5t119 128t188 45.5q56 0 106.5 -11t93.5 -31l-33 -78q-35 16 -79.5 28.5t-91.5 12.5q-119 0 -185 -77.5t-66 -210.5q0 -85 25 -150.5t79.5 -102t142.5 -36.5
q43 0 73 5t55 12v212h-146v80zM380 915q20 0 35 -13.5t15 -42.5t-15 -42.5t-35 -13.5q-21 0 -36 13.5t-15 42.5t15 42.5t36 13.5z" />
    <glyph glyph-name="gdot" unicode="&#x121;" horiz-adv-x="579" 
d="M257 546q49 0 89 -20t68 -61h5l11 71h70v-545q0 -115 -56 -173t-172 -58q-110 0 -182 34v81q76 -42 187 -42q64 0 100.5 40.5t36.5 110.5v21q0 12 1 34.5t2 31.5h-4q-52 -81 -155 -81q-98 0 -152.5 73t-54.5 204q0 128 54.5 203.5t151.5 75.5zM271 472q-62 0 -96 -53.5
t-34 -152.5t33.5 -151.5t98.5 -52.5q74 0 108 43.5t34 140.5v21q0 109 -35 157t-109 48zM280 737q20 0 35 -13.5t15 -42.5t-15 -42.5t-35 -13.5q-21 0 -36 13.5t-15 42.5t15 42.5t36 13.5z" />
    <glyph glyph-name="uni0122" unicode="&#x122;" horiz-adv-x="684" 
d="M379 377h235v-350q-54 -19 -110 -28t-126 -9q-104 0 -175.5 44.5t-108.5 127t-37 195.5q0 111 41 193.5t119 128t188 45.5q56 0 106.5 -11t93.5 -31l-33 -78q-35 16 -79.5 28.5t-91.5 12.5q-119 0 -185 -77.5t-66 -210.5q0 -85 25 -150.5t79.5 -102t142.5 -36.5
q43 0 73 5t55 12v212h-146v80zM426 -61v-9q-5 -18 -16 -45.5t-26.5 -56t-32.5 -49.5h-48v12q7 17 15 43.5t14.5 55t8.5 49.5h85z" />
    <glyph glyph-name="uni0123" unicode="&#x123;" horiz-adv-x="615" 
d="M257 546q49 0 89 -20t68 -61h5l11 71h70v-545q0 -115 -56 -173t-172 -58q-110 0 -182 34v81q76 -42 187 -42q64 0 100.5 40.5t36.5 110.5v21q0 12 1 34.5t2 31.5h-4q-52 -81 -155 -81q-98 0 -152.5 73t-54.5 204q0 128 54.5 203.5t151.5 75.5zM271 472q-62 0 -96 -53.5
t-34 -152.5t33.5 -151.5t98.5 -52.5q74 0 108 43.5t34 140.5v21q0 109 -35 157t-109 48zM345 766v-12q-8 -17 -15.5 -43.5t-14 -54.5t-9.5 -50h-85v9q5 18 16.5 45t26.5 55.5t32 50.5h49z" />
    <glyph glyph-name="Hcircumflex" unicode="&#x124;" horiz-adv-x="699" 
d="M607 0h-89v333h-338v-333h-89v714h89v-302h338v302h89v-714zM394 944q12 -22 33 -49.5t44 -54t41 -45.5v-11h-61q-25 16 -51 39.5t-52 50.5q-26 -27 -51 -50.5t-50 -39.5h-59v11q18 19 40 45.5t43 54t33 49.5h90z" />
    <glyph glyph-name="hcircumflex" unicode="&#x125;" horiz-adv-x="584" 
d="M166 760v-223q0 -40 -5 -75h6q24 41 66 62t90 21q91 0 138 -46.5t47 -149.5v-349h-87v343q0 129 -110 129q-83 0 -114 -50.5t-31 -144.5v-277h-87v760h87zM168 990q12 -22 33 -49.5t44 -54t41 -45.5v-11h-61q-25 16 -51 39.5t-52 50.5q-26 -27 -51 -50.5t-50 -39.5h-59
v11q18 19 40 45.5t43 54t33 49.5h90z" />
    <glyph glyph-name="Hbar" unicode="&#x126;" horiz-adv-x="698" 
d="M91 0v523h-91v72h91v119h89v-119h338v119h89v-119h90v-72h-90v-523h-89v333h-338v-333h-89zM180 412h338v111h-338v-111z" />
    <glyph glyph-name="hbar" unicode="&#x127;" horiz-adv-x="584" 
d="M167 760v-90h195v-66h-195v-87q0 -19 -1.5 -38.5t-3.5 -35.5h6q24 41 66 62t91 21q90 0 136.5 -47t46.5 -150v-329h-86v323q0 129 -111 129q-83 0 -113.5 -50t-30.5 -144v-258h-88v604h-71v66h71v90h88z" />
    <glyph glyph-name="Itilde" unicode="&#x128;" horiz-adv-x="322" 
d="M284 0h-247v52l79 19v571l-79 20v52h247v-52l-79 -20v-571l79 -19v-52zM336 913q-6 -59 -33 -93.5t-71 -34.5q-26 0 -51 14t-48 28.5t-44 14.5q-22 0 -33.5 -14.5t-17.5 -43.5h-50q6 59 33 93.5t72 34.5q27 0 52.5 -14.5t48 -28.5t42.5 -14q21 0 32.5 14.5t18.5 43.5h49z
" />
    <glyph glyph-name="itilde" unicode="&#x129;" horiz-adv-x="245" 
d="M166 0h-87v536h87v-536zM297 735q-6 -59 -33 -93.5t-71 -34.5q-26 0 -51 14t-48 28.5t-44 14.5q-22 0 -33.5 -14.5t-17.5 -43.5h-50q6 59 33 93.5t72 34.5q27 0 52.5 -14.5t48 -28.5t42.5 -14q21 0 32.5 14.5t18.5 43.5h49z" />
    <glyph glyph-name="Imacron" unicode="&#x12a;" horiz-adv-x="322" 
d="M284 0h-247v52l79 19v571l-79 20v52h247v-52l-79 -20v-571l79 -19v-52zM302 855v-71h-282v71h282z" />
    <glyph glyph-name="imacron" unicode="&#x12b;" horiz-adv-x="245" 
d="M166 0h-87v536h87v-536zM263 677v-71h-282v71h282z" />
    <glyph glyph-name="Ibreve" unicode="&#x12c;" horiz-adv-x="322" 
d="M284 0h-247v52l79 19v571l-79 20v52h247v-52l-79 -20v-571l79 -19v-52zM311 918q-5 -60 -44 -97t-107 -37q-71 0 -107 36t-40 98h53q4 -41 28 -52t67 -11q37 0 64 12t32 51h54z" />
    <glyph glyph-name="ibreve" unicode="&#x12d;" horiz-adv-x="245" 
d="M166 0h-87v536h87v-536zM272 740q-5 -60 -44 -97t-107 -37q-71 0 -107 36t-40 98h53q4 -41 28 -52t67 -11q37 0 64 12t32 51h54z" />
    <glyph glyph-name="Iogonek" unicode="&#x12e;" horiz-adv-x="322" 
d="M284 0h-247v52l79 19v571l-79 20v52h247v-52l-79 -20v-571l79 -19v-52zM200 -116q0 -45 42 -45q15 0 26.5 2.5t18.5 3.5v-56q-13 -4 -26.5 -6.5t-32.5 -2.5q-50 0 -74 25t-24 69q0 28 14 55.5t34 49.5t40 36l46 -15q-32 -32 -48 -58.5t-16 -57.5z" />
    <glyph glyph-name="iogonek" unicode="&#x12f;" horiz-adv-x="246" 
d="M124 737q20 0 35 -13.5t15 -42.5t-15 -42.5t-35 -13.5q-21 0 -36 13.5t-15 42.5t15 42.5t36 13.5zM167 536v-536h-87v536h87zM95 -116q0 -45 42 -45q15 0 26.5 2.5t18.5 3.5v-56q-13 -4 -26.5 -6.5t-32.5 -2.5q-50 0 -74 25t-24 69q0 28 14 55.5t34 49.5t40 36l46 -15
q-32 -32 -48 -58.5t-16 -57.5z" />
    <glyph glyph-name="Idotaccent" unicode="&#x130;" horiz-adv-x="322" 
d="M284 0h-247v52l79 19v571l-79 20v52h247v-52l-79 -20v-571l79 -19v-52zM162 915q20 0 35 -13.5t15 -42.5t-15 -42.5t-35 -13.5q-21 0 -36 13.5t-15 42.5t15 42.5t36 13.5z" />
    <glyph glyph-name="IJ" unicode="&#x132;" horiz-adv-x="582" 
d="M284 0h-247v52l79 19v571l-79 20v52h247v-52l-79 -20v-571l79 -19v-52zM320 -190q-23 0 -40.5 3.5t-30.5 9.5v76q15 -5 32 -7.5t36 -2.5q23 0 44 10t34 34.5t13 70.5v710h89v-703q0 -103 -48.5 -152t-128.5 -49z" />
    <glyph glyph-name="ij" unicode="&#x133;" horiz-adv-x="492" 
d="M124 737q20 0 35 -13.5t15 -42.5t-15 -42.5t-35 -13.5q-21 0 -36 13.5t-15 42.5t15 42.5t36 13.5zM167 536v-536h-87v536h87zM319 681q0 29 15 42.5t36 13.5q20 0 35 -13.5t15 -42.5t-15 -42.5t-35 -13.5q-21 0 -36 13.5t-15 42.5zM268 -240q-24 0 -42.5 3.5t-31.5 8.5
v71q14 -5 29 -7.5t33 -2.5q31 0 50.5 17.5t19.5 66.5v619h87v-616q0 -75 -34.5 -117.5t-110.5 -42.5z" />
    <glyph glyph-name="Jcircumflex" unicode="&#x134;" horiz-adv-x="260" 
d="M-2 -190q-23 0 -40.5 3.5t-30.5 9.5v76q15 -5 32 -7.5t36 -2.5q23 0 44 10t34 34.5t13 70.5v710h89v-703q0 -103 -48.5 -152t-128.5 -49zM175 944q12 -22 33 -49.5t44 -54t41 -45.5v-11h-61q-25 16 -51 39.5t-52 50.5q-26 -27 -51 -50.5t-50 -39.5h-59v11q18 19 40 45.5
t43 54t33 49.5h90z" />
    <glyph glyph-name="jcircumflex" unicode="&#x135;" horiz-adv-x="246" 
d="M22 -240q-24 0 -42.5 3.5t-31.5 8.5v71q14 -5 29 -7.5t33 -2.5q31 0 50.5 17.5t19.5 66.5v619h87v-616q0 -75 -34.5 -117.5t-110.5 -42.5zM167 766q12 -22 33 -49.5t44 -54t41 -45.5v-11h-61q-25 16 -51 39.5t-52 50.5q-26 -27 -51 -50.5t-50 -39.5h-59v11q18 19 40 45.5
t43 54t33 49.5h90z" />
    <glyph glyph-name="uni0136" unicode="&#x136;" horiz-adv-x="585" 
d="M585 0h-104l-233 341l-68 -64v-277h-89v714h89v-352q27 34 55 68l56 68l181 216h104l-264 -311zM371 -61v-9q-5 -18 -16 -45.5t-26.5 -56t-32.5 -49.5h-48v12q7 17 15 43.5t14.5 55t8.5 49.5h85z" />
    <glyph glyph-name="uni0137" unicode="&#x137;" horiz-adv-x="508" 
d="M165 760v-397q0 -16 -1.5 -42t-2.5 -45h4q6 8 17 23t23 30.5t21 25.5l159 181h101l-204 -229l218 -307h-104l-173 250l-58 -53v-197h-86v760h86zM323 -61v-9q-5 -18 -16 -45.5t-26.5 -56t-32.5 -49.5h-48v12q7 17 15 43.5t14.5 55t8.5 49.5h85z" />
    <glyph glyph-name="kgreenlandic" unicode="&#x138;" horiz-adv-x="508" 
d="M485 536l-192 -237l207 -299h-103l-164 242l-63 -54v-188h-91v536h91v-139q0 -40 -1.5 -78t-3.5 -58h2q9 13 19.5 26.5t19.5 24.5l176 224h103z" />
    <glyph glyph-name="Lacute" unicode="&#x139;" horiz-adv-x="496" 
d="M91 0v714h89v-634h292v-80h-381zM261 944v-10q-13 -18 -37 -46.5t-51 -57t-50 -46.5h-57v12q14 18 31 44.5t33 54t27 49.5h104z" />
    <glyph glyph-name="lacute" unicode="&#x13a;" horiz-adv-x="245" 
d="M166 0h-87v760h87v-760zM250 990v-10q-13 -18 -37 -46.5t-51 -57t-50 -46.5h-57v12q14 18 31 44.5t33 54t27 49.5h104z" />
    <glyph glyph-name="uni013B" unicode="&#x13b;" horiz-adv-x="496" 
d="M91 0v714h89v-634h292v-80h-381zM332 -61v-9q-5 -18 -16 -45.5t-26.5 -56t-32.5 -49.5h-48v12q7 17 15 43.5t14.5 55t8.5 49.5h85z" />
    <glyph glyph-name="uni013C" unicode="&#x13c;" horiz-adv-x="245" 
d="M166 0h-87v760h87v-760zM172 -61v-9q-5 -18 -16 -45.5t-26.5 -56t-32.5 -49.5h-48v12q7 17 15 43.5t14.5 55t8.5 49.5h85z" />
    <glyph glyph-name="Lcaron" unicode="&#x13d;" horiz-adv-x="524" 
d="M91 0v714h89v-634h292v-80h-381zM482 714v-9q-5 -18 -15.5 -45t-24.5 -55.5t-28 -50.5h-48v12q6 19 12 45.5t11.5 53.5t7.5 49h85z" />
    <glyph glyph-name="lcaron" unicode="&#x13e;" horiz-adv-x="258" 
d="M166 0h-87v760h87v-760zM320 760v-9q-5 -18 -15.5 -45t-24.5 -55.5t-28 -50.5h-48v12q6 19 12 45.5t11.5 53.5t7.5 49h85z" />
    <glyph glyph-name="Ldot" unicode="&#x13f;" horiz-adv-x="496" 
d="M91 0v714h89v-634h292v-80h-381zM377 413q20 0 35 -13.5t15 -42.5t-15 -42.5t-35 -13.5q-21 0 -36 13.5t-15 42.5t15 42.5t36 13.5z" />
    <glyph glyph-name="ldot" unicode="&#x140;" horiz-adv-x="268" 
d="M166 0h-87v760h87v-760zM259 435q20 0 35 -13.5t15 -42.5t-15 -42.5t-35 -13.5q-21 0 -36 13.5t-15 42.5t15 42.5t36 13.5z" />
    <glyph glyph-name="Lslash" unicode="&#x141;" horiz-adv-x="495" 
d="M90 0v247l-45 -28l-34 60l79 50v385h89v-332l124 81l36 -63l-160 -100v-220h292v-80h-381z" />
    <glyph glyph-name="lslash" unicode="&#x142;" horiz-adv-x="245" 
d="M73 0v285l-47 -32l-35 59l82 56v392h87v-335l58 44l36 -59l-94 -68v-342h-87z" />
    <glyph glyph-name="Nacute" unicode="&#x143;" horiz-adv-x="719" 
d="M628 0h-105l-354 593h-4q2 -35 5 -87t3 -107v-399h-82v714h104l353 -591h4q-1 16 -2.5 48t-3 69.5t-1.5 70.5v403h83v-714zM486 944v-10q-13 -18 -37 -46.5t-51 -57t-50 -46.5h-57v12q14 18 31 44.5t33 54t27 49.5h104z" />
    <glyph glyph-name="nacute" unicode="&#x144;" horiz-adv-x="584" 
d="M325 546q90 0 136.5 -47t46.5 -150v-349h-87v343q0 129 -110 129q-83 0 -114 -50t-31 -144v-278h-87v536h70l13 -73h5q24 42 67 62.5t91 20.5zM419 766v-10q-13 -18 -37 -46.5t-51 -57t-50 -46.5h-57v12q14 18 31 44.5t33 54t27 49.5h104z" />
    <glyph glyph-name="uni0145" unicode="&#x145;" horiz-adv-x="719" 
d="M628 0h-105l-354 593h-4q2 -35 5 -87t3 -107v-399h-82v714h104l353 -591h4q-1 16 -2.5 48t-3 69.5t-1.5 70.5v403h83v-714zM408 -61v-9q-5 -18 -16 -45.5t-26.5 -56t-32.5 -49.5h-48v12q7 17 15 43.5t14.5 55t8.5 49.5h85z" />
    <glyph glyph-name="uni0146" unicode="&#x146;" horiz-adv-x="584" 
d="M325 546q90 0 136.5 -47t46.5 -150v-349h-87v343q0 129 -110 129q-83 0 -114 -50t-31 -144v-278h-87v536h70l13 -73h5q24 42 67 62.5t91 20.5zM341 -61v-9q-5 -18 -16 -45.5t-26.5 -56t-32.5 -49.5h-48v12q7 17 15 43.5t14.5 55t8.5 49.5h85z" />
    <glyph glyph-name="Ncaron" unicode="&#x147;" horiz-adv-x="719" 
d="M628 0h-105l-354 593h-4q2 -35 5 -87t3 -107v-399h-82v714h104l353 -591h4q-1 16 -2.5 48t-3 69.5t-1.5 70.5v403h83v-714zM521 944v-13q-18 -19 -41 -45t-44 -53t-33 -49h-90q-12 22 -33 49t-43.5 53t-39.5 45v13h59q25 -17 51.5 -41t49.5 -51q26 27 52 51t51 41h61z
" />
    <glyph glyph-name="ncaron" unicode="&#x148;" horiz-adv-x="584" 
d="M325 546q90 0 136.5 -47t46.5 -150v-349h-87v343q0 129 -110 129q-83 0 -114 -50t-31 -144v-278h-87v536h70l13 -73h5q24 42 67 62.5t91 20.5zM454 766v-13q-18 -19 -41 -45t-44 -53t-33 -49h-90q-12 22 -33 49t-43.5 53t-39.5 45v13h59q25 -17 51.5 -41t49.5 -51
q26 27 52 51t51 41h61z" />
    <glyph glyph-name="napostrophe" unicode="&#x149;" horiz-adv-x="688" 
d="M429 546q90 0 136.5 -47t46.5 -150v-349h-87v343q0 129 -110 129q-83 0 -114 -50t-31 -144v-278h-87v536h70l13 -73h5q24 42 67 62.5t91 20.5zM138 714l7 -11q-13 -53 -35.5 -117t-45.5 -117h-64q9 37 18 81t17 86.5t12 77.5h91z" />
    <glyph glyph-name="Eng" unicode="&#x14a;" horiz-adv-x="719" 
d="M448 -190q-23 0 -41.5 3.5t-31.5 9.5v76q15 -5 33.5 -7.5t38.5 -2.5q25 0 47 9.5t36 33.5t15 68l-376 593h-4q1 -19 3 -54t3.5 -75t1.5 -77v-387h-82v714h104l353 -572h4q-3 32 -5 88t-2 112v372h83v-708q0 -100 -49 -148t-131 -48z" />
    <glyph glyph-name="eng" unicode="&#x14b;" horiz-adv-x="584" 
d="M371 -240q-23 0 -39.5 3.5t-28.5 8.5v71q13 -5 26 -7.5t30 -2.5q26 0 44 17.5t18 66.5v427q0 128 -109 128q-82 0 -114 -49.5t-32 -143.5v-279h-87v536h70l13 -73h5q25 42 67 62.5t90 20.5q92 0 138.5 -46.5t46.5 -149.5v-430q0 -75 -33.5 -117.5t-104.5 -42.5z" />
    <glyph glyph-name="Omacron" unicode="&#x14c;" horiz-adv-x="735" 
d="M678 358q0 -111 -35 -193.5t-104 -128.5t-171 -46q-105 0 -174 46t-103 129t-34 194q0 109 34 191.5t103.5 128.5t174.5 46q101 0 170 -45.5t104 -128t35 -193.5zM151 358q0 -135 52.5 -212.5t164.5 -77.5t164 77.5t52 212.5t-51.5 211.5t-163.5 76.5
q-113 0 -165.5 -76.5t-52.5 -211.5zM508 866v-71h-282v71h282z" />
    <glyph glyph-name="omacron" unicode="&#x14d;" horiz-adv-x="570" 
d="M520 269q0 -133 -64 -206t-173 -73q-67 0 -119.5 32.5t-82.5 95t-30 151.5q0 133 63 205t172 72q68 0 121 -32.5t83 -94t30 -150.5zM141 269q0 -95 34.5 -150.5t109.5 -55.5t110 55.5t35 150.5t-35 149t-111 54q-75 0 -109 -54t-34 -149zM425 677v-71h-282v71h282z" />
    <glyph glyph-name="Obreve" unicode="&#x14e;" horiz-adv-x="735" 
d="M678 358q0 -111 -35 -193.5t-104 -128.5t-171 -46q-105 0 -174 46t-103 129t-34 194q0 109 34 191.5t103.5 128.5t174.5 46q101 0 170 -45.5t104 -128t35 -193.5zM151 358q0 -135 52.5 -212.5t164.5 -77.5t164 77.5t52 212.5t-51.5 211.5t-163.5 76.5
q-113 0 -165.5 -76.5t-52.5 -211.5zM517 929q-5 -60 -44 -97t-107 -37q-71 0 -107 36t-40 98h53q4 -41 28 -52t67 -11q37 0 64 12t32 51h54z" />
    <glyph glyph-name="obreve" unicode="&#x14f;" horiz-adv-x="570" 
d="M520 269q0 -133 -64 -206t-173 -73q-67 0 -119.5 32.5t-82.5 95t-30 151.5q0 133 63 205t172 72q68 0 121 -32.5t83 -94t30 -150.5zM141 269q0 -95 34.5 -150.5t109.5 -55.5t110 55.5t35 150.5t-35 149t-111 54q-75 0 -109 -54t-34 -149zM434 740q-5 -60 -44 -97
t-107 -37q-71 0 -107 36t-40 98h53q4 -41 28 -52t67 -11q37 0 64 12t32 51h54z" />
    <glyph glyph-name="Ohungarumlaut" unicode="&#x150;" horiz-adv-x="735" 
d="M678 358q0 -111 -35 -193.5t-104 -128.5t-171 -46q-105 0 -174 46t-103 129t-34 194q0 109 34 191.5t103.5 128.5t174.5 46q101 0 170 -45.5t104 -128t35 -193.5zM151 358q0 -135 52.5 -212.5t164.5 -77.5t164 77.5t52 212.5t-51.5 211.5t-163.5 76.5
q-113 0 -165.5 -76.5t-52.5 -211.5zM539 955v-10q-10 -18 -32 -46.5t-48 -57t-47 -46.5h-49v12q19 28 43 71t39 77h94zM372 955v-10q-10 -18 -32 -46.5t-48 -57t-47 -46.5h-49v12q20 28 43.5 71t38.5 77h94z" />
    <glyph glyph-name="ohungarumlaut" unicode="&#x151;" horiz-adv-x="570" 
d="M520 269q0 -133 -64 -206t-173 -73q-67 0 -119.5 32.5t-82.5 95t-30 151.5q0 133 63 205t172 72q68 0 121 -32.5t83 -94t30 -150.5zM141 269q0 -95 34.5 -150.5t109.5 -55.5t110 55.5t35 150.5t-35 149t-111 54q-75 0 -109 -54t-34 -149zM456 766v-10q-10 -18 -32 -46.5
t-48 -57t-47 -46.5h-49v12q19 28 43 71t39 77h94zM289 766v-10q-10 -18 -32 -46.5t-48 -57t-47 -46.5h-49v12q20 28 43.5 71t38.5 77h94z" />
    <glyph glyph-name="OE" unicode="&#x152;" horiz-adv-x="875" 
d="M362 725q48 0 92 -11h365v-79h-269v-223h251v-78h-251v-255h269v-79h-360q-22 -4 -45.5 -7t-47.5 -3q-104 0 -173 46t-102.5 129t-33.5 194t33.5 193t101 127.5t170.5 45.5zM369 646q-113 0 -166 -76.5t-53 -211.5t53 -212.5t165 -77.5q55 0 94 17v545q-20 8 -43.5 12
t-49.5 4z" />
    <glyph glyph-name="oe" unicode="&#x153;" horiz-adv-x="891" 
d="M637 545q96 0 151 -65.5t55 -175.5v-53h-335q2 -96 40.5 -141t110.5 -45q49 0 86 9.5t75 27.5v-77q-38 -18 -75 -26.5t-88 -8.5q-64 0 -112.5 28t-78.5 83q-29 -55 -77.5 -83t-109.5 -28q-67 0 -118.5 32.5t-81 95t-29.5 151.5q0 132 62 204t170 72q58 0 105 -28t76 -82
q28 53 72 81.5t102 28.5zM636 473q-56 0 -88.5 -39t-37.5 -113h242q0 69 -27.5 110.5t-88.5 41.5zM278 472q-73 0 -105 -51t-32 -152t32.5 -153.5t106.5 -52.5q72 0 105 51t33 151q0 104 -33.5 155.5t-106.5 51.5z" />
    <glyph glyph-name="Racute" unicode="&#x154;" horiz-adv-x="588" 
d="M277 714q126 0 186 -50.5t60 -152.5q0 -57 -19.5 -95t-50 -61t-64.5 -35l186 -320h-104l-162 295h-129v-295h-89v714h186zM272 636h-92v-265h96q81 0 118 34.5t37 101.5q0 70 -39 99.5t-120 29.5zM422 944v-10q-13 -18 -37 -46.5t-51 -57t-50 -46.5h-57v12q14 18 31 44.5
t33 54t27 49.5h104z" />
    <glyph glyph-name="racute" unicode="&#x155;" horiz-adv-x="391" 
d="M318 546q14 0 30 -1.5t28 -4.5l-10 -81q-12 3 -26.5 5t-27.5 2q-38 0 -71.5 -22.5t-54 -63t-20.5 -94.5v-286h-87v536h71l10 -98h4q24 44 63 76t91 32zM363 766v-10q-13 -18 -37 -46.5t-51 -57t-50 -46.5h-57v12q14 18 31 44.5t33 54t27 49.5h104z" />
    <glyph glyph-name="uni0156" unicode="&#x156;" horiz-adv-x="588" 
d="M277 714q126 0 186 -50.5t60 -152.5q0 -57 -19.5 -95t-50 -61t-64.5 -35l186 -320h-104l-162 295h-129v-295h-89v714h186zM272 636h-92v-265h96q81 0 118 34.5t37 101.5q0 70 -39 99.5t-120 29.5zM360 -61v-9q-5 -18 -16 -45.5t-26.5 -56t-32.5 -49.5h-48v12
q7 17 15 43.5t14.5 55t8.5 49.5h85z" />
    <glyph glyph-name="uni0157" unicode="&#x157;" horiz-adv-x="391" 
d="M318 546q14 0 30 -1.5t28 -4.5l-10 -81q-12 3 -26.5 5t-27.5 2q-38 0 -71.5 -22.5t-54 -63t-20.5 -94.5v-286h-87v536h71l10 -98h4q24 44 63 76t91 32zM169 -61v-9q-5 -18 -16 -45.5t-26.5 -56t-32.5 -49.5h-48v12q7 17 15 43.5t14.5 55t8.5 49.5h85z" />
    <glyph glyph-name="Rcaron" unicode="&#x158;" horiz-adv-x="588" 
d="M277 714q126 0 186 -50.5t60 -152.5q0 -57 -19.5 -95t-50 -61t-64.5 -35l186 -320h-104l-162 295h-129v-295h-89v714h186zM272 636h-92v-265h96q81 0 118 34.5t37 101.5q0 70 -39 99.5t-120 29.5zM457 944v-13q-18 -19 -41 -45t-44 -53t-33 -49h-90q-12 22 -33 49
t-43.5 53t-39.5 45v13h59q25 -17 51.5 -41t49.5 -51q26 27 52 51t51 41h61z" />
    <glyph glyph-name="rcaron" unicode="&#x159;" horiz-adv-x="391" 
d="M318 546q14 0 30 -1.5t28 -4.5l-10 -81q-12 3 -26.5 5t-27.5 2q-38 0 -71.5 -22.5t-54 -63t-20.5 -94.5v-286h-87v536h71l10 -98h4q24 44 63 76t91 32zM398 766v-13q-18 -19 -41 -45t-44 -53t-33 -49h-90q-12 22 -33 49t-43.5 53t-39.5 45v13h59q25 -17 51.5 -41
t49.5 -51q26 27 52 51t51 41h61z" />
    <glyph glyph-name="Sacute" unicode="&#x15a;" horiz-adv-x="517" 
d="M473 191q0 -95 -65 -148t-175 -53q-56 0 -104.5 9t-80.5 25v86q35 -16 85.5 -29t103.5 -13q73 0 110 31t37 84q0 35 -14.5 59t-48.5 44t-93 44q-83 33 -127.5 81t-44.5 131q0 56 27.5 97t76 63t112.5 22q55 0 101 -11t85 -29l-28 -77q-36 16 -76.5 27t-83.5 11
q-62 0 -93 -28.5t-31 -75.5q0 -36 14 -60t46 -43.5t85 -40.5q59 -23 99.5 -49.5t61.5 -63.5t21 -93zM395 944v-10q-13 -18 -37 -46.5t-51 -57t-50 -46.5h-57v12q14 18 31 44.5t33 54t27 49.5h104z" />
    <glyph glyph-name="sacute" unicode="&#x15b;" horiz-adv-x="452" 
d="M410 148q0 -78 -54 -118t-148 -40q-53 0 -91.5 9t-67.5 25v80q31 -16 74 -29.5t87 -13.5q61 0 88.5 21.5t27.5 57.5q0 20 -10.5 36t-37 32t-76.5 36q-48 20 -82.5 40t-53 48t-18.5 72q0 68 52 105t138 37q46 0 86 -10t76 -26l-29 -70q-32 14 -67 24t-71 10
q-49 0 -75 -17.5t-26 -47.5q0 -23 12 -38.5t39.5 -30t75.5 -33.5t81.5 -39t51.5 -48.5t18 -71.5zM354 766v-10q-13 -18 -37 -46.5t-51 -57t-50 -46.5h-57v12q14 18 31 44.5t33 54t27 49.5h104z" />
    <glyph glyph-name="Scircumflex" unicode="&#x15c;" horiz-adv-x="517" 
d="M473 191q0 -95 -65 -148t-175 -53q-56 0 -104.5 9t-80.5 25v86q35 -16 85.5 -29t103.5 -13q73 0 110 31t37 84q0 35 -14.5 59t-48.5 44t-93 44q-83 33 -127.5 81t-44.5 131q0 56 27.5 97t76 63t112.5 22q55 0 101 -11t85 -29l-28 -77q-36 16 -76.5 27t-83.5 11
q-62 0 -93 -28.5t-31 -75.5q0 -36 14 -60t46 -43.5t85 -40.5q59 -23 99.5 -49.5t61.5 -63.5t21 -93zM312 944q12 -22 33 -49.5t44 -54t41 -45.5v-11h-61q-25 16 -51 39.5t-52 50.5q-26 -27 -51 -50.5t-50 -39.5h-59v11q18 19 40 45.5t43 54t33 49.5h90z" />
    <glyph glyph-name="scircumflex" unicode="&#x15d;" horiz-adv-x="452" 
d="M410 148q0 -78 -54 -118t-148 -40q-53 0 -91.5 9t-67.5 25v80q31 -16 74 -29.5t87 -13.5q61 0 88.5 21.5t27.5 57.5q0 20 -10.5 36t-37 32t-76.5 36q-48 20 -82.5 40t-53 48t-18.5 72q0 68 52 105t138 37q46 0 86 -10t76 -26l-29 -70q-32 14 -67 24t-71 10
q-49 0 -75 -17.5t-26 -47.5q0 -23 12 -38.5t39.5 -30t75.5 -33.5t81.5 -39t51.5 -48.5t18 -71.5zM271 766q12 -22 33 -49.5t44 -54t41 -45.5v-11h-61q-25 16 -51 39.5t-52 50.5q-26 -27 -51 -50.5t-50 -39.5h-59v11q18 19 40 45.5t43 54t33 49.5h90z" />
    <glyph glyph-name="Scedilla" unicode="&#x15e;" horiz-adv-x="517" 
d="M473 191q0 -95 -65 -148t-175 -53q-56 0 -104.5 9t-80.5 25v86q35 -16 85.5 -29t103.5 -13q73 0 110 31t37 84q0 35 -14.5 59t-48.5 44t-93 44q-83 33 -127.5 81t-44.5 131q0 56 27.5 97t76 63t112.5 22q55 0 101 -11t85 -29l-28 -77q-36 16 -76.5 27t-83.5 11
q-62 0 -93 -28.5t-31 -75.5q0 -36 14 -60t46 -43.5t85 -40.5q59 -23 99.5 -49.5t61.5 -63.5t21 -93zM349 -139q0 -48 -34.5 -74.5t-104.5 -26.5q-31 0 -49 5v55q20 -5 51 -5q32 0 49.5 9.5t17.5 34.5q0 26 -24 38t-61 17l40 86h57l-23 -53q33 -8 57 -28t24 -58z" />
    <glyph glyph-name="scedilla" unicode="&#x15f;" horiz-adv-x="452" 
d="M410 148q0 -78 -54 -118t-148 -40q-53 0 -91.5 9t-67.5 25v80q31 -16 74 -29.5t87 -13.5q61 0 88.5 21.5t27.5 57.5q0 20 -10.5 36t-37 32t-76.5 36q-48 20 -82.5 40t-53 48t-18.5 72q0 68 52 105t138 37q46 0 86 -10t76 -26l-29 -70q-32 14 -67 24t-71 10
q-49 0 -75 -17.5t-26 -47.5q0 -23 12 -38.5t39.5 -30t75.5 -33.5t81.5 -39t51.5 -48.5t18 -71.5zM322 -139q0 -48 -34.5 -74.5t-104.5 -26.5q-31 0 -49 5v55q20 -5 51 -5q32 0 49.5 9.5t17.5 34.5q0 26 -24 38t-61 17l40 86h57l-23 -53q33 -8 57 -28t24 -58z" />
    <glyph glyph-name="Scaron" unicode="&#x160;" horiz-adv-x="517" 
d="M473 191q0 -95 -65 -148t-175 -53q-56 0 -104.5 9t-80.5 25v86q35 -16 85.5 -29t103.5 -13q73 0 110 31t37 84q0 35 -14.5 59t-48.5 44t-93 44q-83 33 -127.5 81t-44.5 131q0 56 27.5 97t76 63t112.5 22q55 0 101 -11t85 -29l-28 -77q-36 16 -76.5 27t-83.5 11
q-62 0 -93 -28.5t-31 -75.5q0 -36 14 -60t46 -43.5t85 -40.5q59 -23 99.5 -49.5t61.5 -63.5t21 -93zM430 944v-13q-18 -19 -41 -45t-44 -53t-33 -49h-90q-12 22 -33 49t-43.5 53t-39.5 45v13h59q25 -17 51.5 -41t49.5 -51q26 27 52 51t51 41h61z" />
    <glyph glyph-name="scaron" unicode="&#x161;" horiz-adv-x="452" 
d="M410 148q0 -78 -54 -118t-148 -40q-53 0 -91.5 9t-67.5 25v80q31 -16 74 -29.5t87 -13.5q61 0 88.5 21.5t27.5 57.5q0 20 -10.5 36t-37 32t-76.5 36q-48 20 -82.5 40t-53 48t-18.5 72q0 68 52 105t138 37q46 0 86 -10t76 -26l-29 -70q-32 14 -67 24t-71 10
q-49 0 -75 -17.5t-26 -47.5q0 -23 12 -38.5t39.5 -30t75.5 -33.5t81.5 -39t51.5 -48.5t18 -71.5zM389 766v-13q-18 -19 -41 -45t-44 -53t-33 -49h-90q-12 22 -33 49t-43.5 53t-39.5 45v13h59q25 -17 51.5 -41t49.5 -51q26 27 52 51t51 41h61z" />
    <glyph glyph-name="uni021A" unicode="&#x21a;" horiz-adv-x="524" 
d="M307 0h-89v635h-208v79h503v-79h-206v-635zM311 -61v-9q-5 -18 -16 -45.5t-26.5 -56t-32.5 -49.5h-48v12q7 17 15 43.5t14.5 55t8.5 49.5h85z" />
    <glyph glyph-name="uni021B" unicode="&#x21b;" horiz-adv-x="345" 
d="M252 62q19 0 39 3t33 8v-67q-14 -7 -39.5 -11.5t-48.5 -4.5q-40 0 -74 14.5t-54.5 50.5t-20.5 101v312h-71v42l73 35l33 114h52v-123h146v-68h-146v-310q0 -49 22 -72.5t56 -23.5zM253 -61v-9q-5 -18 -16 -45.5t-26.5 -56t-32.5 -49.5h-48v12q7 17 15 43.5t14.5 55
t8.5 49.5h85z" />
    <glyph glyph-name="Tcaron" unicode="&#x164;" horiz-adv-x="524" 
d="M307 0h-89v635h-208v79h503v-79h-206v-635zM424 944v-13q-18 -19 -41 -45t-44 -53t-33 -49h-90q-12 22 -33 49t-43.5 53t-39.5 45v13h59q25 -17 51.5 -41t49.5 -51q26 27 52 51t51 41h61z" />
    <glyph glyph-name="tcaron" unicode="&#x165;" horiz-adv-x="345" 
d="M252 62q19 0 39 3t33 8v-67q-14 -7 -39.5 -11.5t-48.5 -4.5q-40 0 -74 14.5t-54.5 50.5t-20.5 101v312h-71v42l73 35l33 114h52v-123h146v-68h-146v-310q0 -49 22 -72.5t56 -23.5zM453 760v-9q-5 -18 -15.5 -45t-24.5 -55.5t-28 -50.5h-48v12q6 19 12 45.5t11.5 53.5
t7.5 49h85z" />
    <glyph glyph-name="Tbar" unicode="&#x166;" horiz-adv-x="524" 
d="M217 0v325h-138v74h138v235h-207v80h503v-80h-207v-235h137v-74h-137v-325h-89z" />
    <glyph glyph-name="tbar" unicode="&#x167;" horiz-adv-x="361" 
d="M252 62q19 0 39 3t33 8v-67q-14 -7 -39.5 -11.5t-48.5 -4.5q-40 0 -74 14.5t-54.5 50.5t-20.5 101v124h-63v66h63v122h-71v42l73 35l33 114h52v-123h146v-68h-146v-122h152v-66h-152v-122q0 -49 22 -72.5t56 -23.5z" />
    <glyph glyph-name="Utilde" unicode="&#x168;" horiz-adv-x="689" 
d="M604 714v-462q0 -74 -28.5 -133.5t-87 -94t-147.5 -34.5q-126 0 -191.5 72.5t-65.5 191.5v460h89v-463q0 -87 43 -135t130 -48q89 0 129 51.5t40 132.5v462h89zM519 913q-6 -59 -33 -93.5t-71 -34.5q-26 0 -51 14t-48 28.5t-44 14.5q-22 0 -33.5 -14.5t-17.5 -43.5h-50
q6 59 33 93.5t72 34.5q27 0 52.5 -14.5t48 -28.5t42.5 -14q21 0 32.5 14.5t18.5 43.5h49z" />
    <glyph glyph-name="utilde" unicode="&#x169;" horiz-adv-x="583" 
d="M504 536v-536h-70l-13 71h-4q-25 -42 -68 -61.5t-92 -19.5q-90 0 -136.5 46.5t-46.5 148.5v351h88v-345q0 -128 110 -128q82 0 113.5 50t31.5 144v279h87zM466 735q-6 -59 -33 -93.5t-71 -34.5q-26 0 -51 14t-48 28.5t-44 14.5q-22 0 -33.5 -14.5t-17.5 -43.5h-50
q6 59 33 93.5t72 34.5q27 0 52.5 -14.5t48 -28.5t42.5 -14q21 0 32.5 14.5t18.5 43.5h49z" />
    <glyph glyph-name="Umacron" unicode="&#x16a;" horiz-adv-x="689" 
d="M604 714v-462q0 -74 -28.5 -133.5t-87 -94t-147.5 -34.5q-126 0 -191.5 72.5t-65.5 191.5v460h89v-463q0 -87 43 -135t130 -48q89 0 129 51.5t40 132.5v462h89zM485 855v-71h-282v71h282z" />
    <glyph glyph-name="umacron" unicode="&#x16b;" horiz-adv-x="583" 
d="M504 536v-536h-70l-13 71h-4q-25 -42 -68 -61.5t-92 -19.5q-90 0 -136.5 46.5t-46.5 148.5v351h88v-345q0 -128 110 -128q82 0 113.5 50t31.5 144v279h87zM432 677v-71h-282v71h282z" />
    <glyph glyph-name="Ubreve" unicode="&#x16c;" horiz-adv-x="689" 
d="M604 714v-462q0 -74 -28.5 -133.5t-87 -94t-147.5 -34.5q-126 0 -191.5 72.5t-65.5 191.5v460h89v-463q0 -87 43 -135t130 -48q89 0 129 51.5t40 132.5v462h89zM494 918q-5 -60 -44 -97t-107 -37q-71 0 -107 36t-40 98h53q4 -41 28 -52t67 -11q37 0 64 12t32 51h54z" />
    <glyph glyph-name="ubreve" unicode="&#x16d;" horiz-adv-x="583" 
d="M504 536v-536h-70l-13 71h-4q-25 -42 -68 -61.5t-92 -19.5q-90 0 -136.5 46.5t-46.5 148.5v351h88v-345q0 -128 110 -128q82 0 113.5 50t31.5 144v279h87zM441 740q-5 -60 -44 -97t-107 -37q-71 0 -107 36t-40 98h53q4 -41 28 -52t67 -11q37 0 64 12t32 51h54z" />
    <glyph glyph-name="Uring" unicode="&#x16e;" horiz-adv-x="689" 
d="M604 714v-462q0 -74 -28.5 -133.5t-87 -94t-147.5 -34.5q-126 0 -191.5 72.5t-65.5 191.5v460h89v-463q0 -87 43 -135t130 -48q89 0 129 51.5t40 132.5v462h89zM344 784q-46 0 -74.5 28t-28.5 78t28.5 77.5t74.5 27.5q45 0 75.5 -27.5t30.5 -76.5q0 -51 -30 -79t-76 -28z
M344 834q23 0 37.5 15t14.5 41t-14.5 41t-37.5 15q-22 0 -37 -15t-15 -41t13.5 -41t38.5 -15z" />
    <glyph glyph-name="uring" unicode="&#x16f;" horiz-adv-x="583" 
d="M504 536v-536h-70l-13 71h-4q-25 -42 -68 -61.5t-92 -19.5q-90 0 -136.5 46.5t-46.5 148.5v351h88v-345q0 -128 110 -128q82 0 113.5 50t31.5 144v279h87zM291 606q-46 0 -74.5 28t-28.5 78t28.5 77.5t74.5 27.5q45 0 75.5 -27.5t30.5 -76.5q0 -51 -30 -79t-76 -28z
M291 656q23 0 37.5 15t14.5 41t-14.5 41t-37.5 15q-22 0 -37 -15t-15 -41t13.5 -41t38.5 -15z" />
    <glyph glyph-name="Uhungarumlaut" unicode="&#x170;" horiz-adv-x="689" 
d="M604 714v-462q0 -74 -28.5 -133.5t-87 -94t-147.5 -34.5q-126 0 -191.5 72.5t-65.5 191.5v460h89v-463q0 -87 43 -135t130 -48q89 0 129 51.5t40 132.5v462h89zM516 944v-10q-10 -18 -32 -46.5t-48 -57t-47 -46.5h-49v12q19 28 43 71t39 77h94zM349 944v-10
q-10 -18 -32 -46.5t-48 -57t-47 -46.5h-49v12q20 28 43.5 71t38.5 77h94z" />
    <glyph glyph-name="uhungarumlaut" unicode="&#x171;" horiz-adv-x="583" 
d="M504 536v-536h-70l-13 71h-4q-25 -42 -68 -61.5t-92 -19.5q-90 0 -136.5 46.5t-46.5 148.5v351h88v-345q0 -128 110 -128q82 0 113.5 50t31.5 144v279h87zM463 766v-10q-10 -18 -32 -46.5t-48 -57t-47 -46.5h-49v12q19 28 43 71t39 77h94zM296 766v-10q-10 -18 -32 -46.5
t-48 -57t-47 -46.5h-49v12q20 28 43.5 71t38.5 77h94z" />
    <glyph glyph-name="Uogonek" unicode="&#x172;" horiz-adv-x="731" 
d="M435 -107q0 -29 12 -41.5t33 -12.5q16 0 28 2.5t20 3.5v-56q-14 -4 -28 -6.5t-34 -2.5q-53 0 -78 26t-25 77q0 30 15.5 60t36.5 54q-35 -7 -74 -7q-126 0 -191.5 72.5t-65.5 191.5v460h89v-463q0 -87 43 -135t130 -48q89 0 129 51.5t40 132.5v462h89v-462
q0 -62 -20 -114.5t-62 -88.5q-44 -51 -65.5 -86t-21.5 -70z" />
    <glyph glyph-name="uogonek" unicode="&#x173;" horiz-adv-x="583" 
d="M504 536v-536h-70l-13 71h-4q-25 -42 -68 -61.5t-92 -19.5q-90 0 -136.5 46.5t-46.5 148.5v351h88v-345q0 -128 110 -128q82 0 113.5 50t31.5 144v279h87zM433 -116q0 -45 42 -45q15 0 26.5 2.5t18.5 3.5v-56q-13 -4 -26.5 -6.5t-32.5 -2.5q-50 0 -74 25t-24 69
q0 28 14 55.5t34 49.5t40 36l46 -15q-32 -32 -48 -58.5t-16 -57.5z" />
    <glyph glyph-name="Wcircumflex" unicode="&#x174;" horiz-adv-x="876" 
d="M865 714l-178 -714h-91l-127 468q-8 28 -15.5 57.5t-12.5 52t-6 31.5q-2 -13 -11 -55.5t-21 -88.5l-124 -465h-92l-177 714h93l103 -436q10 -46 18 -89t13 -81q5 39 14.5 85t21.5 90l116 431h92l121 -434q13 -46 22 -92t14 -80q4 37 13 80.5t20 90.5l102 435h92zM482 944
q12 -22 33 -49.5t44 -54t41 -45.5v-11h-61q-25 16 -51 39.5t-52 50.5q-26 -27 -51 -50.5t-50 -39.5h-59v11q18 19 40 45.5t43 54t33 49.5h90z" />
    <glyph glyph-name="wcircumflex" unicode="&#x175;" horiz-adv-x="743" 
d="M492 1l-83 302q-11 41 -21.5 80t-14.5 62h-4q-4 -23 -13.5 -62t-21.5 -81l-87 -301h-98l-139 536h90l69 -286q11 -43 19.5 -87t12.5 -73h4q3 17 8.5 42t12 52.5t12.5 49.5l87 302h96l84 -302q10 -35 19.5 -75t13.5 -68h3q3 25 13 69t21 90l70 286h88l-140 -536h-101z
M416 766q12 -22 33 -49.5t44 -54t41 -45.5v-11h-61q-25 16 -51 39.5t-52 50.5q-26 -27 -51 -50.5t-50 -39.5h-59v11q18 19 40 45.5t43 54t33 49.5h90z" />
    <glyph glyph-name="Ycircumflex" unicode="&#x176;" horiz-adv-x="536" 
d="M268 363l172 351h96l-223 -437v-277h-89v273l-224 441h97zM312 944q12 -22 33 -49.5t44 -54t41 -45.5v-11h-61q-25 16 -51 39.5t-52 50.5q-26 -27 -51 -50.5t-50 -39.5h-59v11q18 19 40 45.5t43 54t33 49.5h90z" />
    <glyph glyph-name="ycircumflex" unicode="&#x177;" horiz-adv-x="484" 
d="M1 536h94l107 -305q14 -41 25 -77t16 -69h3q6 25 17 65.5t25 81.5l101 304h95l-217 -610q-27 -76 -70 -121t-116 -45q-23 0 -40 2.5t-29 5.5v70q10 -2 25 -4t31 -2q43 0 69.5 26t41.5 69l25 71zM286 766q12 -22 33 -49.5t44 -54t41 -45.5v-11h-61q-25 16 -51 39.5
t-52 50.5q-26 -27 -51 -50.5t-50 -39.5h-59v11q18 19 40 45.5t43 54t33 49.5h90z" />
    <glyph glyph-name="Ydieresis" unicode="&#x178;" horiz-adv-x="536" 
d="M268 363l172 351h96l-223 -437v-277h-89v273l-224 441h97zM134 859q0 26 13.5 37.5t32.5 11.5q18 0 31.5 -11.5t13.5 -37.5q0 -25 -13.5 -37.5t-31.5 -12.5q-19 0 -32.5 12.5t-13.5 37.5zM311 859q0 26 13.5 37.5t31.5 11.5q19 0 32.5 -11.5t13.5 -37.5
q0 -25 -13.5 -37.5t-32.5 -12.5q-18 0 -31.5 12.5t-13.5 37.5z" />
    <glyph glyph-name="Zacute" unicode="&#x179;" horiz-adv-x="539" 
d="M503 0h-468v68l351 566h-340v80h448v-68l-351 -566h360v-80zM400 944v-10q-13 -18 -37 -46.5t-51 -57t-50 -46.5h-57v12q14 18 31 44.5t33 54t27 49.5h104z" />
    <glyph glyph-name="zacute" unicode="&#x17a;" horiz-adv-x="443" 
d="M407 0h-371v58l268 410h-252v68h349v-66l-265 -402h271v-68zM349 766v-10q-13 -18 -37 -46.5t-51 -57t-50 -46.5h-57v12q14 18 31 44.5t33 54t27 49.5h104z" />
    <glyph glyph-name="Zdotaccent" unicode="&#x17b;" horiz-adv-x="539" 
d="M503 0h-468v68l351 566h-340v80h448v-68l-351 -566h360v-80zM273 915q20 0 35 -13.5t15 -42.5t-15 -42.5t-35 -13.5q-21 0 -36 13.5t-15 42.5t15 42.5t36 13.5z" />
    <glyph glyph-name="zdotaccent" unicode="&#x17c;" horiz-adv-x="443" 
d="M407 0h-371v58l268 410h-252v68h349v-66l-265 -402h271v-68zM222 737q20 0 35 -13.5t15 -42.5t-15 -42.5t-35 -13.5q-21 0 -36 13.5t-15 42.5t15 42.5t36 13.5z" />
    <glyph glyph-name="Zcaron" unicode="&#x17d;" horiz-adv-x="539" 
d="M503 0h-468v68l351 566h-340v80h448v-68l-351 -566h360v-80zM435 944v-13q-18 -19 -41 -45t-44 -53t-33 -49h-90q-12 22 -33 49t-43.5 53t-39.5 45v13h59q25 -17 51.5 -41t49.5 -51q26 27 52 51t51 41h61z" />
    <glyph glyph-name="zcaron" unicode="&#x17e;" horiz-adv-x="443" 
d="M407 0h-371v58l268 410h-252v68h349v-66l-265 -402h271v-68zM384 766v-13q-18 -19 -41 -45t-44 -53t-33 -49h-90q-12 22 -33 49t-43.5 53t-39.5 45v13h59q25 -17 51.5 -41t49.5 -51q26 27 52 51t51 41h61z" />
    <glyph glyph-name="longs" unicode="&#x17f;" horiz-adv-x="310" 
d="M247 692q-38 0 -59.5 -26t-21.5 -89v-577h-87v577q0 103 45.5 145.5t121.5 42.5q31 0 54.5 -5.5t42.5 -13.5l-22 -69q-15 5 -35 10t-39 5z" />
    <glyph glyph-name="florin" unicode="&#x192;" horiz-adv-x="538" 
d="M382 724q31 0 56 -7t43 -14l-22 -68q-15 5 -34 10.5t-39 5.5q-40 0 -58 -23.5t-18 -84.5v-69h125v-68h-124v-470q0 -98 -40.5 -137t-116.5 -39q-18 0 -35.5 2.5t-30.5 6.5v73q14 -4 28.5 -6.5t30.5 -2.5q38 0 56.5 22t18.5 81v470h-97v41l97 30v65q0 104 42 143t118 39z
" />
    <glyph glyph-name="Aringacute" unicode="&#x1fa;" horiz-adv-x="605" 
d="M256 829v9q20 24 42.5 58t37.5 62h104v-8q-10 -14 -32 -37t-47.5 -46t-46.5 -38h-58zM0 0l242 608q-21 13 -33 35.5t-12 54.5q0 50 29 78t75 28q44 0 75 -28t31 -77q0 -31 -11.5 -54t-31.5 -36l241 -609h-92l-75 192h-275l-71 -192h-92zM301 642q23 0 37.5 14.5
t14.5 41.5t-14.5 41.5t-37.5 14.5t-37.5 -14.5t-14.5 -41.5q0 -26 13.5 -41t38.5 -15zM193 272h220l-77 207q-7 18 -16.5 46t-17.5 55q-8 -27 -17.5 -56.5t-15.5 -45.5z" />
    <glyph glyph-name="aringacute" unicode="&#x1fb;" horiz-adv-x="531" 
d="M422 958v-6q-10 -12 -36.5 -30t-56.5 -36t-51 -30h-62v8q20 19 42.5 45.5t37.5 48.5h126zM269 817q45 0 75.5 -27.5t30.5 -76.5q0 -51 -30 -79t-76 -28t-74.5 28t-28.5 78t28.5 77.5t74.5 27.5zM269 768q-22 0 -37 -15t-15 -41t13.5 -41t38.5 -15q23 0 37.5 15t14.5 41
t-14.5 41t-37.5 15zM272 545q92 0 137.5 -43t45.5 -137v-365h-63l-17 76h-4q-33 -44 -69 -65t-100 -21q-68 0 -113.5 38.5t-45.5 120.5q0 80 59 123.5t182 47.5l85 3v32q0 67 -26.5 93t-75.5 26q-39 0 -75 -12.5t-67 -28.5l-27 66q34 19 79 32.5t95 13.5zM369 262l-73 -3
q-92 -4 -127.5 -32t-35.5 -79q0 -45 25 -66t65 -21q62 0 104 37.5t42 115.5v48z" />
    <glyph glyph-name="AEacute" unicode="&#x1fc;" horiz-adv-x="833" 
d="M777 0h-354v221h-234l-98 -221h-92l317 714h461v-79h-265v-223h247v-78h-247v-255h265v-79zM223 301h200v333h-55zM591 944v-10q-13 -18 -37 -46.5t-51 -57t-50 -46.5h-57v12q14 18 31 44.5t33 54t27 49.5h104z" />
    <glyph glyph-name="aeacute" unicode="&#x1fd;" horiz-adv-x="816" 
d="M570 546q61 0 105.5 -30t69 -84t24.5 -126v-54h-323q2 -96 38.5 -141.5t105.5 -45.5q46 0 82.5 9.5t73.5 27.5v-77q-38 -18 -74.5 -26.5t-84.5 -8.5q-133 0 -192 113q-33 -52 -76 -82.5t-116 -30.5q-68 0 -114 38.5t-46 120.5q0 164 229 171l85 3v34q0 65 -28.5 91
t-74.5 26q-38 0 -74 -12t-67 -29l-27 66q34 19 81 32.5t93 13.5q58 0 96.5 -20.5t58.5 -65.5q25 41 64.5 64t90.5 23zM569 474q-54 0 -85.5 -39.5t-36.5 -113.5h231q0 69 -27 111t-82 42zM355 262l-69 -3q-86 -4 -119.5 -32t-33.5 -79q0 -45 23.5 -66t62.5 -21q58 0 97 37.5
t39 115.5v48zM542 766v-10q-13 -18 -37 -46.5t-51 -57t-50 -46.5h-57v12q14 18 31 44.5t33 54t27 49.5h104z" />
    <glyph glyph-name="Oslashacute" unicode="&#x1fe;" horiz-adv-x="735" 
d="M678 358q0 -111 -35 -193.5t-104 -128.5t-171 -46q-105 0 -172 47l-45 -68l-59 40l48 74q-42 49 -62.5 119t-20.5 157q0 109 34 191.5t103.5 128.5t174.5 46q49 0 90.5 -12t75.5 -33l43 66l59 -41l-47 -71q88 -99 88 -276zM151 358q0 -125 43 -198l294 451
q-47 35 -119 35q-113 0 -165.5 -76.5t-52.5 -211.5zM584 358q0 63 -11.5 114t-34.5 88l-295 -454q24 -18 55.5 -28t69.5 -10q112 0 164 77.5t52 212.5zM496 976v-10q-13 -18 -37 -46.5t-51 -57t-50 -46.5h-57v12q14 18 31 44.5t33 54t27 49.5h104z" />
    <glyph glyph-name="oslashacute" unicode="&#x1ff;" horiz-adv-x="570" 
d="M520 269q0 -133 -64 -206t-173 -73q-67 0 -120 33l-37 -56l-56 39l42 62q-29 36 -45 86t-16 115q0 133 63 205t172 72q68 0 123 -36l35 56l57 -38l-41 -63q28 -35 44 -84.5t16 -111.5zM141 269q0 -38 5 -70.5t16 -57.5l203 306q-33 25 -81 25q-75 0 -109 -54t-34 -149z
M430 269q0 75 -21 123l-202 -306q32 -23 78 -23q75 0 110 55.5t35 150.5zM412 796v-10q-13 -18 -37 -46.5t-51 -57t-50 -46.5h-57v12q14 18 31 44.5t33 54t27 49.5h104z" />
    <glyph glyph-name="uni0218" unicode="&#x218;" horiz-adv-x="517" 
d="M473 191q0 -95 -65 -148t-175 -53q-56 0 -104.5 9t-80.5 25v86q35 -16 85.5 -29t103.5 -13q73 0 110 31t37 84q0 35 -14.5 59t-48.5 44t-93 44q-83 33 -127.5 81t-44.5 131q0 56 27.5 97t76 63t112.5 22q55 0 101 -11t85 -29l-28 -77q-36 16 -76.5 27t-83.5 11
q-62 0 -93 -28.5t-31 -75.5q0 -36 14 -60t46 -43.5t85 -40.5q59 -23 99.5 -49.5t61.5 -63.5t21 -93zM292 -61v-9q-5 -18 -16 -45.5t-26.5 -56t-32.5 -49.5h-48v12q7 17 15 43.5t14.5 55t8.5 49.5h85z" />
    <glyph glyph-name="uni0219" unicode="&#x219;" horiz-adv-x="452" 
d="M410 148q0 -78 -54 -118t-148 -40q-53 0 -91.5 9t-67.5 25v80q31 -16 74 -29.5t87 -13.5q61 0 88.5 21.5t27.5 57.5q0 20 -10.5 36t-37 32t-76.5 36q-48 20 -82.5 40t-53 48t-18.5 72q0 68 52 105t138 37q46 0 86 -10t76 -26l-29 -70q-32 14 -67 24t-71 10
q-49 0 -75 -17.5t-26 -47.5q0 -23 12 -38.5t39.5 -30t75.5 -33.5t81.5 -39t51.5 -48.5t18 -71.5zM276 -61v-9q-5 -18 -16 -45.5t-26.5 -56t-32.5 -49.5h-48v12q7 17 15 43.5t14.5 55t8.5 49.5h85z" />
    <glyph glyph-name="circumflex" unicode="&#x2c6;" horiz-adv-x="404" 
d="M246 766q12 -22 33 -49.5t44 -54t41 -45.5v-11h-61q-25 16 -51 39.5t-52 50.5q-26 -27 -51 -50.5t-50 -39.5h-59v11q18 19 40 45.5t43 54t33 49.5h90z" />
    <glyph glyph-name="caron" unicode="&#x2c7;" horiz-adv-x="404" 
d="M364 766v-13q-18 -19 -41 -45t-44 -53t-33 -49h-90q-12 22 -33 49t-43.5 53t-39.5 45v13h59q25 -17 51.5 -41t49.5 -51q26 27 52 51t51 41h61z" />
    <glyph glyph-name="macron" unicode="&#x2c9;" horiz-adv-x="362" 
d="M322 677v-71h-282v71h282z" />
    <glyph glyph-name="breve" unicode="&#x2d8;" horiz-adv-x="378" 
d="M338 740q-5 -60 -44 -97t-107 -37q-71 0 -107 36t-40 98h53q4 -41 28 -52t67 -11q37 0 64 12t32 51h54z" />
    <glyph glyph-name="dotaccent" unicode="&#x2d9;" horiz-adv-x="181" 
d="M91 737q20 0 35 -13.5t15 -42.5t-15 -42.5t-35 -13.5q-21 0 -36 13.5t-15 42.5t15 42.5t36 13.5z" />
    <glyph glyph-name="ring" unicode="&#x2da;" horiz-adv-x="289" 
d="M143 606q-46 0 -74.5 28t-28.5 78t28.5 77.5t74.5 27.5q45 0 75.5 -27.5t30.5 -76.5q0 -51 -30 -79t-76 -28zM143 656q23 0 37.5 15t14.5 41t-14.5 41t-37.5 15q-22 0 -37 -15t-15 -41t13.5 -41t38.5 -15z" />
    <glyph glyph-name="ogonek" unicode="&#x2db;" horiz-adv-x="237" 
d="M110 -116q0 -45 42 -45q15 0 26.5 2.5t18.5 3.5v-56q-13 -4 -26.5 -6.5t-32.5 -2.5q-50 0 -74 25t-24 69q0 28 14 55.5t34 49.5t40 36l46 -15q-32 -32 -48 -58.5t-16 -57.5z" />
    <glyph glyph-name="tilde" unicode="&#x2dc;" horiz-adv-x="428" 
d="M388 735q-6 -59 -33 -93.5t-71 -34.5q-26 0 -51 14t-48 28.5t-44 14.5q-22 0 -33.5 -14.5t-17.5 -43.5h-50q6 59 33 93.5t72 34.5q27 0 52.5 -14.5t48 -28.5t42.5 -14q21 0 32.5 14.5t18.5 43.5h49z" />
    <glyph glyph-name="hungarumlaut" unicode="&#x2dd;" horiz-adv-x="423" 
d="M383 766v-10q-10 -18 -32 -46.5t-48 -57t-47 -46.5h-49v12q19 28 43 71t39 77h94zM216 766v-10q-10 -18 -32 -46.5t-48 -57t-47 -46.5h-49v12q20 28 43.5 71t38.5 77h94z" />
    <glyph glyph-name="tonos" unicode="&#x384;" horiz-adv-x="542" 
d="M237 606v14q9 24 17 57t14.5 67t10.5 61h91v-11q-6 -22 -18.5 -55.5t-29 -69t-33.5 -63.5h-52z" />
    <glyph glyph-name="dieresistonos" unicode="&#x385;" horiz-adv-x="542" 
d="M367 838v-10q-15 -32 -40.5 -73.5t-51.5 -76.5h-42v12q11 30 22.5 72t18.5 76h93zM166 730q19 0 32 -11.5t13 -37.5q0 -25 -13 -37.5t-32 -12.5t-31.5 12.5t-12.5 37.5q0 26 12.5 37.5t31.5 11.5zM376 730q17 0 30.5 -11.5t13.5 -37.5q0 -25 -13.5 -37.5t-30.5 -12.5
q-20 0 -32.5 12.5t-12.5 37.5q0 26 12.5 37.5t32.5 11.5z" />
    <glyph glyph-name="Alphatonos" unicode="&#x386;" horiz-adv-x="604" 
d="M511 0l-78 221h-265l-77 -221h-91l260 717h84l259 -717h-92zM407 301l-74 216q-3 8 -9 29t-13 43.5t-10 34.5q-7 -31 -15.5 -60.5t-14.5 -46.5l-74 -216h210zM-7 553v14q9 24 17 57t14.5 67t10.5 61h91v-11q-6 -22 -18.5 -55.5t-29 -69t-33.5 -63.5h-52z" />
    <glyph glyph-name="anoteleia" unicode="&#x387;" horiz-adv-x="268" 
d="M74 483q0 37 17 52t42 15t43 -15t18 -52q0 -36 -18 -52t-43 -16t-42 16t-17 52z" />
    <glyph glyph-name="Epsilontonos" unicode="&#x388;" horiz-adv-x="608" 
d="M552 0h-376v714h376v-79h-287v-223h270v-78h-270v-255h287v-79zM-17 553v14q9 24 17 57t14.5 67t10.5 61h91v-11q-6 -22 -18.5 -55.5t-29 -69t-33.5 -63.5h-52z" />
    <glyph glyph-name="Etatonos" unicode="&#x389;" horiz-adv-x="784" 
d="M692 0h-89v333h-338v-333h-89v714h89v-302h338v302h89v-714zM-17 553v14q9 24 17 57t14.5 67t10.5 61h91v-11q-6 -22 -18.5 -55.5t-29 -69t-33.5 -63.5h-52z" />
    <glyph glyph-name="Iotatonos" unicode="&#x38a;" horiz-adv-x="447" 
d="M409 0h-247v52l79 19v571l-79 20v52h247v-52l-79 -20v-571l79 -19v-52zM-17 553v14q9 24 17 57t14.5 67t10.5 61h91v-11q-6 -22 -18.5 -55.5t-29 -69t-33.5 -63.5h-52z" />
    <glyph glyph-name="Omicrontonos" unicode="&#x38c;" horiz-adv-x="781" 
d="M724 358q0 -111 -35 -193.5t-104 -128.5t-171 -46q-105 0 -174 46t-103 129t-34 194q0 109 34 191.5t103.5 128.5t174.5 46q101 0 170 -45.5t104 -128t35 -193.5zM197 358q0 -135 52.5 -212.5t164.5 -77.5t164 77.5t52 212.5t-51.5 211.5t-163.5 76.5
q-113 0 -165.5 -76.5t-52.5 -211.5zM-17 553v14q9 24 17 57t14.5 67t10.5 61h91v-11q-6 -22 -18.5 -55.5t-29 -69t-33.5 -63.5h-52z" />
    <glyph glyph-name="Upsilontonos" unicode="&#x38e;" horiz-adv-x="691" 
d="M423 363l172 351h96l-223 -437v-277h-89v273l-224 441h97zM-17 553v14q9 24 17 57t14.5 67t10.5 61h91v-11q-6 -22 -18.5 -55.5t-29 -69t-33.5 -63.5h-52z" />
    <glyph glyph-name="Omegatonos" unicode="&#x38f;" horiz-adv-x="772" 
d="M405 646q-110 0 -162.5 -65.5t-52.5 -179.5q0 -100 34.5 -181t119.5 -148v-72h-272v79h168q-61 49 -102.5 131t-41.5 194q0 98 36 170t105.5 111.5t167.5 39.5q100 0 168.5 -39t104.5 -111t36 -170q0 -113 -41 -195t-101 -131h166v-79h-272v72q86 66 120.5 148t34.5 181
q0 114 -52.5 179.5t-163.5 65.5zM-24 554v14q9 24 17 57t14.5 67t10.5 61h91v-11q-6 -22 -18.5 -55.5t-29 -69t-33.5 -63.5h-52z" />
    <glyph glyph-name="iotadieresistonos" unicode="&#x390;" horiz-adv-x="330" 
d="M163 536v-378q0 -96 72 -96q20 0 42.5 3.5t35.5 7.5v-67q-14 -7 -39.5 -11.5t-51.5 -4.5q-42 0 -75 14.5t-51.5 51t-18.5 101.5v379h86zM221 838v-10q-15 -32 -40.5 -73.5t-51.5 -76.5h-42v12q11 30 22.5 72t18.5 76h93zM20 730q19 0 32 -11.5t13 -37.5q0 -25 -13 -37.5
t-32 -12.5t-31.5 12.5t-12.5 37.5q0 26 12.5 37.5t31.5 11.5zM230 730q17 0 30.5 -11.5t13.5 -37.5q0 -25 -13.5 -37.5t-30.5 -12.5q-20 0 -32.5 12.5t-12.5 37.5q0 26 12.5 37.5t32.5 11.5z" />
    <glyph glyph-name="Alpha" unicode="&#x391;" horiz-adv-x="604" 
d="M511 0l-78 221h-265l-77 -221h-91l260 717h84l259 -717h-92zM407 301l-74 216q-3 8 -9 29t-13 43.5t-10 34.5q-7 -31 -15.5 -60.5t-14.5 -46.5l-74 -216h210z" />
    <glyph glyph-name="Beta" unicode="&#x392;" horiz-adv-x="613" 
d="M91 714h193q126 0 191 -40t65 -137q0 -63 -32 -104.5t-94 -53.5v-5q42 -8 75.5 -27t53 -54t19.5 -90q0 -97 -62.5 -150t-171.5 -53h-237v714zM180 410h121q84 0 115.5 29.5t31.5 87.5q0 59 -38.5 84.5t-121.5 25.5h-108v-227zM180 335v-259h132q87 0 121.5 37t34.5 97
q0 56 -35.5 90.5t-126.5 34.5h-126z" />
    <glyph glyph-name="Gamma" unicode="&#x393;" horiz-adv-x="495" 
d="M473 714v-80h-293v-634h-89v714h382z" />
    <glyph glyph-name="uni0394" unicode="&#x394;" horiz-adv-x="551" 
d="M320 714l212 -660v-54h-513v55l211 659h90zM435 79l-117 372q-14 45 -25 87t-19 78q-8 -36 -18 -77.5t-24 -84.5l-118 -375h321z" />
    <glyph glyph-name="Epsilon" unicode="&#x395;" horiz-adv-x="523" 
d="M467 0h-376v714h376v-79h-287v-223h270v-78h-270v-255h287v-79z" />
    <glyph glyph-name="Zeta" unicode="&#x396;" horiz-adv-x="539" 
d="M503 0h-468v68l351 566h-340v80h448v-68l-351 -566h360v-80z" />
    <glyph glyph-name="Eta" unicode="&#x397;" horiz-adv-x="699" 
d="M607 0h-89v333h-338v-333h-89v714h89v-302h338v302h89v-714z" />
    <glyph glyph-name="Theta" unicode="&#x398;" horiz-adv-x="781" 
d="M678 358q0 -111 -35 -193.5t-104 -128.5t-171 -46q-105 0 -174 46t-103 129t-34 194q0 109 34 191.5t103.5 128.5t174.5 46q101 0 170 -45.5t104 -128t35 -193.5zM151 358q0 -135 52.5 -212.5t164.5 -77.5t164 77.5t52 212.5t-51.5 211.5t-163.5 76.5
q-113 0 -165.5 -76.5t-52.5 -211.5zM522 402v-78h-302v78h302z" />
    <glyph glyph-name="Iota" unicode="&#x399;" horiz-adv-x="322" 
d="M284 0h-247v52l79 19v571l-79 20v52h247v-52l-79 -20v-571l79 -19v-52z" />
    <glyph glyph-name="Kappa" unicode="&#x39a;" horiz-adv-x="585" 
d="M585 0h-104l-233 341l-68 -64v-277h-89v714h89v-352q27 34 55 68l56 68l181 216h104l-264 -311z" />
    <glyph glyph-name="Lambda" unicode="&#x39b;" horiz-adv-x="575" 
d="M333 714l241 -714h-94l-146 450q-15 46 -27.5 88t-20.5 78q-8 -36 -20.5 -78t-26.5 -87l-145 -451h-94l240 714h93z" />
    <glyph glyph-name="Mu" unicode="&#x39c;" horiz-adv-x="856" 
d="M386 0l-216 626h-4q3 -31 5 -83.5t2 -109.5v-433h-82v714h130l203 -585h4l207 585h130v-714h-88v439q0 52 2.5 103t4.5 83h-4l-220 -625h-74z" />
    <glyph glyph-name="Nu" unicode="&#x39d;" horiz-adv-x="719" 
d="M628 0h-105l-354 593h-4q2 -35 5 -87t3 -107v-399h-82v714h104l353 -591h4q-1 16 -2.5 48t-3 69.5t-1.5 70.5v403h83v-714z" />
    <glyph glyph-name="Xi" unicode="&#x39e;" horiz-adv-x="522" 
d="M52 635v79h418v-79h-418zM89 334v78h343v-78h-343zM33 0v79h455v-79h-455z" />
    <glyph glyph-name="Omicron" unicode="&#x39f;" horiz-adv-x="735" 
d="M678 358q0 -111 -35 -193.5t-104 -128.5t-171 -46q-105 0 -174 46t-103 129t-34 194q0 109 34 191.5t103.5 128.5t174.5 46q101 0 170 -45.5t104 -128t35 -193.5zM151 358q0 -135 52.5 -212.5t164.5 -77.5t164 77.5t52 212.5t-51.5 211.5t-163.5 76.5
q-113 0 -165.5 -76.5t-52.5 -211.5z" />
    <glyph glyph-name="Pi" unicode="&#x3a0;" horiz-adv-x="689" 
d="M91 0v714h506v-714h-88v635h-329v-635h-89z" />
    <glyph glyph-name="Rho" unicode="&#x3a1;" horiz-adv-x="571" 
d="M271 714q132 0 192 -55t60 -155q0 -59 -25 -110.5t-83.5 -83.5t-158.5 -32h-76v-278h-89v714h180zM264 637h-84v-282h66q93 0 139 33t46 112q0 69 -40.5 103t-126.5 34z" />
    <glyph glyph-name="Sigma" unicode="&#x3a3;" horiz-adv-x="537" 
d="M34 0v74l220 299l-214 266v75h447v-80h-237h-35.5h-42t-31.5 1l211 -261l-221 -296q35 0 70.5 0.5t72.5 0.5h240v-79h-480z" />
    <glyph glyph-name="Tau" unicode="&#x3a4;" horiz-adv-x="524" 
d="M307 0h-89v635h-208v79h503v-79h-206v-635z" />
    <glyph glyph-name="Upsilon" unicode="&#x3a5;" horiz-adv-x="536" 
d="M268 363l172 351h96l-223 -437v-277h-89v273l-224 441h97z" />
    <glyph glyph-name="Phi" unicode="&#x3a6;" horiz-adv-x="760" 
d="M424 724v-88q109 -2 172 -38t89.5 -96t26.5 -132q0 -48 -14 -95.5t-46.5 -86t-88 -62.5t-139.5 -26v-110h-88v110q-86 2 -141.5 26.5t-88 64t-45.5 86.5t-13 93q0 70 27 130t90 97t171 39v88h88zM336 560q-74 -2 -118 -26t-62.5 -66t-18.5 -97q0 -89 47.5 -141t151.5 -56
v386zM424 560v-386q106 4 152.5 57.5t46.5 139.5q0 57 -18.5 98.5t-62.5 65t-118 25.5z" />
    <glyph glyph-name="Chi" unicode="&#x3a7;" horiz-adv-x="556" 
d="M553 0h-101l-176 310l-179 -310h-94l223 372l-209 342h99l163 -280l164 280h94l-208 -340z" />
    <glyph glyph-name="Psi" unicode="&#x3a8;" horiz-adv-x="761" 
d="M711 714v-235q0 -51 -13.5 -98t-46 -84t-88.5 -58.5t-140 -21.5v-217h-86v217q-85 0 -141 22t-88 59t-45 83.5t-13 96.5v236h88v-234q0 -93 48 -139.5t151 -46.5v420h86v-420q105 0 151.5 46.5t46.5 137.5v236h90z" />
    <glyph glyph-name="uni03A9" unicode="&#x3a9;" horiz-adv-x="735" 
d="M368 646q-110 0 -162.5 -65.5t-52.5 -179.5q0 -100 34.5 -181t119.5 -148v-72h-272v79h168q-61 49 -102.5 131t-41.5 194q0 98 36 170t105.5 111.5t167.5 39.5q100 0 168.5 -39t104.5 -111t36 -170q0 -113 -41 -195t-101 -131h166v-79h-272v72q86 66 120.5 148t34.5 181
q0 114 -52.5 179.5t-163.5 65.5z" />
    <glyph glyph-name="Iotadieresis" unicode="&#x3aa;" horiz-adv-x="322" 
d="M284 0h-247v52l79 19v571l-79 20v52h247v-52l-79 -20v-571l79 -19v-52zM28 859q0 26 13.5 37.5t32.5 11.5q18 0 31.5 -11.5t13.5 -37.5q0 -25 -13.5 -37.5t-31.5 -12.5q-19 0 -32.5 12.5t-13.5 37.5zM205 859q0 26 13.5 37.5t31.5 11.5q19 0 32.5 -11.5t13.5 -37.5
q0 -25 -13.5 -37.5t-32.5 -12.5q-18 0 -31.5 12.5t-13.5 37.5z" />
    <glyph glyph-name="Upsilondieresis" unicode="&#x3ab;" horiz-adv-x="536" 
d="M268 363l172 351h96l-223 -437v-277h-89v273l-224 441h97zM134 859q0 26 13.5 37.5t32.5 11.5q18 0 31.5 -11.5t13.5 -37.5q0 -25 -13.5 -37.5t-31.5 -12.5q-19 0 -32.5 12.5t-13.5 37.5zM311 859q0 26 13.5 37.5t31.5 11.5q19 0 32.5 -11.5t13.5 -37.5
q0 -25 -13.5 -37.5t-32.5 -12.5q-18 0 -31.5 12.5t-13.5 37.5z" />
    <glyph glyph-name="alphatonos" unicode="&#x3ac;" horiz-adv-x="581" 
d="M257 -10q-92 0 -149 69.5t-57 206.5q0 136 56.5 208t157.5 72q55 0 92 -21t62 -61h5q4 17 12 37t19 35h68q-7 -22 -12.5 -58t-8.5 -76t-3 -76v-208q0 -31 11.5 -43.5t27.5 -12.5q7 0 15.5 2t12.5 3v-64q-8 -5 -23 -9t-31 -4q-35 0 -58 18t-33 64h-7q-22 -34 -58 -58
t-99 -24zM274 63q76 0 108 47.5t32 150.5v6q0 100 -30.5 152.5t-110.5 52.5q-68 0 -100 -53t-32 -154t32 -151.5t101 -50.5zM255 606v14q9 24 17 57t14.5 67t10.5 61h91v-11q-6 -22 -18.5 -55.5t-29 -69t-33.5 -63.5h-52z" />
    <glyph glyph-name="epsilontonos" unicode="&#x3ad;" horiz-adv-x="459" 
d="M338 315v-72h-70q-141 0 -141 -92q0 -49 37.5 -69t95.5 -20q52 0 93 13t72 29v-77q-29 -17 -70.5 -27t-99.5 -10q-110 0 -162.5 44.5t-52.5 111.5q0 60 33.5 89t79.5 42v5q-43 14 -68.5 43.5t-25.5 78.5q0 68 55 105t141 37q54 0 94.5 -10t77.5 -28l-32 -70
q-31 15 -64 25t-77 10q-113 0 -113 -76q0 -44 38.5 -63t104.5 -19h54zM217 606v14q9 24 17 57t14.5 67t10.5 61h91v-11q-6 -22 -18.5 -55.5t-29 -69t-33.5 -63.5h-52z" />
    <glyph glyph-name="etatonos" unicode="&#x3ae;" horiz-adv-x="584" 
d="M325 546q90 0 136.5 -47t46.5 -150v-589h-87v583q0 64 -26.5 96.5t-83.5 32.5q-82 0 -113.5 -50t-31.5 -144v-278h-87v536h70l13 -73h5q24 42 67 62.5t91 20.5zM269 606v14q9 24 17 57t14.5 67t10.5 61h91v-11q-6 -22 -18.5 -55.5t-29 -69t-33.5 -63.5h-52z" />
    <glyph glyph-name="iotatonos" unicode="&#x3af;" horiz-adv-x="330" 
d="M163 536v-378q0 -96 72 -96q20 0 42.5 3.5t35.5 7.5v-67q-14 -7 -39.5 -11.5t-51.5 -4.5q-42 0 -75 14.5t-51.5 51t-18.5 101.5v379h86zM87 606v14q9 24 17 57t14.5 67t10.5 61h91v-11q-6 -22 -18.5 -55.5t-29 -69t-33.5 -63.5h-52z" />
    <glyph glyph-name="upsilondieresistonos" unicode="&#x3b0;" horiz-adv-x="579" 
d="M290 -10q-84 0 -131 33.5t-66 91t-19 128.5v293h87v-290q0 -86 32.5 -135t102.5 -49q74 0 109 57t35 177q0 70 -7.5 125t-21.5 115h87q15 -59 22.5 -114.5t7.5 -129.5q0 -155 -60 -228.5t-178 -73.5zM386 838v-10q-15 -32 -40.5 -73.5t-51.5 -76.5h-42v12q11 30 22.5 72
t18.5 76h93zM185 730q19 0 32 -11.5t13 -37.5q0 -25 -13 -37.5t-32 -12.5t-31.5 12.5t-12.5 37.5q0 26 12.5 37.5t31.5 11.5zM395 730q17 0 30.5 -11.5t13.5 -37.5q0 -25 -13.5 -37.5t-30.5 -12.5q-20 0 -32.5 12.5t-12.5 37.5q0 26 12.5 37.5t32.5 11.5z" />
    <glyph glyph-name="alpha" unicode="&#x3b1;" horiz-adv-x="581" 
d="M257 -10q-92 0 -149 69.5t-57 206.5q0 136 56.5 208t157.5 72q55 0 92 -21t62 -61h5q4 17 12 37t19 35h68q-7 -22 -12.5 -58t-8.5 -76t-3 -76v-208q0 -31 11.5 -43.5t27.5 -12.5q7 0 15.5 2t12.5 3v-64q-8 -5 -23 -9t-31 -4q-35 0 -58 18t-33 64h-7q-22 -34 -58 -58
t-99 -24zM274 63q76 0 108 47.5t32 150.5v6q0 100 -30.5 152.5t-110.5 52.5q-68 0 -100 -53t-32 -154t32 -151.5t101 -50.5z" />
    <glyph glyph-name="beta" unicode="&#x3b2;" horiz-adv-x="595" 
d="M305 765q63 0 112.5 -21.5t77.5 -63.5t28 -106q0 -72 -37 -114t-106 -54v-4q86 -10 129.5 -59t43.5 -140q0 -103 -60.5 -158t-168.5 -55q-54 0 -91 9t-67 25v-264h-87v775q0 81 29.5 131.5t80.5 74.5t116 24zM303 692q-37 0 -68 -14t-50 -49t-19 -98v-428
q32 -18 67 -29.5t82 -11.5q79 0 115 38t36 109q0 79 -44.5 115.5t-115.5 36.5h-49v74h39q72 0 105 37t33 98q0 62 -36 92t-95 30z" />
    <glyph glyph-name="gamma" unicode="&#x3b3;" horiz-adv-x="491" 
d="M487 536l-187 -523q-14 -41 -25 -86.5t-16.5 -89t-5.5 -77.5h-93q0 28 6 70t16.5 88.5t24.5 87.5l-203 530h91l104 -281q9 -26 19.5 -58t19 -61.5t10.5 -46.5h4q3 16 11 46t17.5 62t17.5 54l99 285h90z" />
    <glyph glyph-name="delta" unicode="&#x3b4;" horiz-adv-x="569" 
d="M301 760q65 0 111.5 -17t84.5 -37l-38 -69q-35 21 -74.5 36t-86.5 15q-42 0 -61.5 -20.5t-19.5 -48.5q0 -36 28 -62.5t98 -67.5q85 -49 130.5 -107.5t45.5 -145.5q0 -120 -65 -183t-172 -63q-68 0 -120 26t-82 76t-30 122q0 64 25.5 112t70 80t99.5 50q-52 32 -84 70
t-32 94q0 69 49 104.5t123 35.5zM312 418q-28 -8 -58 -22t-55.5 -37.5t-41.5 -59t-16 -86.5q0 -66 37 -108t104 -42q70 0 108.5 44.5t38.5 127.5q0 67 -31 109.5t-86 73.5z" />
    <glyph glyph-name="epsilon" unicode="&#x3b5;" horiz-adv-x="459" 
d="M338 315v-72h-70q-141 0 -141 -92q0 -49 37.5 -69t95.5 -20q52 0 93 13t72 29v-77q-29 -17 -70.5 -27t-99.5 -10q-110 0 -162.5 44.5t-52.5 111.5q0 60 33.5 89t79.5 42v5q-43 14 -68.5 43.5t-25.5 78.5q0 68 55 105t141 37q54 0 94.5 -10t77.5 -28l-32 -70
q-31 15 -64 25t-77 10q-113 0 -113 -76q0 -44 38.5 -63t104.5 -19h54z" />
    <glyph glyph-name="zeta" unicode="&#x3b6;" horiz-adv-x="456" 
d="M432 -40q0 -44 -18 -84t-41 -71h-87q23 31 41 68t18 64q0 14 -7.5 26t-31 22.5t-72.5 19.5q-90 17 -136.5 68.5t-46.5 150.5q0 75 22.5 137.5t61.5 117.5t89 107t106 105q-5 -1 -26 -1.5t-50.5 -1.5t-60.5 -1h-114v73h353v-66q-97 -87 -155 -155.5t-87.5 -123.5t-39 -100
t-9.5 -85q0 -57 18.5 -86.5t53.5 -44t85 -25.5q74 -16 104 -43.5t30 -70.5z" />
    <glyph glyph-name="eta" unicode="&#x3b7;" horiz-adv-x="584" 
d="M325 546q90 0 136.5 -47t46.5 -150v-589h-87v583q0 64 -26.5 96.5t-83.5 32.5q-82 0 -113.5 -50t-31.5 -144v-278h-87v536h70l13 -73h5q24 42 67 62.5t91 20.5z" />
    <glyph glyph-name="theta" unicode="&#x3b8;" horiz-adv-x="561" 
d="M510 377q0 -121 -23 -207.5t-74 -133t-134 -46.5q-117 0 -172.5 103t-55.5 284q0 122 23 209t73 133t132 46q118 0 174.5 -101.5t56.5 -286.5zM279 693q-71 0 -103 -67.5t-37 -201.5h282q-5 134 -38 201.5t-104 67.5zM279 62q72 0 106 72t37 217h-283q2 -143 34.5 -216
t105.5 -73z" />
    <glyph glyph-name="iota" unicode="&#x3b9;" horiz-adv-x="330" 
d="M163 536v-378q0 -96 72 -96q20 0 42.5 3.5t35.5 7.5v-67q-14 -7 -39.5 -11.5t-51.5 -4.5q-42 0 -75 14.5t-51.5 51t-18.5 101.5v379h86z" />
    <glyph glyph-name="kappa" unicode="&#x3ba;" horiz-adv-x="508" 
d="M485 536l-192 -237l207 -299h-103l-164 242l-63 -54v-188h-91v536h91v-139q0 -40 -1.5 -78t-3.5 -58h2q9 13 19.5 26.5t19.5 24.5l176 224h103z" />
    <glyph glyph-name="lambda" unicode="&#x3bb;" horiz-adv-x="514" 
d="M-5 0l217 526l-25 75q-14 43 -32.5 67.5t-59.5 24.5q-17 0 -29.5 -2t-22.5 -4v71q13 3 30 5.5t33 2.5q50 0 80 -18t50.5 -55t39.5 -95l161 -482q18 -54 49 -54q7 0 15 2t13 3v-65q-10 -5 -24.5 -8.5t-30.5 -3.5q-37 0 -58.5 19t-35.5 63l-67 204q-8 24 -17 53.5t-17 58
t-12 47.5h-3q-8 -35 -21.5 -75t-29.5 -79l-112 -281h-91z" />
    <glyph glyph-name="uni03BC" unicode="&#x3bc;" horiz-adv-x="584" 
d="M509 536v-536h-70l-14 72h-5q-23 -40 -59.5 -61t-88.5 -21q-36 0 -62.5 12.5t-44.5 32.5h-4q2 -18 3.5 -48.5t1.5 -70.5v-156h-87v776h87v-346q0 -127 111 -127q82 0 113 50t31 144v279h88z" />
    <glyph glyph-name="nu" unicode="&#x3bd;" horiz-adv-x="517" 
d="M0 536h91l100 -289q8 -24 18.5 -57t19.5 -64.5t14 -51.5h4q56 62 88 132t45 151.5t13 178.5h86q0 -105 -17.5 -195.5t-60.5 -174t-121 -166.5h-92z" />
    <glyph glyph-name="xi" unicode="&#x3be;" horiz-adv-x="450" 
d="M50 206q0 75 39 123.5t92 65.5v6q-47 14 -73 46.5t-26 89.5q0 47 18.5 77.5t50 49t69.5 29.5q-18 -2 -49 -4t-65 -2h-27v73h329v-68h-26q-53 0 -102.5 -17t-81.5 -51t-32 -85t34 -78.5t117 -27.5h78v-67h-80q-85 0 -129.5 -44t-44.5 -109q0 -51 19.5 -77t55.5 -39t86 -24
q72 -16 101 -44.5t29 -68.5q0 -44 -18 -84t-39 -71h-83q22 31 39.5 68t17.5 65q0 14 -7.5 25.5t-31.5 22t-73 19.5q-92 17 -139.5 66t-47.5 135z" />
    <glyph glyph-name="omicron" unicode="&#x3bf;" horiz-adv-x="570" 
d="M520 269q0 -133 -64 -206t-173 -73q-67 0 -119.5 32.5t-82.5 95t-30 151.5q0 133 63 205t172 72q68 0 121 -32.5t83 -94t30 -150.5zM141 269q0 -95 34.5 -150.5t109.5 -55.5t110 55.5t35 150.5t-35 149t-111 54q-75 0 -109 -54t-34 -149z" />
    <glyph glyph-name="pi" unicode="&#x3c0;" horiz-adv-x="625" 
d="M538 62q14 0 25 3t18 7v-69q-8 -5 -25.5 -9t-39.5 -4q-107 0 -107 128v345h-209v-463h-86v463h-103v38l69 35h515v-73h-100v-339q0 -35 12 -48.5t31 -13.5z" />
    <glyph glyph-name="rho" unicode="&#x3c1;" horiz-adv-x="570" 
d="M519 268q0 -136 -59.5 -207t-162.5 -71q-80 0 -136 45h-5q2 -17 3.5 -52.5t1.5 -80.5v-142h-88v515q0 137 61.5 204t164.5 67q65 0 114.5 -32t77.5 -94t28 -152zM295 472q-134 0 -134 -198v-162q26 -25 60.5 -37t72.5 -12q72 0 104 52t32 153q0 103 -32 153.5t-103 50.5z
" />
    <glyph glyph-name="sigma1" unicode="&#x3c2;" horiz-adv-x="456" 
d="M295 546q37 0 74 -8.5t64 -20.5l-27 -73q-26 10 -55 17.5t-60 7.5q-80 0 -115 -55t-35 -160q0 -60 13.5 -94t48 -53t98.5 -33q73 -16 102 -44.5t29 -69.5q0 -44 -18 -84.5t-39 -70.5h-83q22 31 40 68t18 65q0 14 -8 25.5t-32 22t-73 20.5q-53 10 -95 36.5t-66.5 77
t-24.5 133.5q0 101 31 166t86 96t127 31z" />
    <glyph glyph-name="sigma" unicode="&#x3c3;" horiz-adv-x="582" 
d="M519 246q0 -72 -26.5 -130t-78.5 -92t-130 -34q-105 0 -169 68t-64 198q0 100 33.5 162t95.5 90t146 28h234v-73h-123q37 -37 59.5 -91t22.5 -126zM141 256q0 -85 34 -139t111 -54q76 0 110 51t34 130q0 64 -19.5 120t-56.5 99h-29q-93 0 -138.5 -47t-45.5 -160z" />
    <glyph glyph-name="tau" unicode="&#x3c4;" horiz-adv-x="454" 
d="M428 536v-74h-195v-298q0 -58 24.5 -81t63.5 -23q20 0 42.5 3t37.5 8v-66q-13 -6 -39 -11t-55 -5q-43 0 -80 13.5t-59.5 49.5t-22.5 103v307h-135v39l70 35h348z" />
    <glyph glyph-name="upsilon" unicode="&#x3c5;" horiz-adv-x="579" 
d="M290 -10q-84 0 -131 33.5t-66 91t-19 128.5v293h87v-290q0 -86 32.5 -135t102.5 -49q74 0 109 57t35 177q0 70 -7.5 125t-21.5 115h87q15 -59 22.5 -114.5t7.5 -129.5q0 -155 -60 -228.5t-178 -73.5z" />
    <glyph glyph-name="phi" unicode="&#x3c6;" horiz-adv-x="686" 
d="M148 541l66 -47q-34 -49 -55.5 -102.5t-21.5 -123.5q0 -73 22 -116.5t58 -63.5t78 -25v298q0 91 40.5 138t111.5 47q59 0 101 -33.5t64.5 -93t22.5 -138.5q0 -97 -35.5 -159.5t-93.5 -94.5t-126 -36v-231h-85v231q-69 4 -124.5 33t-87.5 89t-32 158q0 81 27.5 148.5
t69.5 121.5zM448 473q-28 0 -48 -24t-20 -87v-299q71 7 119.5 59.5t48.5 157.5q0 94 -28 143.5t-72 49.5z" />
    <glyph glyph-name="chi" unicode="&#x3c7;" horiz-adv-x="521" 
d="M87 539q48 0 71 -31.5t44 -90.5l62 -172l143 291h92l-198 -376l87 -236q17 -46 34.5 -69t51.5 -23q12 0 22.5 1t19.5 3v-68q-11 -3 -25.5 -5.5t-34.5 -2.5q-64 0 -94 36t-53 100l-65 186l-162 -322h-93l215 410l-76 213q-14 40 -29.5 62.5t-39.5 22.5q-18 0 -33 -6v69
q11 3 26 5.5t35 2.5z" />
    <glyph glyph-name="psi" unicode="&#x3c8;" horiz-adv-x="721" 
d="M406 759v-694q79 7 126.5 58t47.5 157q0 69 -8 127.5t-23 128.5h86q15 -68 22 -127.5t7 -125.5q0 -103 -35 -165.5t-93.5 -92t-129.5 -34.5v-231h-85v231q-72 3 -127.5 31t-87.5 88t-32 160v266h86v-269q0 -75 22 -118t58.5 -62t80.5 -23v695h85z" />
    <glyph glyph-name="omega" unicode="&#x3c9;" horiz-adv-x="740" 
d="M633 536q29 -70 42 -134t13 -142q0 -80 -20.5 -141t-61 -95t-100.5 -34q-52 0 -85 23t-49 67h-5q-31 -90 -133 -90q-60 0 -100.5 34t-61 95t-20.5 141q0 78 13 142t42 134h89q-30 -70 -44 -134t-14 -143q0 -97 28 -146.5t74 -49.5t67.5 37t21.5 93v151h82v-151
q0 -62 23 -96t66 -34q47 0 74.5 49.5t27.5 146.5q0 79 -14 143t-44 134h89z" />
    <glyph glyph-name="iotadieresis" unicode="&#x3ca;" horiz-adv-x="330" 
d="M163 536v-378q0 -96 72 -96q20 0 42.5 3.5t35.5 7.5v-67q-14 -7 -39.5 -11.5t-51.5 -4.5q-42 0 -75 14.5t-51.5 51t-18.5 101.5v379h86zM-9 681q0 26 13.5 37.5t32.5 11.5q18 0 31.5 -11.5t13.5 -37.5q0 -25 -13.5 -37.5t-31.5 -12.5q-19 0 -32.5 12.5t-13.5 37.5z
M168 681q0 26 13.5 37.5t31.5 11.5q19 0 32.5 -11.5t13.5 -37.5q0 -25 -13.5 -37.5t-32.5 -12.5q-18 0 -31.5 12.5t-13.5 37.5z" />
    <glyph glyph-name="upsilondieresis" unicode="&#x3cb;" horiz-adv-x="579" 
d="M290 -10q-84 0 -131 33.5t-66 91t-19 128.5v293h87v-290q0 -86 32.5 -135t102.5 -49q74 0 109 57t35 177q0 70 -7.5 125t-21.5 115h87q15 -59 22.5 -114.5t7.5 -129.5q0 -155 -60 -228.5t-178 -73.5zM156 681q0 26 13.5 37.5t32.5 11.5q18 0 31.5 -11.5t13.5 -37.5
q0 -25 -13.5 -37.5t-31.5 -12.5q-19 0 -32.5 12.5t-13.5 37.5zM333 681q0 26 13.5 37.5t31.5 11.5q19 0 32.5 -11.5t13.5 -37.5q0 -25 -13.5 -37.5t-32.5 -12.5q-18 0 -31.5 12.5t-13.5 37.5z" />
    <glyph glyph-name="omicrontonos" unicode="&#x3cc;" horiz-adv-x="570" 
d="M520 269q0 -133 -64 -206t-173 -73q-67 0 -119.5 32.5t-82.5 95t-30 151.5q0 133 63 205t172 72q68 0 121 -32.5t83 -94t30 -150.5zM141 269q0 -95 34.5 -150.5t109.5 -55.5t110 55.5t35 150.5t-35 149t-111 54q-75 0 -109 -54t-34 -149zM247 606v14q9 24 17 57t14.5 67
t10.5 61h91v-11q-6 -22 -18.5 -55.5t-29 -69t-33.5 -63.5h-52z" />
    <glyph glyph-name="upsilontonos" unicode="&#x3cd;" horiz-adv-x="579" 
d="M290 -10q-84 0 -131 33.5t-66 91t-19 128.5v293h87v-290q0 -86 32.5 -135t102.5 -49q74 0 109 57t35 177q0 70 -7.5 125t-21.5 115h87q15 -59 22.5 -114.5t7.5 -129.5q0 -155 -60 -228.5t-178 -73.5zM252 606v14q9 24 17 57t14.5 67t10.5 61h91v-11q-6 -22 -18.5 -55.5
t-29 -69t-33.5 -63.5h-52z" />
    <glyph glyph-name="omegatonos" unicode="&#x3ce;" horiz-adv-x="740" 
d="M633 536q29 -70 42 -134t13 -142q0 -80 -20.5 -141t-61 -95t-100.5 -34q-52 0 -85 23t-49 67h-5q-31 -90 -133 -90q-60 0 -100.5 34t-61 95t-20.5 141q0 78 13 142t42 134h89q-30 -70 -44 -134t-14 -143q0 -97 28 -146.5t74 -49.5t67.5 37t21.5 93v151h82v-151
q0 -62 23 -96t66 -34q47 0 74.5 49.5t27.5 146.5q0 79 -14 143t-44 134h89zM331 606v14q9 24 17 57t14.5 67t10.5 61h91v-11q-6 -22 -18.5 -55.5t-29 -69t-33.5 -63.5h-52z" />
    <glyph glyph-name="afii10023" unicode="&#x401;" horiz-adv-x="523" 
d="M467 0h-376v714h376v-79h-287v-223h270v-78h-270v-255h287v-79zM154 859q0 26 13.5 37.5t32.5 11.5q18 0 31.5 -11.5t13.5 -37.5q0 -25 -13.5 -37.5t-31.5 -12.5q-19 0 -32.5 12.5t-13.5 37.5zM331 859q0 26 13.5 37.5t31.5 11.5q19 0 32.5 -11.5t13.5 -37.5
q0 -25 -13.5 -37.5t-32.5 -12.5q-18 0 -31.5 12.5t-13.5 37.5z" />
    <glyph glyph-name="afii10051" unicode="&#x402;" horiz-adv-x="701" 
d="M460 -10q-22 0 -41.5 3.5t-31.5 8.5v78q27 -10 68 -10q21 0 41.5 8.5t34 32.5t13.5 70v64q0 58 -26.5 86t-90.5 28h-172v-359h-88v635h-157v79h449v-79h-204v-197h178q95 0 147 -46.5t52 -134.5v-70q0 -101 -48 -149t-124 -48z" />
    <glyph glyph-name="afii10052" unicode="&#x403;" horiz-adv-x="495" 
d="M473 714v-80h-293v-634h-89v714h382zM426 944v-10q-13 -18 -37 -46.5t-51 -57t-50 -46.5h-57v12q14 18 31 44.5t33 54t27 49.5h104z" />
    <glyph glyph-name="afii10053" unicode="&#x404;" horiz-adv-x="607" 
d="M383 645q-97 0 -158 -59t-72 -175h324v-78h-326q5 -127 62.5 -195.5t169.5 -68.5q46 0 87.5 8t82.5 20v-78q-75 -29 -181 -29q-110 0 -179.5 46t-102.5 128.5t-33 193.5q0 110 37.5 192.5t110.5 128.5t180 46q61 0 107.5 -12t86.5 -32l-36 -77q-34 17 -73 29t-87 12z" />
    <glyph glyph-name="afii10054" unicode="&#x405;" horiz-adv-x="517" 
d="M473 191q0 -95 -65 -148t-175 -53q-56 0 -104.5 9t-80.5 25v86q35 -16 85.5 -29t103.5 -13q73 0 110 31t37 84q0 35 -14.5 59t-48.5 44t-93 44q-83 33 -127.5 81t-44.5 131q0 56 27.5 97t76 63t112.5 22q55 0 101 -11t85 -29l-28 -77q-36 16 -76.5 27t-83.5 11
q-62 0 -93 -28.5t-31 -75.5q0 -36 14 -60t46 -43.5t85 -40.5q59 -23 99.5 -49.5t61.5 -63.5t21 -93z" />
    <glyph glyph-name="afii10055" unicode="&#x406;" horiz-adv-x="322" 
d="M284 0h-247v52l79 19v571l-79 20v52h247v-52l-79 -20v-571l79 -19v-52z" />
    <glyph glyph-name="afii10056" unicode="&#x407;" horiz-adv-x="322" 
d="M284 0h-247v52l79 19v571l-79 20v52h247v-52l-79 -20v-571l79 -19v-52zM28 859q0 26 13.5 37.5t32.5 11.5q18 0 31.5 -11.5t13.5 -37.5q0 -25 -13.5 -37.5t-31.5 -12.5q-19 0 -32.5 12.5t-13.5 37.5zM205 859q0 26 13.5 37.5t31.5 11.5q19 0 32.5 -11.5t13.5 -37.5
q0 -25 -13.5 -37.5t-32.5 -12.5q-18 0 -31.5 12.5t-13.5 37.5z" />
    <glyph glyph-name="afii10057" unicode="&#x408;" horiz-adv-x="260" 
d="M-2 -190q-23 0 -40.5 3.5t-30.5 9.5v76q15 -5 32 -7.5t36 -2.5q23 0 44 10t34 34.5t13 70.5v710h89v-703q0 -103 -48.5 -152t-128.5 -49z" />
    <glyph glyph-name="afii10058" unicode="&#x409;" horiz-adv-x="884" 
d="M63 -11q-17 0 -33 3.5t-29 8.5v75q11 -5 24 -8.5t28 -3.5q27 0 43 23.5t25 60t17 75.5q8 40 18.5 113t23 170t26.5 208h325v-302h56q98 0 155 -27t81.5 -73t24.5 -103q0 -95 -60 -152t-189 -57h-157v635h-161q-9 -74 -19.5 -155.5t-21 -155.5t-20.5 -126
q-19 -101 -51.5 -155t-105.5 -54zM531 77h58q85 0 126 32.5t41 99.5q0 69 -45 97t-136 28h-44v-257z" />
    <glyph glyph-name="afii10059" unicode="&#x40a;" horiz-adv-x="904" 
d="M91 0v714h89v-302h282v302h90v-302h55q98 0 155 -27t81.5 -73t24.5 -103q0 -95 -60 -152t-188 -57h-158v333h-282v-333h-89zM552 77h58q85 0 125.5 32.5t40.5 99.5q0 69 -44.5 97t-135.5 28h-44v-257z" />
    <glyph glyph-name="afii10060" unicode="&#x40b;" horiz-adv-x="701" 
d="M483 714v-80h-228v-197h182q94 0 144.5 -46.5t50.5 -134.5v-256h-89v245q0 58 -25.5 85.5t-86.5 27.5h-176v-358h-89v634h-156v80h473z" />
    <glyph glyph-name="afii10061" unicode="&#x40c;" horiz-adv-x="585" 
d="M585 0h-106l-299 362v-362h-89v714h89v-346l292 346h100l-288 -347zM457 944v-10q-13 -18 -37 -46.5t-51 -57t-50 -46.5h-57v12q14 18 31 44.5t33 54t27 49.5h104z" />
    <glyph glyph-name="afii10062" unicode="&#x40e;" horiz-adv-x="589" 
d="M590 714l-214 -511q-30 -71 -60.5 -118.5t-73 -71t-107.5 -23.5q-25 0 -49 4t-43 11v89q19 -9 40.5 -14.5t45.5 -5.5q52 0 82 24t55 85l-256 531h97l183 -393q4 -11 11 -26t12 -29h4q4 10 9.5 26t10.5 26l159 396h94zM488 936q-7 -75 -48 -113.5t-133 -38.5
q-95 0 -133.5 38t-43.5 114h81q4 -54 26 -72.5t71 -18.5q43 0 68 19.5t30 71.5h82z" />
    <glyph glyph-name="afii10145" unicode="&#x40f;" horiz-adv-x="689" 
d="M597 0h-210v-188h-91v188h-205v714h89v-634h329v634h88v-714z" />
    <glyph glyph-name="afii10017" unicode="&#x410;" horiz-adv-x="604" 
d="M511 0l-78 221h-265l-77 -221h-91l260 717h84l259 -717h-92zM407 301l-74 216q-3 8 -9 29t-13 43.5t-10 34.5q-7 -31 -15.5 -60.5t-14.5 -46.5l-74 -216h210z" />
    <glyph glyph-name="afii10018" unicode="&#x411;" horiz-adv-x="581" 
d="M91 0v714h401v-79h-312v-223h96q100 0 156 -26.5t78.5 -72t22.5 -104.5q0 -98 -56.5 -153.5t-189.5 -55.5h-196zM180 77h99q89 0 125.5 32.5t36.5 99.5q0 69 -40.5 97t-135.5 28h-85v-257z" />
    <glyph glyph-name="afii10019" unicode="&#x412;" horiz-adv-x="613" 
d="M91 714h193q126 0 191 -40t65 -137q0 -63 -32 -104.5t-94 -53.5v-5q42 -8 75.5 -27t53 -54t19.5 -90q0 -97 -62.5 -150t-171.5 -53h-237v714zM180 410h121q84 0 115.5 29.5t31.5 87.5q0 59 -38.5 84.5t-121.5 25.5h-108v-227zM180 335v-259h132q87 0 121.5 37t34.5 97
q0 56 -35.5 90.5t-126.5 34.5h-126z" />
    <glyph glyph-name="afii10020" unicode="&#x413;" horiz-adv-x="495" 
d="M473 714v-80h-293v-634h-89v714h382z" />
    <glyph glyph-name="afii10021" unicode="&#x414;" horiz-adv-x="656" 
d="M549 714v-634h86v-268h-85v188h-459v-188h-85v268h52q33 62 63 139t53.5 161.5t38.5 169.5t19 164h317zM461 633h-151q-4 -58 -18.5 -131t-36 -149.5t-48 -147.5t-55.5 -125h309v553z" />
    <glyph glyph-name="afii10022" unicode="&#x415;" horiz-adv-x="523" 
d="M467 0h-376v714h376v-79h-287v-223h270v-78h-270v-255h287v-79z" />
    <glyph glyph-name="afii10024" unicode="&#x416;" horiz-adv-x="810" 
d="M268 367l-257 347h98l253 -346v346h85v-346l254 346h98l-258 -346l267 -368h-101l-260 362v-362h-85v362l-260 -362h-101z" />
    <glyph glyph-name="afii10025" unicode="&#x417;" horiz-adv-x="557" 
d="M493 547q0 -73 -43.5 -115.5t-116.5 -54.5v-4q85 -12 129.5 -56.5t44.5 -114.5q0 -94 -67.5 -153t-203.5 -59q-56 0 -106.5 8.5t-92.5 30.5v82q43 -23 96 -35t100 -12q90 0 136 36t46 102q0 68 -55 99t-152 31h-94v75h89q101 0 149.5 35.5t48.5 95.5q0 54 -37 83t-97 29
q-62 0 -104 -17t-82 -44l-42 61q41 31 99 52.5t131 21.5q109 0 166.5 -50t57.5 -127z" />
    <glyph glyph-name="afii10026" unicode="&#x418;" horiz-adv-x="727" 
d="M92 714h83v-392q0 -34 -1 -74.5t-2.5 -75t-3.5 -49.5h4l365 591h100v-714h-83v388q0 36 1.5 78.5t3 77.5t2.5 50h-3l-366 -594h-100v714z" />
    <glyph glyph-name="afii10027" unicode="&#x419;" horiz-adv-x="727" 
d="M92 714h83v-392q0 -34 -1 -74.5t-2.5 -75t-3.5 -49.5h4l365 591h100v-714h-83v388q0 36 1.5 78.5t3 77.5t2.5 50h-3l-366 -594h-100v714zM555 936q-7 -75 -48 -113.5t-133 -38.5q-95 0 -133.5 38t-43.5 114h81q4 -54 26 -72.5t71 -18.5q43 0 68 19.5t30 71.5h82z" />
    <glyph glyph-name="afii10028" unicode="&#x41a;" horiz-adv-x="585" 
d="M585 0h-106l-299 362v-362h-89v714h89v-346l292 346h100l-288 -347z" />
    <glyph glyph-name="afii10029" unicode="&#x41b;" horiz-adv-x="668" 
d="M577 0h-89v635h-209q-9 -74 -19 -155.5t-20 -155.5t-20 -126q-19 -101 -51.5 -155t-105.5 -54q-35 0 -62 12v75q11 -5 24 -8.5t28 -3.5q27 0 43 24.5t25.5 61t16.5 73.5t17.5 110.5t23.5 171.5t26 209h372v-714z" />
    <glyph glyph-name="afii10030" unicode="&#x41c;" horiz-adv-x="856" 
d="M386 0l-216 626h-4q3 -31 5 -83.5t2 -109.5v-433h-82v714h130l203 -585h4l207 585h130v-714h-88v439q0 52 2.5 103t4.5 83h-4l-220 -625h-74z" />
    <glyph glyph-name="afii10031" unicode="&#x41d;" horiz-adv-x="699" 
d="M607 0h-89v333h-338v-333h-89v714h89v-302h338v302h89v-714z" />
    <glyph glyph-name="afii10032" unicode="&#x41e;" horiz-adv-x="735" 
d="M678 358q0 -111 -35 -193.5t-104 -128.5t-171 -46q-105 0 -174 46t-103 129t-34 194q0 109 34 191.5t103.5 128.5t174.5 46q101 0 170 -45.5t104 -128t35 -193.5zM151 358q0 -135 52.5 -212.5t164.5 -77.5t164 77.5t52 212.5t-51.5 211.5t-163.5 76.5
q-113 0 -165.5 -76.5t-52.5 -211.5z" />
    <glyph glyph-name="afii10033" unicode="&#x41f;" horiz-adv-x="689" 
d="M91 0v714h506v-714h-88v635h-329v-635h-89z" />
    <glyph glyph-name="afii10034" unicode="&#x420;" horiz-adv-x="571" 
d="M271 714q132 0 192 -55t60 -155q0 -59 -25 -110.5t-83.5 -83.5t-158.5 -32h-76v-278h-89v714h180zM264 637h-84v-282h66q93 0 139 33t46 112q0 69 -40.5 103t-126.5 34z" />
    <glyph glyph-name="afii10035" unicode="&#x421;" horiz-adv-x="594" 
d="M378 645q-106 0 -166.5 -77t-60.5 -211q0 -133 56.5 -210.5t169.5 -77.5q43 0 83 8t79 20v-78q-38 -15 -78.5 -22t-95.5 -7q-103 0 -171.5 45t-102.5 128t-34 195q0 108 37 190.5t109 129t176 46.5q105 0 186 -42l-35 -76q-32 15 -70 27t-82 12z" />
    <glyph glyph-name="afii10036" unicode="&#x422;" horiz-adv-x="524" 
d="M307 0h-89v635h-208v79h503v-79h-206v-635z" />
    <glyph glyph-name="afii10037" unicode="&#x423;" horiz-adv-x="589" 
d="M590 714l-214 -511q-30 -71 -60.5 -118.5t-73 -71t-107.5 -23.5q-25 0 -49 4t-43 11v89q19 -9 40.5 -14.5t45.5 -5.5q52 0 82 24t55 85l-256 531h97l183 -393q4 -11 11 -26t12 -29h4q4 10 9.5 26t10.5 26l159 396h94z" />
    <glyph glyph-name="afii10038" unicode="&#x424;" horiz-adv-x="760" 
d="M424 724v-88q109 -2 172 -38t89.5 -96t26.5 -132q0 -48 -14 -95.5t-46.5 -86t-88 -62.5t-139.5 -26v-110h-88v110q-86 2 -141.5 26.5t-88 64t-45.5 86.5t-13 93q0 70 27 130t90 97t171 39v88h88zM336 560q-74 -2 -118 -26t-62.5 -66t-18.5 -97q0 -89 47.5 -141t151.5 -56
v386zM424 560v-386q106 4 152.5 57.5t46.5 139.5q0 57 -18.5 98.5t-62.5 65t-118 25.5z" />
    <glyph glyph-name="afii10039" unicode="&#x425;" horiz-adv-x="556" 
d="M553 0h-101l-176 310l-179 -310h-94l223 372l-209 342h99l163 -280l164 280h94l-208 -340z" />
    <glyph glyph-name="afii10040" unicode="&#x426;" horiz-adv-x="700" 
d="M680 79v-267h-85v188h-504v714h89v-634h329v634h88v-635h83z" />
    <glyph glyph-name="afii10041" unicode="&#x427;" horiz-adv-x="658" 
d="M567 0h-89v293q-55 -20 -102.5 -32.5t-104.5 -12.5q-95 0 -146.5 46.5t-51.5 134.5v285h89v-272q0 -58 28 -86.5t92 -28.5q54 0 97.5 10.5t98.5 30.5v346h89v-714z" />
    <glyph glyph-name="afii10042" unicode="&#x428;" horiz-adv-x="979" 
d="M887 0h-796v714h89v-634h263v634h89v-634h265v634h90v-714z" />
    <glyph glyph-name="afii10043" unicode="&#x429;" horiz-adv-x="984" 
d="M957 79v-267h-86v188h-780v714h89v-634h257v634h90v-634h258v634h89v-635h83z" />
    <glyph glyph-name="afii10044" unicode="&#x42a;" horiz-adv-x="654" 
d="M164 0v635h-157v79h245v-302h103q94 0 149 -27t78.5 -73t23.5 -103q0 -95 -58 -152t-183 -57h-201zM252 77h104q81 0 119.5 32.5t38.5 99.5q0 69 -42.5 97t-128.5 28h-91v-257z" />
    <glyph glyph-name="afii10045" unicode="&#x42b;" horiz-adv-x="811" 
d="M91 0v714h89v-302h99q93 0 148 -27t78.5 -73t23.5 -103q0 -95 -57.5 -152t-183.5 -57h-197zM631 0v714h89v-714h-89zM180 76h101q156 0 156 133q0 69 -41.5 96.5t-126.5 27.5h-89v-257z" />
    <glyph glyph-name="afii10046" unicode="&#x42c;" horiz-adv-x="604" 
d="M91 0v714h89v-302h121q93 0 149 -27t81 -73t25 -103q0 -95 -60.5 -152t-185.5 -57h-219zM180 77h122q162 0 162 132q0 69 -44.5 97t-129.5 28h-110v-257z" />
    <glyph glyph-name="afii10047" unicode="&#x42d;" horiz-adv-x="598" 
d="M221 645q-47 0 -86 -11.5t-70 -26.5l-36 75q82 42 193 42q107 0 177.5 -46t105.5 -126.5t35 -182.5q0 -117 -35.5 -202t-108 -131t-181.5 -46q-59 0 -99 7t-81 22v78q41 -11 81.5 -19.5t85.5 -8.5q119 0 179.5 68.5t64.5 196.5h-324v79h323q-9 109 -68.5 170.5
t-155.5 61.5z" />
    <glyph glyph-name="afii10048" unicode="&#x42e;" horiz-adv-x="991" 
d="M933 358q0 -111 -33.5 -193.5t-99.5 -128.5t-164 -46q-96 0 -161 42t-99.5 119t-38.5 182h-157v-333h-89v714h89v-302h159q7 95 41.5 165.5t98 109t156.5 38.5q97 0 163.5 -45.5t100.5 -128t34 -193.5zM429 358q0 -135 49.5 -212.5t155.5 -77.5q107 0 156.5 77.5
t49.5 212.5t-49 211.5t-156 76.5t-156.5 -77t-49.5 -211z" />
    <glyph glyph-name="afii10049" unicode="&#x42f;" horiz-adv-x="603" 
d="M295 296l-173 -296h-103l188 312q-35 12 -66 35t-50.5 63t-19.5 104q0 97 63 148.5t188 51.5h190v-714h-89v296h-128zM423 637h-99q-79 0 -120.5 -29.5t-41.5 -97.5q0 -66 40.5 -102t125.5 -36h95v265z" />
    <glyph glyph-name="afii10065" unicode="&#x430;" horiz-adv-x="531" 
d="M272 545q92 0 137.5 -43t45.5 -137v-365h-63l-17 76h-4q-33 -44 -69 -65t-100 -21q-68 0 -113.5 38.5t-45.5 120.5q0 80 59 123.5t182 47.5l85 3v32q0 67 -26.5 93t-75.5 26q-39 0 -75 -12.5t-67 -28.5l-27 66q34 19 79 32.5t95 13.5zM369 262l-73 -3q-92 -4 -127.5 -32
t-35.5 -79q0 -45 25 -66t65 -21q62 0 104 37.5t42 115.5v48z" />
    <glyph glyph-name="afii10066" unicode="&#x431;" horiz-adv-x="565" 
d="M53 322q0 176 51 274t164 124q60 14 118 25t109 20l15 -77q-33 -6 -74.5 -13t-81.5 -15t-69 -14q-62 -14 -97.5 -68t-40.5 -166h6q13 19 36 39t55 34t73 14q97 0 147.5 -67t50.5 -174q0 -134 -64.5 -201t-167.5 -67q-105 0 -167.5 85t-62.5 247zM290 63q60 0 96.5 42
t36.5 144q0 82 -28 129.5t-92 47.5q-41 0 -74 -19.5t-55.5 -44.5t-31.5 -42q0 -49 6.5 -95t23 -82.5t45 -58t73.5 -21.5z" />
    <glyph glyph-name="afii10067" unicode="&#x432;" horiz-adv-x="545" 
d="M488 401q0 -50 -28 -78t-73 -38v-4q47 -7 82 -35.5t35 -88.5q0 -68 -48 -112.5t-158 -44.5h-219v536h218q55 0 98 -12.5t68 -42t25 -80.5zM400 390q0 38 -25.5 55.5t-81.5 17.5h-127v-147h111q123 0 123 74zM414 157q0 46 -32.5 66t-94.5 20h-121v-172h123
q60 0 92.5 19.5t32.5 66.5z" />
    <glyph glyph-name="afii10068" unicode="&#x433;" horiz-adv-x="410" 
d="M390 536v-74h-224v-462h-87v536h311z" />
    <glyph glyph-name="afii10069" unicode="&#x434;" horiz-adv-x="551" 
d="M460 536v-462h73v-260h-83v186h-350v-186h-83v260h41q64 95 95.5 216.5t33.5 245.5h273zM375 467h-111q-4 -68 -19.5 -140.5t-40 -138.5t-56.5 -114h227v393z" />
    <glyph glyph-name="afii10070" unicode="&#x435;" horiz-adv-x="532" 
d="M275 546q65 0 112 -30t72.5 -84.5t25.5 -127.5v-53h-344q2 -91 43 -138.5t115 -47.5q48 0 85.5 9.5t77.5 27.5v-77q-39 -18 -76.5 -26.5t-90.5 -8.5q-73 0 -127.5 31t-85.5 92t-31 151q0 88 28 151t78.5 97t117.5 34zM275 474q-59 0 -92.5 -40.5t-39.5 -112.5h252
q-1 68 -30 110.5t-90 42.5z" />
    <glyph glyph-name="afii10072" unicode="&#x436;" horiz-adv-x="714" 
d="M694 536l-207 -260l224 -276h-98l-216 272v-272h-81v272l-217 -272h-98l224 276l-206 260h94l203 -260v260h81v-260l203 260h94z" />
    <glyph glyph-name="afii10073" unicode="&#x437;" horiz-adv-x="465" 
d="M216 546q86 0 138 -37t52 -104q0 -49 -26 -77.5t-69 -41.5v-4q45 -14 78.5 -43.5t33.5 -90.5q0 -67 -52.5 -112.5t-165.5 -45.5q-112 0 -174 35v79q31 -16 75.5 -29t96.5 -13q56 0 95 20.5t39 70.5q0 90 -144 90h-66v72h54q65 0 104 18.5t39 63.5q0 38 -29.5 57t-84.5 19
q-41 0 -73.5 -8.5t-69.5 -25.5l-31 70q81 37 180 37z" />
    <glyph glyph-name="afii10074" unicode="&#x438;" horiz-adv-x="609" 
d="M161 536v-327q0 -13 -1 -36.5t-2.5 -48t-2.5 -37.5l268 449h106v-536h-81v316q0 16 0.5 42t1.5 51.5t2 38.5l-265 -448h-108v536h82z" />
    <glyph glyph-name="afii10075" unicode="&#x439;" horiz-adv-x="609" 
d="M161 536v-327q0 -13 -1 -36.5t-2.5 -48t-2.5 -37.5l268 449h106v-536h-81v316q0 16 0.5 42t1.5 51.5t2 38.5l-265 -448h-108v536h82zM493 758q-7 -75 -48 -113.5t-133 -38.5q-95 0 -133.5 38t-43.5 114h81q4 -54 26 -72.5t71 -18.5q43 0 68 19.5t30 71.5h82z" />
    <glyph glyph-name="afii10076" unicode="&#x43a;" horiz-adv-x="503" 
d="M380 536h95l-214 -258l232 -278h-101l-226 272v-272h-87v536h87v-260z" />
    <glyph glyph-name="afii10077" unicode="&#x43b;" horiz-adv-x="548" 
d="M469 0h-88v463h-147q-12 -169 -34 -272.5t-58 -150.5t-90 -47q-14 0 -26 1.5t-20 5.5v66q6 -2 13 -3t14 -1q49 0 79 115t47 359h310v-536z" />
    <glyph glyph-name="afii10078" unicode="&#x43c;" horiz-adv-x="708" 
d="M628 536v-536h-79v342q0 21 1.5 43.5t3.5 45.5h-3l-163 -431h-72l-159 431h-3q2 -23 3 -45.5t1 -46.5v-339h-79v536h117l156 -431l159 431h117z" />
    <glyph glyph-name="afii10079" unicode="&#x43d;" horiz-adv-x="600" 
d="M166 536v-223h268v223h87v-536h-87v239h-268v-239h-87v536h87z" />
    <glyph glyph-name="afii10080" unicode="&#x43e;" horiz-adv-x="570" 
d="M520 269q0 -133 -64 -206t-173 -73q-67 0 -119.5 32.5t-82.5 95t-30 151.5q0 133 63 205t172 72q68 0 121 -32.5t83 -94t30 -150.5zM141 269q0 -95 34.5 -150.5t109.5 -55.5t110 55.5t35 150.5t-35 149t-111 54q-75 0 -109 -54t-34 -149z" />
    <glyph glyph-name="afii10081" unicode="&#x43f;" horiz-adv-x="588" 
d="M508 536v-536h-87v461h-255v-461h-87v536h429z" />
    <glyph glyph-name="afii10082" unicode="&#x440;" horiz-adv-x="579" 
d="M322 546q93 0 149.5 -69t56.5 -208q0 -137 -57 -208t-150 -71q-59 0 -96 23t-59 55h-6q2 -17 4 -43t2 -45v-220h-87v776h71l12 -73h4q22 35 58.5 59t97.5 24zM305 472q-75 0 -107 -46t-32 -140v-17q0 -99 30 -152.5t111 -53.5q45 0 74 26.5t43 73.5t14 107
q0 92 -32.5 147t-100.5 55z" />
    <glyph glyph-name="afii10083" unicode="&#x441;" horiz-adv-x="454" 
d="M282 -10q-68 0 -120 29t-81.5 90t-29.5 156q0 99 31 161t84.5 91t121.5 29q39 0 75.5 -8.5t59.5 -20.5l-27 -73q-23 9 -53.5 17t-56.5 8q-145 0 -145 -203q0 -97 35.5 -148.5t105.5 -51.5q41 0 73 9t59 22v-78q-26 -14 -57 -21.5t-75 -7.5z" />
    <glyph glyph-name="afii10084" unicode="&#x442;" horiz-adv-x="453" 
d="M433 462h-165v-462h-86v462h-163v74h414v-74z" />
    <glyph glyph-name="afii10085" unicode="&#x443;" horiz-adv-x="484" 
d="M1 536h94l107 -305q14 -41 25 -77t16 -69h3q6 25 17 65.5t25 81.5l101 304h95l-217 -610q-27 -76 -70 -121t-116 -45q-23 0 -40 2.5t-29 5.5v70q10 -2 25 -4t31 -2q43 0 69.5 26t41.5 69l25 71z" />
    <glyph glyph-name="afii10086" unicode="&#x444;" horiz-adv-x="688" 
d="M386 760v-216q113 -11 182 -82.5t69 -193.5t-66.5 -194t-184.5 -82v-232h-85v232q-75 7 -131.5 41.5t-88 93.5t-31.5 141q0 122 66.5 194t187.5 82v216h82zM304 471q-85 -9 -124 -60.5t-39 -142.5t39 -143t124 -61v407zM386 470v-406q82 10 121.5 62t39.5 142
q0 183 -161 202z" />
    <glyph glyph-name="afii10087" unicode="&#x445;" horiz-adv-x="501" 
d="M198 274l-174 262h99l128 -202l126 202h99l-174 -262l183 -274h-99l-135 214l-137 -214h-98z" />
    <glyph glyph-name="afii10088" unicode="&#x446;" horiz-adv-x="598" 
d="M581 -186h-84v186h-418v536h87v-462h256v462h87v-463h72v-259z" />
    <glyph glyph-name="afii10089" unicode="&#x447;" horiz-adv-x="579" 
d="M156 536v-195q0 -92 94 -92q47 0 85 15.5t78 41.5v230h87v-536h-87v239q-41 -29 -82.5 -45.5t-97.5 -16.5q-78 0 -121 43t-43 115v201h87z" />
    <glyph glyph-name="afii10090" unicode="&#x448;" horiz-adv-x="849" 
d="M769 536v-536h-690v536h87v-462h214v462h87v-462h214v462h88z" />
    <glyph glyph-name="afii10091" unicode="&#x449;" horiz-adv-x="857" 
d="M768 536v-463h73v-258h-86v185h-676v536h87v-462h214v462h87v-462h214v462h87z" />
    <glyph glyph-name="afii10092" unicode="&#x44a;" horiz-adv-x="655" 
d="M264 536v-220h136q105 0 155.5 -38.5t50.5 -113.5t-48 -119.5t-158 -44.5h-223v462h-161v74h248zM397 242h-133v-171h136q55 0 87.5 20t32.5 68t-31 65.5t-92 17.5z" />
    <glyph glyph-name="afii10093" unicode="&#x44b;" horiz-adv-x="736" 
d="M79 0v536h87v-220h126q100 0 147.5 -38t47.5 -114q0 -75 -46.5 -119.5t-151.5 -44.5h-210zM570 0v536h87v-536h-87zM166 71h115q53 0 86 19.5t33 68.5t-30.5 66.5t-87.5 17.5h-116v-172z" />
    <glyph glyph-name="afii10094" unicode="&#x44c;" horiz-adv-x="560" 
d="M166 316h146q199 0 199 -152q0 -75 -48 -119.5t-154 -44.5h-230v536h87v-220zM424 159q0 49 -32 66.5t-89 17.5h-137v-172h139q51 0 85 20t34 68z" />
    <glyph glyph-name="afii10095" unicode="&#x44d;" horiz-adv-x="466" 
d="M163 -10q-43 0 -75 7.5t-60 21.5v76q28 -12 61.5 -21t75.5 -9q71 0 113 42t47 133h-244v72h243q-6 82 -42.5 120t-105.5 38q-28 0 -60 -8t-58 -18l-25 71q27 13 65 22t77 9q71 0 125 -28t84.5 -89t30.5 -161q0 -96 -32 -157.5t-89 -91t-131 -29.5z" />
    <glyph glyph-name="afii10096" unicode="&#x44e;" horiz-adv-x="788" 
d="M737 269q0 -133 -60.5 -206t-163.5 -73q-95 0 -155 64t-67 185h-125v-239h-87v536h87v-223h126q10 113 69 173t154 60q65 0 115.5 -32.5t78.5 -94t28 -150.5zM380 269q0 -101 32 -153.5t102 -52.5t101.5 52.5t31.5 153.5t-31.5 152t-101.5 51t-102 -51t-32 -152z" />
    <glyph glyph-name="afii10097" unicode="&#x44f;" horiz-adv-x="528" 
d="M114 0h-100l143 225q-29 7 -55.5 25t-43.5 49t-17 79q0 76 49.5 117t131.5 41h227v-536h-87v213h-119zM126 377q0 -47 31.5 -69t88.5 -22h116v177h-132q-56 0 -80 -24.5t-24 -61.5z" />
    <glyph glyph-name="afii10071" unicode="&#x451;" horiz-adv-x="532" 
d="M275 546q65 0 112 -30t72.5 -84.5t25.5 -127.5v-53h-344q2 -91 43 -138.5t115 -47.5q48 0 85.5 9.5t77.5 27.5v-77q-39 -18 -76.5 -26.5t-90.5 -8.5q-73 0 -127.5 31t-85.5 92t-31 151q0 88 28 151t78.5 97t117.5 34zM275 474q-59 0 -92.5 -40.5t-39.5 -112.5h252
q-1 68 -30 110.5t-90 42.5zM134 681q0 26 13.5 37.5t32.5 11.5q18 0 31.5 -11.5t13.5 -37.5q0 -25 -13.5 -37.5t-31.5 -12.5q-19 0 -32.5 12.5t-13.5 37.5zM311 681q0 26 13.5 37.5t31.5 11.5q19 0 32.5 -11.5t13.5 -37.5q0 -25 -13.5 -37.5t-32.5 -12.5q-18 0 -31.5 12.5
t-13.5 37.5z" />
    <glyph glyph-name="afii10099" unicode="&#x452;" horiz-adv-x="584" 
d="M376 -240q-22 0 -38 3.5t-27 8.5v72q12 -4 24.5 -7t27.5 -3q25 0 42 17.5t17 65.5v407q0 128 -110 128q-82 0 -113.5 -50t-31.5 -144v-258h-88v605h-71v65h71v90h88v-90h177v-65h-177v-88q0 -19 -1.5 -38t-2.5 -36h5q24 41 66 62t91 21q91 0 137.5 -46.5t46.5 -149.5
v-409q0 -76 -32.5 -118.5t-100.5 -42.5z" />
    <glyph glyph-name="afii10100" unicode="&#x453;" horiz-adv-x="410" 
d="M390 536v-74h-224v-462h-87v536h311zM370 766v-10q-13 -18 -37 -46.5t-51 -57t-50 -46.5h-57v12q14 18 31 44.5t33 54t27 49.5h104z" />
    <glyph glyph-name="afii10101" unicode="&#x454;" horiz-adv-x="468" 
d="M292 -10q-70 0 -124.5 28.5t-85.5 89t-31 157.5q0 100 32 162t87 90.5t125 28.5q38 0 75.5 -8t65.5 -21l-26 -72q-27 11 -58.5 18t-58.5 7q-71 0 -108 -39t-44 -119h243v-72h-244q4 -89 41.5 -132t108.5 -43q42 0 75.5 9t62.5 21v-76q-28 -14 -60 -21.5t-76 -7.5z" />
    <glyph glyph-name="afii10102" unicode="&#x455;" horiz-adv-x="452" 
d="M410 148q0 -78 -54 -118t-148 -40q-53 0 -91.5 9t-67.5 25v80q31 -16 74 -29.5t87 -13.5q61 0 88.5 21.5t27.5 57.5q0 20 -10.5 36t-37 32t-76.5 36q-48 20 -82.5 40t-53 48t-18.5 72q0 68 52 105t138 37q46 0 86 -10t76 -26l-29 -70q-32 14 -67 24t-71 10
q-49 0 -75 -17.5t-26 -47.5q0 -23 12 -38.5t39.5 -30t75.5 -33.5t81.5 -39t51.5 -48.5t18 -71.5z" />
    <glyph glyph-name="afii10103" unicode="&#x456;" horiz-adv-x="246" 
d="M124 737q20 0 35 -13.5t15 -42.5t-15 -42.5t-35 -13.5q-21 0 -36 13.5t-15 42.5t15 42.5t36 13.5zM167 536v-536h-87v536h87z" />
    <glyph glyph-name="afii10104" unicode="&#x457;" horiz-adv-x="245" 
d="M166 0h-87v536h87v-536zM-11 681q0 26 13.5 37.5t32.5 11.5q18 0 31.5 -11.5t13.5 -37.5q0 -25 -13.5 -37.5t-31.5 -12.5q-19 0 -32.5 12.5t-13.5 37.5zM166 681q0 26 13.5 37.5t31.5 11.5q19 0 32.5 -11.5t13.5 -37.5q0 -25 -13.5 -37.5t-32.5 -12.5q-18 0 -31.5 12.5
t-13.5 37.5z" />
    <glyph glyph-name="afii10105" unicode="&#x458;" horiz-adv-x="246" 
d="M73 681q0 29 15 42.5t36 13.5q20 0 35 -13.5t15 -42.5t-15 -42.5t-35 -13.5q-21 0 -36 13.5t-15 42.5zM22 -240q-24 0 -42.5 3.5t-31.5 8.5v71q14 -5 29 -7.5t33 -2.5q31 0 50.5 17.5t19.5 66.5v619h87v-616q0 -75 -34.5 -117.5t-110.5 -42.5z" />
    <glyph glyph-name="afii10106" unicode="&#x459;" horiz-adv-x="795" 
d="M438 536v-220h112q100 0 148 -38.5t48 -113.5t-47 -119.5t-157 -44.5h-192v462h-117q-13 -169 -34.5 -272t-57 -150t-88.5 -47q-32 0 -47 7v65q5 -1 12 -2.5t14 -1.5q50 0 80 115.5t47 359.5h279zM536 242h-98v-171h101q53 0 86.5 20t33.5 68t-31.5 65.5t-91.5 17.5z" />
    <glyph glyph-name="afii10107" unicode="&#x45a;" horiz-adv-x="832" 
d="M476 536v-221h110q101 0 149 -38t48 -113t-46.5 -119.5t-155.5 -44.5h-194v239h-219v-239h-89v536h89v-223h220v223h88zM575 242h-100v-171h102q53 0 86.5 20t33.5 68t-31 65.5t-91 17.5z" />
    <glyph glyph-name="afii10108" unicode="&#x45b;" horiz-adv-x="584" 
d="M167 760v-90h195v-66h-195v-87q0 -19 -1.5 -38.5t-3.5 -35.5h6q24 41 66 62t91 21q90 0 136.5 -47t46.5 -150v-329h-86v323q0 129 -111 129q-83 0 -113.5 -50t-30.5 -144v-258h-88v604h-71v66h71v90h88z" />
    <glyph glyph-name="afii10109" unicode="&#x45c;" horiz-adv-x="503" 
d="M380 536h95l-214 -258l232 -278h-101l-226 272v-272h-87v536h87v-260zM400 766v-10q-13 -18 -37 -46.5t-51 -57t-50 -46.5h-57v12q14 18 31 44.5t33 54t27 49.5h104z" />
    <glyph glyph-name="afii10110" unicode="&#x45e;" horiz-adv-x="484" 
d="M1 536h94l107 -305q14 -41 25 -77t16 -69h3q6 25 17 65.5t25 81.5l101 304h95l-217 -610q-27 -76 -70 -121t-116 -45q-23 0 -40 2.5t-29 5.5v70q10 -2 25 -4t31 -2q43 0 69.5 26t41.5 69l25 71zM423 758q-7 -75 -48 -113.5t-133 -38.5q-95 0 -133.5 38t-43.5 114h81
q4 -54 26 -72.5t71 -18.5q43 0 68 19.5t30 71.5h82z" />
    <glyph glyph-name="afii10193" unicode="&#x45f;" horiz-adv-x="591" 
d="M255 0h-176v536h87v-462h258v462h87v-536h-172v-185h-84v185z" />
    <glyph glyph-name="afii10050" unicode="&#x490;" horiz-adv-x="504" 
d="M483 861v-227h-303v-634h-89v714h309v147h83z" />
    <glyph glyph-name="afii10098" unicode="&#x491;" horiz-adv-x="415" 
d="M393 692v-224h-227v-468h-87v536h230v156h84z" />
    <glyph glyph-name="Wgrave" unicode="&#x1e80;" horiz-adv-x="876" 
d="M865 714l-178 -714h-91l-127 468q-8 28 -15.5 57.5t-12.5 52t-6 31.5q-2 -13 -11 -55.5t-21 -88.5l-124 -465h-92l-177 714h93l103 -436q10 -46 18 -89t13 -81q5 39 14.5 85t21.5 90l116 431h92l121 -434q13 -46 22 -92t14 -80q4 37 13 80.5t20 90.5l102 435h92zM399 944
q11 -22 27 -49.5t33 -54t32 -44.5v-12h-59q-22 18 -49 46.5t-51 57t-36 46.5v10h103z" />
    <glyph glyph-name="wgrave" unicode="&#x1e81;" horiz-adv-x="743" 
d="M492 1l-83 302q-11 41 -21.5 80t-14.5 62h-4q-4 -23 -13.5 -62t-21.5 -81l-87 -301h-98l-139 536h90l69 -286q11 -43 19.5 -87t12.5 -73h4q3 17 8.5 42t12 52.5t12.5 49.5l87 302h96l84 -302q10 -35 19.5 -75t13.5 -68h3q3 25 13 69t21 90l70 286h88l-140 -536h-101z
M333 766q11 -22 27 -49.5t33 -54t32 -44.5v-12h-59q-22 18 -49 46.5t-51 57t-36 46.5v10h103z" />
    <glyph glyph-name="Wacute" unicode="&#x1e82;" horiz-adv-x="876" 
d="M865 714l-178 -714h-91l-127 468q-8 28 -15.5 57.5t-12.5 52t-6 31.5q-2 -13 -11 -55.5t-21 -88.5l-124 -465h-92l-177 714h93l103 -436q10 -46 18 -89t13 -81q5 39 14.5 85t21.5 90l116 431h92l121 -434q13 -46 22 -92t14 -80q4 37 13 80.5t20 90.5l102 435h92zM565 944
v-10q-13 -18 -37 -46.5t-51 -57t-50 -46.5h-57v12q14 18 31 44.5t33 54t27 49.5h104z" />
    <glyph glyph-name="wacute" unicode="&#x1e83;" horiz-adv-x="743" 
d="M492 1l-83 302q-11 41 -21.5 80t-14.5 62h-4q-4 -23 -13.5 -62t-21.5 -81l-87 -301h-98l-139 536h90l69 -286q11 -43 19.5 -87t12.5 -73h4q3 17 8.5 42t12 52.5t12.5 49.5l87 302h96l84 -302q10 -35 19.5 -75t13.5 -68h3q3 25 13 69t21 90l70 286h88l-140 -536h-101z
M499 766v-10q-13 -18 -37 -46.5t-51 -57t-50 -46.5h-57v12q14 18 31 44.5t33 54t27 49.5h104z" />
    <glyph glyph-name="Wdieresis" unicode="&#x1e84;" horiz-adv-x="876" 
d="M865 714l-178 -714h-91l-127 468q-8 28 -15.5 57.5t-12.5 52t-6 31.5q-2 -13 -11 -55.5t-21 -88.5l-124 -465h-92l-177 714h93l103 -436q10 -46 18 -89t13 -81q5 39 14.5 85t21.5 90l116 431h92l121 -434q13 -46 22 -92t14 -80q4 37 13 80.5t20 90.5l102 435h92zM304 859
q0 26 13.5 37.5t32.5 11.5q18 0 31.5 -11.5t13.5 -37.5q0 -25 -13.5 -37.5t-31.5 -12.5q-19 0 -32.5 12.5t-13.5 37.5zM481 859q0 26 13.5 37.5t31.5 11.5q19 0 32.5 -11.5t13.5 -37.5q0 -25 -13.5 -37.5t-32.5 -12.5q-18 0 -31.5 12.5t-13.5 37.5z" />
    <glyph glyph-name="wdieresis" unicode="&#x1e85;" horiz-adv-x="743" 
d="M492 1l-83 302q-11 41 -21.5 80t-14.5 62h-4q-4 -23 -13.5 -62t-21.5 -81l-87 -301h-98l-139 536h90l69 -286q11 -43 19.5 -87t12.5 -73h4q3 17 8.5 42t12 52.5t12.5 49.5l87 302h96l84 -302q10 -35 19.5 -75t13.5 -68h3q3 25 13 69t21 90l70 286h88l-140 -536h-101z
M238 681q0 26 13.5 37.5t32.5 11.5q18 0 31.5 -11.5t13.5 -37.5q0 -25 -13.5 -37.5t-31.5 -12.5q-19 0 -32.5 12.5t-13.5 37.5zM415 681q0 26 13.5 37.5t31.5 11.5q19 0 32.5 -11.5t13.5 -37.5q0 -25 -13.5 -37.5t-32.5 -12.5q-18 0 -31.5 12.5t-13.5 37.5z" />
    <glyph glyph-name="Ygrave" unicode="&#x1ef2;" horiz-adv-x="536" 
d="M268 363l172 351h96l-223 -437v-277h-89v273l-224 441h97zM229 944q11 -22 27 -49.5t33 -54t32 -44.5v-12h-59q-22 18 -49 46.5t-51 57t-36 46.5v10h103z" />
    <glyph glyph-name="ygrave" unicode="&#x1ef3;" horiz-adv-x="484" 
d="M1 536h94l107 -305q14 -41 25 -77t16 -69h3q6 25 17 65.5t25 81.5l101 304h95l-217 -610q-27 -76 -70 -121t-116 -45q-23 0 -40 2.5t-29 5.5v70q10 -2 25 -4t31 -2q43 0 69.5 26t41.5 69l25 71zM203 766q11 -22 27 -49.5t33 -54t32 -44.5v-12h-59q-22 18 -49 46.5t-51 57
t-36 46.5v10h103z" />
    <glyph glyph-name="endash" unicode="&#x2013;" horiz-adv-x="471" 
d="M38 229v78h395v-78h-395z" />
    <glyph glyph-name="emdash" unicode="&#x2014;" horiz-adv-x="941" 
d="M38 229v78h865v-78h-865z" />
    <glyph glyph-name="afii00208" unicode="&#x2015;" horiz-adv-x="941" 
d="M38 229v78h865v-78h-865z" />
    <glyph glyph-name="underscoredbl" unicode="&#x2017;" horiz-adv-x="386" 
d="M388 -90h-390v64h390v-64zM388 -222h-390v64h390v-64z" />
    <glyph glyph-name="quoteleft" unicode="&#x2018;" horiz-adv-x="167" 
d="M17 469l-6 11q13 52 36 116.5t45 117.5h64q-9 -38 -18 -81.5t-16.5 -86t-12.5 -77.5h-92z" />
    <glyph glyph-name="quoteright" unicode="&#x2019;" horiz-adv-x="167" 
d="M149 714l7 -11q-13 -53 -35.5 -117t-45.5 -117h-64q9 37 18 81t17 86.5t12 77.5h91z" />
    <glyph glyph-name="quotesinglbase" unicode="&#x201a;" horiz-adv-x="250" 
d="M168 116l7 -11q-13 -53 -35.5 -117t-45.5 -117h-64q9 37 18 81t17 86.5t12 77.5h91z" />
    <glyph glyph-name="quotereversed" unicode="&#x201b;" horiz-adv-x="167" 
d="M110 714q4 -35 12 -77.5t17 -86.5t18 -81h-64q-23 53 -46 117t-36 117l7 11h92z" />
    <glyph glyph-name="quotedblleft" unicode="&#x201c;" horiz-adv-x="343" 
d="M332 714q-14 -58 -27 -125.5t-20 -119.5h-92l-7 11q13 52 36 116t46 118h64zM155 714q-13 -58 -26 -125.5t-21 -119.5h-91l-6 11q13 52 35.5 116t45.5 118h63z" />
    <glyph glyph-name="quotedblright" unicode="&#x201d;" horiz-adv-x="343" 
d="M326 714l6 -11q-13 -53 -35.5 -117t-45.5 -117h-65q9 37 18.5 81t17.5 86.5t12 77.5h92zM149 714l6 -11q-13 -53 -36 -117t-45 -117h-63q9 37 18 81t16 86.5t12 77.5h92z" />
    <glyph glyph-name="quotedblbase" unicode="&#x201e;" horiz-adv-x="416" 
d="M345 116l6 -11q-13 -53 -35.5 -117t-45.5 -117h-65q9 37 18.5 81t17.5 86.5t12 77.5h92zM168 116l6 -11q-13 -53 -36 -117t-45 -117h-63q9 37 18 81t16 86.5t12 77.5h92z" />
    <glyph glyph-name="dagger" unicode="&#x2020;" horiz-adv-x="482" 
d="M422 484l-160 15l24 -499h-97l23 499l-151 -15v87l151 -15l-23 204h97l-24 -204l160 15v-87z" />
    <glyph glyph-name="daggerdbl" unicode="&#x2021;" horiz-adv-x="481" 
d="M265 241l160 15v-85l-160 14l23 -185h-97l22 185l-157 -14v85l157 -15l-19 143l19 135l-157 -15v85l157 -15l-22 186h97l-23 -186l160 15v-85l-160 15l20 -135z" />
    <glyph glyph-name="bullet" unicode="&#x2022;" horiz-adv-x="353" 
d="M70 365q0 67 30.5 95.5t75.5 28.5t76 -28.5t31 -95.5q0 -66 -31 -95t-76 -29t-75.5 29t-30.5 95z" />
    <glyph glyph-name="ellipsis" unicode="&#x2026;" horiz-adv-x="791" 
d="M67 54q0 37 17 52t42 15t43 -15t18 -52q0 -36 -18 -52t-43 -16t-42 16t-17 52zM329 54q0 37 17 52t42 15t43 -15t18 -52q0 -36 -18 -52t-43 -16t-42 16t-17 52zM590 54q0 37 17 52t42 15t43 -15t18 -52q0 -36 -18 -52t-43 -16t-42 16t-17 52z" />
    <glyph glyph-name="perthousand" unicode="&#x2030;" horiz-adv-x="1114" 
d="M184 724q70 0 106 -58.5t36 -164.5t-34 -165.5t-108 -59.5q-68 0 -103.5 59.5t-35.5 165.5t33.5 164.5t105.5 58.5zM617 714l-372 -714h-75l372 714h75zM184 662q-35 0 -51 -40.5t-16 -120.5t16 -121t51 -41q70 0 70 162q0 161 -70 161zM599 438q69 0 106 -58.5
t37 -164.5t-35 -165.5t-108 -59.5q-67 0 -103 59.5t-36 165.5t33.5 164.5t105.5 58.5zM927 438q69 0 105.5 -58.5t36.5 -164.5t-34.5 -165.5t-107.5 -59.5q-68 0 -103.5 59.5t-35.5 165.5t33.5 164.5t105.5 58.5zM599 375q-66 0 -66 -160q0 -162 66 -162q70 0 70 162
q0 160 -70 160zM927 375q-35 0 -51 -40t-16 -120q0 -81 16 -121.5t51 -40.5q70 0 70 162q0 160 -70 160z" />
    <glyph glyph-name="minute" unicode="&#x2032;" horiz-adv-x="225" 
d="M158 714h88l-152 -258h-57z" />
    <glyph glyph-name="second" unicode="&#x2033;" horiz-adv-x="392" 
d="M325 714h88l-152 -258h-57zM158 714h88l-152 -258h-57z" />
    <glyph glyph-name="guilsinglleft" unicode="&#x2039;" horiz-adv-x="296" 
d="M38 270l159 201l62 -36l-131 -171l131 -171l-62 -37l-159 201v13z" />
    <glyph glyph-name="guilsinglright" unicode="&#x203a;" horiz-adv-x="296" 
d="M99 471l159 -201v-13l-159 -201l-62 37l131 171l-131 171z" />
    <glyph glyph-name="exclamdbl" unicode="&#x203c;" horiz-adv-x="499" 
d="M162 201h-70l-17 513h105zM67 54q0 37 17.5 52t42.5 15q24 0 42 -15t18 -52q0 -36 -18 -52t-42 -16q-25 0 -42.5 16t-17.5 52zM392 201h-70l-17 513h105zM297 54q0 37 17.5 52t42.5 15q24 0 42 -15t18 -52q0 -36 -18 -52t-42 -16q-25 0 -42.5 16t-17.5 52z" />
    <glyph glyph-name="fraction" unicode="&#x2044;" horiz-adv-x="121" 
d="M300 714l-406 -714h-74l407 714h73z" />
    <glyph glyph-name="nsuperior" unicode="&#x207f;" horiz-adv-x="380" 
d="M211.258 499.779q58.502 0 88.7285 -28.1982q30.2266 -28.1992 30.2266 -89.9971v-209.391h-56.5527v205.791q0 77.3975 -71.5029 77.3975q-53.9521 0 -74.1025 -29.999t-20.1504 -86.3965v-166.793h-56.5527v321.587h45.502l8.4502 -43.7988h3.25
q15.6006 25.1992 43.5518 37.499q27.9512 12.2988 59.1523 12.2988z" />
    <glyph glyph-name="franc" unicode="&#x20a3;" horiz-adv-x="538" 
d="M119 0v130h-79v65h79v519h367v-79h-281v-251h263v-79h-263v-110h142v-65h-142v-130h-86z" />
    <glyph glyph-name="afii08941" unicode="&#x20a4;" horiz-adv-x="538" 
d="M317 723q53 0 94 -11.5t73 -27.5l-30 -69q-29 14 -63.5 24t-72.5 10q-49 0 -77.5 -29t-28.5 -95v-88h188v-65h-188v-78h188v-66h-189q0 -65 -17.5 -98.5t-46.5 -49.5h358v-80h-473v74q44 10 68.5 47t24.5 107h-90v66h90v78h-90v65h90v66q0 103 45.5 161.5t146.5 58.5z
" />
    <glyph glyph-name="peseta" unicode="&#x20a7;" horiz-adv-x="737" 
d="M201 714q126 0 182 -55t56 -155q0 -60 -23 -111.5t-78.5 -83t-151.5 -31.5h-28v-278h-86v714h129zM196 637h-38v-282h25q85 0 126.5 33.5t41.5 111.5q0 69 -37.5 103t-117.5 34zM588 517v-104h105v-67h-105v-208q0 -37 13 -57t41 -20q15 0 33.5 3t29.5 7v-65
q-12 -6 -33 -11t-51 -5q-53 0 -83.5 33.5t-30.5 103.5v219h-72v40l74 36l30 95h49z" />
    <glyph glyph-name="Euro" unicode="&#x20ac;" horiz-adv-x="538" 
d="M358 723q93 0 168 -46l-36 -72q-26 15 -61 28t-71 13q-141 0 -175 -191h226v-65h-232q-1 -10 -1 -19v-19v-19.5t1 -21.5h204v-65h-197q16 -85 61 -131.5t120 -46.5q37 0 73.5 9t65.5 23v-78q-28 -14 -63.5 -23t-80.5 -9q-113 0 -178.5 69t-85.5 187h-74v65h67
q-1 12 -1 20v21q0 10 0.5 21t0.5 17h-67v65h73q18 123 84.5 195.5t178.5 72.5z" />
    <glyph glyph-name="afii61248" unicode="&#x2105;" horiz-adv-x="771" 
d="M220 383q-69 0 -115 39.5t-46 126.5q0 61 22 98.5t59.5 54.5t82.5 17q25 0 49 -5.5t41 -12.5l-16 -52q-17 6 -37 10.5t-38 4.5q-96 0 -96 -114q0 -113 94 -113q26 0 48 4.5t40 12.5v-52q-17 -9 -41.5 -14t-46.5 -5zM602 714l-372 -714h-76l373 714h75zM712 163
q0 -81 -40.5 -124.5t-107.5 -43.5q-62 0 -102.5 43.5t-40.5 124.5q0 82 40 125t106 43q61 0 103 -43t42 -125zM488 163q0 -50 17.5 -82t60.5 -32q41 0 59.5 32t18.5 82q0 52 -18.5 83t-59.5 31q-43 0 -60.5 -31t-17.5 -83z" />
    <glyph glyph-name="afii61289" unicode="&#x2113;" horiz-adv-x="489" 
d="M292 58q33 0 57 22.5t28 80.5h52q-4 -82 -39.5 -126.5t-106.5 -44.5q-39 0 -72.5 16.5t-54 54.5t-20.5 103v113q-21 -8 -43.5 -15t-44.5 -13v59q24 7 46 14.5t42 14.5v239q0 40 14 74t44.5 54t80.5 20q55 0 88.5 -38.5t33.5 -108.5q0 -97 -51 -169t-129 -106v-135
q0 -50 18 -79.5t57 -29.5zM330 574q0 92 -55 92q-35 0 -46.5 -25.5t-11.5 -66.5v-208q113 64 113 208z" />
    <glyph glyph-name="afii61352" unicode="&#x2116;" horiz-adv-x="959" 
d="M87 0v714h99l300 -588h4l-1 19t-2.5 49t-2.5 62t-1 58v400h78v-714h-96l-304 590h-4l1 -19.5t3 -50t3 -64t1 -60.5v-396h-78zM771 134q-61 0 -100.5 44t-39.5 126t38 125.5t105 43.5q60 0 100.5 -43.5t40.5 -125.5t-39 -126t-105 -44zM773 192q40 0 58 28.5t18 83.5
q0 56 -18 82.5t-58 26.5q-41 0 -59 -26.5t-18 -82.5q0 -55 18 -83.5t59 -28.5zM649 0v69h245v-69h-245z" />
    <glyph glyph-name="trademark" unicode="&#x2122;" horiz-adv-x="727" 
d="M650 714v-352h-61v204q0 8 1 31.5t2 35.5h-4l-94 -271h-50l-91 271h-3q1 -16 2 -36t1 -26v-209h-57v352h88l89 -271l91 271h86zM266 714v-54h-96v-298h-59v298h-95v54h250z" />
    <glyph glyph-name="uni2126" unicode="&#x2126;" horiz-adv-x="735" 
d="M368 646q-110 0 -162.5 -65.5t-52.5 -179.5q0 -100 34.5 -181t119.5 -148v-72h-272v79h168q-61 49 -102.5 131t-41.5 194q0 98 36 170t105.5 111.5t167.5 39.5q100 0 168.5 -39t104.5 -111t36 -170q0 -113 -41 -195t-101 -131h166v-79h-272v72q86 66 120.5 148t34.5 181
q0 114 -52.5 179.5t-163.5 65.5z" />
    <glyph glyph-name="estimated" unicode="&#x212e;" horiz-adv-x="582" 
d="M290 -17q-79 0 -133 39t-82 102t-28 135t21.5 124t57 86t78.5 50t86 16q70 0 125 -33.5t87 -95.5t32 -147h-380v-174q20 -23 57 -41.5t79 -18.5q69 0 109.5 30t72.5 84l33 -20q-22 -37 -49.5 -68t-67.5 -49.5t-98 -18.5zM428 301v135q-18 20 -54 39t-84 19
q-47 0 -80.5 -17t-55.5 -40v-136h274z" />
    <glyph glyph-name="oneeighth" unicode="&#x215b;" horiz-adv-x="784" 
d="M106 0l407 714h74l-407 -714h-74zM154 286v276q0 26 1 47l2 42q-9 -9 -20 -19.5t-23 -19.5l-50 -39l-34 49l123 92h71v-428h-70zM570 -8q-69 0 -106 32t-37 88q0 41 21 68t51 44q-29 20 -44.5 41.5t-15.5 59.5q0 54 39.5 82.5t91.5 28.5t90 -26.5t38 -81.5
q0 -37 -19.5 -61t-47.5 -40q36 -17 58 -44t22 -68q0 -56 -39 -89.5t-102 -33.5zM571 254q27 11 43.5 27.5t16.5 44.5q0 26 -16.5 40.5t-45.5 14.5t-45.5 -14.5t-16.5 -40.5t18 -43t46 -29zM568 48q39 0 57.5 18t18.5 46q0 29 -21 47.5t-56 32.5l-12 5q-30 -16 -45.5 -36.5
t-15.5 -48.5t18 -46t56 -18z" />
    <glyph glyph-name="threeeighths" unicode="&#x215c;" horiz-adv-x="785" 
d="M140 278q-34 0 -64 6.5t-59 21.5v63q65 -34 124 -34q47 0 69.5 20.5t22.5 55.5q0 36 -26.5 52.5t-74.5 16.5h-54v55h53q47 0 68.5 19.5t21.5 50.5t-18.5 46t-45.5 15q-29 0 -53 -10.5t-50 -27.5l-35 46q29 22 61.5 35.5t76.5 13.5q66 0 100 -31t34 -79q0 -41 -20.5 -66.5
t-48.5 -35.5v-3q37 -8 59 -33t22 -66q0 -58 -40 -94.5t-123 -36.5zM137 0l407 714h74l-407 -714h-74zM582 -8q-69 0 -106.5 32t-37.5 88q0 41 21.5 68t51.5 44q-29 20 -44.5 41.5t-15.5 59.5q0 54 39 82.5t92 28.5q52 0 90 -26.5t38 -81.5q0 -37 -20 -61t-48 -40
q36 -17 58.5 -44t22.5 -68q0 -56 -39.5 -89.5t-101.5 -33.5zM583 254q26 11 43 27.5t17 44.5q0 26 -16.5 40.5t-45.5 14.5q-62 0 -62 -55q0 -26 18 -43t46 -29zM580 48q38 0 56.5 18t18.5 46q0 29 -20.5 47.5t-55.5 32.5l-12 5q-30 -16 -46 -36.5t-16 -48.5t18.5 -46
t56.5 -18z" />
    <glyph glyph-name="fiveeighths" unicode="&#x215d;" horiz-adv-x="785" 
d="M134 0l407 714h74l-407 -714h-74zM151 277q-31 0 -64 6.5t-53 19.5v67q26 -16 57.5 -25.5t56.5 -9.5q42 0 66.5 19.5t24.5 63.5q0 38 -24.5 59t-68.5 21q-24 0 -41 -4t-31 -8l-31 20l15 208h230v-55h-174l-8 -109q11 2 24.5 4t29.5 2q63 0 105.5 -34t42.5 -98
q0 -70 -40 -108.5t-117 -38.5zM582 -8q-70 0 -107 32t-37 88q0 41 21 68t52 44q-29 20 -44.5 41.5t-15.5 59.5q0 54 39 82.5t92 28.5q52 0 90 -26.5t38 -81.5q0 -37 -20 -61t-48 -40q36 -17 58.5 -44t22.5 -68q0 -56 -39.5 -89.5t-101.5 -33.5zM582 254q27 11 44 27.5
t17 44.5q0 26 -16.5 40.5t-45.5 14.5q-63 0 -63 -55q0 -26 18.5 -43t45.5 -29zM580 48q38 0 56.5 18t18.5 46q0 29 -20.5 47.5t-55.5 32.5l-13 5q-29 -16 -45 -36.5t-16 -48.5t18.5 -46t56.5 -18z" />
    <glyph glyph-name="seveneighths" unicode="&#x215e;" horiz-adv-x="785" 
d="M95 0l407 714h73l-407 -714h-73zM92 286l159 368h-207v60h280v-49l-159 -379h-73zM577 -8q-69 0 -106 32t-37 88q0 41 21 68t51 44q-28 20 -44 41.5t-16 59.5q0 54 39 82.5t92 28.5t90.5 -26.5t37.5 -81.5q0 -37 -19.5 -61t-47.5 -40q36 -17 58.5 -44t22.5 -68
q0 -56 -39.5 -89.5t-102.5 -33.5zM578 254q27 11 43.5 27.5t16.5 44.5q0 26 -16.5 40.5t-45.5 14.5t-45.5 -14.5t-16.5 -40.5t18 -43t46 -29zM575 48q39 0 57.5 18t18.5 46q0 29 -21.5 47.5t-55.5 32.5l-12 5q-30 -16 -45.5 -36.5t-15.5 -48.5t18.5 -46t55.5 -18z" />
    <glyph glyph-name="cyrillicbreve" horiz-adv-x="542" 
d="M449 758q-7 -75 -48 -113.5t-133 -38.5q-95 0 -133.5 38t-43.5 114h81q4 -54 26 -72.5t71 -18.5q43 0 68 19.5t30 71.5h82z" />
    <glyph glyph-name="caroncommaaccent" horiz-adv-x="469" 
d="M293 760v-9q-5 -18 -15.5 -45t-24.5 -55.5t-28 -50.5h-48v12q6 19 12 45.5t11.5 53.5t7.5 49h85z" />
    <glyph glyph-name="commaaccent" unicode="&#x326;" 
d="M49 -61v-9q-5 -18 -16 -45.5t-26.5 -56t-32.5 -49.5h-48v12q7 17 15 43.5t14.5 55t8.5 49.5h85z" />
    <glyph glyph-name="commaaccentrotate" horiz-adv-x="470" 
d="M296 766v-12q-8 -17 -15.5 -43.5t-14 -54.5t-9.5 -50h-85v9q5 18 16.5 45t26.5 55.5t32 50.5h49z" />
    <glyph glyph-name="uni2074" unicode="&#x2074;" horiz-adv-x="331" 
d="M323 512h-58v-96h-73v96h-183v52l185 283h71v-275h58v-60zM192 572v93q0 21 1 49t2 52q-5 -11 -20 -35.5t-25 -41.5l-74 -117h116z" />
    <glyph glyph-name="uni2075" unicode="&#x2075;" horiz-adv-x="331" 
d="M283 844v-55h-174l-8 -109q11 2 24.5 4t29.5 2q63 0 105.5 -34t42.5 -98q0 -70 -40 -108.5t-117 -38.5q-31 0 -64 6.5t-53 19.5v67q25 -16 57 -25.5t57 -9.5q42 0 66.5 19.5t24.5 63.5q0 38 -24.5 59t-68.5 21q-24 0 -41.5 -4t-30.5 -8l-31 20l15 208h230z" />
    <glyph glyph-name="uni2077" unicode="&#x2077;" horiz-adv-x="331" 
d="M74 416l159 368h-207v60h280v-49l-159 -379h-73z" />
    <glyph glyph-name="uni2078" unicode="&#x2078;" horiz-adv-x="331" 
d="M166 852q52 0 90 -26.5t38 -81.5q0 -37 -19.5 -61t-47.5 -40q36 -17 58.5 -44t22.5 -68q0 -56 -39.5 -89.5t-102.5 -33.5q-69 0 -106 32t-37 88q0 41 21 68t51 44q-29 20 -44.5 41.5t-15.5 59.5q0 54 39.5 82.5t91.5 28.5zM165 797q-29 0 -45.5 -14.5t-16.5 -40.5
t18.5 -43t45.5 -29q27 11 43.5 27.5t16.5 44.5q0 26 -16.5 40.5t-45.5 14.5zM151 613q-30 -16 -45.5 -36.5t-15.5 -48.5t18 -46t56 -18q39 0 57.5 18t18.5 46q0 29 -21 47.5t-55 32.5z" />
    <glyph glyph-name="uni2000" unicode="&#x2000;" horiz-adv-x="500" 
 />
    <glyph glyph-name="uni2001" unicode="&#x2001;" horiz-adv-x="1000" 
 />
    <glyph glyph-name="uni2002" unicode="&#x2002;" horiz-adv-x="500" 
 />
    <glyph glyph-name="uni2003" unicode="&#x2003;" horiz-adv-x="1000" 
 />
    <glyph glyph-name="uni2004" unicode="&#x2004;" horiz-adv-x="333" 
 />
    <glyph glyph-name="uni2005" unicode="&#x2005;" horiz-adv-x="250" 
 />
    <glyph glyph-name="uni2006" unicode="&#x2006;" horiz-adv-x="167" 
 />
    <glyph glyph-name="uni2007" unicode="&#x2007;" horiz-adv-x="537" 
 />
    <glyph glyph-name="uni2008" unicode="&#x2008;" horiz-adv-x="254" 
 />
    <glyph glyph-name="uni2009" unicode="&#x2009;" horiz-adv-x="188" 
 />
    <glyph glyph-name="uni200A" unicode="&#x200a;" horiz-adv-x="100" 
 />
    <glyph glyph-name="uni200B" unicode="&#x200b;" 
 />
    <glyph glyph-name="uniFEFF" unicode="&#xfeff;" 
 />
    <glyph glyph-name="uniFFFC" unicode="&#xfffc;" horiz-adv-x="940" 
d="M772 687v54h139v-148h-49v94h-90zM593 687v54h125v-54h-125zM413 687v54h125v-54h-125zM234 687v54h124v-54h-124zM39 593v148h139v-54h-88v-94h-51zM911 402h-49v132h49v-132zM90 402h-51v132h51v-132zM397 307q0 -66 -29 -106.5t-91 -40.5t-91 40.5t-29 106.5
q0 67 29 107t91 40t91 -40t29 -107zM685 161q-22 0 -37 5v50q8 -2 15 -3t16 -1q17 0 28.5 8.5t11.5 33.5v196h57v-194q0 -50 -25.5 -72.5t-65.5 -22.5zM436 450h79q49 0 75 -16t26 -57q0 -24 -11 -40t-30 -20v-4q20 -5 34.5 -18.5t14.5 -47.5q0 -39 -25 -61t-68 -22h-95v286
zM215 307q0 -45 15.5 -70.5t46.5 -25.5q32 0 47 25.5t15 70.5t-15 70.5t-47 25.5q-31 0 -46.5 -25.5t-15.5 -70.5zM492 337h30q21 0 29.5 8t8.5 24q0 31 -41 31h-27v-63zM90 210h-51v133h51v-133zM911 210h-49v133h49v-133zM492 289v-75h34q22 0 30.5 10.5t8.5 28.5
q0 16 -8.5 26t-32.5 10h-32zM90 19h-51v132h51v-132zM911 19h-49v132h49v-132zM39 -187v148h51v-95h88v-53h-139zM772 -187v53h90v95h49v-148h-139zM413 -187v53h125v-53h-125zM234 -187v53h124v-53h-124zM593 -187v53h125v-53h-125z" />
    <glyph glyph-name="uniFFFD" unicode="&#xfffd;" horiz-adv-x="940" 
d="M470 760l431 -458l-431 -458l-431 458zM500 179v23q0 25 9.5 39.5t39.5 40.5q40 34 60.5 65t20.5 80q0 67 -43.5 104t-117.5 37q-40 0 -81.5 -14t-73.5 -34l38 -87q31 17 60.5 28t54.5 11q29 0 43 -14t14 -37q0 -29 -12.5 -46t-43.5 -43q-35 -30 -50 -57.5t-15 -66.5v-29
h97zM391 45q0 -35 18.5 -50.5t45.5 -15.5q25 0 44.5 15.5t19.5 50.5q0 37 -19.5 52t-44.5 15q-27 0 -45.5 -15t-18.5 -52z" />
    <glyph glyph-name="uni01F0" unicode="&#x1f0;" horiz-adv-x="246" 
d="M22 -240q-24 0 -42.5 3.5t-31.5 8.5v71q14 -5 29 -7.5t33 -2.5q31 0 50.5 17.5t19.5 66.5v619h87v-616q0 -75 -34.5 -117.5t-110.5 -42.5zM274 766v-13q-18 -19 -41 -45t-44 -53t-33 -49h-90q-12 22 -33 49t-43.5 53t-39.5 45v13h59q25 -17 51.5 -41t49.5 -51
q26 27 52 51t51 41h61z" />
    <glyph glyph-name="uni02BC" unicode="&#x2bc;" horiz-adv-x="175" 
d="M149 714l7 -11q-13 -53 -35.5 -117t-45.5 -117h-64q9 37 18 81t17 86.5t12 77.5h91z" />
    <glyph glyph-name="uni03D1" unicode="&#x3d1;" horiz-adv-x="594" 
d="M276 765q104 0 162 -77t75 -209h66v-73h-60q1 -11 1 -24.5v-28.5q0 -105 -27.5 -187t-85 -129t-145.5 -47q-68 0 -106.5 25.5t-54 66t-15.5 85.5q0 41 6.5 79.5t6.5 63.5q0 22 -8 31t-23 9q-11 0 -22.5 -4t-19.5 -9l-19 62q18 8 41.5 14.5t49.5 6.5q46 0 65 -26t19 -65
q0 -34 -6 -74.5t-6 -85.5q0 -42 21.5 -75t73.5 -33q82 0 124.5 73.5t42.5 221.5q0 11 -0.5 25.5t-1.5 24.5q-117 2 -187.5 30t-101.5 75t-31 105q0 63 40 106t126 43zM273 693q-40 0 -59.5 -22t-19.5 -60q0 -37 22 -66.5t73 -47t136 -18.5q-12 103 -52.5 158.5t-99.5 55.5z
" />
    <glyph glyph-name="uni03D2" unicode="&#x3d2;" horiz-adv-x="542" 
d="M266 357q20 49 42 104.5t43 104t36 78.5q20 38 43.5 57t61.5 19q27 0 45 -8v-70q-11 3 -27 3q-14 0 -26.5 -9t-30.5 -42q-11 -20 -28.5 -56.5t-38.5 -82.5t-41 -95t-36 -95v-265h-90v273l-219 441h97z" />
    <glyph glyph-name="uni03D6" unicode="&#x3d6;" horiz-adv-x="815" 
d="M786 536v-73h-116q24 -59 37 -120.5t13 -120.5q0 -117 -47 -174.5t-135 -57.5q-53 0 -86 23t-49 67h-4q-17 -44 -49.5 -67t-84.5 -23q-89 0 -135.5 57.5t-46.5 174.5q0 59 15.5 121t40.5 120h-128v38l67 35h708zM586 463h-362q-22 -53 -38.5 -115t-16.5 -121
q0 -93 27.5 -128.5t74.5 -35.5q45 0 67 37t22 93v89h83v-89q0 -62 24 -96t65 -34q47 0 74 36t27 128q0 59 -12.5 120t-34.5 116z" />
    <glyph glyph-name="uni1E3E" unicode="&#x1e3e;" horiz-adv-x="856" 
d="M386 0l-216 626h-4q3 -31 5 -83.5t2 -109.5v-433h-82v714h130l203 -585h4l207 585h130v-714h-88v439q0 52 2.5 103t4.5 83h-4l-220 -625h-74zM575 944v-10q-13 -18 -37 -46.5t-51 -57t-50 -46.5h-57v12q14 18 31 44.5t33 54t27 49.5h104z" />
    <glyph glyph-name="uni1E3F" unicode="&#x1e3f;" horiz-adv-x="882" 
d="M636 546q86 0 128 -47t42 -150v-349h-86v345q0 127 -101 127q-72 0 -102.5 -45t-30.5 -131v-296h-87v345q0 127 -101 127q-75 0 -103.5 -50t-28.5 -144v-278h-87v536h70l13 -73h5q23 42 63 62.5t85 20.5q58 0 97 -22t57 -68h6q25 46 68 68t93 22zM600 766v-10
q-13 -18 -37 -46.5t-51 -57t-50 -46.5h-57v12q14 18 31 44.5t33 54t27 49.5h104z" />
    <glyph glyph-name="uni1E00" unicode="&#x1e00;" horiz-adv-x="604" 
d="M511 0l-78 221h-265l-77 -221h-91l260 717h84l259 -717h-92zM407 301l-74 216q-3 8 -9 29t-13 43.5t-10 34.5q-7 -31 -15.5 -60.5t-14.5 -46.5l-74 -216h210zM309 -273q-46 0 -74.5 28t-28.5 78q0 49 28.5 77.5t74.5 28.5q45 0 75.5 -28t30.5 -77q0 -51 -30 -79t-76 -28z
M309 -223q23 0 37.5 15t14.5 41q0 27 -14.5 41.5t-37.5 14.5t-37.5 -14.5t-14.5 -41.5q0 -26 13.5 -41t38.5 -15z" />
    <glyph glyph-name="uni1E01" unicode="&#x1e01;" horiz-adv-x="531" 
d="M272 545q92 0 137.5 -43t45.5 -137v-365h-63l-17 76h-4q-33 -44 -69 -65t-100 -21q-68 0 -113.5 38.5t-45.5 120.5q0 80 59 123.5t182 47.5l85 3v32q0 67 -26.5 93t-75.5 26q-39 0 -75 -12.5t-67 -28.5l-27 66q34 19 79 32.5t95 13.5zM369 262l-73 -3q-92 -4 -127.5 -32
t-35.5 -79q0 -45 25 -66t65 -21q62 0 104 37.5t42 115.5v48zM254 -273q-46 0 -74.5 28t-28.5 78q0 49 28.5 77.5t74.5 28.5q45 0 75.5 -28t30.5 -77q0 -51 -30 -79t-76 -28zM254 -223q23 0 37.5 15t14.5 41q0 27 -14.5 41.5t-37.5 14.5t-37.5 -14.5t-14.5 -41.5
q0 -26 13.5 -41t38.5 -15z" />
    <glyph glyph-name="uni02F3" unicode="&#x2f3;" horiz-adv-x="313" 
d="M155 -273q-46 0 -74.5 28t-28.5 78q0 49 28.5 77.5t74.5 28.5q45 0 75.5 -28t30.5 -77q0 -51 -30 -79t-76 -28zM155 -223q23 0 37.5 15t14.5 41q0 27 -14.5 41.5t-37.5 14.5t-37.5 -14.5t-14.5 -41.5q0 -26 13.5 -41t38.5 -15z" />
    <glyph glyph-name="Ohorn" unicode="&#x1a0;" horiz-adv-x="740" 
d="M677 358q0 -111 -35 -193.5t-103.5 -128.5t-170.5 -46q-106 0 -174.5 46t-102.5 129t-34 194q0 109 34 191.5t103 128.5t175 46q77 0 135.5 -27.5t97.5 -76.5q38 11 48.5 49t10.5 90h93l6 -11q-10 -59 -37.5 -109t-86.5 -73q41 -87 41 -209zM151 358q0 -135 52 -212.5
t165 -77.5t164 77.5t51 212.5q0 134 -50.5 211t-163.5 77q-114 0 -166 -77t-52 -211z" />
    <glyph glyph-name="ohorn" unicode="&#x1a1;" horiz-adv-x="584" 
d="M520 269q0 -133 -64 -206t-173 -73q-67 0 -119.5 32.5t-82.5 95t-30 151.5q0 133 63 205t172 72q50 0 92 -18t73 -51q42 13 52.5 52t10.5 89h92l7 -11q-13 -69 -40.5 -115.5t-84.5 -67.5q15 -32 23.5 -70.5t8.5 -84.5zM141 269q0 -101 34 -153.5t110 -52.5q77 0 111 52.5
t34 153.5t-35 152t-111 51t-109.5 -51t-33.5 -152z" />
    <glyph glyph-name="Uhorn" unicode="&#x1af;" horiz-adv-x="740" 
d="M604 714v-97q44 7 58 45.5t14 97.5h92l6 -11q-8 -47 -25.5 -87.5t-52 -68t-92.5 -38.5v-303q0 -74 -27 -133.5t-83.5 -94t-146.5 -34.5q-129 0 -196 72.5t-67 191.5v460h89v-464q0 -86 43.5 -134t132.5 -48q90 0 128 51.5t38 131.5v463h89z" />
    <glyph glyph-name="uhorn" unicode="&#x1b0;" horiz-adv-x="640" 
d="M666 619l7 -11q-8 -47 -25.5 -89t-51.5 -70.5t-92 -34.5v-414h-70l-13 71h-4q-25 -42 -67.5 -61.5t-90.5 -19.5q-91 0 -138 46.5t-47 148.5v350h88v-344q0 -128 110 -128q82 0 113.5 50t31.5 144v278h87v-59q45 8 58 46.5t13 96.5h91z" />
    <glyph glyph-name="hook" 
d="M-179 730q0 -38 -21.5 -58.5t-54.5 -28.5l-5 -53h-53l-6 85q34 6 53.5 17.5t19.5 34.5q0 24 -17 32t-42 8q-13 0 -26 -1.5t-21 -2.5v52q18 6 54 6q57 0 88 -22.5t31 -68.5z" />
    <glyph glyph-name="uni0400" unicode="&#x400;" horiz-adv-x="523" 
d="M467 0h-376v714h376v-79h-287v-223h270v-78h-270v-255h287v-79zM265 944q11 -22 27 -49.5t33 -54t32 -44.5v-12h-59q-22 18 -49 46.5t-51 57t-36 46.5v10h103z" />
    <glyph glyph-name="uni040D" unicode="&#x40d;" horiz-adv-x="727" 
d="M92 714h83v-392q0 -34 -1 -74.5t-2.5 -75t-3.5 -49.5h4l365 591h100v-714h-83v388q0 36 1.5 78.5t3 77.5t2.5 50h-3l-366 -594h-100v714zM355 944q11 -22 27 -49.5t33 -54t32 -44.5v-12h-59q-22 18 -49 46.5t-51 57t-36 46.5v10h103z" />
    <glyph glyph-name="uni0450" unicode="&#x450;" horiz-adv-x="532" 
d="M275 546q65 0 112 -30t72.5 -84.5t25.5 -127.5v-53h-344q2 -91 43 -138.5t115 -47.5q48 0 85.5 9.5t77.5 27.5v-77q-39 -18 -76.5 -26.5t-90.5 -8.5q-73 0 -127.5 31t-85.5 92t-31 151q0 88 28 151t78.5 97t117.5 34zM275 474q-59 0 -92.5 -40.5t-39.5 -112.5h252
q-1 68 -30 110.5t-90 42.5zM245 766q11 -22 27 -49.5t33 -54t32 -44.5v-12h-59q-22 18 -49 46.5t-51 57t-36 46.5v10h103z" />
    <glyph glyph-name="uni045D" unicode="&#x45d;" horiz-adv-x="609" 
d="M161 536v-327q0 -13 -1 -36.5t-2.5 -48t-2.5 -37.5l268 449h106v-536h-81v316q0 16 0.5 42t1.5 51.5t2 38.5l-265 -448h-108v536h82zM290 766q11 -22 27 -49.5t33 -54t32 -44.5v-12h-59q-22 18 -49 46.5t-51 57t-36 46.5v10h103z" />
    <glyph glyph-name="uni0460" unicode="&#x460;" horiz-adv-x="866" 
d="M223 -5q-52 95 -95.5 213t-71.5 247t-33 259h92q5 -122 29 -237.5t56 -213t61 -166.5h5q6 29 17 67t25 79l89 263q-9 52 -15 106t-7 102h92q3 -84 17.5 -170.5t36.5 -168.5t48.5 -154.5t52.5 -128.5h4q56 119 89 275.5t35 346.5h93q-3 -205 -49 -389.5t-132 -329.5h-80
q-30 52 -58.5 118.5t-53 135t-39.5 127.5l-123 -381h-85z" />
    <glyph glyph-name="uni0461" unicode="&#x461;" horiz-adv-x="749" 
d="M725 537q-6 -146 -48 -278t-124 -259h-80q-29 52 -57 117.5t-45 124.5l-110 -242h-79q-40 67 -76.5 152.5t-61 183t-27.5 201.5h86q5 -95 24 -181t44.5 -157t50.5 -121h3q8 26 22 52.5t26 53.5l68 149q-11 49 -17 102t-8 102h87q3 -81 18.5 -162t39 -157t50.5 -142h4
q49 86 83 204.5t41 256.5h86z" />
    <glyph glyph-name="uni0462" unicode="&#x462;" horiz-adv-x="634" 
d="M150 0v536h-142v76h142v102h90v-102h188v-76h-188v-124h86q98 0 155 -27t81 -73t24 -103q0 -95 -58 -152t-190 -57h-188zM240 76h89q86 0 125.5 33t39.5 100q0 68 -43 96t-136 28h-75v-257z" />
    <glyph glyph-name="uni0463" unicode="&#x463;" horiz-adv-x="599" 
d="M205 644v-108h159v-73h-159v-148h139q206 0 206 -151q0 -75 -49 -119.5t-159 -44.5h-223v463h-111v73h111v108h86zM336 242h-131v-171h133q55 0 90 20t35 68t-32.5 65.5t-94.5 17.5z" />
    <glyph glyph-name="uni0464" unicode="&#x464;" horiz-adv-x="869" 
d="M640 -10q-102 0 -170 42.5t-102 120t-38 180.5h-150v-333h-89v714h89v-302h153q9 94 48.5 164t108 109t166.5 39q52 0 100 -13t85 -33l-34 -76q-33 16 -70.5 29.5t-83.5 13.5q-98 0 -156.5 -60t-71.5 -173h315v-78h-317q5 -126 62 -195.5t167 -69.5q45 0 84.5 8t79.5 20
v-78q-38 -15 -79 -22t-97 -7z" />
    <glyph glyph-name="uni0465" unicode="&#x465;" horiz-adv-x="701" 
d="M530 -10q-66 0 -118 26t-83 81t-36 142h-127v-239h-87v536h87v-223h128q8 82 40.5 133.5t83 75.5t112.5 24q39 0 75.5 -8.5t62.5 -20.5l-25 -72q-25 11 -55 18t-57 7q-70 0 -105.5 -38.5t-42.5 -118.5h237v-74h-238q9 -174 149 -174q41 0 72 9t59 21v-76
q-26 -14 -57 -21.5t-75 -7.5z" />
    <glyph glyph-name="uni0466" unicode="&#x466;" horiz-adv-x="645" 
d="M367 714l278 -714h-93l-125 330h-64v-330h-81v330h-64l-127 -330h-91l278 714h89zM322 626q-4 -16 -11 -39t-16 -48t-16 -45l-32 -87h151l-35 97q-11 28 -22 58t-19 64z" />
    <glyph glyph-name="uni0467" unicode="&#x467;" horiz-adv-x="542" 
d="M323 536l215 -536h-89l-91 235h-49v-235h-78v235h-50l-90 -235h-88l214 536h106zM272 477h-4q-7 -24 -15.5 -47.5t-18.5 -49.5l-26 -73h124l-26 73q-10 28 -20 54t-14 43z" />
    <glyph glyph-name="uni0468" unicode="&#x468;" horiz-adv-x="879" 
d="M602 714l277 -714h-96l-124 333h-63v-333h-80v333h-63l-125 -333h-94l129 333h-183v-333h-89v714h89v-302h215l117 302h90zM556 626q-7 -30 -17.5 -60t-24.5 -65l-31 -90h145l-33 96q-11 31 -21.5 60t-17.5 59z" />
    <glyph glyph-name="uni0469" unicode="&#x469;" horiz-adv-x="741" 
d="M523 536l213 -536h-87l-93 239h-48v-239h-78v239h-47l-93 -239h-88l94 239h-133v-239h-84v536h84v-224h164l89 224h107zM471 477h-3q-6 -19 -15.5 -47.5t-19.5 -54.5l-24 -64h121l-25 70q-11 29 -20 54t-14 42z" />
    <glyph glyph-name="uni046A" unicode="&#x46a;" horiz-adv-x="691" 
d="M618 714v-66l-191 -240q60 -4 95.5 -27t56.5 -63.5t37 -96.5l63 -221h-91l-61 219q-13 47 -27.5 73t-40 36.5t-70.5 10.5v-339h-88v339q-45 0 -70 -10.5t-38.5 -36.5t-26.5 -73l-61 -219h-94l63 222q16 55 36 95t55 63.5t95 27.5l-187 240v66h545zM509 633h-328l164 -215
z" />
    <glyph glyph-name="uni046B" unicode="&#x46b;" horiz-adv-x="600" 
d="M534 536v-51l-150 -173q48 -5 75.5 -24.5t44 -51.5t30.5 -72l59 -164h-86l-58 162q-12 34 -24 53t-31.5 27.5t-53.5 8.5v-251h-80v251q-36 0 -56 -8t-31 -27.5t-24 -53.5l-59 -162h-84l59 164q15 40 30.5 71.5t43 51t76.5 25.5l-151 173v51h470zM425 464h-252l126 -151z
" />
    <glyph glyph-name="uni046C" unicode="&#x46c;" horiz-adv-x="931" 
d="M864 714v-66l-190 -241q60 -4 95.5 -27t56 -63t36.5 -96l64 -221h-88l-63 219q-14 49 -29 75t-40.5 35t-68.5 9v-338h-90v338q-45 0 -70 -11t-39 -36.5t-27 -70.5l-62 -220h-92l66 225q23 80 51 108h-194v-333h-89v714h89v-302h322l-183 236v66h545zM755 633h-327
l164 -216z" />
    <glyph glyph-name="uni046D" unicode="&#x46d;" horiz-adv-x="800" 
d="M736 536v-51l-151 -174q49 -5 76.5 -24.5t44 -51t30.5 -71.5l59 -164h-86l-58 162q-12 33 -24.5 52.5t-32 27.5t-53.5 8v-250h-80v250q-35 0 -54.5 -8t-31.5 -27t-24 -53l-58 -162h-85l58 164q8 24 17 44t20 32h-140v-240h-84v536h84v-223h251l-148 172v51h470zM627 464
h-252l126 -148z" />
    <glyph glyph-name="uni046E" unicode="&#x46e;" horiz-adv-x="555" 
d="M398 853q16 0 28 -2.5t20 -4.5v-57q-6 2 -15 4t-18 2q-22 0 -47 -21t-45 -54q82 -12 125 -59t43 -114q0 -73 -45.5 -116t-118.5 -55v-4q85 -12 132 -55t47 -114q0 -94 -62 -149.5t-202 -60.5q-51 -2 -77.5 -9.5t-36 -20.5t-9.5 -29q0 -22 16 -36t62 -14q41 0 70 1.5
t55.5 3t57.5 1.5q40 0 63 -5.5t36 -13.5v-85q-10 8 -34.5 16.5t-68.5 8.5q-30 0 -55 -1.5t-54 -2.5t-70 -1q-65 0 -101.5 17.5t-51.5 47t-15 64.5q0 60 47.5 94.5t162.5 38.5q92 3 133 35.5t41 100.5q0 69 -56.5 98.5t-150.5 29.5h-93v75h89q100 0 149 35.5t49 95.5
q0 54 -37.5 83t-97.5 29q-56 0 -100.5 -17t-84.5 -44l-42 61q34 25 75 43.5t91 25.5q-24 30 -53.5 62.5t-49.5 54.5v13h63q22 -16 50 -42.5t52 -52.5q18 23 38 46t44 38t52 15z" />
    <glyph glyph-name="uni046F" unicode="&#x46f;" horiz-adv-x="465" 
d="M358 664q16 0 28 -2.5t19 -4.5v-57q-13 5 -32 5q-21 0 -44 -19t-43 -48q56 -14 88 -47.5t32 -85.5q0 -49 -26 -77.5t-70 -41.5v-4q30 -9 56 -24.5t41.5 -41.5t15.5 -66q0 -67 -52.5 -111t-169.5 -46q-48 -1 -71.5 -8t-31.5 -18.5t-8 -26.5q0 -22 16 -33.5t59 -11.5
q50 0 92.5 2.5t76.5 2.5q32 0 49.5 -5.5t25.5 -14.5v-74q-11 10 -31.5 15.5t-41.5 5.5q-32 0 -80 -2.5t-101 -2.5q-57 0 -88 17.5t-43.5 44t-12.5 55.5q0 33 16.5 60.5t55.5 45t106 18.5q68 1 108 21t40 70q0 46 -36.5 67.5t-109.5 21.5h-65v72h55q65 0 104 18.5t39 63.5
q0 38 -29.5 57t-84.5 19q-37 0 -71.5 -8.5t-72.5 -25.5l-30 70q29 13 56.5 21t58.5 13q-19 26 -44 55.5t-44 48.5v13h63q22 -17 47 -41t50 -51q17 23 37.5 45t45 36.5t52.5 14.5z" />
    <glyph glyph-name="uni0470" unicode="&#x470;" horiz-adv-x="761" 
d="M711 714v-235q0 -51 -13.5 -98t-46 -84t-88.5 -58.5t-140 -21.5v-217h-86v217q-85 0 -141 22t-88 59t-45 83.5t-13 96.5v236h88v-234q0 -93 48 -139.5t151 -46.5v420h86v-420q105 0 151.5 46.5t46.5 137.5v236h90z" />
    <glyph glyph-name="uni0471" unicode="&#x471;" horiz-adv-x="721" 
d="M406 759v-694q79 7 126.5 58t47.5 157q0 69 -8 127.5t-23 128.5h86q15 -68 22 -127.5t7 -125.5q0 -103 -35 -165.5t-93.5 -92t-129.5 -34.5v-231h-85v231q-72 3 -127.5 31t-87.5 88t-32 160v266h86v-269q0 -75 22 -118t58.5 -62t80.5 -23v695h85z" />
    <glyph glyph-name="uni0472" unicode="&#x472;" horiz-adv-x="736" 
d="M678 358q0 -111 -35 -193.5t-104 -128.5t-171 -46q-105 0 -174 46t-103 129t-34 194q0 109 34 191.5t103.5 128.5t174.5 46q101 0 170 -45.5t104 -128t35 -193.5zM369 646q-103 0 -155.5 -64.5t-61.5 -178.5h430q-8 114 -59.5 178.5t-153.5 64.5zM368 68q105 0 157 68
t58 189h-431q6 -121 58 -189t158 -68z" />
    <glyph glyph-name="uni0473" unicode="&#x473;" horiz-adv-x="570" 
d="M520 269q0 -133 -64 -206t-173 -73q-67 0 -119.5 32.5t-82.5 95t-30 151.5q0 133 63 205t172 72q68 0 121 -32.5t83 -94t30 -150.5zM284 472q-68 0 -101.5 -40.5t-40.5 -119.5h287q-7 79 -42.5 119.5t-102.5 40.5zM285 63q71 0 105 45t39 131h-288q5 -86 40 -131t104 -45
z" />
    <glyph glyph-name="uni0474" unicode="&#x474;" horiz-adv-x="603" 
d="M581 646q-32 0 -49 -32t-37 -101l-153 -513h-102l-240 714h93l151 -457q16 -49 27 -88t19 -77q8 39 19 83t25 93l75 253q21 71 40 115t46 64t72 20q18 0 34 -3.5t27 -6.5v-74q-11 4 -22.5 7t-24.5 3z" />
    <glyph glyph-name="uni0475" unicode="&#x475;" horiz-adv-x="491" 
d="M469 541q11 0 21 -2t19 -4v-68q-13 5 -32 5q-21 0 -33.5 -20t-25.5 -62l-117 -390h-113l-188 536h91l117 -355q14 -42 23.5 -73.5t11.5 -45.5h3q4 21 11 56.5t18 70.5l66 218q15 52 30.5 81t38 41t59.5 12z" />
    <glyph glyph-name="uni0476" unicode="&#x476;" horiz-adv-x="603" 
d="M581 646q-32 0 -49 -32t-37 -101l-153 -513h-102l-240 714h93l151 -457q16 -49 27 -88t19 -77q8 39 19 83t25 93l75 253q21 71 40 115t46 64t72 20q18 0 34 -3.5t27 -6.5v-74q-11 4 -22.5 7t-24.5 3zM343 944q14 -34 37.5 -77t42.5 -71v-12h-49q-21 18 -47 46.5t-47.5 57
t-31.5 46.5v10h95zM176 944q15 -34 38 -77t43 -71v-12h-50q-21 18 -46.5 46.5t-47.5 57t-32 46.5v10h95z" />
    <glyph glyph-name="uni0477" unicode="&#x477;" horiz-adv-x="491" 
d="M469 541q11 0 21 -2t19 -4v-68q-13 5 -32 5q-21 0 -33.5 -20t-25.5 -62l-117 -390h-113l-188 536h91l117 -355q14 -42 23.5 -73.5t11.5 -45.5h3q4 21 11 56.5t18 70.5l66 218q15 52 30.5 81t38 41t59.5 12zM294 766q14 -34 37.5 -77t42.5 -71v-12h-49q-21 18 -47 46.5
t-47.5 57t-31.5 46.5v10h95zM127 766q15 -34 38 -77t43 -71v-12h-50q-21 18 -46.5 46.5t-47.5 57t-32 46.5v10h95z" />
    <glyph glyph-name="uni0478" unicode="&#x478;" horiz-adv-x="1154" 
d="M631 358q0 -111 -32 -193.5t-96 -128.5t-159 -46q-98 0 -161.5 46t-94.5 129t-31 194q0 109 31 191.5t94.5 128.5t162.5 46q95 0 158.5 -45.5t95.5 -128t32 -193.5zM150 358q0 -135 46.5 -212.5t147.5 -77.5q103 0 148 77.5t45 212.5t-45 211.5t-147 76.5t-148.5 -76.5
t-46.5 -211.5zM668 536h94l110 -307q14 -39 24 -75t16 -70h4q4 25 16 65.5t25 80.5l100 306h93l-216 -610q-27 -76 -70 -121t-116 -45q-23 0 -40 2.5t-29 5.5v70q11 -2 25 -4t30 -2q44 0 71 26t42 69l25 71z" />
    <glyph glyph-name="uni0479" unicode="&#x479;" horiz-adv-x="1035" 
d="M520 269q0 -133 -64 -206t-173 -73q-67 0 -119.5 32.5t-82.5 95t-30 151.5q0 133 63 205t172 72q68 0 121 -32.5t83 -94t30 -150.5zM141 269q0 -95 34.5 -150.5t109.5 -55.5t110 55.5t35 150.5t-35 149t-111 54q-75 0 -109 -54t-34 -149zM552 536h94l107 -305
q14 -41 25 -77t16 -69h3q6 25 17 65.5t25 81.5l101 304h95l-217 -610q-27 -76 -70 -121t-116 -45q-23 0 -40 2.5t-29 5.5v70q10 -2 25 -4t31 -2q43 0 69.5 26t41.5 69l25 71z" />
    <glyph glyph-name="uni047A" unicode="&#x47a;" horiz-adv-x="773" 
d="M387 -59q-26 0 -43.5 12.5t-22.5 41.5q-86 14 -145 63t-89 126t-30 175q0 146 67.5 242.5t196.5 117.5q5 29 22.5 41t43.5 12q25 0 42 -12t24 -41q83 -14 142 -62.5t90 -124.5t31 -174t-31 -174.5t-89.5 -125t-141.5 -63.5q-7 -29 -24.5 -41.5t-42.5 -12.5zM321 75
q8 23 24.5 32.5t41.5 9.5q23 0 39.5 -9.5t25.5 -32.5q84 20 127 93.5t43 189.5q0 115 -43 188.5t-127 92.5q-8 -23 -25 -33t-40 -10q-25 0 -41.5 10t-24.5 32q-85 -20 -128 -92.5t-43 -187.5q0 -116 43 -189.5t128 -93.5z" />
    <glyph glyph-name="uni047B" unicode="&#x47b;" horiz-adv-x="621" 
d="M570 269q0 -116 -53 -186.5t-147 -87.5q-7 -48 -59 -48q-26 0 -40.5 11t-19.5 38q-89 16 -144.5 86t-55.5 187q0 115 53.5 185t148.5 87q3 26 17.5 36.5t40.5 10.5q24 0 39.5 -10.5t19.5 -37.5q90 -17 145 -87t55 -184zM480 269q0 81 -27 131t-83 66q-7 -20 -21 -28.5
t-38 -8.5q-25 0 -39 8.5t-20 29.5q-58 -15 -84.5 -65t-26.5 -133t26.5 -134t85.5 -66q6 20 20 28.5t38 8.5q46 0 58 -36q58 15 84.5 65.5t26.5 133.5z" />
    <glyph glyph-name="uni047C" unicode="&#x47c;" horiz-adv-x="1026" 
d="M336 911v15q0 53 30.5 80t83.5 27q38 0 74.5 -14.5t77.5 -29t92 -14.5h6v-62h-8q-56 0 -100 13.5t-78 27.5t-62 14q-52 0 -52 -57h-64zM441 752v36q59 19 59 46q0 13 -12 17.5t-24.5 11t-12.5 24.5q0 19 13 28.5t35 9.5q28 0 44.5 -17.5t16.5 -45.5q0 -39 -30 -67.5
t-89 -42.5zM320 -10q-88 0 -146.5 47.5t-87.5 132t-29 195.5q0 109 29.5 189.5t84 125t130.5 44.5q36 0 71.5 -12t63.5 -33l-33 -67q-21 16 -45 26.5t-52 10.5q-75 0 -116.5 -76.5t-41.5 -208.5q0 -135 47 -214.5t142 -79.5q28 0 53.5 12t48.5 31v215h89v-215
q23 -20 49 -31.5t56 -11.5q94 0 141.5 79.5t47.5 214.5q0 132 -42 208.5t-118 76.5q-27 0 -51 -10.5t-45 -26.5l-33 67q28 21 63.5 33t71.5 12q76 0 130.5 -44.5t84 -125t29.5 -189.5q0 -111 -29 -195.5t-87.5 -132t-146.5 -47.5q-50 0 -90.5 15.5t-74.5 46.5
q-67 -62 -164 -62z" />
    <glyph glyph-name="uni047D" unicode="&#x47d;" horiz-adv-x="904" 
d="M390 881q38 0 74.5 -14.5t77 -28.5t91.5 -14h7v-63h-8q-57 0 -101 14t-77.5 28t-61.5 14q-52 0 -52 -57h-64v15q0 53 30 79.5t84 26.5zM439 774q28 0 44.5 -17t16.5 -46q0 -40 -30.5 -68.5t-88.5 -41.5v35q58 20 58 48q0 13 -12 17.5t-24 10.5t-12 24q0 38 48 38z
M273 -10q-102 0 -160 71.5t-58 203.5q0 136 54.5 209t148.5 73q32 0 59 -8.5t50 -22.5l-30 -67q-23 11 -42 17.5t-37 6.5q-56 0 -84.5 -53t-28.5 -154q0 -94 36 -148t98 -54q31 0 55 12t50 41v157h87v-156q25 -29 50 -41.5t56 -12.5q63 0 98 54t35 148q0 101 -29 154t-85 53
q-18 0 -37.5 -6.5t-41.5 -17.5l-31 67q23 14 50 22.5t61 8.5q94 0 148.5 -73t54.5 -209q0 -132 -58.5 -203.5t-159.5 -71.5q-53 0 -91.5 20t-63.5 54q-26 -34 -63.5 -54t-90.5 -20z" />
    <glyph glyph-name="uni047E" unicode="&#x47e;" horiz-adv-x="866" 
d="M223 -5q-52 95 -95.5 213t-71.5 247t-33 259h92q5 -122 29 -237.5t56 -213t61 -166.5h5q6 29 17 67t25 79l89 263q-9 52 -15 106t-7 102h92q3 -84 17.5 -170.5t36.5 -168.5t48.5 -154.5t52.5 -128.5h4q56 119 89 275.5t35 346.5h93q-3 -205 -49 -389.5t-132 -329.5h-80
q-30 52 -58.5 118.5t-53 135t-39.5 127.5l-123 -381h-85zM638 883v-16l-38 -84h-16l-22 50h-84l-23 -50h-16l-22 50h-84l-23 -50h-15l-37 84v16h380z" />
    <glyph glyph-name="uni047F" unicode="&#x47f;" horiz-adv-x="749" 
d="M725 537q-6 -146 -48 -278t-124 -259h-80q-29 52 -57 117.5t-45 124.5l-110 -242h-79q-40 67 -76.5 152.5t-61 183t-27.5 201.5h86q5 -95 24 -181t44.5 -157t50.5 -121h3q8 26 22 52.5t26 53.5l68 149q-11 49 -17 102t-8 102h87q3 -81 18.5 -162t39 -157t50.5 -142h4
q49 86 83 204.5t41 256.5h86zM560 706v-16l-38 -84h-16l-22 50h-84l-23 -50h-16l-22 50h-84l-23 -50h-15l-37 84v16h380z" />
    <glyph glyph-name="uni0480" unicode="&#x480;" horiz-adv-x="607" 
d="M387 724q53 0 102.5 -11t89.5 -31l-36 -77q-32 16 -71.5 27.5t-86.5 11.5q-109 0 -171.5 -77t-62.5 -211q0 -131 54.5 -208t177.5 -77q24 0 46.5 2.5t41.5 9.5v-323h-89v230q-116 0 -188 47.5t-105 130t-33 189.5q0 108 39 190.5t113 129.5t179 47z" />
    <glyph glyph-name="uni0481" unicode="&#x481;" horiz-adv-x="465" 
d="M295 546q37 0 75 -8.5t63 -20.5l-26 -73q-25 9 -56 17t-59 8q-77 0 -114 -49t-37 -154t37.5 -153t111.5 -48q32 0 53 6t40 15v-326h-88v230q-118 0 -181 66t-63 209q0 100 31.5 162t86.5 90.5t126 28.5z" />
    <glyph glyph-name="uni0482" unicode="&#x482;" horiz-adv-x="573" 
d="M420 628l56 -34l-85 -155l133 -81l-32 -57l-131 81l-94 -172l132 -82l-31 -57l-132 81l-84 -154l-56 33l83 156l-131 81l31 57l133 -82l92 173l-132 81l32 58l132 -82z" />
    <glyph glyph-name="uni0488" unicode="&#x488;" horiz-adv-x="930" 
d="M364 601q2 43 25.5 69t70.5 26q45 0 70 -26.5t28 -68.5h-37q-3 28 -20.5 35.5t-40.5 7.5q-28 0 -43 -7t-18 -36h-35zM630 462q2 44 25.5 69.5t70.5 25.5q45 0 70 -26.5t28 -68.5h-37q-3 28 -20.5 35.5t-40.5 7.5q-28 0 -43 -7t-18 -36h-35zM101 462q2 44 25.5 69.5
t70.5 25.5q45 0 70 -26.5t27 -68.5h-36q-3 28 -20.5 35.5t-40.5 7.5q-29 0 -44 -7t-17 -36h-35zM19 224q2 44 25.5 69.5t70.5 25.5q45 0 70 -26.5t28 -68.5h-37q-3 28 -20.5 35.5t-40.5 7.5q-29 0 -43.5 -7t-17.5 -36h-35zM717 224q2 44 25.5 69.5t70.5 25.5q45 0 70 -26.5
t28 -68.5h-37q-2 28 -20 35.5t-41 7.5q-28 0 -43 -7t-18 -36h-35zM101 -20q2 44 25.5 69.5t70.5 25.5q45 0 70 -26.5t27 -68.5h-36q-3 28 -20.5 35.5t-40.5 7.5q-29 0 -44 -7t-17 -36h-35zM630 -20q2 44 25.5 69.5t70.5 25.5q45 0 70 -26.5t28 -68.5h-37q-3 28 -20.5 35.5
t-40.5 7.5q-28 0 -43 -7t-18 -36h-35zM364 -156q2 44 25.5 69.5t70.5 25.5q45 0 70 -26.5t28 -68.5h-37q-3 28 -20.5 35.5t-40.5 7.5q-28 0 -43 -7t-18 -36h-35z" />
    <glyph glyph-name="uni0489" unicode="&#x489;" horiz-adv-x="899" 
d="M500 728q-9 -41 -18 -88t-14 -83h-64l-4 7q9 38 24.5 82t31.5 82h44zM180 621q21 -36 46 -76t45 -69l-45 -48l-8 1q-18 34 -36.5 76.5t-32.5 81.5zM758 579l32 -33q-34 -22 -71.5 -48.5t-64.5 -48.5l-46 48l1 8q32 19 72 39t77 35zM19 323q39 -10 83 -19.5t78 -14.5v-68
l-7 -5q-35 10 -76.5 26.5t-77.5 33.5v47zM726 323q35 -10 76.5 -26.5t77.5 -33.5v-47q-39 10 -83 19.5t-78 14.5v68zM672 90l8 -1q18 -34 37 -76.5t32 -81.5l-31 -34q-21 36 -46 76t-45 69zM246 70l45 -48l-1 -8q-32 -20 -72 -39.5t-77 -34.5l-32 33q34 23 71.5 49t65.5 48z
M496 -17l4 -7q-9 -38 -24.5 -82t-31.5 -82h-44q9 41 18 88t14 83h64z" />
    <glyph glyph-name="uni048A" unicode="&#x48a;" horiz-adv-x="748" 
d="M362 771q-94 0 -132.5 37.5t-43.5 114.5h80q4 -54 26 -72.5t72 -18.5q42 0 67.5 19.5t30.5 71.5h82q-6 -75 -48 -113.5t-134 -38.5zM561 -188l74 188h-82v388q0 29 1.5 67t3.5 75.5t3 62.5h-3l-367 -593h-100v714h83v-393q0 -33 -1.5 -71.5t-3 -72.5t-2.5 -55h4l365 592
h99v-635h97l-69 -267h-102z" />
    <glyph glyph-name="uni048B" unicode="&#x48b;" horiz-adv-x="630" 
d="M311 606q-95 0 -133 38t-43 114h80q5 -54 27 -72.5t71 -18.5q42 0 67.5 19.5t30.5 71.5h81q-5 -75 -47 -113.5t-134 -38.5zM472 -185l57 185h-81v317q0 20 0.5 45t1.5 48.5t2 38.5l-266 -449h-107v536h82v-312q0 -32 -2 -69.5t-4 -67.5l268 449h106v-462h91l-60 -259h-88
z" />
    <glyph glyph-name="uni048C" unicode="&#x48c;" horiz-adv-x="581" 
d="M180 714v-90h153v-78h-153v-134h82q101 0 160.5 -26.5t85 -72.5t25.5 -104q0 -98 -62 -153.5t-194 -55.5h-186v546h-69v78h69v90h89zM268 333h-88v-257h92q168 0 168 133q0 68 -45 96t-127 28z" />
    <glyph glyph-name="uni048D" unicode="&#x48d;" horiz-adv-x="560" 
d="M167 760v-119h141v-67h-141v-258h137q106 0 156.5 -38.5t50.5 -113.5t-49 -119.5t-159 -44.5h-224v574h-71v67h71v119h88zM297 242h-130v-171h132q55 0 90 20t35 68t-32.5 65.5t-94.5 17.5z" />
    <glyph glyph-name="uni048E" unicode="&#x48e;" horiz-adv-x="577" 
d="M529 504q0 -57 -23.5 -107t-75.5 -81l52 -75l-49 -43l-66 93q-45 -13 -107 -13h-80v-278h-89v714h187q130 0 190.5 -55t60.5 -155zM180 355h73q19 0 34.5 1t31.5 3l-46 66l53 42l60 -83q25 16 38 44.5t13 71.5q0 69 -41.5 103t-128.5 34h-87v-282z" />
    <glyph glyph-name="uni048F" unicode="&#x48f;" horiz-adv-x="579" 
d="M321 -10q-59 0 -96 23t-59 55h-6q2 -22 4 -45.5t2 -42.5v-220h-87v776h71l13 -73h4q23 35 59 59t96 24q93 0 149.5 -69t56.5 -208q0 -84 -21.5 -142.5t-59.5 -92.5l51 -75l-50 -41l-59 84q-30 -12 -68 -12zM305 472q-75 0 -107 -46t-32 -140v-17q0 -99 30 -152.5
t111 -53.5q19 0 36 6l-55 75l54 41l56 -79q21 26 30.5 67t9.5 97q0 101 -32.5 151.5t-100.5 50.5z" />
    <glyph glyph-name="uni0492" unicode="&#x492;" horiz-adv-x="500" 
d="M479 714v-80h-299v-242h193v-78h-193v-314h-89v314h-69v78h69v322h388z" />
    <glyph glyph-name="uni0493" unicode="&#x493;" horiz-adv-x="412" 
d="M392 536v-74h-227v-161h157v-68h-157v-233h-87v233h-71v68h71v235h314z" />
    <glyph glyph-name="uni0494" unicode="&#x494;" horiz-adv-x="618" 
d="M264 314q-20 0 -45 -2.5t-39 -4.5v-307h-89v714h393v-80h-304v-250q18 3 46 6t54 3q147 0 225 -86t78 -234q0 -109 -32.5 -181t-88.5 -107t-129 -35q-43 0 -73 6t-58 18v80q29 -12 58 -18t62 -6q169 0 169 243q0 119 -59.5 180t-167.5 61z" />
    <glyph glyph-name="uni0495" unicode="&#x495;" horiz-adv-x="506" 
d="M397 536v-74h-231v-157l32 4t33 2q118 0 182.5 -67.5t64.5 -214.5q0 -97 -27.5 -157.5t-74 -88.5t-103.5 -28q-35 0 -62 7.5t-51 21.5v78q21 -13 48.5 -21.5t58.5 -8.5q59 0 90.5 48t31.5 150q0 105 -39.5 154.5t-122.5 49.5q-14 0 -30 -1.5t-31 -5.5v-227h-87v536h318z
" />
    <glyph glyph-name="uni0496" unicode="&#x496;" horiz-adv-x="859" 
d="M799 714l-258 -346l206 -288h94v-268h-85v188h-49l-260 362v-362h-85v362l-260 -362h-101l267 367l-257 347h98l253 -346v346h85v-346l254 346h98z" />
    <glyph glyph-name="uni0497" unicode="&#x497;" horiz-adv-x="759" 
d="M694 536l-207 -260l162 -203h94v-258h-83v185h-47l-216 272v-272h-81v272l-217 -272h-98l224 276l-206 260h94l203 -260v260h81v-260l203 260h94z" />
    <glyph glyph-name="uni0498" unicode="&#x498;" horiz-adv-x="557" 
d="M493 547q0 -73 -43.5 -115.5t-116.5 -54.5v-4q85 -12 129.5 -56.5t44.5 -114.5q0 -94 -67.5 -153t-203.5 -59q-56 0 -106.5 8.5t-92.5 30.5v82q43 -23 96 -35t100 -12q90 0 136 36t46 102q0 68 -55 99t-152 31h-94v75h89q101 0 149.5 35.5t48.5 95.5q0 54 -37 83t-97 29
q-62 0 -104 -17t-82 -44l-42 61q41 31 99 52.5t131 21.5q109 0 166.5 -50t57.5 -127zM271 -116q0 27 -16 55.5t-48 60.5h60q26 -20 50 -50.5t24 -73.5q0 -44 -24 -70t-71 -26q-30 0 -56 8v56q17 -5 41 -5q17 0 28.5 11.5t11.5 33.5z" />
    </font>
</defs>
</svg>
